solid OpenSCAD_Model
  facet normal -0.843608 -0.226044 -0.487062
    outer loop
      vertex 0.0166101 0.0525308 0.0753039
      vertex 0.00346202 0.1016 0.0753039
      vertex 0.0297581 0.1016 0.0297581
    endloop
  endfacet
  facet normal -0.866023 0 -0.500004
    outer loop
      vertex 0.00346202 0.1016 0.0753039
      vertex 0.00346202 21.1074 0.0753039
      vertex 0.0297581 0.1016 0.0297581
    endloop
  endfacet
  facet normal -0.866023 0 -0.500004
    outer loop
      vertex 0.0297581 0.1016 0.0297581
      vertex 0.00346202 21.1074 0.0753039
      vertex 0.0297581 21.1074 0.0297581
    endloop
  endfacet
  facet normal -1 0 0
    outer loop
      vertex 0.00346202 0.1016 0.0753039
      vertex 0.00346202 0.1016 5.5127
      vertex 0.00346202 21.1074 0.0753039
    endloop
  endfacet
  facet normal -1 0 0
    outer loop
      vertex 0.00346202 21.1074 0.0753039
      vertex 0.00346202 0.1016 5.5127
      vertex 0.00346202 21.1074 5.5127
    endloop
  endfacet
  facet normal -0.965926 -0.258819 0
    outer loop
      vertex 0.00346202 0.1016 0.0753039
      vertex 0.0166101 0.0525308 0.0753039
      vertex 0.00346202 0.1016 5.5127
    endloop
  endfacet
  facet normal -0.965926 -0.258819 0
    outer loop
      vertex 0.00346202 0.1016 5.5127
      vertex 0.0166101 0.0525308 0.0753039
      vertex 0.0166101 0.0525308 5.5127
    endloop
  endfacet
  facet normal -0.707107 -0.707107 0
    outer loop
      vertex 0.0166101 0.0525308 5.5127
      vertex 0.0166101 0.0525308 0.0753039
      vertex 0.0525308 0.0166101 0.0753039
    endloop
  endfacet
  facet normal -0.707107 -0.707107 0
    outer loop
      vertex 0.0525308 0.0166101 5.5127
      vertex 0.0166101 0.0525308 5.5127
      vertex 0.0525308 0.0166101 0.0753039
    endloop
  endfacet
  facet normal -0.617564 -0.617564 -0.487062
    outer loop
      vertex 0.0525308 0.0166101 0.0753039
      vertex 0.0166101 0.0525308 0.0753039
      vertex 0.0393832 0.0656788 0.0297581
    endloop
  endfacet
  facet normal -0.617564 -0.617564 -0.487062
    outer loop
      vertex 0.0656788 0.0393832 0.0297581
      vertex 0.0525308 0.0166101 0.0753039
      vertex 0.0393832 0.0656788 0.0297581
    endloop
  endfacet
  facet normal -0.843608 -0.226045 -0.487063
    outer loop
      vertex 0.0393832 0.0656788 0.0297581
      vertex 0.0166101 0.0525308 0.0753039
      vertex 0.0297581 0.1016 0.0297581
    endloop
  endfacet
  facet normal -0.495576 -0.13279 -0.858354
    outer loop
      vertex 0.0393832 0.0656788 0.0297581
      vertex 0.0297581 0.1016 0.0297581
      vertex 0.0788269 0.0884519 0.00346202
    endloop
  endfacet
  facet normal -0.495576 -0.132788 -0.858354
    outer loop
      vertex 0.0788269 0.0884519 0.00346202
      vertex 0.0297581 0.1016 0.0297581
      vertex 0.0753039 0.1016 0.00346202
    endloop
  endfacet
  facet normal -0.500004 0 -0.866023
    outer loop
      vertex 0.0297581 0.1016 0.0297581
      vertex 0.0297581 21.1074 0.0297581
      vertex 0.0753039 0.1016 0.00346202
    endloop
  endfacet
  facet normal -0.500004 0 -0.866023
    outer loop
      vertex 0.0753039 0.1016 0.00346202
      vertex 0.0297581 21.1074 0.0297581
      vertex 0.0753039 21.1074 0.00346202
    endloop
  endfacet
  facet normal -0.495576 0.13279 -0.858354
    outer loop
      vertex 0.0788269 21.1205 0.00346202
      vertex 0.0297581 21.1074 0.0297581
      vertex 0.0393832 21.1433 0.0297581
    endloop
  endfacet
  facet normal -0.843608 0.226045 -0.487063
    outer loop
      vertex 0.0297581 21.1074 0.0297581
      vertex 0.0166101 21.1565 0.0753039
      vertex 0.0393832 21.1433 0.0297581
    endloop
  endfacet
  facet normal -0.843608 0.226044 -0.487062
    outer loop
      vertex 0.0297581 21.1074 0.0297581
      vertex 0.00346202 21.1074 0.0753039
      vertex 0.0166101 21.1565 0.0753039
    endloop
  endfacet
  facet normal -0.495576 0.132788 -0.858354
    outer loop
      vertex 0.0753039 21.1074 0.00346202
      vertex 0.0297581 21.1074 0.0297581
      vertex 0.0788269 21.1205 0.00346202
    endloop
  endfacet
  facet normal -0.965926 0.258819 0
    outer loop
      vertex 0.00346202 21.1074 0.0753039
      vertex 0.00346202 21.1074 5.5127
      vertex 0.0166101 21.1565 0.0753039
    endloop
  endfacet
  facet normal -0.965926 0.258819 0
    outer loop
      vertex 0.0166101 21.1565 0.0753039
      vertex 0.00346202 21.1074 5.5127
      vertex 0.0166101 21.1565 5.5127
    endloop
  endfacet
  facet normal -0.843608 0.226044 0.487062
    outer loop
      vertex 0.0166101 21.1565 5.5127
      vertex 0.00346202 21.1074 5.5127
      vertex 0.0297581 21.1074 5.55824
    endloop
  endfacet
  facet normal -0.866023 0 0.500004
    outer loop
      vertex 0.00346202 0.1016 5.5127
      vertex 0.0297581 0.1016 5.55824
      vertex 0.00346202 21.1074 5.5127
    endloop
  endfacet
  facet normal -0.866023 0 0.500004
    outer loop
      vertex 0.00346202 21.1074 5.5127
      vertex 0.0297581 0.1016 5.55824
      vertex 0.0297581 21.1074 5.55824
    endloop
  endfacet
  facet normal -0.843608 -0.226044 0.487062
    outer loop
      vertex 0.0297581 0.1016 5.55824
      vertex 0.00346202 0.1016 5.5127
      vertex 0.0166101 0.0525308 5.5127
    endloop
  endfacet
  facet normal -0.617564 -0.617564 0.487062
    outer loop
      vertex 0.0393832 0.0656788 5.55824
      vertex 0.0166101 0.0525308 5.5127
      vertex 0.0525308 0.0166101 5.5127
    endloop
  endfacet
  facet normal -0.617564 -0.617564 0.487062
    outer loop
      vertex 0.0656788 0.0393832 5.55824
      vertex 0.0393832 0.0656788 5.55824
      vertex 0.0525308 0.0166101 5.5127
    endloop
  endfacet
  facet normal -0.843608 -0.226045 0.487063
    outer loop
      vertex 0.0297581 0.1016 5.55824
      vertex 0.0166101 0.0525308 5.5127
      vertex 0.0393832 0.0656788 5.55824
    endloop
  endfacet
  facet normal -0.226045 -0.843608 0.487063
    outer loop
      vertex 0.0656788 0.0393832 5.55824
      vertex 0.0525308 0.0166101 5.5127
      vertex 0.1016 0.0297581 5.55824
    endloop
  endfacet
  facet normal -0.226044 -0.843608 0.487062
    outer loop
      vertex 0.1016 0.0297581 5.55824
      vertex 0.0525308 0.0166101 5.5127
      vertex 0.1016 0.00346202 5.5127
    endloop
  endfacet
  facet normal -0.258819 -0.965926 0
    outer loop
      vertex 0.0525308 0.0166101 5.5127
      vertex 0.0525308 0.0166101 0.0753039
      vertex 0.1016 0.00346202 0.0753039
    endloop
  endfacet
  facet normal -0.258819 -0.965926 0
    outer loop
      vertex 0.1016 0.00346202 5.5127
      vertex 0.0525308 0.0166101 5.5127
      vertex 0.1016 0.00346202 0.0753039
    endloop
  endfacet
  facet normal -0.226044 -0.843608 -0.487062
    outer loop
      vertex 0.1016 0.00346202 0.0753039
      vertex 0.0525308 0.0166101 0.0753039
      vertex 0.1016 0.0297581 0.0297581
    endloop
  endfacet
  facet normal -0.226045 -0.843608 -0.487063
    outer loop
      vertex 0.1016 0.0297581 0.0297581
      vertex 0.0525308 0.0166101 0.0753039
      vertex 0.0656788 0.0393832 0.0297581
    endloop
  endfacet
  facet normal -0.362786 -0.362786 -0.858355
    outer loop
      vertex 0.0393832 0.0656788 0.0297581
      vertex 0.0788269 0.0884519 0.00346202
      vertex 0.0656788 0.0393832 0.0297581
    endloop
  endfacet
  facet normal -0.362786 -0.362786 -0.858355
    outer loop
      vertex 0.0656788 0.0393832 0.0297581
      vertex 0.0788269 0.0884519 0.00346202
      vertex 0.0884519 0.0788269 0.00346202
    endloop
  endfacet
  facet normal -0.13279 -0.495576 -0.858354
    outer loop
      vertex 0.1016 0.0297581 0.0297581
      vertex 0.0656788 0.0393832 0.0297581
      vertex 0.0884519 0.0788269 0.00346202
    endloop
  endfacet
  facet normal 0 0 -1
    outer loop
      vertex 0.0753039 0.1016 0.00346202
      vertex 0.0753039 21.1074 0.00346202
      vertex 0.0788269 0.0884519 0.00346202
    endloop
  endfacet
  facet normal 0 0 -1
    outer loop
      vertex 0.0788269 0.0884519 0.00346202
      vertex 0.0753039 21.1074 0.00346202
      vertex 0.0788269 21.1205 0.00346202
    endloop
  endfacet
  facet normal 0 0 -1
    outer loop
      vertex 0.0788269 0.0884519 0.00346202
      vertex 0.0788269 21.1205 0.00346202
      vertex 0.0884519 21.1302 0.00346202
    endloop
  endfacet
  facet normal 0 0 -1
    outer loop
      vertex 0.0788269 0.0884519 0.00346202
      vertex 0.0884519 21.1302 0.00346202
      vertex 0.1016 21.1337 0.00346202
    endloop
  endfacet
  facet normal 0 0 -1
    outer loop
      vertex 1.7018 19.6053 0.00346202
      vertex 0.1016 21.1337 0.00346202
      vertex 15.9004 21.1337 0.00346202
    endloop
  endfacet
  facet normal 0 0 -1
    outer loop
      vertex 14.3983 1.7018 0.00346202
      vertex 15.9267 21.1074 0.00346202
      vertex 15.9267 0.1016 0.00346202
    endloop
  endfacet
  facet normal 0 0 -1
    outer loop
      vertex 0.0788269 0.0884519 0.00346202
      vertex 15.9267 0.1016 0.00346202
      vertex 15.9232 0.0884519 0.00346202
    endloop
  endfacet
  facet normal 0 0 -1
    outer loop
      vertex 0.0788269 0.0884519 0.00346202
      vertex 15.9232 0.0884519 0.00346202
      vertex 15.9135 0.0788269 0.00346202
    endloop
  endfacet
  facet normal 0 0 -1
    outer loop
      vertex 0.0788269 0.0884519 0.00346202
      vertex 15.9135 0.0788269 0.00346202
      vertex 15.9004 0.0753039 0.00346202
    endloop
  endfacet
  facet normal 0 0 -1
    outer loop
      vertex 0.0788269 0.0884519 0.00346202
      vertex 15.9004 0.0753039 0.00346202
      vertex 0.1016 0.0753039 0.00346202
    endloop
  endfacet
  facet normal 0 0 -1
    outer loop
      vertex 0.0788269 0.0884519 0.00346202
      vertex 0.1016 0.0753039 0.00346202
      vertex 0.0884519 0.0788269 0.00346202
    endloop
  endfacet
  facet normal 0 0 -1
    outer loop
      vertex 0.0788269 0.0884519 0.00346202
      vertex 0.1016 21.1337 0.00346202
      vertex 1.60366 6.61157 0.00346202
    endloop
  endfacet
  facet normal 0 0 -1
    outer loop
      vertex 1.7018 19.6053 0.00346202
      vertex 15.9004 21.1337 0.00346202
      vertex 14.3002 19.6053 0.00346202
    endloop
  endfacet
  facet normal 0 0 -1
    outer loop
      vertex 0.0788269 0.0884519 0.00346202
      vertex 1.60366 1.7018 0.00346202
      vertex 1.61681 1.65273 0.00346202
    endloop
  endfacet
  facet normal 0 0 -1
    outer loop
      vertex 0.0788269 0.0884519 0.00346202
      vertex 1.61681 1.65273 0.00346202
      vertex 1.65273 1.61681 0.00346202
    endloop
  endfacet
  facet normal 0 0 -1
    outer loop
      vertex 0.0788269 0.0884519 0.00346202
      vertex 1.65273 1.61681 0.00346202
      vertex 1.7018 1.60366 0.00346202
    endloop
  endfacet
  facet normal 0 0 -1
    outer loop
      vertex 0.0788269 0.0884519 0.00346202
      vertex 1.7018 1.60366 0.00346202
      vertex 15.9267 0.1016 0.00346202
    endloop
  endfacet
  facet normal 0 0 -1
    outer loop
      vertex 14.3983 6.61157 0.00346202
      vertex 15.9267 21.1074 0.00346202
      vertex 14.3983 1.7018 0.00346202
    endloop
  endfacet
  facet normal 0 0 -1
    outer loop
      vertex 14.3002 1.60366 0.00346202
      vertex 14.3493 1.61681 0.00346202
      vertex 15.9267 0.1016 0.00346202
    endloop
  endfacet
  facet normal 0 0 -1
    outer loop
      vertex 14.3493 19.5922 0.00346202
      vertex 15.9004 21.1337 0.00346202
      vertex 14.3852 19.5563 0.00346202
    endloop
  endfacet
  facet normal 0 0 -1
    outer loop
      vertex 14.3493 1.61681 0.00346202
      vertex 14.3852 1.65273 0.00346202
      vertex 15.9267 0.1016 0.00346202
    endloop
  endfacet
  facet normal 0 0 -1
    outer loop
      vertex 14.3852 1.65273 0.00346202
      vertex 14.3983 1.7018 0.00346202
      vertex 15.9267 0.1016 0.00346202
    endloop
  endfacet
  facet normal 0 0 -1
    outer loop
      vertex 14.3983 8.06116 0.00346202
      vertex 15.9267 21.1074 0.00346202
      vertex 14.3983 6.61157 0.00346202
    endloop
  endfacet
  facet normal 0 0 -1
    outer loop
      vertex 1.60366 8.06116 0.00346202
      vertex 0.1016 21.1337 0.00346202
      vertex 1.60366 13.1478 0.00346202
    endloop
  endfacet
  facet normal 0 0 -1
    outer loop
      vertex 14.3983 8.06116 0.00346202
      vertex 1.60366 6.61157 0.00346202
      vertex 1.60366 8.06116 0.00346202
    endloop
  endfacet
  facet normal 0 0 -1
    outer loop
      vertex 1.60366 6.61157 0.00346202
      vertex 0.1016 21.1337 0.00346202
      vertex 1.60366 8.06116 0.00346202
    endloop
  endfacet
  facet normal 0 0 -1
    outer loop
      vertex 14.3983 13.1478 0.00346202
      vertex 15.9267 21.1074 0.00346202
      vertex 14.3983 8.06116 0.00346202
    endloop
  endfacet
  facet normal 0 0 -1
    outer loop
      vertex 14.3983 14.5974 0.00346202
      vertex 15.9267 21.1074 0.00346202
      vertex 14.3983 13.1478 0.00346202
    endloop
  endfacet
  facet normal 0 0 -1
    outer loop
      vertex 1.60366 14.5974 0.00346202
      vertex 0.1016 21.1337 0.00346202
      vertex 1.60366 19.5072 0.00346202
    endloop
  endfacet
  facet normal 0 0 -1
    outer loop
      vertex 1.60366 13.1478 0.00346202
      vertex 0.1016 21.1337 0.00346202
      vertex 1.60366 14.5974 0.00346202
    endloop
  endfacet
  facet normal 0 0 -1
    outer loop
      vertex 1.60366 13.1478 0.00346202
      vertex 14.3983 14.5974 0.00346202
      vertex 14.3983 13.1478 0.00346202
    endloop
  endfacet
  facet normal 0 0 -1
    outer loop
      vertex 14.3002 1.60366 0.00346202
      vertex 15.9267 0.1016 0.00346202
      vertex 1.7018 1.60366 0.00346202
    endloop
  endfacet
  facet normal 0 0 -1
    outer loop
      vertex 14.3983 19.5072 0.00346202
      vertex 14.3852 19.5563 0.00346202
      vertex 15.9004 21.1337 0.00346202
    endloop
  endfacet
  facet normal 0 0 -1
    outer loop
      vertex 14.3493 19.5922 0.00346202
      vertex 14.3002 19.6053 0.00346202
      vertex 15.9004 21.1337 0.00346202
    endloop
  endfacet
  facet normal 0 0 -1
    outer loop
      vertex 1.65273 19.5922 0.00346202
      vertex 0.1016 21.1337 0.00346202
      vertex 1.7018 19.6053 0.00346202
    endloop
  endfacet
  facet normal 0 0 -1
    outer loop
      vertex 1.61681 19.5563 0.00346202
      vertex 0.1016 21.1337 0.00346202
      vertex 1.65273 19.5922 0.00346202
    endloop
  endfacet
  facet normal 0 0 -1
    outer loop
      vertex 1.60366 19.5072 0.00346202
      vertex 0.1016 21.1337 0.00346202
      vertex 1.61681 19.5563 0.00346202
    endloop
  endfacet
  facet normal 0 0 -1
    outer loop
      vertex 14.3983 19.5072 0.00346202
      vertex 15.9004 21.1337 0.00346202
      vertex 15.9135 21.1302 0.00346202
    endloop
  endfacet
  facet normal 0 0 -1
    outer loop
      vertex 14.3983 19.5072 0.00346202
      vertex 15.9135 21.1302 0.00346202
      vertex 15.9232 21.1205 0.00346202
    endloop
  endfacet
  facet normal 0 0 -1
    outer loop
      vertex 14.3983 19.5072 0.00346202
      vertex 15.9232 21.1205 0.00346202
      vertex 15.9267 21.1074 0.00346202
    endloop
  endfacet
  facet normal 0 0 -1
    outer loop
      vertex 14.3983 19.5072 0.00346202
      vertex 15.9267 21.1074 0.00346202
      vertex 14.3983 14.5974 0.00346202
    endloop
  endfacet
  facet normal 0 0 -1
    outer loop
      vertex 14.3983 14.5974 0.00346202
      vertex 1.60366 13.1478 0.00346202
      vertex 1.60366 14.5974 0.00346202
    endloop
  endfacet
  facet normal 0 0 -1
    outer loop
      vertex 1.60366 6.61157 0.00346202
      vertex 14.3983 8.06116 0.00346202
      vertex 14.3983 6.61157 0.00346202
    endloop
  endfacet
  facet normal 0 0 -1
    outer loop
      vertex 1.60366 1.7018 0.00346202
      vertex 0.0788269 0.0884519 0.00346202
      vertex 1.60366 6.61157 0.00346202
    endloop
  endfacet
  facet normal -0.362786 0.362786 -0.858355
    outer loop
      vertex 0.0788269 21.1205 0.00346202
      vertex 0.0656788 21.1696 0.0297581
      vertex 0.0884519 21.1302 0.00346202
    endloop
  endfacet
  facet normal -0.362786 0.362786 -0.858355
    outer loop
      vertex 0.0788269 21.1205 0.00346202
      vertex 0.0393832 21.1433 0.0297581
      vertex 0.0656788 21.1696 0.0297581
    endloop
  endfacet
  facet normal -0.617564 0.617564 -0.487062
    outer loop
      vertex 0.0656788 21.1696 0.0297581
      vertex 0.0393832 21.1433 0.0297581
      vertex 0.0525308 21.1924 0.0753039
    endloop
  endfacet
  facet normal -0.617564 0.617564 -0.487062
    outer loop
      vertex 0.0393832 21.1433 0.0297581
      vertex 0.0166101 21.1565 0.0753039
      vertex 0.0525308 21.1924 0.0753039
    endloop
  endfacet
  facet normal -0.707107 0.707107 0
    outer loop
      vertex 0.0166101 21.1565 0.0753039
      vertex 0.0166101 21.1565 5.5127
      vertex 0.0525308 21.1924 0.0753039
    endloop
  endfacet
  facet normal -0.707107 0.707107 0
    outer loop
      vertex 0.0525308 21.1924 0.0753039
      vertex 0.0166101 21.1565 5.5127
      vertex 0.0525308 21.1924 5.5127
    endloop
  endfacet
  facet normal -0.617564 0.617564 0.487062
    outer loop
      vertex 0.0525308 21.1924 5.5127
      vertex 0.0166101 21.1565 5.5127
      vertex 0.0393832 21.1433 5.55824
    endloop
  endfacet
  facet normal -0.843608 0.226045 0.487063
    outer loop
      vertex 0.0393832 21.1433 5.55824
      vertex 0.0166101 21.1565 5.5127
      vertex 0.0297581 21.1074 5.55824
    endloop
  endfacet
  facet normal -0.495576 0.132788 0.858354
    outer loop
      vertex 0.0788269 21.1205 5.58454
      vertex 0.0297581 21.1074 5.55824
      vertex 0.0753039 21.1074 5.58454
    endloop
  endfacet
  facet normal -0.500004 0 0.866023
    outer loop
      vertex 0.0297581 21.1074 5.55824
      vertex 0.0297581 0.1016 5.55824
      vertex 0.0753039 0.1016 5.58454
    endloop
  endfacet
  facet normal -0.500004 0 0.866023
    outer loop
      vertex 0.0753039 21.1074 5.58454
      vertex 0.0297581 21.1074 5.55824
      vertex 0.0753039 0.1016 5.58454
    endloop
  endfacet
  facet normal -0.495576 0.13279 0.858354
    outer loop
      vertex 0.0393832 21.1433 5.55824
      vertex 0.0297581 21.1074 5.55824
      vertex 0.0788269 21.1205 5.58454
    endloop
  endfacet
  facet normal -0.495576 -0.132788 0.858354
    outer loop
      vertex 0.0753039 0.1016 5.58454
      vertex 0.0297581 0.1016 5.55824
      vertex 0.0788269 0.0884519 5.58454
    endloop
  endfacet
  facet normal -0.495576 -0.13279 0.858354
    outer loop
      vertex 0.0788269 0.0884519 5.58454
      vertex 0.0297581 0.1016 5.55824
      vertex 0.0393832 0.0656788 5.55824
    endloop
  endfacet
  facet normal -0.362786 -0.362786 0.858355
    outer loop
      vertex 0.0788269 0.0884519 5.58454
      vertex 0.0393832 0.0656788 5.55824
      vertex 0.0656788 0.0393832 5.55824
    endloop
  endfacet
  facet normal -0.362786 -0.362786 0.858355
    outer loop
      vertex 0.0884519 0.0788269 5.58454
      vertex 0.0788269 0.0884519 5.58454
      vertex 0.0656788 0.0393832 5.55824
    endloop
  endfacet
  facet normal -0.13279 -0.495576 0.858354
    outer loop
      vertex 0.0884519 0.0788269 5.58454
      vertex 0.0656788 0.0393832 5.55824
      vertex 0.1016 0.0297581 5.55824
    endloop
  endfacet
  facet normal -0.132788 -0.495576 0.858354
    outer loop
      vertex 0.1016 0.0753039 5.58454
      vertex 0.0884519 0.0788269 5.58454
      vertex 0.1016 0.0297581 5.55824
    endloop
  endfacet
  facet normal 0 -0.500004 0.866023
    outer loop
      vertex 0.1016 0.0753039 5.58454
      vertex 0.1016 0.0297581 5.55824
      vertex 15.9004 0.0297581 5.55824
    endloop
  endfacet
  facet normal 0 -0.500004 0.866023
    outer loop
      vertex 15.9004 0.0753039 5.58454
      vertex 0.1016 0.0753039 5.58454
      vertex 15.9004 0.0297581 5.55824
    endloop
  endfacet
  facet normal 0 -0.866023 0.500004
    outer loop
      vertex 0.1016 0.0297581 5.55824
      vertex 0.1016 0.00346202 5.5127
      vertex 15.9004 0.00346202 5.5127
    endloop
  endfacet
  facet normal 0 -0.866023 0.500004
    outer loop
      vertex 15.9004 0.0297581 5.55824
      vertex 0.1016 0.0297581 5.55824
      vertex 15.9004 0.00346202 5.5127
    endloop
  endfacet
  facet normal 0 -1 0
    outer loop
      vertex 0.1016 0.00346202 5.5127
      vertex 0.1016 0.00346202 0.0753039
      vertex 15.9004 0.00346202 0.0753039
    endloop
  endfacet
  facet normal 0 -1 0
    outer loop
      vertex 15.9004 0.00346202 5.5127
      vertex 0.1016 0.00346202 5.5127
      vertex 15.9004 0.00346202 0.0753039
    endloop
  endfacet
  facet normal 0 -0.866023 -0.500004
    outer loop
      vertex 15.9004 0.00346202 0.0753039
      vertex 0.1016 0.00346202 0.0753039
      vertex 0.1016 0.0297581 0.0297581
    endloop
  endfacet
  facet normal 0 -0.866023 -0.500004
    outer loop
      vertex 15.9004 0.0297581 0.0297581
      vertex 15.9004 0.00346202 0.0753039
      vertex 0.1016 0.0297581 0.0297581
    endloop
  endfacet
  facet normal 0 -0.500004 -0.866023
    outer loop
      vertex 0.1016 0.0297581 0.0297581
      vertex 0.1016 0.0753039 0.00346202
      vertex 15.9004 0.0297581 0.0297581
    endloop
  endfacet
  facet normal 0 -0.500004 -0.866023
    outer loop
      vertex 15.9004 0.0297581 0.0297581
      vertex 0.1016 0.0753039 0.00346202
      vertex 15.9004 0.0753039 0.00346202
    endloop
  endfacet
  facet normal -0.132788 -0.495576 -0.858354
    outer loop
      vertex 0.1016 0.0297581 0.0297581
      vertex 0.0884519 0.0788269 0.00346202
      vertex 0.1016 0.0753039 0.00346202
    endloop
  endfacet
  facet normal 0.132788 -0.495576 -0.858354
    outer loop
      vertex 15.9135 0.0788269 0.00346202
      vertex 15.9004 0.0297581 0.0297581
      vertex 15.9004 0.0753039 0.00346202
    endloop
  endfacet
  facet normal 0.362786 -0.362786 -0.858355
    outer loop
      vertex 15.9363 0.0393832 0.0297581
      vertex 15.9135 0.0788269 0.00346202
      vertex 15.9626 0.0656788 0.0297581
    endloop
  endfacet
  facet normal 0.362786 -0.362786 -0.858355
    outer loop
      vertex 15.9626 0.0656788 0.0297581
      vertex 15.9135 0.0788269 0.00346202
      vertex 15.9232 0.0884519 0.00346202
    endloop
  endfacet
  facet normal 0.13279 -0.495576 -0.858354
    outer loop
      vertex 15.9363 0.0393832 0.0297581
      vertex 15.9004 0.0297581 0.0297581
      vertex 15.9135 0.0788269 0.00346202
    endloop
  endfacet
  facet normal 0.495576 -0.13279 -0.858354
    outer loop
      vertex 15.9626 0.0656788 0.0297581
      vertex 15.9232 0.0884519 0.00346202
      vertex 15.9722 0.1016 0.0297581
    endloop
  endfacet
  facet normal 0.495576 -0.132788 -0.858354
    outer loop
      vertex 15.9722 0.1016 0.0297581
      vertex 15.9232 0.0884519 0.00346202
      vertex 15.9267 0.1016 0.00346202
    endloop
  endfacet
  facet normal 0.500004 0 -0.866023
    outer loop
      vertex 15.9267 0.1016 0.00346202
      vertex 15.9267 21.1074 0.00346202
      vertex 15.9722 0.1016 0.0297581
    endloop
  endfacet
  facet normal 0.500004 0 -0.866023
    outer loop
      vertex 15.9722 0.1016 0.0297581
      vertex 15.9267 21.1074 0.00346202
      vertex 15.9722 21.1074 0.0297581
    endloop
  endfacet
  facet normal 0.495576 0.132788 -0.858354
    outer loop
      vertex 15.9267 21.1074 0.00346202
      vertex 15.9232 21.1205 0.00346202
      vertex 15.9722 21.1074 0.0297581
    endloop
  endfacet
  facet normal 0.362786 0.362786 -0.858355
    outer loop
      vertex 15.9232 21.1205 0.00346202
      vertex 15.9135 21.1302 0.00346202
      vertex 15.9363 21.1696 0.0297581
    endloop
  endfacet
  facet normal 0.495576 0.13279 -0.858354
    outer loop
      vertex 15.9722 21.1074 0.0297581
      vertex 15.9232 21.1205 0.00346202
      vertex 15.9626 21.1433 0.0297581
    endloop
  endfacet
  facet normal 0.362786 0.362786 -0.858355
    outer loop
      vertex 15.9626 21.1433 0.0297581
      vertex 15.9232 21.1205 0.00346202
      vertex 15.9363 21.1696 0.0297581
    endloop
  endfacet
  facet normal 0.13279 0.495576 -0.858354
    outer loop
      vertex 15.9135 21.1302 0.00346202
      vertex 15.9004 21.1792 0.0297581
      vertex 15.9363 21.1696 0.0297581
    endloop
  endfacet
  facet normal 0.132788 0.495576 -0.858354
    outer loop
      vertex 15.9135 21.1302 0.00346202
      vertex 15.9004 21.1337 0.00346202
      vertex 15.9004 21.1792 0.0297581
    endloop
  endfacet
  facet normal 0 0.500004 -0.866023
    outer loop
      vertex 0.1016 21.1337 0.00346202
      vertex 0.1016 21.1792 0.0297581
      vertex 15.9004 21.1337 0.00346202
    endloop
  endfacet
  facet normal 0 0.500004 -0.866023
    outer loop
      vertex 15.9004 21.1337 0.00346202
      vertex 0.1016 21.1792 0.0297581
      vertex 15.9004 21.1792 0.0297581
    endloop
  endfacet
  facet normal -0.132788 0.495576 -0.858354
    outer loop
      vertex 0.1016 21.1337 0.00346202
      vertex 0.0884519 21.1302 0.00346202
      vertex 0.1016 21.1792 0.0297581
    endloop
  endfacet
  facet normal -0.13279 0.495576 -0.858354
    outer loop
      vertex 0.0884519 21.1302 0.00346202
      vertex 0.0656788 21.1696 0.0297581
      vertex 0.1016 21.1792 0.0297581
    endloop
  endfacet
  facet normal 1 0 0
    outer loop
      vertex 1.60366 1.7018 5.58454
      vertex 1.60366 6.56602 0.0297581
      vertex 1.60366 6.53973 0.0753039
    endloop
  endfacet
  facet normal 1 0 0
    outer loop
      vertex 1.60366 6.56602 5.55824
      vertex 1.60366 1.7018 5.58454
      vertex 1.60366 6.53973 5.5127
    endloop
  endfacet
  facet normal 1 0 0
    outer loop
      vertex 1.60366 6.53973 5.5127
      vertex 1.60366 1.7018 5.58454
      vertex 1.60366 6.53973 0.0753039
    endloop
  endfacet
  facet normal 1 0 0
    outer loop
      vertex 1.60366 6.61157 0.00346202
      vertex 1.60366 6.56602 0.0297581
      vertex 1.60366 1.7018 0.00346202
    endloop
  endfacet
  facet normal 1 0 0
    outer loop
      vertex 1.60366 6.61157 5.58454
      vertex 1.60366 1.7018 5.58454
      vertex 1.60366 6.56602 5.55824
    endloop
  endfacet
  facet normal 1 0 0
    outer loop
      vertex 1.60366 1.7018 5.58454
      vertex 1.60366 1.7018 0.00346202
      vertex 1.60366 6.56602 0.0297581
    endloop
  endfacet
  facet normal 0 -0.500004 -0.866023
    outer loop
      vertex 1.60366 6.56602 0.0297581
      vertex 1.60366 6.61157 0.00346202
      vertex 14.3983 6.56602 0.0297581
    endloop
  endfacet
  facet normal 0 -0.500004 -0.866023
    outer loop
      vertex 14.3983 6.56602 0.0297581
      vertex 1.60366 6.61157 0.00346202
      vertex 14.3983 6.61157 0.00346202
    endloop
  endfacet
  facet normal -1 0 0
    outer loop
      vertex 14.3983 6.61157 5.58454
      vertex 14.3983 6.56602 5.55824
      vertex 14.3983 1.7018 5.58454
    endloop
  endfacet
  facet normal -1 0 0
    outer loop
      vertex 14.3983 1.7018 5.58454
      vertex 14.3983 6.56602 5.55824
      vertex 14.3983 6.53973 5.5127
    endloop
  endfacet
  facet normal -1 0 0
    outer loop
      vertex 14.3983 6.53973 5.5127
      vertex 14.3983 6.53973 0.0753039
      vertex 14.3983 1.7018 5.58454
    endloop
  endfacet
  facet normal -1 0 0
    outer loop
      vertex 14.3983 6.53973 0.0753039
      vertex 14.3983 6.56602 0.0297581
      vertex 14.3983 1.7018 5.58454
    endloop
  endfacet
  facet normal -1 0 0
    outer loop
      vertex 14.3983 6.56602 0.0297581
      vertex 14.3983 6.61157 0.00346202
      vertex 14.3983 1.7018 0.00346202
    endloop
  endfacet
  facet normal -1 0 0
    outer loop
      vertex 14.3983 6.56602 0.0297581
      vertex 14.3983 1.7018 0.00346202
      vertex 14.3983 1.7018 5.58454
    endloop
  endfacet
  facet normal -0.965926 0.258819 0
    outer loop
      vertex 14.3983 1.7018 5.58454
      vertex 14.3983 1.7018 0.00346202
      vertex 14.3852 1.65273 5.58454
    endloop
  endfacet
  facet normal -0.965926 0.258819 0
    outer loop
      vertex 14.3852 1.65273 5.58454
      vertex 14.3983 1.7018 0.00346202
      vertex 14.3852 1.65273 0.00346202
    endloop
  endfacet
  facet normal -0.707107 0.707107 0
    outer loop
      vertex 14.3852 1.65273 5.58454
      vertex 14.3852 1.65273 0.00346202
      vertex 14.3493 1.61681 5.58454
    endloop
  endfacet
  facet normal -0.707107 0.707107 0
    outer loop
      vertex 14.3493 1.61681 5.58454
      vertex 14.3852 1.65273 0.00346202
      vertex 14.3493 1.61681 0.00346202
    endloop
  endfacet
  facet normal -0.258819 0.965926 0
    outer loop
      vertex 14.3493 1.61681 5.58454
      vertex 14.3493 1.61681 0.00346202
      vertex 14.3002 1.60366 5.58454
    endloop
  endfacet
  facet normal -0.258819 0.965926 0
    outer loop
      vertex 14.3002 1.60366 5.58454
      vertex 14.3493 1.61681 0.00346202
      vertex 14.3002 1.60366 0.00346202
    endloop
  endfacet
  facet normal 0 1 0
    outer loop
      vertex 14.3002 1.60366 5.58454
      vertex 14.3002 1.60366 0.00346202
      vertex 1.7018 1.60366 5.58454
    endloop
  endfacet
  facet normal 0 1 0
    outer loop
      vertex 1.7018 1.60366 5.58454
      vertex 14.3002 1.60366 0.00346202
      vertex 1.7018 1.60366 0.00346202
    endloop
  endfacet
  facet normal 0.258819 0.965926 0
    outer loop
      vertex 1.7018 1.60366 5.58454
      vertex 1.7018 1.60366 0.00346202
      vertex 1.65273 1.61681 5.58454
    endloop
  endfacet
  facet normal 0.258819 0.965926 0
    outer loop
      vertex 1.65273 1.61681 5.58454
      vertex 1.7018 1.60366 0.00346202
      vertex 1.65273 1.61681 0.00346202
    endloop
  endfacet
  facet normal 0.707107 0.707107 0
    outer loop
      vertex 1.65273 1.61681 5.58454
      vertex 1.65273 1.61681 0.00346202
      vertex 1.61681 1.65273 5.58454
    endloop
  endfacet
  facet normal 0.707107 0.707107 0
    outer loop
      vertex 1.61681 1.65273 5.58454
      vertex 1.65273 1.61681 0.00346202
      vertex 1.61681 1.65273 0.00346202
    endloop
  endfacet
  facet normal 0.965926 0.258819 0
    outer loop
      vertex 1.60366 1.7018 5.58454
      vertex 1.61681 1.65273 5.58454
      vertex 1.61681 1.65273 0.00346202
    endloop
  endfacet
  facet normal 0.965926 0.258819 0
    outer loop
      vertex 1.60366 1.7018 0.00346202
      vertex 1.60366 1.7018 5.58454
      vertex 1.61681 1.65273 0.00346202
    endloop
  endfacet
  facet normal 1 0 0
    outer loop
      vertex 1.60366 13.1023 5.55824
      vertex 1.60366 8.06116 5.58454
      vertex 1.60366 13.076 5.5127
    endloop
  endfacet
  facet normal 1 0 0
    outer loop
      vertex 1.60366 13.1478 0.00346202
      vertex 1.60366 13.1023 0.0297581
      vertex 1.60366 8.133 0.0753039
    endloop
  endfacet
  facet normal 1 0 0
    outer loop
      vertex 1.60366 8.10671 0.0297581
      vertex 1.60366 8.06116 0.00346202
      vertex 1.60366 13.1478 0.00346202
    endloop
  endfacet
  facet normal 1 0 0
    outer loop
      vertex 1.60366 13.1478 5.58454
      vertex 1.60366 8.06116 5.58454
      vertex 1.60366 13.1023 5.55824
    endloop
  endfacet
  facet normal 1 0 0
    outer loop
      vertex 1.60366 13.076 5.5127
      vertex 1.60366 8.10671 5.55824
      vertex 1.60366 13.076 0.0753039
    endloop
  endfacet
  facet normal 1 0 0
    outer loop
      vertex 1.60366 13.076 5.5127
      vertex 1.60366 8.06116 5.58454
      vertex 1.60366 8.10671 5.55824
    endloop
  endfacet
  facet normal 1 0 0
    outer loop
      vertex 1.60366 8.10671 5.55824
      vertex 1.60366 8.133 5.5127
      vertex 1.60366 13.076 0.0753039
    endloop
  endfacet
  facet normal 1 0 0
    outer loop
      vertex 1.60366 8.133 0.0753039
      vertex 1.60366 8.10671 0.0297581
      vertex 1.60366 13.1478 0.00346202
    endloop
  endfacet
  facet normal 1 0 0
    outer loop
      vertex 1.60366 8.133 5.5127
      vertex 1.60366 13.1023 0.0297581
      vertex 1.60366 13.076 0.0753039
    endloop
  endfacet
  facet normal 1 0 0
    outer loop
      vertex 1.60366 8.133 5.5127
      vertex 1.60366 8.133 0.0753039
      vertex 1.60366 13.1023 0.0297581
    endloop
  endfacet
  facet normal 0 -0.500004 -0.866023
    outer loop
      vertex 1.60366 13.1023 0.0297581
      vertex 1.60366 13.1478 0.00346202
      vertex 14.3983 13.1023 0.0297581
    endloop
  endfacet
  facet normal 0 -0.500004 -0.866023
    outer loop
      vertex 14.3983 13.1023 0.0297581
      vertex 1.60366 13.1478 0.00346202
      vertex 14.3983 13.1478 0.00346202
    endloop
  endfacet
  facet normal -1 0 0
    outer loop
      vertex 14.3983 13.1478 5.58454
      vertex 14.3983 8.133 5.5127
      vertex 14.3983 8.10671 5.55824
    endloop
  endfacet
  facet normal -1 0 0
    outer loop
      vertex 14.3983 13.1478 5.58454
      vertex 14.3983 8.10671 5.55824
      vertex 14.3983 8.06116 5.58454
    endloop
  endfacet
  facet normal -1 0 0
    outer loop
      vertex 14.3983 13.1023 5.55824
      vertex 14.3983 8.133 5.5127
      vertex 14.3983 13.1478 5.58454
    endloop
  endfacet
  facet normal -1 0 0
    outer loop
      vertex 14.3983 8.133 0.0753039
      vertex 14.3983 8.133 5.5127
      vertex 14.3983 13.1023 5.55824
    endloop
  endfacet
  facet normal -1 0 0
    outer loop
      vertex 14.3983 8.133 0.0753039
      vertex 14.3983 13.1023 5.55824
      vertex 14.3983 13.076 5.5127
    endloop
  endfacet
  facet normal -1 0 0
    outer loop
      vertex 14.3983 13.076 0.0753039
      vertex 14.3983 13.1023 0.0297581
      vertex 14.3983 8.10671 0.0297581
    endloop
  endfacet
  facet normal -1 0 0
    outer loop
      vertex 14.3983 13.1023 0.0297581
      vertex 14.3983 13.1478 0.00346202
      vertex 14.3983 8.10671 0.0297581
    endloop
  endfacet
  facet normal -1 0 0
    outer loop
      vertex 14.3983 13.1478 0.00346202
      vertex 14.3983 8.06116 0.00346202
      vertex 14.3983 8.10671 0.0297581
    endloop
  endfacet
  facet normal -1 0 0
    outer loop
      vertex 14.3983 13.076 0.0753039
      vertex 14.3983 8.10671 0.0297581
      vertex 14.3983 8.133 0.0753039
    endloop
  endfacet
  facet normal -1 0 0
    outer loop
      vertex 14.3983 13.076 0.0753039
      vertex 14.3983 8.133 0.0753039
      vertex 14.3983 13.076 5.5127
    endloop
  endfacet
  facet normal 0 0.500004 -0.866023
    outer loop
      vertex 1.60366 8.06116 0.00346202
      vertex 1.60366 8.10671 0.0297581
      vertex 14.3983 8.06116 0.00346202
    endloop
  endfacet
  facet normal 0 0.500004 -0.866023
    outer loop
      vertex 14.3983 8.06116 0.00346202
      vertex 1.60366 8.10671 0.0297581
      vertex 14.3983 8.10671 0.0297581
    endloop
  endfacet
  facet normal 0.965926 -0.258819 0
    outer loop
      vertex 1.61681 19.5563 0.00346202
      vertex 1.61681 19.5563 5.58454
      vertex 1.60366 19.5072 5.58454
    endloop
  endfacet
  facet normal 0.965926 -0.258819 0
    outer loop
      vertex 1.60366 19.5072 0.00346202
      vertex 1.61681 19.5563 0.00346202
      vertex 1.60366 19.5072 5.58454
    endloop
  endfacet
  facet normal 1 0 0
    outer loop
      vertex 1.60366 14.643 5.55824
      vertex 1.60366 19.5072 5.58454
      vertex 1.60366 14.5974 5.58454
    endloop
  endfacet
  facet normal 1 0 0
    outer loop
      vertex 1.60366 19.5072 0.00346202
      vertex 1.60366 19.5072 5.58454
      vertex 1.60366 14.643 5.55824
    endloop
  endfacet
  facet normal 1 0 0
    outer loop
      vertex 1.60366 19.5072 0.00346202
      vertex 1.60366 14.643 5.55824
      vertex 1.60366 14.6693 5.5127
    endloop
  endfacet
  facet normal 1 0 0
    outer loop
      vertex 1.60366 14.643 0.0297581
      vertex 1.60366 19.5072 0.00346202
      vertex 1.60366 14.6693 0.0753039
    endloop
  endfacet
  facet normal 1 0 0
    outer loop
      vertex 1.60366 14.5974 0.00346202
      vertex 1.60366 19.5072 0.00346202
      vertex 1.60366 14.643 0.0297581
    endloop
  endfacet
  facet normal 1 0 0
    outer loop
      vertex 1.60366 14.6693 5.5127
      vertex 1.60366 14.6693 0.0753039
      vertex 1.60366 19.5072 0.00346202
    endloop
  endfacet
  facet normal 0.707107 -0.707107 0
    outer loop
      vertex 1.65273 19.5922 0.00346202
      vertex 1.65273 19.5922 5.58454
      vertex 1.61681 19.5563 5.58454
    endloop
  endfacet
  facet normal 0.707107 -0.707107 0
    outer loop
      vertex 1.61681 19.5563 0.00346202
      vertex 1.65273 19.5922 0.00346202
      vertex 1.61681 19.5563 5.58454
    endloop
  endfacet
  facet normal 0.258819 -0.965926 0
    outer loop
      vertex 1.7018 19.6053 0.00346202
      vertex 1.7018 19.6053 5.58454
      vertex 1.65273 19.5922 5.58454
    endloop
  endfacet
  facet normal 0.258819 -0.965926 0
    outer loop
      vertex 1.65273 19.5922 0.00346202
      vertex 1.7018 19.6053 0.00346202
      vertex 1.65273 19.5922 5.58454
    endloop
  endfacet
  facet normal 0 -1 0
    outer loop
      vertex 14.3002 19.6053 0.00346202
      vertex 14.3002 19.6053 5.58454
      vertex 1.7018 19.6053 5.58454
    endloop
  endfacet
  facet normal 0 -1 0
    outer loop
      vertex 1.7018 19.6053 0.00346202
      vertex 14.3002 19.6053 0.00346202
      vertex 1.7018 19.6053 5.58454
    endloop
  endfacet
  facet normal -0.258819 -0.965926 0
    outer loop
      vertex 14.3493 19.5922 0.00346202
      vertex 14.3493 19.5922 5.58454
      vertex 14.3002 19.6053 5.58454
    endloop
  endfacet
  facet normal -0.258819 -0.965926 0
    outer loop
      vertex 14.3002 19.6053 0.00346202
      vertex 14.3493 19.5922 0.00346202
      vertex 14.3002 19.6053 5.58454
    endloop
  endfacet
  facet normal -0.707107 -0.707107 0
    outer loop
      vertex 14.3852 19.5563 0.00346202
      vertex 14.3852 19.5563 5.58454
      vertex 14.3493 19.5922 5.58454
    endloop
  endfacet
  facet normal -0.707107 -0.707107 0
    outer loop
      vertex 14.3493 19.5922 0.00346202
      vertex 14.3852 19.5563 0.00346202
      vertex 14.3493 19.5922 5.58454
    endloop
  endfacet
  facet normal -0.965926 -0.258819 0
    outer loop
      vertex 14.3983 19.5072 5.58454
      vertex 14.3852 19.5563 5.58454
      vertex 14.3983 19.5072 0.00346202
    endloop
  endfacet
  facet normal -0.965926 -0.258819 0
    outer loop
      vertex 14.3983 19.5072 0.00346202
      vertex 14.3852 19.5563 5.58454
      vertex 14.3852 19.5563 0.00346202
    endloop
  endfacet
  facet normal -1 0 0
    outer loop
      vertex 14.3983 14.6693 0.0753039
      vertex 14.3983 19.5072 5.58454
      vertex 14.3983 14.643 0.0297581
    endloop
  endfacet
  facet normal -1 0 0
    outer loop
      vertex 14.3983 19.5072 0.00346202
      vertex 14.3983 14.5974 0.00346202
      vertex 14.3983 14.643 0.0297581
    endloop
  endfacet
  facet normal -1 0 0
    outer loop
      vertex 14.3983 19.5072 5.58454
      vertex 14.3983 14.6693 5.5127
      vertex 14.3983 14.643 5.55824
    endloop
  endfacet
  facet normal -1 0 0
    outer loop
      vertex 14.3983 19.5072 5.58454
      vertex 14.3983 14.643 5.55824
      vertex 14.3983 14.5974 5.58454
    endloop
  endfacet
  facet normal -1 0 0
    outer loop
      vertex 14.3983 14.6693 0.0753039
      vertex 14.3983 14.6693 5.5127
      vertex 14.3983 19.5072 5.58454
    endloop
  endfacet
  facet normal -1 0 0
    outer loop
      vertex 14.3983 19.5072 5.58454
      vertex 14.3983 19.5072 0.00346202
      vertex 14.3983 14.643 0.0297581
    endloop
  endfacet
  facet normal 0 0.500004 -0.866023
    outer loop
      vertex 1.60366 14.5974 0.00346202
      vertex 1.60366 14.643 0.0297581
      vertex 14.3983 14.5974 0.00346202
    endloop
  endfacet
  facet normal 0 0.500004 -0.866023
    outer loop
      vertex 14.3983 14.5974 0.00346202
      vertex 1.60366 14.643 0.0297581
      vertex 14.3983 14.643 0.0297581
    endloop
  endfacet
  facet normal -0.226045 0.843608 -0.487063
    outer loop
      vertex 0.0656788 21.1696 0.0297581
      vertex 0.0525308 21.1924 0.0753039
      vertex 0.1016 21.1792 0.0297581
    endloop
  endfacet
  facet normal -0.226044 0.843608 -0.487062
    outer loop
      vertex 0.1016 21.1792 0.0297581
      vertex 0.0525308 21.1924 0.0753039
      vertex 0.1016 21.2055 0.0753039
    endloop
  endfacet
  facet normal -0.258819 0.965926 0
    outer loop
      vertex 0.0525308 21.1924 0.0753039
      vertex 0.0525308 21.1924 5.5127
      vertex 0.1016 21.2055 0.0753039
    endloop
  endfacet
  facet normal -0.258819 0.965926 0
    outer loop
      vertex 0.1016 21.2055 0.0753039
      vertex 0.0525308 21.1924 5.5127
      vertex 0.1016 21.2055 5.5127
    endloop
  endfacet
  facet normal -0.617564 0.617564 0.487062
    outer loop
      vertex 0.0525308 21.1924 5.5127
      vertex 0.0393832 21.1433 5.55824
      vertex 0.0656788 21.1696 5.55824
    endloop
  endfacet
  facet normal -0.226044 0.843608 0.487062
    outer loop
      vertex 0.1016 21.2055 5.5127
      vertex 0.0525308 21.1924 5.5127
      vertex 0.1016 21.1792 5.55824
    endloop
  endfacet
  facet normal -0.226045 0.843608 0.487063
    outer loop
      vertex 0.1016 21.1792 5.55824
      vertex 0.0525308 21.1924 5.5127
      vertex 0.0656788 21.1696 5.55824
    endloop
  endfacet
  facet normal -0.362786 0.362786 0.858355
    outer loop
      vertex 0.0656788 21.1696 5.55824
      vertex 0.0393832 21.1433 5.55824
      vertex 0.0788269 21.1205 5.58454
    endloop
  endfacet
  facet normal -0.362786 0.362786 0.858355
    outer loop
      vertex 0.0884519 21.1302 5.58454
      vertex 0.0656788 21.1696 5.55824
      vertex 0.0788269 21.1205 5.58454
    endloop
  endfacet
  facet normal 0 0 1
    outer loop
      vertex 0.0753039 21.1074 5.58454
      vertex 0.0753039 0.1016 5.58454
      vertex 0.0788269 0.0884519 5.58454
    endloop
  endfacet
  facet normal 0 0 1
    outer loop
      vertex 0.1016 0.0753039 5.58454
      vertex 0.0753039 21.1074 5.58454
      vertex 0.0884519 0.0788269 5.58454
    endloop
  endfacet
  facet normal 0 0 1
    outer loop
      vertex 0.0884519 0.0788269 5.58454
      vertex 0.0753039 21.1074 5.58454
      vertex 0.0788269 0.0884519 5.58454
    endloop
  endfacet
  facet normal 0 0 1
    outer loop
      vertex 1.60366 1.7018 5.58454
      vertex 0.0753039 21.1074 5.58454
      vertex 0.1016 0.0753039 5.58454
    endloop
  endfacet
  facet normal 0 0 1
    outer loop
      vertex 14.3002 1.60366 5.58454
      vertex 1.7018 1.60366 5.58454
      vertex 15.9004 0.0753039 5.58454
    endloop
  endfacet
  facet normal 0 0 1
    outer loop
      vertex 15.9232 21.1205 5.58454
      vertex 0.0753039 21.1074 5.58454
      vertex 15.9267 21.1074 5.58454
    endloop
  endfacet
  facet normal 0 0 1
    outer loop
      vertex 15.9135 21.1302 5.58454
      vertex 0.0753039 21.1074 5.58454
      vertex 15.9232 21.1205 5.58454
    endloop
  endfacet
  facet normal 0 0 1
    outer loop
      vertex 15.9004 21.1337 5.58454
      vertex 0.0753039 21.1074 5.58454
      vertex 15.9135 21.1302 5.58454
    endloop
  endfacet
  facet normal 0 0 1
    outer loop
      vertex 0.1016 21.1337 5.58454
      vertex 0.0753039 21.1074 5.58454
      vertex 15.9004 21.1337 5.58454
    endloop
  endfacet
  facet normal 0 0 1
    outer loop
      vertex 0.0884519 21.1302 5.58454
      vertex 0.0753039 21.1074 5.58454
      vertex 0.1016 21.1337 5.58454
    endloop
  endfacet
  facet normal 0 0 1
    outer loop
      vertex 0.0788269 21.1205 5.58454
      vertex 0.0753039 21.1074 5.58454
      vertex 0.0884519 21.1302 5.58454
    endloop
  endfacet
  facet normal 0 0 1
    outer loop
      vertex 1.61681 1.65273 5.58454
      vertex 1.60366 1.7018 5.58454
      vertex 0.1016 0.0753039 5.58454
    endloop
  endfacet
  facet normal 0 0 1
    outer loop
      vertex 1.60366 6.61157 5.58454
      vertex 0.0753039 21.1074 5.58454
      vertex 1.60366 1.7018 5.58454
    endloop
  endfacet
  facet normal 0 0 1
    outer loop
      vertex 1.60366 8.06116 5.58454
      vertex 0.0753039 21.1074 5.58454
      vertex 1.60366 6.61157 5.58454
    endloop
  endfacet
  facet normal 0 0 1
    outer loop
      vertex 15.9267 21.1074 5.58454
      vertex 14.3983 6.61157 5.58454
      vertex 15.9267 0.1016 5.58454
    endloop
  endfacet
  facet normal 0 0 1
    outer loop
      vertex 14.3983 8.06116 5.58454
      vertex 1.60366 8.06116 5.58454
      vertex 14.3983 6.61157 5.58454
    endloop
  endfacet
  facet normal 0 0 1
    outer loop
      vertex 15.9004 0.0753039 5.58454
      vertex 14.3983 1.7018 5.58454
      vertex 14.3852 1.65273 5.58454
    endloop
  endfacet
  facet normal 0 0 1
    outer loop
      vertex 15.9004 0.0753039 5.58454
      vertex 14.3852 1.65273 5.58454
      vertex 14.3493 1.61681 5.58454
    endloop
  endfacet
  facet normal 0 0 1
    outer loop
      vertex 15.9004 0.0753039 5.58454
      vertex 14.3493 1.61681 5.58454
      vertex 14.3002 1.60366 5.58454
    endloop
  endfacet
  facet normal 0 0 1
    outer loop
      vertex 15.9004 0.0753039 5.58454
      vertex 1.7018 1.60366 5.58454
      vertex 0.1016 0.0753039 5.58454
    endloop
  endfacet
  facet normal 0 0 1
    outer loop
      vertex 1.60366 19.5072 5.58454
      vertex 1.61681 19.5563 5.58454
      vertex 0.0753039 21.1074 5.58454
    endloop
  endfacet
  facet normal 0 0 1
    outer loop
      vertex 1.7018 1.60366 5.58454
      vertex 1.65273 1.61681 5.58454
      vertex 0.1016 0.0753039 5.58454
    endloop
  endfacet
  facet normal 0 0 1
    outer loop
      vertex 1.65273 1.61681 5.58454
      vertex 1.61681 1.65273 5.58454
      vertex 0.1016 0.0753039 5.58454
    endloop
  endfacet
  facet normal 0 0 1
    outer loop
      vertex 1.60366 13.1478 5.58454
      vertex 0.0753039 21.1074 5.58454
      vertex 1.60366 8.06116 5.58454
    endloop
  endfacet
  facet normal 0 0 1
    outer loop
      vertex 14.3983 14.5974 5.58454
      vertex 1.60366 14.5974 5.58454
      vertex 1.60366 13.1478 5.58454
    endloop
  endfacet
  facet normal 0 0 1
    outer loop
      vertex 1.60366 14.5974 5.58454
      vertex 0.0753039 21.1074 5.58454
      vertex 1.60366 13.1478 5.58454
    endloop
  endfacet
  facet normal 0 0 1
    outer loop
      vertex 15.9267 21.1074 5.58454
      vertex 14.3983 13.1478 5.58454
      vertex 14.3983 8.06116 5.58454
    endloop
  endfacet
  facet normal 0 0 1
    outer loop
      vertex 15.9267 21.1074 5.58454
      vertex 14.3983 8.06116 5.58454
      vertex 14.3983 6.61157 5.58454
    endloop
  endfacet
  facet normal 0 0 1
    outer loop
      vertex 14.3983 14.5974 5.58454
      vertex 1.60366 13.1478 5.58454
      vertex 14.3983 13.1478 5.58454
    endloop
  endfacet
  facet normal 0 0 1
    outer loop
      vertex 1.65273 19.5922 5.58454
      vertex 0.0753039 21.1074 5.58454
      vertex 1.61681 19.5563 5.58454
    endloop
  endfacet
  facet normal 0 0 1
    outer loop
      vertex 1.7018 19.6053 5.58454
      vertex 0.0753039 21.1074 5.58454
      vertex 1.65273 19.5922 5.58454
    endloop
  endfacet
  facet normal 0 0 1
    outer loop
      vertex 1.7018 19.6053 5.58454
      vertex 14.3002 19.6053 5.58454
      vertex 0.0753039 21.1074 5.58454
    endloop
  endfacet
  facet normal 0 0 1
    outer loop
      vertex 15.9267 21.1074 5.58454
      vertex 0.0753039 21.1074 5.58454
      vertex 14.3002 19.6053 5.58454
    endloop
  endfacet
  facet normal 0 0 1
    outer loop
      vertex 15.9267 21.1074 5.58454
      vertex 14.3002 19.6053 5.58454
      vertex 14.3493 19.5922 5.58454
    endloop
  endfacet
  facet normal 0 0 1
    outer loop
      vertex 15.9267 21.1074 5.58454
      vertex 14.3493 19.5922 5.58454
      vertex 14.3852 19.5563 5.58454
    endloop
  endfacet
  facet normal 0 0 1
    outer loop
      vertex 15.9267 21.1074 5.58454
      vertex 14.3983 19.5072 5.58454
      vertex 14.3983 14.5974 5.58454
    endloop
  endfacet
  facet normal 0 0 1
    outer loop
      vertex 15.9267 21.1074 5.58454
      vertex 14.3852 19.5563 5.58454
      vertex 14.3983 19.5072 5.58454
    endloop
  endfacet
  facet normal 0 0 1
    outer loop
      vertex 15.9267 21.1074 5.58454
      vertex 14.3983 14.5974 5.58454
      vertex 14.3983 13.1478 5.58454
    endloop
  endfacet
  facet normal 0 0 1
    outer loop
      vertex 14.3983 6.61157 5.58454
      vertex 15.9232 0.0884519 5.58454
      vertex 15.9267 0.1016 5.58454
    endloop
  endfacet
  facet normal 0 0 1
    outer loop
      vertex 14.3983 6.61157 5.58454
      vertex 15.9135 0.0788269 5.58454
      vertex 15.9232 0.0884519 5.58454
    endloop
  endfacet
  facet normal 0 0 1
    outer loop
      vertex 14.3983 6.61157 5.58454
      vertex 15.9004 0.0753039 5.58454
      vertex 15.9135 0.0788269 5.58454
    endloop
  endfacet
  facet normal 0 0 1
    outer loop
      vertex 14.3983 6.61157 5.58454
      vertex 14.3983 1.7018 5.58454
      vertex 15.9004 0.0753039 5.58454
    endloop
  endfacet
  facet normal 0 0 1
    outer loop
      vertex 1.60366 14.5974 5.58454
      vertex 1.60366 19.5072 5.58454
      vertex 0.0753039 21.1074 5.58454
    endloop
  endfacet
  facet normal 0 0 1
    outer loop
      vertex 1.60366 6.61157 5.58454
      vertex 14.3983 6.61157 5.58454
      vertex 1.60366 8.06116 5.58454
    endloop
  endfacet
  facet normal 0.132788 -0.495576 0.858354
    outer loop
      vertex 15.9004 0.0753039 5.58454
      vertex 15.9004 0.0297581 5.55824
      vertex 15.9135 0.0788269 5.58454
    endloop
  endfacet
  facet normal 0.13279 -0.495576 0.858354
    outer loop
      vertex 15.9135 0.0788269 5.58454
      vertex 15.9004 0.0297581 5.55824
      vertex 15.9363 0.0393832 5.55824
    endloop
  endfacet
  facet normal 0.226045 -0.843608 0.487063
    outer loop
      vertex 15.9363 0.0393832 5.55824
      vertex 15.9004 0.0297581 5.55824
      vertex 15.9495 0.0166101 5.5127
    endloop
  endfacet
  facet normal 0.226044 -0.843608 0.487062
    outer loop
      vertex 15.9004 0.0297581 5.55824
      vertex 15.9004 0.00346202 5.5127
      vertex 15.9495 0.0166101 5.5127
    endloop
  endfacet
  facet normal 0.258819 -0.965926 0
    outer loop
      vertex 15.9004 0.00346202 5.5127
      vertex 15.9004 0.00346202 0.0753039
      vertex 15.9495 0.0166101 0.0753039
    endloop
  endfacet
  facet normal 0.258819 -0.965926 0
    outer loop
      vertex 15.9495 0.0166101 5.5127
      vertex 15.9004 0.00346202 5.5127
      vertex 15.9495 0.0166101 0.0753039
    endloop
  endfacet
  facet normal 0.226044 -0.843608 -0.487062
    outer loop
      vertex 15.9495 0.0166101 0.0753039
      vertex 15.9004 0.00346202 0.0753039
      vertex 15.9004 0.0297581 0.0297581
    endloop
  endfacet
  facet normal 0.226045 -0.843608 -0.487063
    outer loop
      vertex 15.9495 0.0166101 0.0753039
      vertex 15.9004 0.0297581 0.0297581
      vertex 15.9363 0.0393832 0.0297581
    endloop
  endfacet
  facet normal 0.617564 -0.617564 -0.487062
    outer loop
      vertex 15.9495 0.0166101 0.0753039
      vertex 15.9363 0.0393832 0.0297581
      vertex 15.9854 0.0525308 0.0753039
    endloop
  endfacet
  facet normal 0.617564 -0.617564 -0.487062
    outer loop
      vertex 15.9854 0.0525308 0.0753039
      vertex 15.9363 0.0393832 0.0297581
      vertex 15.9626 0.0656788 0.0297581
    endloop
  endfacet
  facet normal 0.843608 -0.226045 -0.487063
    outer loop
      vertex 15.9854 0.0525308 0.0753039
      vertex 15.9626 0.0656788 0.0297581
      vertex 15.9722 0.1016 0.0297581
    endloop
  endfacet
  facet normal 0.843608 -0.226044 -0.487062
    outer loop
      vertex 15.9854 0.0525308 0.0753039
      vertex 15.9722 0.1016 0.0297581
      vertex 15.9985 0.1016 0.0753039
    endloop
  endfacet
  facet normal 0.866023 0 -0.500004
    outer loop
      vertex 15.9985 0.1016 0.0753039
      vertex 15.9722 0.1016 0.0297581
      vertex 15.9722 21.1074 0.0297581
    endloop
  endfacet
  facet normal 0.866023 0 -0.500004
    outer loop
      vertex 15.9985 21.1074 0.0753039
      vertex 15.9985 0.1016 0.0753039
      vertex 15.9722 21.1074 0.0297581
    endloop
  endfacet
  facet normal 0.843608 0.226044 -0.487062
    outer loop
      vertex 15.9985 21.1074 0.0753039
      vertex 15.9722 21.1074 0.0297581
      vertex 15.9854 21.1565 0.0753039
    endloop
  endfacet
  facet normal 0.843608 0.226045 -0.487063
    outer loop
      vertex 15.9722 21.1074 0.0297581
      vertex 15.9626 21.1433 0.0297581
      vertex 15.9854 21.1565 0.0753039
    endloop
  endfacet
  facet normal 0.617564 0.617564 -0.487062
    outer loop
      vertex 15.9626 21.1433 0.0297581
      vertex 15.9363 21.1696 0.0297581
      vertex 15.9495 21.1924 0.0753039
    endloop
  endfacet
  facet normal 0.226045 0.843608 -0.487063
    outer loop
      vertex 15.9363 21.1696 0.0297581
      vertex 15.9004 21.1792 0.0297581
      vertex 15.9495 21.1924 0.0753039
    endloop
  endfacet
  facet normal 0.617564 0.617564 -0.487062
    outer loop
      vertex 15.9626 21.1433 0.0297581
      vertex 15.9495 21.1924 0.0753039
      vertex 15.9854 21.1565 0.0753039
    endloop
  endfacet
  facet normal 0.226044 0.843608 -0.487062
    outer loop
      vertex 15.9495 21.1924 0.0753039
      vertex 15.9004 21.1792 0.0297581
      vertex 15.9004 21.2055 0.0753039
    endloop
  endfacet
  facet normal 0 0.866023 -0.500004
    outer loop
      vertex 0.1016 21.1792 0.0297581
      vertex 0.1016 21.2055 0.0753039
      vertex 15.9004 21.1792 0.0297581
    endloop
  endfacet
  facet normal 0 0.866023 -0.500004
    outer loop
      vertex 15.9004 21.1792 0.0297581
      vertex 0.1016 21.2055 0.0753039
      vertex 15.9004 21.2055 0.0753039
    endloop
  endfacet
  facet normal 0 -0.500004 0.866023
    outer loop
      vertex 1.60366 6.61157 5.58454
      vertex 1.60366 6.56602 5.55824
      vertex 14.3983 6.56602 5.55824
    endloop
  endfacet
  facet normal 0 -0.500004 0.866023
    outer loop
      vertex 14.3983 6.61157 5.58454
      vertex 1.60366 6.61157 5.58454
      vertex 14.3983 6.56602 5.55824
    endloop
  endfacet
  facet normal 0 -0.866023 0.500004
    outer loop
      vertex 1.60366 6.56602 5.55824
      vertex 1.60366 6.53973 5.5127
      vertex 14.3983 6.53973 5.5127
    endloop
  endfacet
  facet normal 0 -0.866023 0.500004
    outer loop
      vertex 14.3983 6.56602 5.55824
      vertex 1.60366 6.56602 5.55824
      vertex 14.3983 6.53973 5.5127
    endloop
  endfacet
  facet normal 0 -1 0
    outer loop
      vertex 1.60366 6.53973 5.5127
      vertex 1.60366 6.53973 0.0753039
      vertex 14.3983 6.53973 0.0753039
    endloop
  endfacet
  facet normal 0 -1 0
    outer loop
      vertex 14.3983 6.53973 5.5127
      vertex 1.60366 6.53973 5.5127
      vertex 14.3983 6.53973 0.0753039
    endloop
  endfacet
  facet normal 0 -0.866023 -0.500004
    outer loop
      vertex 14.3983 6.53973 0.0753039
      vertex 1.60366 6.53973 0.0753039
      vertex 1.60366 6.56602 0.0297581
    endloop
  endfacet
  facet normal 0 -0.866023 -0.500004
    outer loop
      vertex 14.3983 6.56602 0.0297581
      vertex 14.3983 6.53973 0.0753039
      vertex 1.60366 6.56602 0.0297581
    endloop
  endfacet
  facet normal 0 0.866023 -0.500004
    outer loop
      vertex 1.60366 8.10671 0.0297581
      vertex 1.60366 8.133 0.0753039
      vertex 14.3983 8.10671 0.0297581
    endloop
  endfacet
  facet normal 0 0.866023 -0.500004
    outer loop
      vertex 14.3983 8.10671 0.0297581
      vertex 1.60366 8.133 0.0753039
      vertex 14.3983 8.133 0.0753039
    endloop
  endfacet
  facet normal 0 1 0
    outer loop
      vertex 1.60366 8.133 0.0753039
      vertex 1.60366 8.133 5.5127
      vertex 14.3983 8.133 0.0753039
    endloop
  endfacet
  facet normal 0 1 0
    outer loop
      vertex 14.3983 8.133 0.0753039
      vertex 1.60366 8.133 5.5127
      vertex 14.3983 8.133 5.5127
    endloop
  endfacet
  facet normal 0 0.866023 0.500004
    outer loop
      vertex 1.60366 8.10671 5.55824
      vertex 14.3983 8.10671 5.55824
      vertex 1.60366 8.133 5.5127
    endloop
  endfacet
  facet normal 0 0.866023 0.500004
    outer loop
      vertex 1.60366 8.133 5.5127
      vertex 14.3983 8.10671 5.55824
      vertex 14.3983 8.133 5.5127
    endloop
  endfacet
  facet normal 0 0.500004 0.866023
    outer loop
      vertex 1.60366 8.10671 5.55824
      vertex 1.60366 8.06116 5.58454
      vertex 14.3983 8.06116 5.58454
    endloop
  endfacet
  facet normal 0 0.500004 0.866023
    outer loop
      vertex 14.3983 8.10671 5.55824
      vertex 1.60366 8.10671 5.55824
      vertex 14.3983 8.06116 5.58454
    endloop
  endfacet
  facet normal 0 -0.500004 0.866023
    outer loop
      vertex 1.60366 13.1478 5.58454
      vertex 1.60366 13.1023 5.55824
      vertex 14.3983 13.1023 5.55824
    endloop
  endfacet
  facet normal 0 -0.500004 0.866023
    outer loop
      vertex 14.3983 13.1478 5.58454
      vertex 1.60366 13.1478 5.58454
      vertex 14.3983 13.1023 5.55824
    endloop
  endfacet
  facet normal 0 -0.866023 0.500004
    outer loop
      vertex 1.60366 13.1023 5.55824
      vertex 1.60366 13.076 5.5127
      vertex 14.3983 13.076 5.5127
    endloop
  endfacet
  facet normal 0 -0.866023 0.500004
    outer loop
      vertex 14.3983 13.1023 5.55824
      vertex 1.60366 13.1023 5.55824
      vertex 14.3983 13.076 5.5127
    endloop
  endfacet
  facet normal 0 -1 0
    outer loop
      vertex 1.60366 13.076 5.5127
      vertex 1.60366 13.076 0.0753039
      vertex 14.3983 13.076 0.0753039
    endloop
  endfacet
  facet normal 0 -1 0
    outer loop
      vertex 14.3983 13.076 5.5127
      vertex 1.60366 13.076 5.5127
      vertex 14.3983 13.076 0.0753039
    endloop
  endfacet
  facet normal 0 -0.866023 -0.500004
    outer loop
      vertex 14.3983 13.076 0.0753039
      vertex 1.60366 13.076 0.0753039
      vertex 1.60366 13.1023 0.0297581
    endloop
  endfacet
  facet normal 0 -0.866023 -0.500004
    outer loop
      vertex 14.3983 13.1023 0.0297581
      vertex 14.3983 13.076 0.0753039
      vertex 1.60366 13.1023 0.0297581
    endloop
  endfacet
  facet normal 0 0.866023 -0.500004
    outer loop
      vertex 1.60366 14.643 0.0297581
      vertex 1.60366 14.6693 0.0753039
      vertex 14.3983 14.643 0.0297581
    endloop
  endfacet
  facet normal 0 0.866023 -0.500004
    outer loop
      vertex 14.3983 14.643 0.0297581
      vertex 1.60366 14.6693 0.0753039
      vertex 14.3983 14.6693 0.0753039
    endloop
  endfacet
  facet normal 0 1 0
    outer loop
      vertex 1.60366 14.6693 0.0753039
      vertex 1.60366 14.6693 5.5127
      vertex 14.3983 14.6693 0.0753039
    endloop
  endfacet
  facet normal 0 1 0
    outer loop
      vertex 14.3983 14.6693 0.0753039
      vertex 1.60366 14.6693 5.5127
      vertex 14.3983 14.6693 5.5127
    endloop
  endfacet
  facet normal 0 0.866023 0.500004
    outer loop
      vertex 1.60366 14.643 5.55824
      vertex 14.3983 14.643 5.55824
      vertex 1.60366 14.6693 5.5127
    endloop
  endfacet
  facet normal 0 0.866023 0.500004
    outer loop
      vertex 1.60366 14.6693 5.5127
      vertex 14.3983 14.643 5.55824
      vertex 14.3983 14.6693 5.5127
    endloop
  endfacet
  facet normal 0 0.500004 0.866023
    outer loop
      vertex 1.60366 14.643 5.55824
      vertex 1.60366 14.5974 5.58454
      vertex 14.3983 14.5974 5.58454
    endloop
  endfacet
  facet normal 0 0.500004 0.866023
    outer loop
      vertex 14.3983 14.643 5.55824
      vertex 1.60366 14.643 5.55824
      vertex 14.3983 14.5974 5.58454
    endloop
  endfacet
  facet normal 0 1 0
    outer loop
      vertex 0.1016 21.2055 0.0753039
      vertex 0.1016 21.2055 5.5127
      vertex 15.9004 21.2055 0.0753039
    endloop
  endfacet
  facet normal 0 1 0
    outer loop
      vertex 15.9004 21.2055 0.0753039
      vertex 0.1016 21.2055 5.5127
      vertex 15.9004 21.2055 5.5127
    endloop
  endfacet
  facet normal 0 0.866023 0.500004
    outer loop
      vertex 0.1016 21.1792 5.55824
      vertex 15.9004 21.1792 5.55824
      vertex 0.1016 21.2055 5.5127
    endloop
  endfacet
  facet normal 0 0.866023 0.500004
    outer loop
      vertex 0.1016 21.2055 5.5127
      vertex 15.9004 21.1792 5.55824
      vertex 15.9004 21.2055 5.5127
    endloop
  endfacet
  facet normal -0.13279 0.495576 0.858354
    outer loop
      vertex 0.1016 21.1792 5.55824
      vertex 0.0656788 21.1696 5.55824
      vertex 0.0884519 21.1302 5.58454
    endloop
  endfacet
  facet normal 0 0.500004 0.866023
    outer loop
      vertex 0.1016 21.1792 5.55824
      vertex 0.1016 21.1337 5.58454
      vertex 15.9004 21.1337 5.58454
    endloop
  endfacet
  facet normal 0 0.500004 0.866023
    outer loop
      vertex 15.9004 21.1792 5.55824
      vertex 0.1016 21.1792 5.55824
      vertex 15.9004 21.1337 5.58454
    endloop
  endfacet
  facet normal -0.132788 0.495576 0.858354
    outer loop
      vertex 0.1016 21.1792 5.55824
      vertex 0.0884519 21.1302 5.58454
      vertex 0.1016 21.1337 5.58454
    endloop
  endfacet
  facet normal 0.132788 0.495576 0.858354
    outer loop
      vertex 15.9004 21.1792 5.55824
      vertex 15.9004 21.1337 5.58454
      vertex 15.9135 21.1302 5.58454
    endloop
  endfacet
  facet normal 0.362786 0.362786 0.858355
    outer loop
      vertex 15.9363 21.1696 5.55824
      vertex 15.9135 21.1302 5.58454
      vertex 15.9232 21.1205 5.58454
    endloop
  endfacet
  facet normal 0.13279 0.495576 0.858354
    outer loop
      vertex 15.9363 21.1696 5.55824
      vertex 15.9004 21.1792 5.55824
      vertex 15.9135 21.1302 5.58454
    endloop
  endfacet
  facet normal 0.495576 0.13279 0.858354
    outer loop
      vertex 15.9626 21.1433 5.55824
      vertex 15.9232 21.1205 5.58454
      vertex 15.9722 21.1074 5.55824
    endloop
  endfacet
  facet normal 0.495576 0.132788 0.858354
    outer loop
      vertex 15.9722 21.1074 5.55824
      vertex 15.9232 21.1205 5.58454
      vertex 15.9267 21.1074 5.58454
    endloop
  endfacet
  facet normal 0.362786 0.362786 0.858355
    outer loop
      vertex 15.9363 21.1696 5.55824
      vertex 15.9232 21.1205 5.58454
      vertex 15.9626 21.1433 5.55824
    endloop
  endfacet
  facet normal 0.500004 0 0.866023
    outer loop
      vertex 15.9267 21.1074 5.58454
      vertex 15.9267 0.1016 5.58454
      vertex 15.9722 0.1016 5.55824
    endloop
  endfacet
  facet normal 0.500004 0 0.866023
    outer loop
      vertex 15.9722 21.1074 5.55824
      vertex 15.9267 21.1074 5.58454
      vertex 15.9722 0.1016 5.55824
    endloop
  endfacet
  facet normal 0.495576 -0.132788 0.858354
    outer loop
      vertex 15.9267 0.1016 5.58454
      vertex 15.9232 0.0884519 5.58454
      vertex 15.9722 0.1016 5.55824
    endloop
  endfacet
  facet normal 0.362786 -0.362786 0.858355
    outer loop
      vertex 15.9232 0.0884519 5.58454
      vertex 15.9135 0.0788269 5.58454
      vertex 15.9626 0.0656788 5.55824
    endloop
  endfacet
  facet normal 0.495576 -0.13279 0.858354
    outer loop
      vertex 15.9722 0.1016 5.55824
      vertex 15.9232 0.0884519 5.58454
      vertex 15.9626 0.0656788 5.55824
    endloop
  endfacet
  facet normal 0.362786 -0.362786 0.858355
    outer loop
      vertex 15.9626 0.0656788 5.55824
      vertex 15.9135 0.0788269 5.58454
      vertex 15.9363 0.0393832 5.55824
    endloop
  endfacet
  facet normal 0.617564 -0.617564 0.487062
    outer loop
      vertex 15.9626 0.0656788 5.55824
      vertex 15.9363 0.0393832 5.55824
      vertex 15.9854 0.0525308 5.5127
    endloop
  endfacet
  facet normal 0.617564 -0.617564 0.487062
    outer loop
      vertex 15.9854 0.0525308 5.5127
      vertex 15.9363 0.0393832 5.55824
      vertex 15.9495 0.0166101 5.5127
    endloop
  endfacet
  facet normal 0.707107 -0.707107 0
    outer loop
      vertex 15.9495 0.0166101 5.5127
      vertex 15.9495 0.0166101 0.0753039
      vertex 15.9854 0.0525308 0.0753039
    endloop
  endfacet
  facet normal 0.707107 -0.707107 0
    outer loop
      vertex 15.9854 0.0525308 5.5127
      vertex 15.9495 0.0166101 5.5127
      vertex 15.9854 0.0525308 0.0753039
    endloop
  endfacet
  facet normal 0.965926 -0.258819 0
    outer loop
      vertex 15.9854 0.0525308 5.5127
      vertex 15.9854 0.0525308 0.0753039
      vertex 15.9985 0.1016 0.0753039
    endloop
  endfacet
  facet normal 0.965926 -0.258819 0
    outer loop
      vertex 15.9985 0.1016 5.5127
      vertex 15.9854 0.0525308 5.5127
      vertex 15.9985 0.1016 0.0753039
    endloop
  endfacet
  facet normal 1 0 0
    outer loop
      vertex 15.9985 0.1016 5.5127
      vertex 15.9985 0.1016 0.0753039
      vertex 15.9985 21.1074 0.0753039
    endloop
  endfacet
  facet normal 1 0 0
    outer loop
      vertex 15.9985 21.1074 5.5127
      vertex 15.9985 0.1016 5.5127
      vertex 15.9985 21.1074 0.0753039
    endloop
  endfacet
  facet normal 0.965926 0.258819 0
    outer loop
      vertex 15.9985 21.1074 0.0753039
      vertex 15.9854 21.1565 0.0753039
      vertex 15.9854 21.1565 5.5127
    endloop
  endfacet
  facet normal 0.965926 0.258819 0
    outer loop
      vertex 15.9985 21.1074 5.5127
      vertex 15.9985 21.1074 0.0753039
      vertex 15.9854 21.1565 5.5127
    endloop
  endfacet
  facet normal 0.707107 0.707107 0
    outer loop
      vertex 15.9854 21.1565 0.0753039
      vertex 15.9495 21.1924 0.0753039
      vertex 15.9495 21.1924 5.5127
    endloop
  endfacet
  facet normal 0.707107 0.707107 0
    outer loop
      vertex 15.9854 21.1565 5.5127
      vertex 15.9854 21.1565 0.0753039
      vertex 15.9495 21.1924 5.5127
    endloop
  endfacet
  facet normal 0.258819 0.965926 0
    outer loop
      vertex 15.9004 21.2055 0.0753039
      vertex 15.9004 21.2055 5.5127
      vertex 15.9495 21.1924 0.0753039
    endloop
  endfacet
  facet normal 0.258819 0.965926 0
    outer loop
      vertex 15.9495 21.1924 0.0753039
      vertex 15.9004 21.2055 5.5127
      vertex 15.9495 21.1924 5.5127
    endloop
  endfacet
  facet normal 0.226044 0.843608 0.487062
    outer loop
      vertex 15.9004 21.2055 5.5127
      vertex 15.9004 21.1792 5.55824
      vertex 15.9495 21.1924 5.5127
    endloop
  endfacet
  facet normal 0.226045 0.843608 0.487063
    outer loop
      vertex 15.9495 21.1924 5.5127
      vertex 15.9004 21.1792 5.55824
      vertex 15.9363 21.1696 5.55824
    endloop
  endfacet
  facet normal 0.617564 0.617564 0.487062
    outer loop
      vertex 15.9495 21.1924 5.5127
      vertex 15.9363 21.1696 5.55824
      vertex 15.9626 21.1433 5.55824
    endloop
  endfacet
  facet normal 0.617564 0.617564 0.487062
    outer loop
      vertex 15.9854 21.1565 5.5127
      vertex 15.9495 21.1924 5.5127
      vertex 15.9626 21.1433 5.55824
    endloop
  endfacet
  facet normal 0.843608 0.226045 0.487063
    outer loop
      vertex 15.9854 21.1565 5.5127
      vertex 15.9626 21.1433 5.55824
      vertex 15.9722 21.1074 5.55824
    endloop
  endfacet
  facet normal 0.843608 0.226044 0.487062
    outer loop
      vertex 15.9854 21.1565 5.5127
      vertex 15.9722 21.1074 5.55824
      vertex 15.9985 21.1074 5.5127
    endloop
  endfacet
  facet normal 0.866023 0 0.500004
    outer loop
      vertex 15.9722 21.1074 5.55824
      vertex 15.9722 0.1016 5.55824
      vertex 15.9985 0.1016 5.5127
    endloop
  endfacet
  facet normal 0.866023 0 0.500004
    outer loop
      vertex 15.9985 21.1074 5.5127
      vertex 15.9722 21.1074 5.55824
      vertex 15.9985 0.1016 5.5127
    endloop
  endfacet
  facet normal 0.843608 -0.226045 0.487063
    outer loop
      vertex 15.9722 0.1016 5.55824
      vertex 15.9626 0.0656788 5.55824
      vertex 15.9854 0.0525308 5.5127
    endloop
  endfacet
  facet normal 0.843608 -0.226044 0.487062
    outer loop
      vertex 15.9985 0.1016 5.5127
      vertex 15.9722 0.1016 5.55824
      vertex 15.9854 0.0525308 5.5127
    endloop
  endfacet
endsolid OpenSCAD_Model
