solid OpenSCAD_Model
  facet normal -0.843608 0.487062 -0.226044
    outer loop
      vertex 0.0166101 -0.0753039 0.0525308
      vertex 0.00346202 -0.0753039 0.1016
      vertex 0.0297581 -0.0297581 0.1016
    endloop
  endfacet
  facet normal -0.866023 0.500004 -3.06164e-17
    outer loop
      vertex 0.00346202 -0.0753039 0.1016
      vertex 0.00346202 -0.0753039 8.5344
      vertex 0.0297581 -0.0297581 0.1016
    endloop
  endfacet
  facet normal -0.866023 0.500004 -3.06164e-17
    outer loop
      vertex 0.0297581 -0.0297581 0.1016
      vertex 0.00346202 -0.0753039 8.5344
      vertex 0.0297581 -0.0297581 8.5344
    endloop
  endfacet
  facet normal -1 0 0
    outer loop
      vertex 0.00346202 -0.0753039 0.1016
      vertex 0.00346202 -20.2447 0.1016
      vertex 0.00346202 -0.0753039 8.5344
    endloop
  endfacet
  facet normal -1 0 0
    outer loop
      vertex 0.00346202 -0.0753039 8.5344
      vertex 0.00346202 -20.2447 0.1016
      vertex 0.00346202 -20.2447 8.5344
    endloop
  endfacet
  facet normal -0.965926 -1.58481e-17 -0.258819
    outer loop
      vertex 0.00346202 -0.0753039 0.1016
      vertex 0.0166101 -0.0753039 0.0525308
      vertex 0.00346202 -20.2447 0.1016
    endloop
  endfacet
  facet normal -0.965926 -1.58481e-17 -0.258819
    outer loop
      vertex 0.00346202 -20.2447 0.1016
      vertex 0.0166101 -0.0753039 0.0525308
      vertex 0.0166101 -20.2447 0.0525308
    endloop
  endfacet
  facet normal -0.843608 0.487063 -0.226045
    outer loop
      vertex 0.0393832 -0.0297581 0.0656788
      vertex 0.0166101 -0.0753039 0.0525308
      vertex 0.0297581 -0.0297581 0.1016
    endloop
  endfacet
  facet normal -0.707107 -4.32978e-17 -0.707107
    outer loop
      vertex 0.0166101 -0.0753039 0.0525308
      vertex 0.0525308 -0.0753039 0.0166101
      vertex 0.0166101 -20.2447 0.0525308
    endloop
  endfacet
  facet normal -0.707107 -4.32978e-17 -0.707107
    outer loop
      vertex 0.0166101 -20.2447 0.0525308
      vertex 0.0525308 -0.0753039 0.0166101
      vertex 0.0525308 -20.2447 0.0166101
    endloop
  endfacet
  facet normal -0.617564 0.487062 -0.617564
    outer loop
      vertex 0.0166101 -0.0753039 0.0525308
      vertex 0.0393832 -0.0297581 0.0656788
      vertex 0.0525308 -0.0753039 0.0166101
    endloop
  endfacet
  facet normal -0.617564 0.487062 -0.617564
    outer loop
      vertex 0.0525308 -0.0753039 0.0166101
      vertex 0.0393832 -0.0297581 0.0656788
      vertex 0.0656788 -0.0297581 0.0393832
    endloop
  endfacet
  facet normal -0.495576 0.858354 -0.132788
    outer loop
      vertex 0.0788269 -0.00346202 0.0884519
      vertex 0.0297581 -0.0297581 0.1016
      vertex 0.0753039 -0.00346202 0.1016
    endloop
  endfacet
  facet normal -0.500004 0.866023 -5.30286e-17
    outer loop
      vertex 0.0297581 -0.0297581 0.1016
      vertex 0.0297581 -0.0297581 8.5344
      vertex 0.0753039 -0.00346202 0.1016
    endloop
  endfacet
  facet normal -0.500004 0.866023 -5.30286e-17
    outer loop
      vertex 0.0753039 -0.00346202 0.1016
      vertex 0.0297581 -0.0297581 8.5344
      vertex 0.0753039 -0.00346202 8.5344
    endloop
  endfacet
  facet normal -0.495576 0.858354 -0.13279
    outer loop
      vertex 0.0393832 -0.0297581 0.0656788
      vertex 0.0297581 -0.0297581 0.1016
      vertex 0.0788269 -0.00346202 0.0884519
    endloop
  endfacet
  facet normal -0.495576 0.858354 0.132788
    outer loop
      vertex 0.0753039 -0.00346202 8.5344
      vertex 0.0297581 -0.0297581 8.5344
      vertex 0.0788269 -0.00346202 8.54755
    endloop
  endfacet
  facet normal -0.495576 0.858354 0.13279
    outer loop
      vertex 0.0788269 -0.00346202 8.54755
      vertex 0.0297581 -0.0297581 8.5344
      vertex 0.0393832 -0.0297581 8.57032
    endloop
  endfacet
  facet normal -0.843608 0.487063 0.226045
    outer loop
      vertex 0.0297581 -0.0297581 8.5344
      vertex 0.0166101 -0.0753039 8.58347
      vertex 0.0393832 -0.0297581 8.57032
    endloop
  endfacet
  facet normal -0.843608 0.487062 0.226044
    outer loop
      vertex 0.0297581 -0.0297581 8.5344
      vertex 0.00346202 -0.0753039 8.5344
      vertex 0.0166101 -0.0753039 8.58347
    endloop
  endfacet
  facet normal -0.965926 1.58481e-17 0.258819
    outer loop
      vertex 0.00346202 -0.0753039 8.5344
      vertex 0.00346202 -20.2447 8.5344
      vertex 0.0166101 -0.0753039 8.58347
    endloop
  endfacet
  facet normal -0.965926 1.58481e-17 0.258819
    outer loop
      vertex 0.0166101 -0.0753039 8.58347
      vertex 0.00346202 -20.2447 8.5344
      vertex 0.0166101 -20.2447 8.58347
    endloop
  endfacet
  facet normal -0.843608 -0.487062 0.226044
    outer loop
      vertex 0.0166101 -20.2447 8.58347
      vertex 0.00346202 -20.2447 8.5344
      vertex 0.0297581 -20.2902 8.5344
    endloop
  endfacet
  facet normal -0.866023 -0.500004 3.06164e-17
    outer loop
      vertex 0.00346202 -20.2447 0.1016
      vertex 0.0297581 -20.2902 0.1016
      vertex 0.00346202 -20.2447 8.5344
    endloop
  endfacet
  facet normal -0.866023 -0.500004 3.06164e-17
    outer loop
      vertex 0.00346202 -20.2447 8.5344
      vertex 0.0297581 -20.2902 0.1016
      vertex 0.0297581 -20.2902 8.5344
    endloop
  endfacet
  facet normal -0.843608 -0.487062 -0.226044
    outer loop
      vertex 0.0297581 -20.2902 0.1016
      vertex 0.00346202 -20.2447 0.1016
      vertex 0.0166101 -20.2447 0.0525308
    endloop
  endfacet
  facet normal -0.843608 -0.487063 -0.226045
    outer loop
      vertex 0.0297581 -20.2902 0.1016
      vertex 0.0166101 -20.2447 0.0525308
      vertex 0.0393832 -20.2902 0.0656788
    endloop
  endfacet
  facet normal -0.617564 -0.487062 -0.617564
    outer loop
      vertex 0.0166101 -20.2447 0.0525308
      vertex 0.0525308 -20.2447 0.0166101
      vertex 0.0393832 -20.2902 0.0656788
    endloop
  endfacet
  facet normal -0.617564 -0.487062 -0.617564
    outer loop
      vertex 0.0393832 -20.2902 0.0656788
      vertex 0.0525308 -20.2447 0.0166101
      vertex 0.0656788 -20.2902 0.0393832
    endloop
  endfacet
  facet normal -0.362786 0.858355 -0.362786
    outer loop
      vertex 0.0393832 -0.0297581 0.0656788
      vertex 0.0788269 -0.00346202 0.0884519
      vertex 0.0656788 -0.0297581 0.0393832
    endloop
  endfacet
  facet normal -0.362786 0.858355 -0.362786
    outer loop
      vertex 0.0656788 -0.0297581 0.0393832
      vertex 0.0788269 -0.00346202 0.0884519
      vertex 0.0884519 -0.00346202 0.0788269
    endloop
  endfacet
  facet normal -0.226044 -0.487062 -0.843608
    outer loop
      vertex 0.1016 -20.2902 0.0297581
      vertex 0.0525308 -20.2447 0.0166101
      vertex 0.1016 -20.2447 0.00346202
    endloop
  endfacet
  facet normal -0.258819 -5.91459e-17 -0.965926
    outer loop
      vertex 0.0525308 -0.0753039 0.0166101
      vertex 0.1016 -0.0753039 0.00346202
      vertex 0.0525308 -20.2447 0.0166101
    endloop
  endfacet
  facet normal -0.258819 -5.91459e-17 -0.965926
    outer loop
      vertex 0.0525308 -20.2447 0.0166101
      vertex 0.1016 -0.0753039 0.00346202
      vertex 0.1016 -20.2447 0.00346202
    endloop
  endfacet
  facet normal -0.226045 -0.487063 -0.843608
    outer loop
      vertex 0.0656788 -20.2902 0.0393832
      vertex 0.0525308 -20.2447 0.0166101
      vertex 0.1016 -20.2902 0.0297581
    endloop
  endfacet
  facet normal -0.226044 0.487062 -0.843608
    outer loop
      vertex 0.1016 -0.0753039 0.00346202
      vertex 0.0525308 -0.0753039 0.0166101
      vertex 0.1016 -0.0297581 0.0297581
    endloop
  endfacet
  facet normal -0.226045 0.487063 -0.843608
    outer loop
      vertex 0.1016 -0.0297581 0.0297581
      vertex 0.0525308 -0.0753039 0.0166101
      vertex 0.0656788 -0.0297581 0.0393832
    endloop
  endfacet
  facet normal -0.13279 0.858354 -0.495576
    outer loop
      vertex 0.1016 -0.0297581 0.0297581
      vertex 0.0656788 -0.0297581 0.0393832
      vertex 0.0884519 -0.00346202 0.0788269
    endloop
  endfacet
  facet normal 0 1 -6.12323e-17
    outer loop
      vertex 0.0753039 -0.00346202 0.1016
      vertex 0.0753039 -0.00346202 8.5344
      vertex 0.0788269 -0.00346202 0.0884519
    endloop
  endfacet
  facet normal 0 1 -6.12323e-17
    outer loop
      vertex 0.0788269 -0.00346202 0.0884519
      vertex 0.0753039 -0.00346202 8.5344
      vertex 0.0788269 -0.00346202 8.54755
    endloop
  endfacet
  facet normal 0 1 -6.12323e-17
    outer loop
      vertex 0.0788269 -0.00346202 0.0884519
      vertex 0.0788269 -0.00346202 8.54755
      vertex 0.0884519 -0.00346202 8.55717
    endloop
  endfacet
  facet normal 0 1 -6.12323e-17
    outer loop
      vertex 0.0788269 -0.00346202 0.0884519
      vertex 0.0884519 -0.00346202 8.55717
      vertex 0.1016 -0.00346202 8.5607
    endloop
  endfacet
  facet normal 0 1 -6.12323e-17
    outer loop
      vertex 0.0788269 -0.00346202 0.0884519
      vertex 0.1016 -0.00346202 8.5607
      vertex 1.651 -0.00346202 8.5607
    endloop
  endfacet
  facet normal 0 1 -6.12323e-17
    outer loop
      vertex 0.0788269 -0.00346202 0.0884519
      vertex 1.651 -0.00346202 8.5607
      vertex 1.66415 -0.00346202 8.55717
    endloop
  endfacet
  facet normal 0 1 -6.12323e-17
    outer loop
      vertex 0.0788269 -0.00346202 0.0884519
      vertex 1.66415 -0.00346202 8.55717
      vertex 1.67377 -0.00346202 8.54755
    endloop
  endfacet
  facet normal 0 1 -6.12323e-17
    outer loop
      vertex 0.0788269 -0.00346202 0.0884519
      vertex 1.67377 -0.00346202 8.54755
      vertex 1.6773 -0.00346202 8.5344
    endloop
  endfacet
  facet normal 0 1 -6.12323e-17
    outer loop
      vertex 0.0788269 -0.00346202 0.0884519
      vertex 1.6773 -0.00346202 8.5344
      vertex 1.6773 -0.00346202 0.1016
    endloop
  endfacet
  facet normal 0 1 -6.12323e-17
    outer loop
      vertex 0.0788269 -0.00346202 0.0884519
      vertex 1.6773 -0.00346202 0.1016
      vertex 1.67377 -0.00346202 0.0884519
    endloop
  endfacet
  facet normal 0 1 -6.12323e-17
    outer loop
      vertex 0.0788269 -0.00346202 0.0884519
      vertex 1.67377 -0.00346202 0.0884519
      vertex 1.66415 -0.00346202 0.0788269
    endloop
  endfacet
  facet normal 0 1 -6.12323e-17
    outer loop
      vertex 0.0788269 -0.00346202 0.0884519
      vertex 1.66415 -0.00346202 0.0788269
      vertex 1.651 -0.00346202 0.0753039
    endloop
  endfacet
  facet normal 0 1 -6.12323e-17
    outer loop
      vertex 0.0788269 -0.00346202 0.0884519
      vertex 1.651 -0.00346202 0.0753039
      vertex 0.1016 -0.00346202 0.0753039
    endloop
  endfacet
  facet normal 0 1 -6.12323e-17
    outer loop
      vertex 0.0788269 -0.00346202 0.0884519
      vertex 0.1016 -0.00346202 0.0753039
      vertex 0.0884519 -0.00346202 0.0788269
    endloop
  endfacet
  facet normal -0.362786 0.858355 0.362786
    outer loop
      vertex 0.0788269 -0.00346202 8.54755
      vertex 0.0393832 -0.0297581 8.57032
      vertex 0.0884519 -0.00346202 8.55717
    endloop
  endfacet
  facet normal -0.617564 0.487062 0.617564
    outer loop
      vertex 0.0656788 -0.0297581 8.59662
      vertex 0.0393832 -0.0297581 8.57032
      vertex 0.0525308 -0.0753039 8.61939
    endloop
  endfacet
  facet normal -0.617564 0.487062 0.617564
    outer loop
      vertex 0.0393832 -0.0297581 8.57032
      vertex 0.0166101 -0.0753039 8.58347
      vertex 0.0525308 -0.0753039 8.61939
    endloop
  endfacet
  facet normal -0.362786 0.858355 0.362786
    outer loop
      vertex 0.0884519 -0.00346202 8.55717
      vertex 0.0393832 -0.0297581 8.57032
      vertex 0.0656788 -0.0297581 8.59662
    endloop
  endfacet
  facet normal -0.707107 4.32978e-17 0.707107
    outer loop
      vertex 0.0525308 -0.0753039 8.61939
      vertex 0.0166101 -0.0753039 8.58347
      vertex 0.0166101 -20.2447 8.58347
    endloop
  endfacet
  facet normal -0.707107 4.32978e-17 0.707107
    outer loop
      vertex 0.0525308 -20.2447 8.61939
      vertex 0.0525308 -0.0753039 8.61939
      vertex 0.0166101 -20.2447 8.58347
    endloop
  endfacet
  facet normal -0.843608 -0.487063 0.226045
    outer loop
      vertex 0.0393832 -20.2902 8.57032
      vertex 0.0166101 -20.2447 8.58347
      vertex 0.0297581 -20.2902 8.5344
    endloop
  endfacet
  facet normal -0.617564 -0.487062 0.617564
    outer loop
      vertex 0.0525308 -20.2447 8.61939
      vertex 0.0166101 -20.2447 8.58347
      vertex 0.0393832 -20.2902 8.57032
    endloop
  endfacet
  facet normal -0.495576 -0.858354 0.13279
    outer loop
      vertex 0.0393832 -20.2902 8.57032
      vertex 0.0297581 -20.2902 8.5344
      vertex 0.0788269 -20.3165 8.54755
    endloop
  endfacet
  facet normal -0.495576 -0.858354 0.132788
    outer loop
      vertex 0.0788269 -20.3165 8.54755
      vertex 0.0297581 -20.2902 8.5344
      vertex 0.0753039 -20.3165 8.5344
    endloop
  endfacet
  facet normal -0.500004 -0.866023 5.30286e-17
    outer loop
      vertex 0.0297581 -20.2902 8.5344
      vertex 0.0297581 -20.2902 0.1016
      vertex 0.0753039 -20.3165 0.1016
    endloop
  endfacet
  facet normal -0.500004 -0.866023 5.30286e-17
    outer loop
      vertex 0.0753039 -20.3165 8.5344
      vertex 0.0297581 -20.2902 8.5344
      vertex 0.0753039 -20.3165 0.1016
    endloop
  endfacet
  facet normal -0.495576 -0.858354 -0.132788
    outer loop
      vertex 0.0753039 -20.3165 0.1016
      vertex 0.0297581 -20.2902 0.1016
      vertex 0.0788269 -20.3165 0.0884519
    endloop
  endfacet
  facet normal -0.495576 -0.858354 -0.13279
    outer loop
      vertex 0.0788269 -20.3165 0.0884519
      vertex 0.0297581 -20.2902 0.1016
      vertex 0.0393832 -20.2902 0.0656788
    endloop
  endfacet
  facet normal -0.362786 -0.858355 -0.362786
    outer loop
      vertex 0.0788269 -20.3165 0.0884519
      vertex 0.0393832 -20.2902 0.0656788
      vertex 0.0656788 -20.2902 0.0393832
    endloop
  endfacet
  facet normal -0.362786 -0.858355 -0.362786
    outer loop
      vertex 0.0884519 -20.3165 0.0788269
      vertex 0.0788269 -20.3165 0.0884519
      vertex 0.0656788 -20.2902 0.0393832
    endloop
  endfacet
  facet normal -0.13279 -0.858354 -0.495576
    outer loop
      vertex 0.0884519 -20.3165 0.0788269
      vertex 0.0656788 -20.2902 0.0393832
      vertex 0.1016 -20.2902 0.0297581
    endloop
  endfacet
  facet normal -0.132788 0.858354 -0.495576
    outer loop
      vertex 0.1016 -0.0297581 0.0297581
      vertex 0.0884519 -0.00346202 0.0788269
      vertex 0.1016 -0.00346202 0.0753039
    endloop
  endfacet
  facet normal -0.132788 -0.858354 -0.495576
    outer loop
      vertex 0.1016 -20.3165 0.0753039
      vertex 0.0884519 -20.3165 0.0788269
      vertex 0.1016 -20.2902 0.0297581
    endloop
  endfacet
  facet normal 0 -0.866023 -0.500004
    outer loop
      vertex 0.1016 -20.3165 0.0753039
      vertex 0.1016 -20.2902 0.0297581
      vertex 1.651 -20.2902 0.0297581
    endloop
  endfacet
  facet normal 0 -0.866023 -0.500004
    outer loop
      vertex 1.651 -20.3165 0.0753039
      vertex 0.1016 -20.3165 0.0753039
      vertex 1.651 -20.2902 0.0297581
    endloop
  endfacet
  facet normal 0 -0.500004 -0.866023
    outer loop
      vertex 0.1016 -20.2447 0.00346202
      vertex 1.651 -20.2447 0.00346202
      vertex 0.1016 -20.2902 0.0297581
    endloop
  endfacet
  facet normal 0 -0.500004 -0.866023
    outer loop
      vertex 0.1016 -20.2902 0.0297581
      vertex 1.651 -20.2447 0.00346202
      vertex 1.651 -20.2902 0.0297581
    endloop
  endfacet
  facet normal 0 -6.12323e-17 -1
    outer loop
      vertex 0.1016 -0.0753039 0.00346202
      vertex 1.651 -0.0753039 0.00346202
      vertex 0.1016 -20.2447 0.00346202
    endloop
  endfacet
  facet normal 0 -6.12323e-17 -1
    outer loop
      vertex 0.1016 -20.2447 0.00346202
      vertex 1.651 -0.0753039 0.00346202
      vertex 1.651 -8.2033 0.00346202
    endloop
  endfacet
  facet normal 0 -6.12323e-17 -1
    outer loop
      vertex 1.651 -10.0847 0.00346202
      vertex 1.651 -8.2033 0.00346202
      vertex 10.033 -8.2033 0.00346202
    endloop
  endfacet
  facet normal 0 -6.12323e-17 -1
    outer loop
      vertex 10.033 -8.2033 0.00346202
      vertex 10.033 -0.0753039 0.00346202
      vertex 11.5824 -0.0753039 0.00346202
    endloop
  endfacet
  facet normal 0 -6.12323e-17 -1
    outer loop
      vertex 10.033 -8.2033 0.00346202
      vertex 11.5824 -0.0753039 0.00346202
      vertex 11.5824 -10.0847 0.00346202
    endloop
  endfacet
  facet normal 0 -6.12323e-17 -1
    outer loop
      vertex 0.1016 -20.2447 0.00346202
      vertex 1.651 -8.2033 0.00346202
      vertex 1.651 -10.0847 0.00346202
    endloop
  endfacet
  facet normal 0 -6.12323e-17 -1
    outer loop
      vertex 1.651 -20.2447 0.00346202
      vertex 0.1016 -20.2447 0.00346202
      vertex 1.651 -10.0847 0.00346202
    endloop
  endfacet
  facet normal 0 -6.12323e-17 -1
    outer loop
      vertex 1.651 -10.0847 0.00346202
      vertex 10.033 -8.2033 0.00346202
      vertex 11.5824 -10.0847 0.00346202
    endloop
  endfacet
  facet normal 0 0.500004 -0.866023
    outer loop
      vertex 0.1016 -0.0753039 0.00346202
      vertex 0.1016 -0.0297581 0.0297581
      vertex 1.651 -0.0753039 0.00346202
    endloop
  endfacet
  facet normal 0 0.500004 -0.866023
    outer loop
      vertex 1.651 -0.0753039 0.00346202
      vertex 0.1016 -0.0297581 0.0297581
      vertex 1.651 -0.0297581 0.0297581
    endloop
  endfacet
  facet normal 0 0.866023 -0.500004
    outer loop
      vertex 0.1016 -0.0297581 0.0297581
      vertex 0.1016 -0.00346202 0.0753039
      vertex 1.651 -0.0297581 0.0297581
    endloop
  endfacet
  facet normal 0 0.866023 -0.500004
    outer loop
      vertex 1.651 -0.0297581 0.0297581
      vertex 0.1016 -0.00346202 0.0753039
      vertex 1.651 -0.00346202 0.0753039
    endloop
  endfacet
  facet normal 0.132788 0.858354 -0.495576
    outer loop
      vertex 1.66415 -0.00346202 0.0788269
      vertex 1.651 -0.0297581 0.0297581
      vertex 1.651 -0.00346202 0.0753039
    endloop
  endfacet
  facet normal 0.13279 0.858354 -0.495576
    outer loop
      vertex 1.68692 -0.0297581 0.0393832
      vertex 1.651 -0.0297581 0.0297581
      vertex 1.66415 -0.00346202 0.0788269
    endloop
  endfacet
  facet normal 0.362786 0.858355 -0.362786
    outer loop
      vertex 1.68692 -0.0297581 0.0393832
      vertex 1.66415 -0.00346202 0.0788269
      vertex 1.67377 -0.00346202 0.0884519
    endloop
  endfacet
  facet normal 0.362786 0.858355 -0.362786
    outer loop
      vertex 1.68692 -0.0297581 0.0393832
      vertex 1.67377 -0.00346202 0.0884519
      vertex 1.71322 -0.0297581 0.0656788
    endloop
  endfacet
  facet normal 0.495576 0.858354 -0.13279
    outer loop
      vertex 1.71322 -0.0297581 0.0656788
      vertex 1.67377 -0.00346202 0.0884519
      vertex 1.72284 -0.0297581 0.1016
    endloop
  endfacet
  facet normal 0.495576 0.858354 -0.132788
    outer loop
      vertex 1.72284 -0.0297581 0.1016
      vertex 1.67377 -0.00346202 0.0884519
      vertex 1.6773 -0.00346202 0.1016
    endloop
  endfacet
  facet normal 0.500004 0.866023 -5.30286e-17
    outer loop
      vertex 1.6773 -0.00346202 0.1016
      vertex 1.6773 -0.00346202 8.5344
      vertex 1.72284 -0.0297581 0.1016
    endloop
  endfacet
  facet normal 0.500004 0.866023 -5.30286e-17
    outer loop
      vertex 1.72284 -0.0297581 0.1016
      vertex 1.6773 -0.00346202 8.5344
      vertex 1.72284 -0.0297581 8.5344
    endloop
  endfacet
  facet normal 0.495576 0.858354 0.132788
    outer loop
      vertex 1.6773 -0.00346202 8.5344
      vertex 1.67377 -0.00346202 8.54755
      vertex 1.72284 -0.0297581 8.5344
    endloop
  endfacet
  facet normal 0.495576 0.858354 0.13279
    outer loop
      vertex 1.72284 -0.0297581 8.5344
      vertex 1.67377 -0.00346202 8.54755
      vertex 1.71322 -0.0297581 8.57032
    endloop
  endfacet
  facet normal 0.362786 0.858355 0.362786
    outer loop
      vertex 1.67377 -0.00346202 8.54755
      vertex 1.66415 -0.00346202 8.55717
      vertex 1.71322 -0.0297581 8.57032
    endloop
  endfacet
  facet normal 0.13279 0.858354 0.495576
    outer loop
      vertex 1.66415 -0.00346202 8.55717
      vertex 1.651 -0.0297581 8.60624
      vertex 1.68692 -0.0297581 8.59662
    endloop
  endfacet
  facet normal 0.132788 0.858354 0.495576
    outer loop
      vertex 1.66415 -0.00346202 8.55717
      vertex 1.651 -0.00346202 8.5607
      vertex 1.651 -0.0297581 8.60624
    endloop
  endfacet
  facet normal 0.362786 0.858355 0.362786
    outer loop
      vertex 1.71322 -0.0297581 8.57032
      vertex 1.66415 -0.00346202 8.55717
      vertex 1.68692 -0.0297581 8.59662
    endloop
  endfacet
  facet normal 0 0.866023 0.500004
    outer loop
      vertex 0.1016 -0.00346202 8.5607
      vertex 0.1016 -0.0297581 8.60624
      vertex 1.651 -0.00346202 8.5607
    endloop
  endfacet
  facet normal 0 0.866023 0.500004
    outer loop
      vertex 1.651 -0.00346202 8.5607
      vertex 0.1016 -0.0297581 8.60624
      vertex 1.651 -0.0297581 8.60624
    endloop
  endfacet
  facet normal -0.132788 0.858354 0.495576
    outer loop
      vertex 0.1016 -0.00346202 8.5607
      vertex 0.0884519 -0.00346202 8.55717
      vertex 0.1016 -0.0297581 8.60624
    endloop
  endfacet
  facet normal -0.13279 0.858354 0.495576
    outer loop
      vertex 0.0884519 -0.00346202 8.55717
      vertex 0.0656788 -0.0297581 8.59662
      vertex 0.1016 -0.0297581 8.60624
    endloop
  endfacet
  facet normal -0.226045 0.487063 0.843608
    outer loop
      vertex 0.0656788 -0.0297581 8.59662
      vertex 0.0525308 -0.0753039 8.61939
      vertex 0.1016 -0.0297581 8.60624
    endloop
  endfacet
  facet normal -0.226044 0.487062 0.843608
    outer loop
      vertex 0.1016 -0.0297581 8.60624
      vertex 0.0525308 -0.0753039 8.61939
      vertex 0.1016 -0.0753039 8.63254
    endloop
  endfacet
  facet normal -0.258819 5.91459e-17 0.965926
    outer loop
      vertex 0.1016 -0.0753039 8.63254
      vertex 0.0525308 -0.0753039 8.61939
      vertex 0.0525308 -20.2447 8.61939
    endloop
  endfacet
  facet normal -0.258819 5.91459e-17 0.965926
    outer loop
      vertex 0.1016 -20.2447 8.63254
      vertex 0.1016 -0.0753039 8.63254
      vertex 0.0525308 -20.2447 8.61939
    endloop
  endfacet
  facet normal -0.226044 -0.487062 0.843608
    outer loop
      vertex 0.1016 -20.2447 8.63254
      vertex 0.0525308 -20.2447 8.61939
      vertex 0.1016 -20.2902 8.60624
    endloop
  endfacet
  facet normal -0.226045 -0.487063 0.843608
    outer loop
      vertex 0.1016 -20.2902 8.60624
      vertex 0.0525308 -20.2447 8.61939
      vertex 0.0656788 -20.2902 8.59662
    endloop
  endfacet
  facet normal -0.617564 -0.487062 0.617564
    outer loop
      vertex 0.0525308 -20.2447 8.61939
      vertex 0.0393832 -20.2902 8.57032
      vertex 0.0656788 -20.2902 8.59662
    endloop
  endfacet
  facet normal -0.362786 -0.858355 0.362786
    outer loop
      vertex 0.0656788 -20.2902 8.59662
      vertex 0.0393832 -20.2902 8.57032
      vertex 0.0884519 -20.3165 8.55717
    endloop
  endfacet
  facet normal -0.362786 -0.858355 0.362786
    outer loop
      vertex 0.0884519 -20.3165 8.55717
      vertex 0.0393832 -20.2902 8.57032
      vertex 0.0788269 -20.3165 8.54755
    endloop
  endfacet
  facet normal 0 -1 6.12323e-17
    outer loop
      vertex 0.0753039 -20.3165 8.5344
      vertex 0.0753039 -20.3165 0.1016
      vertex 0.0788269 -20.3165 0.0884519
    endloop
  endfacet
  facet normal 0 -1 6.12323e-17
    outer loop
      vertex 0.1016 -20.3165 0.0753039
      vertex 0.0753039 -20.3165 8.5344
      vertex 0.0884519 -20.3165 0.0788269
    endloop
  endfacet
  facet normal 0 -1 6.12323e-17
    outer loop
      vertex 0.0884519 -20.3165 0.0788269
      vertex 0.0753039 -20.3165 8.5344
      vertex 0.0788269 -20.3165 0.0884519
    endloop
  endfacet
  facet normal 0 -1 6.12323e-17
    outer loop
      vertex 1.651 -20.3165 0.0753039
      vertex 0.0753039 -20.3165 8.5344
      vertex 0.1016 -20.3165 0.0753039
    endloop
  endfacet
  facet normal 0 -1 6.12323e-17
    outer loop
      vertex 1.66415 -20.3165 0.0788269
      vertex 0.0753039 -20.3165 8.5344
      vertex 1.651 -20.3165 0.0753039
    endloop
  endfacet
  facet normal 0 -1 6.12323e-17
    outer loop
      vertex 1.67377 -20.3165 0.0884519
      vertex 0.0753039 -20.3165 8.5344
      vertex 1.66415 -20.3165 0.0788269
    endloop
  endfacet
  facet normal 0 -1 6.12323e-17
    outer loop
      vertex 1.6773 -20.3165 0.1016
      vertex 0.0753039 -20.3165 8.5344
      vertex 1.67377 -20.3165 0.0884519
    endloop
  endfacet
  facet normal 0 -1 6.12323e-17
    outer loop
      vertex 1.6773 -20.3165 8.5344
      vertex 0.0753039 -20.3165 8.5344
      vertex 1.6773 -20.3165 0.1016
    endloop
  endfacet
  facet normal 0 -1 6.12323e-17
    outer loop
      vertex 1.67377 -20.3165 8.54755
      vertex 0.0753039 -20.3165 8.5344
      vertex 1.6773 -20.3165 8.5344
    endloop
  endfacet
  facet normal 0 -1 6.12323e-17
    outer loop
      vertex 1.66415 -20.3165 8.55717
      vertex 0.0753039 -20.3165 8.5344
      vertex 1.67377 -20.3165 8.54755
    endloop
  endfacet
  facet normal 0 -1 6.12323e-17
    outer loop
      vertex 1.651 -20.3165 8.5607
      vertex 0.0753039 -20.3165 8.5344
      vertex 1.66415 -20.3165 8.55717
    endloop
  endfacet
  facet normal 0 -1 6.12323e-17
    outer loop
      vertex 0.1016 -20.3165 8.5607
      vertex 0.0753039 -20.3165 8.5344
      vertex 1.651 -20.3165 8.5607
    endloop
  endfacet
  facet normal 0 -1 6.12323e-17
    outer loop
      vertex 0.0884519 -20.3165 8.55717
      vertex 0.0753039 -20.3165 8.5344
      vertex 0.1016 -20.3165 8.5607
    endloop
  endfacet
  facet normal 0 -1 6.12323e-17
    outer loop
      vertex 0.0788269 -20.3165 8.54755
      vertex 0.0753039 -20.3165 8.5344
      vertex 0.0884519 -20.3165 8.55717
    endloop
  endfacet
  facet normal 0.132788 -0.858354 -0.495576
    outer loop
      vertex 1.651 -20.3165 0.0753039
      vertex 1.651 -20.2902 0.0297581
      vertex 1.66415 -20.3165 0.0788269
    endloop
  endfacet
  facet normal 0.226045 -0.487063 -0.843608
    outer loop
      vertex 1.68692 -20.2902 0.0393832
      vertex 1.651 -20.2902 0.0297581
      vertex 1.70007 -20.2447 0.0166101
    endloop
  endfacet
  facet normal 0.226044 -0.487062 -0.843608
    outer loop
      vertex 1.651 -20.2902 0.0297581
      vertex 1.651 -20.2447 0.00346202
      vertex 1.70007 -20.2447 0.0166101
    endloop
  endfacet
  facet normal 0.13279 -0.858354 -0.495576
    outer loop
      vertex 1.66415 -20.3165 0.0788269
      vertex 1.651 -20.2902 0.0297581
      vertex 1.68692 -20.2902 0.0393832
    endloop
  endfacet
  facet normal 0.258819 -5.91459e-17 -0.965926
    outer loop
      vertex 1.651 -10.0847 0.00346202
      vertex 1.70007 -10.1075 0.0166101
      vertex 1.651 -20.2447 0.00346202
    endloop
  endfacet
  facet normal 0.258819 -5.91459e-17 -0.965926
    outer loop
      vertex 1.651 -20.2447 0.00346202
      vertex 1.70007 -10.1075 0.0166101
      vertex 1.70007 -20.2447 0.0166101
    endloop
  endfacet
  facet normal 0 -0.500004 -0.866023
    outer loop
      vertex 1.651 -10.0847 0.00346202
      vertex 11.5824 -10.0847 0.00346202
      vertex 1.70007 -10.1075 0.0166101
    endloop
  endfacet
  facet normal 0 -0.500004 -0.866023
    outer loop
      vertex 1.70007 -10.1075 0.0166101
      vertex 11.5824 -10.0847 0.00346202
      vertex 11.5824 -10.1302 0.0297581
    endloop
  endfacet
  facet normal 0 -0.500004 -0.866023
    outer loop
      vertex 1.70007 -10.1075 0.0166101
      vertex 11.5824 -10.1302 0.0297581
      vertex 1.71322 -10.1302 0.0297581
    endloop
  endfacet
  facet normal 0.226044 -0.487062 -0.843608
    outer loop
      vertex 11.5824 -10.0847 0.00346202
      vertex 11.6176 -10.0847 0.0129055
      vertex 11.5824 -10.1302 0.0297581
    endloop
  endfacet
  facet normal 0.226044 -0.487062 -0.843608
    outer loop
      vertex 11.5824 -10.1302 0.0297581
      vertex 11.6176 -10.0847 0.0129055
      vertex 11.6258 -10.09 0.0181305
    endloop
  endfacet
  facet normal 0.226044 -0.487062 -0.843608
    outer loop
      vertex 11.5824 -10.0847 0.00346202
      vertex 11.6315 -10.0847 0.0166101
      vertex 11.6176 -10.0847 0.0129055
    endloop
  endfacet
  facet normal 0.226044 -0.487062 -0.843608
    outer loop
      vertex 11.6176 -10.0847 0.0129055
      vertex 11.6315 -10.0847 0.0166101
      vertex 11.6258 -10.09 0.0181305
    endloop
  endfacet
  facet normal 0.258819 -5.91459e-17 -0.965926
    outer loop
      vertex 11.5824 -0.0753039 0.00346202
      vertex 11.6315 -0.0753039 0.0166101
      vertex 11.5824 -10.0847 0.00346202
    endloop
  endfacet
  facet normal 0.258819 -5.91459e-17 -0.965926
    outer loop
      vertex 11.5824 -10.0847 0.00346202
      vertex 11.6315 -0.0753039 0.0166101
      vertex 11.6315 -10.0847 0.0166101
    endloop
  endfacet
  facet normal 0 0.500004 -0.866023
    outer loop
      vertex 10.033 -0.0753039 0.00346202
      vertex 10.033 -0.0297581 0.0297581
      vertex 11.5824 -0.0753039 0.00346202
    endloop
  endfacet
  facet normal 0 0.500004 -0.866023
    outer loop
      vertex 11.5824 -0.0753039 0.00346202
      vertex 10.033 -0.0297581 0.0297581
      vertex 11.5824 -0.0297581 0.0297581
    endloop
  endfacet
  facet normal 0.226044 0.487062 -0.843608
    outer loop
      vertex 11.6315 -0.0753039 0.0166101
      vertex 11.5824 -0.0753039 0.00346202
      vertex 11.5824 -0.0297581 0.0297581
    endloop
  endfacet
  facet normal -0.258819 -5.91459e-17 -0.965926
    outer loop
      vertex 9.98393 -0.0753039 0.0166101
      vertex 10.033 -0.0753039 0.00346202
      vertex 9.98393 -8.18053 0.0166101
    endloop
  endfacet
  facet normal -0.258819 -5.91459e-17 -0.965926
    outer loop
      vertex 9.98393 -8.18053 0.0166101
      vertex 10.033 -0.0753039 0.00346202
      vertex 10.033 -8.2033 0.00346202
    endloop
  endfacet
  facet normal -0.226044 0.487062 -0.843608
    outer loop
      vertex 10.033 -0.0753039 0.00346202
      vertex 9.98393 -0.0753039 0.0166101
      vertex 10.033 -0.0297581 0.0297581
    endloop
  endfacet
  facet normal 0 0.500004 -0.866023
    outer loop
      vertex 1.651 -8.2033 0.00346202
      vertex 1.70007 -8.18053 0.0166101
      vertex 10.033 -8.2033 0.00346202
    endloop
  endfacet
  facet normal 0 0.500004 -0.866023
    outer loop
      vertex 10.033 -8.2033 0.00346202
      vertex 1.70007 -8.18053 0.0166101
      vertex 1.71322 -8.15776 0.0297581
    endloop
  endfacet
  facet normal 0 0.500004 -0.866023
    outer loop
      vertex 9.98393 -8.18053 0.0166101
      vertex 1.71322 -8.15776 0.0297581
      vertex 9.97078 -8.15776 0.0297581
    endloop
  endfacet
  facet normal 0 0.500004 -0.866023
    outer loop
      vertex 10.033 -8.2033 0.00346202
      vertex 1.71322 -8.15776 0.0297581
      vertex 9.98393 -8.18053 0.0166101
    endloop
  endfacet
  facet normal 0.258819 -5.91459e-17 -0.965926
    outer loop
      vertex 1.651 -0.0753039 0.00346202
      vertex 1.70007 -0.0753039 0.0166101
      vertex 1.651 -8.2033 0.00346202
    endloop
  endfacet
  facet normal 0.258819 -5.91459e-17 -0.965926
    outer loop
      vertex 1.651 -8.2033 0.00346202
      vertex 1.70007 -0.0753039 0.0166101
      vertex 1.70007 -8.18053 0.0166101
    endloop
  endfacet
  facet normal 0.226044 0.487062 -0.843608
    outer loop
      vertex 1.70007 -0.0753039 0.0166101
      vertex 1.651 -0.0753039 0.00346202
      vertex 1.651 -0.0297581 0.0297581
    endloop
  endfacet
  facet normal 0.226045 0.487063 -0.843608
    outer loop
      vertex 1.70007 -0.0753039 0.0166101
      vertex 1.651 -0.0297581 0.0297581
      vertex 1.68692 -0.0297581 0.0393832
    endloop
  endfacet
  facet normal 0.617564 0.487062 -0.617564
    outer loop
      vertex 1.70007 -0.0753039 0.0166101
      vertex 1.68692 -0.0297581 0.0393832
      vertex 1.71322 -0.0297581 0.0656788
    endloop
  endfacet
  facet normal 0.617564 0.487062 -0.617564
    outer loop
      vertex 1.73599 -0.0753039 0.0525308
      vertex 1.70007 -0.0753039 0.0166101
      vertex 1.71322 -0.0297581 0.0656788
    endloop
  endfacet
  facet normal 0.843608 0.487063 -0.226045
    outer loop
      vertex 1.73599 -0.0753039 0.0525308
      vertex 1.71322 -0.0297581 0.0656788
      vertex 1.72284 -0.0297581 0.1016
    endloop
  endfacet
  facet normal 0.843608 0.487062 -0.226044
    outer loop
      vertex 1.73599 -0.0753039 0.0525308
      vertex 1.72284 -0.0297581 0.1016
      vertex 1.74914 -0.0753039 0.1016
    endloop
  endfacet
  facet normal 0.866023 0.500004 -3.06164e-17
    outer loop
      vertex 1.74914 -0.0753039 0.1016
      vertex 1.72284 -0.0297581 0.1016
      vertex 1.72284 -0.0297581 8.5344
    endloop
  endfacet
  facet normal 0.866023 0.500004 -3.06164e-17
    outer loop
      vertex 1.74914 -0.0753039 8.5344
      vertex 1.74914 -0.0753039 0.1016
      vertex 1.72284 -0.0297581 8.5344
    endloop
  endfacet
  facet normal 0.843608 0.487062 0.226044
    outer loop
      vertex 1.74914 -0.0753039 8.5344
      vertex 1.72284 -0.0297581 8.5344
      vertex 1.73599 -0.0753039 8.58347
    endloop
  endfacet
  facet normal 0.843608 0.487063 0.226045
    outer loop
      vertex 1.72284 -0.0297581 8.5344
      vertex 1.71322 -0.0297581 8.57032
      vertex 1.73599 -0.0753039 8.58347
    endloop
  endfacet
  facet normal 0.617564 0.487062 0.617564
    outer loop
      vertex 1.71322 -0.0297581 8.57032
      vertex 1.70007 -0.0753039 8.61939
      vertex 1.73599 -0.0753039 8.58347
    endloop
  endfacet
  facet normal 0.617564 0.487062 0.617564
    outer loop
      vertex 1.71322 -0.0297581 8.57032
      vertex 1.68692 -0.0297581 8.59662
      vertex 1.70007 -0.0753039 8.61939
    endloop
  endfacet
  facet normal 0.226045 0.487063 0.843608
    outer loop
      vertex 1.68692 -0.0297581 8.59662
      vertex 1.651 -0.0297581 8.60624
      vertex 1.70007 -0.0753039 8.61939
    endloop
  endfacet
  facet normal 0.226044 0.487062 0.843608
    outer loop
      vertex 1.70007 -0.0753039 8.61939
      vertex 1.651 -0.0297581 8.60624
      vertex 1.651 -0.0753039 8.63254
    endloop
  endfacet
  facet normal 0 0.500004 0.866023
    outer loop
      vertex 1.651 -0.0297581 8.60624
      vertex 0.1016 -0.0297581 8.60624
      vertex 0.1016 -0.0753039 8.63254
    endloop
  endfacet
  facet normal 0 0.500004 0.866023
    outer loop
      vertex 1.651 -0.0753039 8.63254
      vertex 1.651 -0.0297581 8.60624
      vertex 0.1016 -0.0753039 8.63254
    endloop
  endfacet
  facet normal 0 6.12323e-17 1
    outer loop
      vertex 1.651 -0.0753039 8.63254
      vertex 0.1016 -0.0753039 8.63254
      vertex 0.1016 -20.2447 8.63254
    endloop
  endfacet
  facet normal 0 6.12323e-17 1
    outer loop
      vertex 1.651 -8.2033 8.63254
      vertex 1.651 -0.0753039 8.63254
      vertex 0.1016 -20.2447 8.63254
    endloop
  endfacet
  facet normal 0 6.12323e-17 1
    outer loop
      vertex 1.651 -10.0847 8.63254
      vertex 1.651 -8.2033 8.63254
      vertex 0.1016 -20.2447 8.63254
    endloop
  endfacet
  facet normal 0 6.12323e-17 1
    outer loop
      vertex 1.651 -20.2447 8.63254
      vertex 1.651 -10.0847 8.63254
      vertex 0.1016 -20.2447 8.63254
    endloop
  endfacet
  facet normal 0 6.12323e-17 1
    outer loop
      vertex 11.5824 -10.0847 8.63254
      vertex 11.5824 -0.0753039 8.63254
      vertex 10.033 -0.0753039 8.63254
    endloop
  endfacet
  facet normal 0 6.12323e-17 1
    outer loop
      vertex 11.5824 -10.0847 8.63254
      vertex 10.033 -0.0753039 8.63254
      vertex 10.033 -8.2033 8.63254
    endloop
  endfacet
  facet normal 0 6.12323e-17 1
    outer loop
      vertex 11.5824 -10.0847 8.63254
      vertex 1.651 -8.2033 8.63254
      vertex 1.651 -10.0847 8.63254
    endloop
  endfacet
  facet normal 0 6.12323e-17 1
    outer loop
      vertex 10.033 -8.2033 8.63254
      vertex 1.651 -8.2033 8.63254
      vertex 11.5824 -10.0847 8.63254
    endloop
  endfacet
  facet normal 0 -0.500004 0.866023
    outer loop
      vertex 0.1016 -20.2447 8.63254
      vertex 0.1016 -20.2902 8.60624
      vertex 1.651 -20.2902 8.60624
    endloop
  endfacet
  facet normal 0 -0.500004 0.866023
    outer loop
      vertex 1.651 -20.2447 8.63254
      vertex 0.1016 -20.2447 8.63254
      vertex 1.651 -20.2902 8.60624
    endloop
  endfacet
  facet normal 0 -0.866023 0.500004
    outer loop
      vertex 0.1016 -20.2902 8.60624
      vertex 0.1016 -20.3165 8.5607
      vertex 1.651 -20.3165 8.5607
    endloop
  endfacet
  facet normal 0 -0.866023 0.500004
    outer loop
      vertex 1.651 -20.2902 8.60624
      vertex 0.1016 -20.2902 8.60624
      vertex 1.651 -20.3165 8.5607
    endloop
  endfacet
  facet normal -0.132788 -0.858354 0.495576
    outer loop
      vertex 0.1016 -20.2902 8.60624
      vertex 0.0884519 -20.3165 8.55717
      vertex 0.1016 -20.3165 8.5607
    endloop
  endfacet
  facet normal -0.13279 -0.858354 0.495576
    outer loop
      vertex 0.1016 -20.2902 8.60624
      vertex 0.0656788 -20.2902 8.59662
      vertex 0.0884519 -20.3165 8.55717
    endloop
  endfacet
  facet normal 0.132788 -0.858354 0.495576
    outer loop
      vertex 1.651 -20.2902 8.60624
      vertex 1.651 -20.3165 8.5607
      vertex 1.66415 -20.3165 8.55717
    endloop
  endfacet
  facet normal 0.13279 -0.858354 0.495576
    outer loop
      vertex 1.68692 -20.2902 8.59662
      vertex 1.651 -20.2902 8.60624
      vertex 1.66415 -20.3165 8.55717
    endloop
  endfacet
  facet normal 0.362786 -0.858355 0.362786
    outer loop
      vertex 1.68692 -20.2902 8.59662
      vertex 1.66415 -20.3165 8.55717
      vertex 1.71322 -20.2902 8.57032
    endloop
  endfacet
  facet normal 0.362786 -0.858355 0.362786
    outer loop
      vertex 1.71322 -20.2902 8.57032
      vertex 1.66415 -20.3165 8.55717
      vertex 1.67377 -20.3165 8.54755
    endloop
  endfacet
  facet normal 0.495576 -0.858354 0.132788
    outer loop
      vertex 1.72284 -20.2902 8.5344
      vertex 1.67377 -20.3165 8.54755
      vertex 1.6773 -20.3165 8.5344
    endloop
  endfacet
  facet normal 0.495576 -0.858354 0.13279
    outer loop
      vertex 1.71322 -20.2902 8.57032
      vertex 1.67377 -20.3165 8.54755
      vertex 1.72284 -20.2902 8.5344
    endloop
  endfacet
  facet normal 0.500004 -0.866023 5.30286e-17
    outer loop
      vertex 1.6773 -20.3165 8.5344
      vertex 1.6773 -20.3165 0.1016
      vertex 1.72284 -20.2902 0.1016
    endloop
  endfacet
  facet normal 0.500004 -0.866023 5.30286e-17
    outer loop
      vertex 1.72284 -20.2902 8.5344
      vertex 1.6773 -20.3165 8.5344
      vertex 1.72284 -20.2902 0.1016
    endloop
  endfacet
  facet normal 0.495576 -0.858354 -0.132788
    outer loop
      vertex 1.6773 -20.3165 0.1016
      vertex 1.67377 -20.3165 0.0884519
      vertex 1.72284 -20.2902 0.1016
    endloop
  endfacet
  facet normal 0.495576 -0.858354 -0.13279
    outer loop
      vertex 1.72284 -20.2902 0.1016
      vertex 1.67377 -20.3165 0.0884519
      vertex 1.71322 -20.2902 0.0656788
    endloop
  endfacet
  facet normal 0.362786 -0.858355 -0.362786
    outer loop
      vertex 1.71322 -20.2902 0.0656788
      vertex 1.67377 -20.3165 0.0884519
      vertex 1.68692 -20.2902 0.0393832
    endloop
  endfacet
  facet normal 0.362786 -0.858355 -0.362786
    outer loop
      vertex 1.67377 -20.3165 0.0884519
      vertex 1.66415 -20.3165 0.0788269
      vertex 1.68692 -20.2902 0.0393832
    endloop
  endfacet
  facet normal 0.617564 -0.487062 -0.617564
    outer loop
      vertex 1.71322 -20.2902 0.0656788
      vertex 1.68692 -20.2902 0.0393832
      vertex 1.70007 -20.2447 0.0166101
    endloop
  endfacet
  facet normal 0.617564 -0.487062 -0.617564
    outer loop
      vertex 1.71322 -20.2902 0.0656788
      vertex 1.70007 -20.2447 0.0166101
      vertex 1.73599 -20.2447 0.0525308
    endloop
  endfacet
  facet normal 0.707107 -4.32978e-17 -0.707107
    outer loop
      vertex 1.70007 -10.1075 0.0166101
      vertex 1.71322 -10.1302 0.0297581
      vertex 1.70007 -20.2447 0.0166101
    endloop
  endfacet
  facet normal 0.707107 -4.32978e-17 -0.707107
    outer loop
      vertex 1.70007 -20.2447 0.0166101
      vertex 1.71322 -10.1302 0.0297581
      vertex 1.73599 -10.1434 0.0525308
    endloop
  endfacet
  facet normal 0.707107 -4.32978e-17 -0.707107
    outer loop
      vertex 1.70007 -20.2447 0.0166101
      vertex 1.73599 -10.1434 0.0525308
      vertex 1.73599 -20.2447 0.0525308
    endloop
  endfacet
  facet normal 0 -0.866023 -0.500004
    outer loop
      vertex 1.73599 -10.1434 0.0525308
      vertex 1.71322 -10.1302 0.0297581
      vertex 11.5824 -10.1302 0.0297581
    endloop
  endfacet
  facet normal 0 -0.866023 -0.500004
    outer loop
      vertex 10.033 -10.15 0.0639174
      vertex 1.73599 -10.1434 0.0525308
      vertex 11.5824 -10.15 0.0639174
    endloop
  endfacet
  facet normal 0 -0.866023 -0.500004
    outer loop
      vertex 11.5824 -10.15 0.0639174
      vertex 1.73599 -10.1434 0.0525308
      vertex 11.5824 -10.1302 0.0297581
    endloop
  endfacet
  facet normal 0 -0.866023 -0.500004
    outer loop
      vertex 10.033 -10.1565 0.0753039
      vertex 1.73599 -10.1434 0.0525308
      vertex 10.033 -10.15 0.0639174
    endloop
  endfacet
  facet normal 0 -0.866023 -0.500004
    outer loop
      vertex 1.74209 -10.1565 0.0753039
      vertex 1.73599 -10.1434 0.0525308
      vertex 10.033 -10.1565 0.0753039
    endloop
  endfacet
  facet normal 0.132788 -0.858354 -0.495576
    outer loop
      vertex 11.5824 -10.15 0.0639174
      vertex 11.5824 -10.1302 0.0297581
      vertex 11.5919 -10.1492 0.0651894
    endloop
  endfacet
  facet normal 0.13279 -0.858354 -0.495576
    outer loop
      vertex 11.5919 -10.1492 0.0651894
      vertex 11.5824 -10.1302 0.0297581
      vertex 11.6183 -10.1302 0.0393832
    endloop
  endfacet
  facet normal 0.13279 -0.858354 -0.495576
    outer loop
      vertex 11.6021 -10.1489 0.0674404
      vertex 11.5919 -10.1492 0.0651894
      vertex 11.6183 -10.1302 0.0393832
    endloop
  endfacet
  facet normal 0.226045 -0.487063 -0.843608
    outer loop
      vertex 11.5824 -10.1302 0.0297581
      vertex 11.6258 -10.09 0.0181305
      vertex 11.6183 -10.1302 0.0393832
    endloop
  endfacet
  facet normal 0.226045 -0.487063 -0.843608
    outer loop
      vertex 11.6297 -10.0908 0.019661
      vertex 11.6183 -10.1302 0.0393832
      vertex 11.6258 -10.09 0.0181305
    endloop
  endfacet
  facet normal 0.226045 -0.487063 -0.843608
    outer loop
      vertex 11.6233 -10.1128 0.0306871
      vertex 11.6297 -10.0908 0.019661
      vertex 11.6315 -10.0847 0.0166101
    endloop
  endfacet
  facet normal 0.226045 -0.487063 -0.843608
    outer loop
      vertex 11.6315 -10.0847 0.0166101
      vertex 11.6297 -10.0908 0.019661
      vertex 11.6258 -10.09 0.0181305
    endloop
  endfacet
  facet normal 0.617564 -0.487062 -0.617564
    outer loop
      vertex 11.6233 -10.1128 0.0306871
      vertex 11.6315 -10.0847 0.0166101
      vertex 11.6265 -10.1226 0.0415752
    endloop
  endfacet
  facet normal 0.617564 -0.487062 -0.617564
    outer loop
      vertex 11.6265 -10.1226 0.0415752
      vertex 11.6315 -10.0847 0.0166101
      vertex 11.6446 -10.1302 0.0656788
    endloop
  endfacet
  facet normal 0.617564 -0.487062 -0.617564
    outer loop
      vertex 11.6265 -10.1226 0.0415752
      vertex 11.6446 -10.1302 0.0656788
      vertex 11.6243 -10.1302 0.0453701
    endloop
  endfacet
  facet normal 0.617564 -0.487062 -0.617564
    outer loop
      vertex 11.6446 -10.1302 0.0656788
      vertex 11.6315 -10.0847 0.0166101
      vertex 11.6674 -10.0847 0.0525308
    endloop
  endfacet
  facet normal 0.707107 -4.32978e-17 -0.707107
    outer loop
      vertex 11.6315 -0.0753039 0.0166101
      vertex 11.6674 -0.0753039 0.0525308
      vertex 11.6315 -10.0847 0.0166101
    endloop
  endfacet
  facet normal 0.707107 -4.32978e-17 -0.707107
    outer loop
      vertex 11.6315 -10.0847 0.0166101
      vertex 11.6674 -0.0753039 0.0525308
      vertex 11.6674 -10.0847 0.0525308
    endloop
  endfacet
  facet normal 0.617564 0.487062 -0.617564
    outer loop
      vertex 11.6674 -0.0753039 0.0525308
      vertex 11.6315 -0.0753039 0.0166101
      vertex 11.6446 -0.0297581 0.0656788
    endloop
  endfacet
  facet normal 0.617564 0.487062 -0.617564
    outer loop
      vertex 11.6315 -0.0753039 0.0166101
      vertex 11.6183 -0.0297581 0.0393832
      vertex 11.6446 -0.0297581 0.0656788
    endloop
  endfacet
  facet normal 0.226045 0.487063 -0.843608
    outer loop
      vertex 11.6315 -0.0753039 0.0166101
      vertex 11.5824 -0.0297581 0.0297581
      vertex 11.6183 -0.0297581 0.0393832
    endloop
  endfacet
  facet normal 0.132788 0.858354 -0.495576
    outer loop
      vertex 11.5955 -0.00346202 0.0788269
      vertex 11.5824 -0.0297581 0.0297581
      vertex 11.5824 -0.00346202 0.0753039
    endloop
  endfacet
  facet normal 0 0.866023 -0.500004
    outer loop
      vertex 10.033 -0.0297581 0.0297581
      vertex 10.033 -0.00346202 0.0753039
      vertex 11.5824 -0.0297581 0.0297581
    endloop
  endfacet
  facet normal 0 0.866023 -0.500004
    outer loop
      vertex 11.5824 -0.0297581 0.0297581
      vertex 10.033 -0.00346202 0.0753039
      vertex 11.5824 -0.00346202 0.0753039
    endloop
  endfacet
  facet normal 0.13279 0.858354 -0.495576
    outer loop
      vertex 11.6183 -0.0297581 0.0393832
      vertex 11.5824 -0.0297581 0.0297581
      vertex 11.5955 -0.00346202 0.0788269
    endloop
  endfacet
  facet normal -0.132788 0.858354 -0.495576
    outer loop
      vertex 10.033 -0.0297581 0.0297581
      vertex 10.0199 -0.00346202 0.0788269
      vertex 10.033 -0.00346202 0.0753039
    endloop
  endfacet
  facet normal -0.13279 0.858354 -0.495576
    outer loop
      vertex 10.033 -0.0297581 0.0297581
      vertex 9.99708 -0.0297581 0.0393832
      vertex 10.0199 -0.00346202 0.0788269
    endloop
  endfacet
  facet normal -0.226045 0.487063 -0.843608
    outer loop
      vertex 10.033 -0.0297581 0.0297581
      vertex 9.98393 -0.0753039 0.0166101
      vertex 9.99708 -0.0297581 0.0393832
    endloop
  endfacet
  facet normal -0.707107 -4.32978e-17 -0.707107
    outer loop
      vertex 9.94801 -0.0753039 0.0525308
      vertex 9.98393 -0.0753039 0.0166101
      vertex 9.94801 -8.14461 0.0525308
    endloop
  endfacet
  facet normal -0.707107 -4.32978e-17 -0.707107
    outer loop
      vertex 9.97078 -8.15776 0.0297581
      vertex 9.98393 -0.0753039 0.0166101
      vertex 9.98393 -8.18053 0.0166101
    endloop
  endfacet
  facet normal -0.707107 -4.32978e-17 -0.707107
    outer loop
      vertex 9.94801 -8.14461 0.0525308
      vertex 9.98393 -0.0753039 0.0166101
      vertex 9.97078 -8.15776 0.0297581
    endloop
  endfacet
  facet normal -0.617564 0.487062 -0.617564
    outer loop
      vertex 9.94801 -0.0753039 0.0525308
      vertex 9.97078 -0.0297581 0.0656788
      vertex 9.98393 -0.0753039 0.0166101
    endloop
  endfacet
  facet normal -0.617564 0.487062 -0.617564
    outer loop
      vertex 9.98393 -0.0753039 0.0166101
      vertex 9.97078 -0.0297581 0.0656788
      vertex 9.99708 -0.0297581 0.0393832
    endloop
  endfacet
  facet normal 0 0.866023 -0.500004
    outer loop
      vertex 1.71322 -8.15776 0.0297581
      vertex 1.73599 -8.14461 0.0525308
      vertex 9.97078 -8.15776 0.0297581
    endloop
  endfacet
  facet normal 0 0.866023 -0.500004
    outer loop
      vertex 9.97078 -8.15776 0.0297581
      vertex 1.73599 -8.14461 0.0525308
      vertex 1.74209 -8.13146 0.0753039
    endloop
  endfacet
  facet normal 0 0.866023 -0.500004
    outer loop
      vertex 9.94801 -8.14461 0.0525308
      vertex 1.74209 -8.13146 0.0753039
      vertex 9.94191 -8.13146 0.0753039
    endloop
  endfacet
  facet normal 0 0.866023 -0.500004
    outer loop
      vertex 9.97078 -8.15776 0.0297581
      vertex 1.74209 -8.13146 0.0753039
      vertex 9.94801 -8.14461 0.0525308
    endloop
  endfacet
  facet normal 0.707107 -4.32978e-17 -0.707107
    outer loop
      vertex 1.70007 -0.0753039 0.0166101
      vertex 1.73599 -0.0753039 0.0525308
      vertex 1.70007 -8.18053 0.0166101
    endloop
  endfacet
  facet normal 0.707107 -4.32978e-17 -0.707107
    outer loop
      vertex 1.71322 -8.15776 0.0297581
      vertex 1.73599 -0.0753039 0.0525308
      vertex 1.73599 -8.14461 0.0525308
    endloop
  endfacet
  facet normal 0.707107 -4.32978e-17 -0.707107
    outer loop
      vertex 1.70007 -8.18053 0.0166101
      vertex 1.73599 -0.0753039 0.0525308
      vertex 1.71322 -8.15776 0.0297581
    endloop
  endfacet
  facet normal 0.965926 -1.58481e-17 -0.258819
    outer loop
      vertex 1.73599 -8.14461 0.0525308
      vertex 1.73599 -0.0753039 0.0525308
      vertex 1.74914 -0.0753039 0.1016
    endloop
  endfacet
  facet normal 0.965926 -1.58481e-17 -0.258819
    outer loop
      vertex 1.74209 -8.13146 0.0753039
      vertex 1.73599 -8.14461 0.0525308
      vertex 1.74914 -0.0753039 0.1016
    endloop
  endfacet
  facet normal 0.965926 -1.58481e-17 -0.258819
    outer loop
      vertex 1.74914 -8.13146 0.1016
      vertex 1.74209 -8.13146 0.0753039
      vertex 1.74914 -0.0753039 0.1016
    endloop
  endfacet
  facet normal 1 0 0
    outer loop
      vertex 1.74914 -8.13146 0.1016
      vertex 1.74914 -0.0753039 0.1016
      vertex 1.74914 -0.0753039 8.5344
    endloop
  endfacet
  facet normal 1 0 0
    outer loop
      vertex 1.74914 -8.13146 8.5344
      vertex 1.74914 -8.13146 0.1016
      vertex 1.74914 -0.0753039 8.5344
    endloop
  endfacet
  facet normal 0.965926 1.58481e-17 0.258819
    outer loop
      vertex 1.74914 -0.0753039 8.5344
      vertex 1.73599 -0.0753039 8.58347
      vertex 1.73599 -8.14461 8.58347
    endloop
  endfacet
  facet normal 0.965926 1.58481e-17 0.258819
    outer loop
      vertex 1.74914 -8.13146 8.5344
      vertex 1.74914 -0.0753039 8.5344
      vertex 1.74209 -8.13146 8.5607
    endloop
  endfacet
  facet normal 0.965926 1.58481e-17 0.258819
    outer loop
      vertex 1.74209 -8.13146 8.5607
      vertex 1.74914 -0.0753039 8.5344
      vertex 1.73599 -8.14461 8.58347
    endloop
  endfacet
  facet normal 0.707107 4.32978e-17 0.707107
    outer loop
      vertex 1.73599 -0.0753039 8.58347
      vertex 1.70007 -0.0753039 8.61939
      vertex 1.70007 -8.18053 8.61939
    endloop
  endfacet
  facet normal 0.707107 4.32978e-17 0.707107
    outer loop
      vertex 1.73599 -8.14461 8.58347
      vertex 1.73599 -0.0753039 8.58347
      vertex 1.71322 -8.15776 8.60624
    endloop
  endfacet
  facet normal 0.707107 4.32978e-17 0.707107
    outer loop
      vertex 1.71322 -8.15776 8.60624
      vertex 1.73599 -0.0753039 8.58347
      vertex 1.70007 -8.18053 8.61939
    endloop
  endfacet
  facet normal 0.258819 5.91459e-17 0.965926
    outer loop
      vertex 1.70007 -0.0753039 8.61939
      vertex 1.651 -0.0753039 8.63254
      vertex 1.651 -8.2033 8.63254
    endloop
  endfacet
  facet normal 0.258819 5.91459e-17 0.965926
    outer loop
      vertex 1.70007 -8.18053 8.61939
      vertex 1.70007 -0.0753039 8.61939
      vertex 1.651 -8.2033 8.63254
    endloop
  endfacet
  facet normal 0 0.500004 0.866023
    outer loop
      vertex 1.70007 -8.18053 8.61939
      vertex 1.651 -8.2033 8.63254
      vertex 10.033 -8.2033 8.63254
    endloop
  endfacet
  facet normal 0 0.500004 0.866023
    outer loop
      vertex 9.97078 -8.15776 8.60624
      vertex 1.70007 -8.18053 8.61939
      vertex 9.98393 -8.18053 8.61939
    endloop
  endfacet
  facet normal 0 0.500004 0.866023
    outer loop
      vertex 9.98393 -8.18053 8.61939
      vertex 1.70007 -8.18053 8.61939
      vertex 10.033 -8.2033 8.63254
    endloop
  endfacet
  facet normal 0 0.500004 0.866023
    outer loop
      vertex 1.71322 -8.15776 8.60624
      vertex 1.70007 -8.18053 8.61939
      vertex 9.97078 -8.15776 8.60624
    endloop
  endfacet
  facet normal -0.258819 5.91459e-17 0.965926
    outer loop
      vertex 10.033 -0.0753039 8.63254
      vertex 9.98393 -0.0753039 8.61939
      vertex 9.98393 -8.18053 8.61939
    endloop
  endfacet
  facet normal -0.258819 5.91459e-17 0.965926
    outer loop
      vertex 10.033 -8.2033 8.63254
      vertex 10.033 -0.0753039 8.63254
      vertex 9.98393 -8.18053 8.61939
    endloop
  endfacet
  facet normal 0 0.500004 0.866023
    outer loop
      vertex 11.5824 -0.0297581 8.60624
      vertex 10.033 -0.0297581 8.60624
      vertex 10.033 -0.0753039 8.63254
    endloop
  endfacet
  facet normal 0 0.500004 0.866023
    outer loop
      vertex 11.5824 -0.0753039 8.63254
      vertex 11.5824 -0.0297581 8.60624
      vertex 10.033 -0.0753039 8.63254
    endloop
  endfacet
  facet normal -0.226044 0.487062 0.843608
    outer loop
      vertex 10.033 -0.0297581 8.60624
      vertex 9.98393 -0.0753039 8.61939
      vertex 10.033 -0.0753039 8.63254
    endloop
  endfacet
  facet normal 0.226044 0.487062 0.843608
    outer loop
      vertex 11.6315 -0.0753039 8.61939
      vertex 11.5824 -0.0297581 8.60624
      vertex 11.5824 -0.0753039 8.63254
    endloop
  endfacet
  facet normal 0.258819 5.91459e-17 0.965926
    outer loop
      vertex 11.6315 -0.0753039 8.61939
      vertex 11.5824 -0.0753039 8.63254
      vertex 11.5824 -10.0847 8.63254
    endloop
  endfacet
  facet normal 0.258819 5.91459e-17 0.965926
    outer loop
      vertex 11.6315 -10.0847 8.61939
      vertex 11.6315 -0.0753039 8.61939
      vertex 11.5824 -10.0847 8.63254
    endloop
  endfacet
  facet normal 0.226044 -0.487062 0.843608
    outer loop
      vertex 11.6315 -10.0847 8.61939
      vertex 11.5824 -10.0847 8.63254
      vertex 11.6176 -10.0847 8.62309
    endloop
  endfacet
  facet normal 0.226044 -0.487062 0.843608
    outer loop
      vertex 11.6258 -10.09 8.61787
      vertex 11.6315 -10.0847 8.61939
      vertex 11.6176 -10.0847 8.62309
    endloop
  endfacet
  facet normal 0.226044 -0.487062 0.843608
    outer loop
      vertex 11.5824 -10.0847 8.63254
      vertex 11.5824 -10.1302 8.60624
      vertex 11.6258 -10.09 8.61787
    endloop
  endfacet
  facet normal 0.226044 -0.487062 0.843608
    outer loop
      vertex 11.6176 -10.0847 8.62309
      vertex 11.5824 -10.0847 8.63254
      vertex 11.6258 -10.09 8.61787
    endloop
  endfacet
  facet normal 0 -0.500004 0.866023
    outer loop
      vertex 11.5824 -10.0847 8.63254
      vertex 1.651 -10.0847 8.63254
      vertex 1.70007 -10.1075 8.61939
    endloop
  endfacet
  facet normal 0 -0.500004 0.866023
    outer loop
      vertex 1.71322 -10.1302 8.60624
      vertex 11.5824 -10.0847 8.63254
      vertex 1.70007 -10.1075 8.61939
    endloop
  endfacet
  facet normal 0 -0.500004 0.866023
    outer loop
      vertex 1.71322 -10.1302 8.60624
      vertex 11.5824 -10.1302 8.60624
      vertex 11.5824 -10.0847 8.63254
    endloop
  endfacet
  facet normal 0.258819 5.91459e-17 0.965926
    outer loop
      vertex 1.70007 -10.1075 8.61939
      vertex 1.651 -10.0847 8.63254
      vertex 1.651 -20.2447 8.63254
    endloop
  endfacet
  facet normal 0.258819 5.91459e-17 0.965926
    outer loop
      vertex 1.70007 -20.2447 8.61939
      vertex 1.70007 -10.1075 8.61939
      vertex 1.651 -20.2447 8.63254
    endloop
  endfacet
  facet normal 0.226044 -0.487062 0.843608
    outer loop
      vertex 1.651 -20.2447 8.63254
      vertex 1.651 -20.2902 8.60624
      vertex 1.70007 -20.2447 8.61939
    endloop
  endfacet
  facet normal 0.226045 -0.487063 0.843608
    outer loop
      vertex 1.70007 -20.2447 8.61939
      vertex 1.651 -20.2902 8.60624
      vertex 1.68692 -20.2902 8.59662
    endloop
  endfacet
  facet normal 0.617564 -0.487062 0.617564
    outer loop
      vertex 1.70007 -20.2447 8.61939
      vertex 1.68692 -20.2902 8.59662
      vertex 1.71322 -20.2902 8.57032
    endloop
  endfacet
  facet normal 0.617564 -0.487062 0.617564
    outer loop
      vertex 1.73599 -20.2447 8.58347
      vertex 1.70007 -20.2447 8.61939
      vertex 1.71322 -20.2902 8.57032
    endloop
  endfacet
  facet normal 0.843608 -0.487063 0.226045
    outer loop
      vertex 1.73599 -20.2447 8.58347
      vertex 1.71322 -20.2902 8.57032
      vertex 1.72284 -20.2902 8.5344
    endloop
  endfacet
  facet normal 0.843608 -0.487062 0.226044
    outer loop
      vertex 1.73599 -20.2447 8.58347
      vertex 1.72284 -20.2902 8.5344
      vertex 1.74914 -20.2447 8.5344
    endloop
  endfacet
  facet normal 0.866023 -0.500004 3.06164e-17
    outer loop
      vertex 1.72284 -20.2902 8.5344
      vertex 1.72284 -20.2902 0.1016
      vertex 1.74914 -20.2447 0.1016
    endloop
  endfacet
  facet normal 0.866023 -0.500004 3.06164e-17
    outer loop
      vertex 1.74914 -20.2447 8.5344
      vertex 1.72284 -20.2902 8.5344
      vertex 1.74914 -20.2447 0.1016
    endloop
  endfacet
  facet normal 0.843608 -0.487062 -0.226044
    outer loop
      vertex 1.74914 -20.2447 0.1016
      vertex 1.72284 -20.2902 0.1016
      vertex 1.73599 -20.2447 0.0525308
    endloop
  endfacet
  facet normal 0.843608 -0.487063 -0.226045
    outer loop
      vertex 1.72284 -20.2902 0.1016
      vertex 1.71322 -20.2902 0.0656788
      vertex 1.73599 -20.2447 0.0525308
    endloop
  endfacet
  facet normal 0.965926 -1.58481e-17 -0.258819
    outer loop
      vertex 1.73599 -20.2447 0.0525308
      vertex 1.73599 -10.1434 0.0525308
      vertex 1.74209 -10.1565 0.0753039
    endloop
  endfacet
  facet normal 0.965926 -1.58481e-17 -0.258819
    outer loop
      vertex 1.74914 -10.1565 0.1016
      vertex 1.73599 -20.2447 0.0525308
      vertex 1.74209 -10.1565 0.0753039
    endloop
  endfacet
  facet normal 0.965926 -1.58481e-17 -0.258819
    outer loop
      vertex 1.74914 -10.1565 0.1016
      vertex 1.74914 -20.2447 0.1016
      vertex 1.73599 -20.2447 0.0525308
    endloop
  endfacet
  facet normal 0 -1 6.12323e-17
    outer loop
      vertex 1.74914 -10.1565 0.1016
      vertex 1.74209 -10.1565 0.0753039
      vertex 10.033 -10.1565 0.0753039
    endloop
  endfacet
  facet normal 0 -1 6.12323e-17
    outer loop
      vertex 10.0199 -10.1565 0.0788269
      vertex 1.74914 -10.1565 0.1016
      vertex 10.033 -10.1565 0.0753039
    endloop
  endfacet
  facet normal 0 -1 6.12323e-17
    outer loop
      vertex 10.0102 -10.1565 0.0884519
      vertex 1.74914 -10.1565 0.1016
      vertex 10.0199 -10.1565 0.0788269
    endloop
  endfacet
  facet normal 0 -1 6.12323e-17
    outer loop
      vertex 10.0067 -10.1565 0.1016
      vertex 1.74914 -10.1565 0.1016
      vertex 10.0102 -10.1565 0.0884519
    endloop
  endfacet
  facet normal 0 -1 6.12323e-17
    outer loop
      vertex 10.0067 -10.1565 8.5344
      vertex 1.74914 -10.1565 0.1016
      vertex 10.0067 -10.1565 0.1016
    endloop
  endfacet
  facet normal 0 -1 6.12323e-17
    outer loop
      vertex 10.0102 -10.1565 8.54755
      vertex 1.74914 -10.1565 0.1016
      vertex 10.0067 -10.1565 8.5344
    endloop
  endfacet
  facet normal 0 -1 6.12323e-17
    outer loop
      vertex 1.74914 -10.1565 8.5344
      vertex 1.74914 -10.1565 0.1016
      vertex 10.0102 -10.1565 8.54755
    endloop
  endfacet
  facet normal 0 -1 6.12323e-17
    outer loop
      vertex 1.74209 -10.1565 8.5607
      vertex 10.0102 -10.1565 8.54755
      vertex 10.0199 -10.1565 8.55717
    endloop
  endfacet
  facet normal 0 -1 6.12323e-17
    outer loop
      vertex 1.74209 -10.1565 8.5607
      vertex 10.0199 -10.1565 8.55717
      vertex 10.033 -10.1565 8.5607
    endloop
  endfacet
  facet normal 0 -1 6.12323e-17
    outer loop
      vertex 1.74209 -10.1565 8.5607
      vertex 1.74914 -10.1565 8.5344
      vertex 10.0102 -10.1565 8.54755
    endloop
  endfacet
  facet normal 0 -0.866023 -0.500004
    outer loop
      vertex 10.033 -10.1565 0.0753039
      vertex 10.033 -10.15 0.0639174
      vertex 11.5824 -10.15 0.0639174
    endloop
  endfacet
  facet normal 0 -0.866023 -0.500004
    outer loop
      vertex 11.5824 -10.1565 0.0753039
      vertex 10.033 -10.1565 0.0753039
      vertex 11.5824 -10.15 0.0639174
    endloop
  endfacet
  facet normal 0.132788 -0.858354 -0.495576
    outer loop
      vertex 11.5824 -10.1565 0.0753039
      vertex 11.5824 -10.15 0.0639174
      vertex 11.5919 -10.1492 0.0651894
    endloop
  endfacet
  facet normal 0.132788 -0.858354 -0.495576
    outer loop
      vertex 11.5955 -10.1565 0.0788269
      vertex 11.5824 -10.1565 0.0753039
      vertex 11.5919 -10.1492 0.0651894
    endloop
  endfacet
  facet normal 0.13279 -0.858354 -0.495576
    outer loop
      vertex 11.5955 -10.1565 0.0788269
      vertex 11.5919 -10.1492 0.0651894
      vertex 11.6021 -10.1489 0.0674404
    endloop
  endfacet
  facet normal 0.13279 -0.858354 -0.495576
    outer loop
      vertex 11.6036 -10.1472 0.0647982
      vertex 11.5955 -10.1565 0.0788269
      vertex 11.6021 -10.1489 0.0674404
    endloop
  endfacet
  facet normal 0.362786 -0.858355 -0.362786
    outer loop
      vertex 11.6036 -10.1472 0.0647982
      vertex 11.6021 -10.1489 0.0674404
      vertex 11.6183 -10.1302 0.0393832
    endloop
  endfacet
  facet normal 0.362786 -0.858355 -0.362786
    outer loop
      vertex 11.6088 -10.1492 0.0747354
      vertex 11.6036 -10.1472 0.0647982
      vertex 11.6183 -10.1302 0.0393832
    endloop
  endfacet
  facet normal 0.362786 -0.858355 -0.362786
    outer loop
      vertex 11.6446 -10.1302 0.0656788
      vertex 11.6088 -10.1492 0.0747354
      vertex 11.6183 -10.1302 0.0393832
    endloop
  endfacet
  facet normal 0.362786 -0.858355 -0.362786
    outer loop
      vertex 11.643 -10.1313 0.0665848
      vertex 11.6088 -10.1492 0.0747354
      vertex 11.6446 -10.1302 0.0656788
    endloop
  endfacet
  facet normal 0.617564 -0.487062 -0.617564
    outer loop
      vertex 11.6243 -10.1302 0.0453701
      vertex 11.6183 -10.1302 0.0393832
      vertex 11.6265 -10.1226 0.0415752
    endloop
  endfacet
  facet normal 0.617564 -0.487062 -0.617564
    outer loop
      vertex 11.6446 -10.1302 0.0656788
      vertex 11.6183 -10.1302 0.0393832
      vertex 11.6243 -10.1302 0.0453701
    endloop
  endfacet
  facet normal 0.617564 -0.487062 -0.617564
    outer loop
      vertex 11.6233 -10.1128 0.0306871
      vertex 11.6183 -10.1302 0.0393832
      vertex 11.6297 -10.0908 0.019661
    endloop
  endfacet
  facet normal 0.617564 -0.487062 -0.617564
    outer loop
      vertex 11.6265 -10.1226 0.0415752
      vertex 11.6183 -10.1302 0.0393832
      vertex 11.6233 -10.1128 0.0306871
    endloop
  endfacet
  facet normal 0.362786 -0.858355 -0.362786
    outer loop
      vertex 11.643 -10.1313 0.0665848
      vertex 11.6052 -10.1565 0.0884519
      vertex 11.6088 -10.1492 0.0747354
    endloop
  endfacet
  facet normal 0.362786 -0.858355 -0.362786
    outer loop
      vertex 11.6446 -10.1302 0.0656788
      vertex 11.6052 -10.1565 0.0884519
      vertex 11.643 -10.1313 0.0665848
    endloop
  endfacet
  facet normal 0.495576 -0.858354 -0.13279
    outer loop
      vertex 11.6493 -10.1329 0.100263
      vertex 11.6052 -10.1565 0.0884519
      vertex 11.6446 -10.1302 0.0656788
    endloop
  endfacet
  facet normal 0.495576 -0.858354 -0.13279
    outer loop
      vertex 11.6533 -10.1302 0.098078
      vertex 11.6493 -10.1329 0.100263
      vertex 11.6446 -10.1302 0.0656788
    endloop
  endfacet
  facet normal 0.495576 -0.858354 -0.13279
    outer loop
      vertex 11.6542 -10.1302 0.1016
      vertex 11.6533 -10.1302 0.098078
      vertex 11.6446 -10.1302 0.0656788
    endloop
  endfacet
  facet normal 0.843608 -0.487063 -0.226045
    outer loop
      vertex 11.6542 -10.1302 0.1016
      vertex 11.6446 -10.1302 0.0656788
      vertex 11.6674 -10.0847 0.0525308
    endloop
  endfacet
  facet normal 0.843608 -0.487062 -0.226044
    outer loop
      vertex 11.6766 -10.0915 0.1016
      vertex 11.6542 -10.1302 0.1016
      vertex 11.6674 -10.0847 0.0525308
    endloop
  endfacet
  facet normal 0.843608 -0.487062 -0.226044
    outer loop
      vertex 11.6795 -10.0847 0.0975528
      vertex 11.6766 -10.0915 0.1016
      vertex 11.6674 -10.0847 0.0525308
    endloop
  endfacet
  facet normal 0.843608 -0.487062 -0.226044
    outer loop
      vertex 11.6805 -10.0847 0.1016
      vertex 11.6795 -10.0847 0.0975528
      vertex 11.6674 -10.0847 0.0525308
    endloop
  endfacet
  facet normal 0.965926 -1.58481e-17 -0.258819
    outer loop
      vertex 11.6674 -10.0847 0.0525308
      vertex 11.6674 -0.0753039 0.0525308
      vertex 11.6805 -0.0753039 0.1016
    endloop
  endfacet
  facet normal 0.965926 -1.58481e-17 -0.258819
    outer loop
      vertex 11.6805 -10.0847 0.1016
      vertex 11.6674 -10.0847 0.0525308
      vertex 11.6805 -0.0753039 0.1016
    endloop
  endfacet
  facet normal 0.843608 0.487063 -0.226045
    outer loop
      vertex 11.6674 -0.0753039 0.0525308
      vertex 11.6446 -0.0297581 0.0656788
      vertex 11.6542 -0.0297581 0.1016
    endloop
  endfacet
  facet normal 0.843608 0.487062 -0.226044
    outer loop
      vertex 11.6674 -0.0753039 0.0525308
      vertex 11.6542 -0.0297581 0.1016
      vertex 11.6805 -0.0753039 0.1016
    endloop
  endfacet
  facet normal 0.495576 0.858354 -0.13279
    outer loop
      vertex 11.6446 -0.0297581 0.0656788
      vertex 11.6052 -0.00346202 0.0884519
      vertex 11.6542 -0.0297581 0.1016
    endloop
  endfacet
  facet normal 0.362786 0.858355 -0.362786
    outer loop
      vertex 11.6183 -0.0297581 0.0393832
      vertex 11.6052 -0.00346202 0.0884519
      vertex 11.6446 -0.0297581 0.0656788
    endloop
  endfacet
  facet normal 0.362786 0.858355 -0.362786
    outer loop
      vertex 11.6183 -0.0297581 0.0393832
      vertex 11.5955 -0.00346202 0.0788269
      vertex 11.6052 -0.00346202 0.0884519
    endloop
  endfacet
  facet normal 0 1 -6.12323e-17
    outer loop
      vertex 10.0067 -0.00346202 0.1016
      vertex 10.0067 -0.00346202 8.5344
      vertex 10.0102 -0.00346202 0.0884519
    endloop
  endfacet
  facet normal 0 1 -6.12323e-17
    outer loop
      vertex 10.0102 -0.00346202 0.0884519
      vertex 10.0067 -0.00346202 8.5344
      vertex 10.0102 -0.00346202 8.54755
    endloop
  endfacet
  facet normal 0 1 -6.12323e-17
    outer loop
      vertex 10.0102 -0.00346202 0.0884519
      vertex 10.0102 -0.00346202 8.54755
      vertex 10.0199 -0.00346202 8.55717
    endloop
  endfacet
  facet normal 0 1 -6.12323e-17
    outer loop
      vertex 10.0102 -0.00346202 0.0884519
      vertex 10.0199 -0.00346202 8.55717
      vertex 10.033 -0.00346202 8.5607
    endloop
  endfacet
  facet normal 0 1 -6.12323e-17
    outer loop
      vertex 10.0102 -0.00346202 0.0884519
      vertex 10.033 -0.00346202 8.5607
      vertex 11.5824 -0.00346202 8.5607
    endloop
  endfacet
  facet normal 0 1 -6.12323e-17
    outer loop
      vertex 10.0102 -0.00346202 0.0884519
      vertex 11.5824 -0.00346202 8.5607
      vertex 11.5955 -0.00346202 8.55717
    endloop
  endfacet
  facet normal 0 1 -6.12323e-17
    outer loop
      vertex 10.0102 -0.00346202 0.0884519
      vertex 11.5955 -0.00346202 8.55717
      vertex 11.6052 -0.00346202 8.54755
    endloop
  endfacet
  facet normal 0 1 -6.12323e-17
    outer loop
      vertex 10.0102 -0.00346202 0.0884519
      vertex 11.6052 -0.00346202 8.54755
      vertex 11.6087 -0.00346202 8.5344
    endloop
  endfacet
  facet normal 0 1 -6.12323e-17
    outer loop
      vertex 10.0102 -0.00346202 0.0884519
      vertex 11.6087 -0.00346202 8.5344
      vertex 11.6087 -0.00346202 0.1016
    endloop
  endfacet
  facet normal 0 1 -6.12323e-17
    outer loop
      vertex 10.0102 -0.00346202 0.0884519
      vertex 11.6087 -0.00346202 0.1016
      vertex 11.6052 -0.00346202 0.0884519
    endloop
  endfacet
  facet normal 0 1 -6.12323e-17
    outer loop
      vertex 10.0102 -0.00346202 0.0884519
      vertex 11.6052 -0.00346202 0.0884519
      vertex 11.5955 -0.00346202 0.0788269
    endloop
  endfacet
  facet normal 0 1 -6.12323e-17
    outer loop
      vertex 10.0102 -0.00346202 0.0884519
      vertex 11.5955 -0.00346202 0.0788269
      vertex 11.5824 -0.00346202 0.0753039
    endloop
  endfacet
  facet normal 0 1 -6.12323e-17
    outer loop
      vertex 10.0102 -0.00346202 0.0884519
      vertex 11.5824 -0.00346202 0.0753039
      vertex 10.033 -0.00346202 0.0753039
    endloop
  endfacet
  facet normal 0 1 -6.12323e-17
    outer loop
      vertex 10.0102 -0.00346202 0.0884519
      vertex 10.033 -0.00346202 0.0753039
      vertex 10.0199 -0.00346202 0.0788269
    endloop
  endfacet
  facet normal -0.362786 0.858355 -0.362786
    outer loop
      vertex 9.97078 -0.0297581 0.0656788
      vertex 10.0102 -0.00346202 0.0884519
      vertex 9.99708 -0.0297581 0.0393832
    endloop
  endfacet
  facet normal -0.362786 0.858355 -0.362786
    outer loop
      vertex 9.99708 -0.0297581 0.0393832
      vertex 10.0102 -0.00346202 0.0884519
      vertex 10.0199 -0.00346202 0.0788269
    endloop
  endfacet
  facet normal -0.965926 -1.58481e-17 -0.258819
    outer loop
      vertex 9.93486 -0.0753039 0.1016
      vertex 9.94801 -0.0753039 0.0525308
      vertex 9.93486 -8.13146 0.1016
    endloop
  endfacet
  facet normal -0.965926 -1.58481e-17 -0.258819
    outer loop
      vertex 9.94191 -8.13146 0.0753039
      vertex 9.94801 -0.0753039 0.0525308
      vertex 9.94801 -8.14461 0.0525308
    endloop
  endfacet
  facet normal -0.965926 -1.58481e-17 -0.258819
    outer loop
      vertex 9.93486 -8.13146 0.1016
      vertex 9.94801 -0.0753039 0.0525308
      vertex 9.94191 -8.13146 0.0753039
    endloop
  endfacet
  facet normal -0.843608 0.487063 -0.226045
    outer loop
      vertex 9.97078 -0.0297581 0.0656788
      vertex 9.94801 -0.0753039 0.0525308
      vertex 9.96116 -0.0297581 0.1016
    endloop
  endfacet
  facet normal -0.843608 0.487062 -0.226044
    outer loop
      vertex 9.94801 -0.0753039 0.0525308
      vertex 9.93486 -0.0753039 0.1016
      vertex 9.96116 -0.0297581 0.1016
    endloop
  endfacet
  facet normal -0.495576 0.858354 -0.13279
    outer loop
      vertex 9.97078 -0.0297581 0.0656788
      vertex 9.96116 -0.0297581 0.1016
      vertex 10.0102 -0.00346202 0.0884519
    endloop
  endfacet
  facet normal 0 1 -6.12323e-17
    outer loop
      vertex 1.74209 -8.13146 0.0753039
      vertex 1.74914 -8.13146 0.1016
      vertex 9.94191 -8.13146 0.0753039
    endloop
  endfacet
  facet normal 0 1 -6.12323e-17
    outer loop
      vertex 9.94191 -8.13146 0.0753039
      vertex 1.74914 -8.13146 0.1016
      vertex 1.74914 -8.13146 8.5344
    endloop
  endfacet
  facet normal 0 1 -6.12323e-17
    outer loop
      vertex 1.74914 -8.13146 8.5344
      vertex 1.74209 -8.13146 8.5607
      vertex 9.94191 -8.13146 0.0753039
    endloop
  endfacet
  facet normal 0 1 -6.12323e-17
    outer loop
      vertex 9.93486 -8.13146 8.5344
      vertex 1.74209 -8.13146 8.5607
      vertex 9.94191 -8.13146 8.5607
    endloop
  endfacet
  facet normal 0 1 -6.12323e-17
    outer loop
      vertex 9.93486 -8.13146 0.1016
      vertex 1.74209 -8.13146 8.5607
      vertex 9.93486 -8.13146 8.5344
    endloop
  endfacet
  facet normal 0 1 -6.12323e-17
    outer loop
      vertex 9.94191 -8.13146 0.0753039
      vertex 1.74209 -8.13146 8.5607
      vertex 9.93486 -8.13146 0.1016
    endloop
  endfacet
  facet normal 0 0.866023 0.500004
    outer loop
      vertex 1.71322 -8.15776 8.60624
      vertex 9.97078 -8.15776 8.60624
      vertex 1.73599 -8.14461 8.58347
    endloop
  endfacet
  facet normal 0 0.866023 0.500004
    outer loop
      vertex 1.73599 -8.14461 8.58347
      vertex 9.97078 -8.15776 8.60624
      vertex 9.94801 -8.14461 8.58347
    endloop
  endfacet
  facet normal 0 0.866023 0.500004
    outer loop
      vertex 1.73599 -8.14461 8.58347
      vertex 9.94801 -8.14461 8.58347
      vertex 9.94191 -8.13146 8.5607
    endloop
  endfacet
  facet normal 0 0.866023 0.500004
    outer loop
      vertex 1.73599 -8.14461 8.58347
      vertex 9.94191 -8.13146 8.5607
      vertex 1.74209 -8.13146 8.5607
    endloop
  endfacet
  facet normal -0.707107 4.32978e-17 0.707107
    outer loop
      vertex 9.98393 -0.0753039 8.61939
      vertex 9.94801 -0.0753039 8.58347
      vertex 9.94801 -8.14461 8.58347
    endloop
  endfacet
  facet normal -0.707107 4.32978e-17 0.707107
    outer loop
      vertex 9.98393 -8.18053 8.61939
      vertex 9.98393 -0.0753039 8.61939
      vertex 9.97078 -8.15776 8.60624
    endloop
  endfacet
  facet normal -0.707107 4.32978e-17 0.707107
    outer loop
      vertex 9.97078 -8.15776 8.60624
      vertex 9.98393 -0.0753039 8.61939
      vertex 9.94801 -8.14461 8.58347
    endloop
  endfacet
  facet normal -0.617564 0.487062 0.617564
    outer loop
      vertex 9.97078 -0.0297581 8.57032
      vertex 9.94801 -0.0753039 8.58347
      vertex 9.98393 -0.0753039 8.61939
    endloop
  endfacet
  facet normal -0.617564 0.487062 0.617564
    outer loop
      vertex 9.99708 -0.0297581 8.59662
      vertex 9.97078 -0.0297581 8.57032
      vertex 9.98393 -0.0753039 8.61939
    endloop
  endfacet
  facet normal -0.226045 0.487063 0.843608
    outer loop
      vertex 9.99708 -0.0297581 8.59662
      vertex 9.98393 -0.0753039 8.61939
      vertex 10.033 -0.0297581 8.60624
    endloop
  endfacet
  facet normal 0 0.866023 0.500004
    outer loop
      vertex 10.033 -0.00346202 8.5607
      vertex 10.033 -0.0297581 8.60624
      vertex 11.5824 -0.00346202 8.5607
    endloop
  endfacet
  facet normal 0 0.866023 0.500004
    outer loop
      vertex 11.5824 -0.00346202 8.5607
      vertex 10.033 -0.0297581 8.60624
      vertex 11.5824 -0.0297581 8.60624
    endloop
  endfacet
  facet normal 0.132788 0.858354 0.495576
    outer loop
      vertex 11.5955 -0.00346202 8.55717
      vertex 11.5824 -0.00346202 8.5607
      vertex 11.5824 -0.0297581 8.60624
    endloop
  endfacet
  facet normal 0.13279 0.858354 0.495576
    outer loop
      vertex 11.5955 -0.00346202 8.55717
      vertex 11.5824 -0.0297581 8.60624
      vertex 11.6183 -0.0297581 8.59662
    endloop
  endfacet
  facet normal 0.226045 0.487063 0.843608
    outer loop
      vertex 11.6183 -0.0297581 8.59662
      vertex 11.5824 -0.0297581 8.60624
      vertex 11.6315 -0.0753039 8.61939
    endloop
  endfacet
  facet normal -0.13279 0.858354 0.495576
    outer loop
      vertex 10.0199 -0.00346202 8.55717
      vertex 9.99708 -0.0297581 8.59662
      vertex 10.033 -0.0297581 8.60624
    endloop
  endfacet
  facet normal -0.132788 0.858354 0.495576
    outer loop
      vertex 10.033 -0.00346202 8.5607
      vertex 10.0199 -0.00346202 8.55717
      vertex 10.033 -0.0297581 8.60624
    endloop
  endfacet
  facet normal 0.617564 0.487062 0.617564
    outer loop
      vertex 11.6446 -0.0297581 8.57032
      vertex 11.6183 -0.0297581 8.59662
      vertex 11.6315 -0.0753039 8.61939
    endloop
  endfacet
  facet normal 0.617564 0.487062 0.617564
    outer loop
      vertex 11.6446 -0.0297581 8.57032
      vertex 11.6315 -0.0753039 8.61939
      vertex 11.6674 -0.0753039 8.58347
    endloop
  endfacet
  facet normal 0.707107 4.32978e-17 0.707107
    outer loop
      vertex 11.6674 -0.0753039 8.58347
      vertex 11.6315 -0.0753039 8.61939
      vertex 11.6315 -10.0847 8.61939
    endloop
  endfacet
  facet normal 0.707107 4.32978e-17 0.707107
    outer loop
      vertex 11.6674 -10.0847 8.58347
      vertex 11.6674 -0.0753039 8.58347
      vertex 11.6315 -10.0847 8.61939
    endloop
  endfacet
  facet normal 0.226045 -0.487063 0.843608
    outer loop
      vertex 11.6297 -10.0908 8.61634
      vertex 11.6233 -10.1128 8.60531
      vertex 11.6315 -10.0847 8.61939
    endloop
  endfacet
  facet normal 0.226045 -0.487063 0.843608
    outer loop
      vertex 11.6258 -10.09 8.61787
      vertex 11.6297 -10.0908 8.61634
      vertex 11.6315 -10.0847 8.61939
    endloop
  endfacet
  facet normal 0.617564 -0.487062 0.617564
    outer loop
      vertex 11.6674 -10.0847 8.58347
      vertex 11.6315 -10.0847 8.61939
      vertex 11.6446 -10.1302 8.57032
    endloop
  endfacet
  facet normal 0.617564 -0.487062 0.617564
    outer loop
      vertex 11.6315 -10.0847 8.61939
      vertex 11.6233 -10.1128 8.60531
      vertex 11.6243 -10.1302 8.59063
    endloop
  endfacet
  facet normal 0.617564 -0.487062 0.617564
    outer loop
      vertex 11.6446 -10.1302 8.57032
      vertex 11.6315 -10.0847 8.61939
      vertex 11.6243 -10.1302 8.59063
    endloop
  endfacet
  facet normal 0.226045 -0.487063 0.843608
    outer loop
      vertex 11.6258 -10.09 8.61787
      vertex 11.5824 -10.1302 8.60624
      vertex 11.6183 -10.1302 8.59662
    endloop
  endfacet
  facet normal 0.226045 -0.487063 0.843608
    outer loop
      vertex 11.6297 -10.0908 8.61634
      vertex 11.6258 -10.09 8.61787
      vertex 11.6183 -10.1302 8.59662
    endloop
  endfacet
  facet normal 0.13279 -0.858354 0.495576
    outer loop
      vertex 11.6183 -10.1302 8.59662
      vertex 11.5824 -10.1302 8.60624
      vertex 11.5919 -10.1492 8.57081
    endloop
  endfacet
  facet normal 0.13279 -0.858354 0.495576
    outer loop
      vertex 11.5919 -10.1492 8.57081
      vertex 11.6021 -10.1489 8.56856
      vertex 11.6183 -10.1302 8.59662
    endloop
  endfacet
  facet normal 0.132788 -0.858354 0.495576
    outer loop
      vertex 11.5824 -10.1302 8.60624
      vertex 11.5824 -10.15 8.57208
      vertex 11.5919 -10.1492 8.57081
    endloop
  endfacet
  facet normal 0 -0.866023 0.500004
    outer loop
      vertex 11.5824 -10.1302 8.60624
      vertex 1.71322 -10.1302 8.60624
      vertex 1.73599 -10.1434 8.58347
    endloop
  endfacet
  facet normal 0 -0.866023 0.500004
    outer loop
      vertex 1.74209 -10.1565 8.5607
      vertex 11.5824 -10.1302 8.60624
      vertex 1.73599 -10.1434 8.58347
    endloop
  endfacet
  facet normal 0 -0.866023 0.500004
    outer loop
      vertex 1.74209 -10.1565 8.5607
      vertex 10.033 -10.15 8.57208
      vertex 11.5824 -10.1302 8.60624
    endloop
  endfacet
  facet normal 0 -0.866023 0.500004
    outer loop
      vertex 1.74209 -10.1565 8.5607
      vertex 10.033 -10.1565 8.5607
      vertex 10.033 -10.15 8.57208
    endloop
  endfacet
  facet normal 0 -0.866023 0.500004
    outer loop
      vertex 10.033 -10.15 8.57208
      vertex 11.5824 -10.15 8.57208
      vertex 11.5824 -10.1302 8.60624
    endloop
  endfacet
  facet normal 0.707107 4.32978e-17 0.707107
    outer loop
      vertex 1.71322 -10.1302 8.60624
      vertex 1.70007 -10.1075 8.61939
      vertex 1.70007 -20.2447 8.61939
    endloop
  endfacet
  facet normal 0.707107 4.32978e-17 0.707107
    outer loop
      vertex 1.73599 -10.1434 8.58347
      vertex 1.71322 -10.1302 8.60624
      vertex 1.73599 -20.2447 8.58347
    endloop
  endfacet
  facet normal 0.707107 4.32978e-17 0.707107
    outer loop
      vertex 1.73599 -20.2447 8.58347
      vertex 1.71322 -10.1302 8.60624
      vertex 1.70007 -20.2447 8.61939
    endloop
  endfacet
  facet normal 0.965926 1.58481e-17 0.258819
    outer loop
      vertex 1.74209 -10.1565 8.5607
      vertex 1.73599 -10.1434 8.58347
      vertex 1.73599 -20.2447 8.58347
    endloop
  endfacet
  facet normal 0.965926 1.58481e-17 0.258819
    outer loop
      vertex 1.74914 -10.1565 8.5344
      vertex 1.74209 -10.1565 8.5607
      vertex 1.74914 -20.2447 8.5344
    endloop
  endfacet
  facet normal 0.965926 1.58481e-17 0.258819
    outer loop
      vertex 1.74914 -20.2447 8.5344
      vertex 1.74209 -10.1565 8.5607
      vertex 1.73599 -20.2447 8.58347
    endloop
  endfacet
  facet normal 1 0 0
    outer loop
      vertex 1.74914 -20.2447 0.1016
      vertex 1.74914 -10.1565 0.1016
      vertex 1.74914 -10.1565 8.5344
    endloop
  endfacet
  facet normal 1 0 0
    outer loop
      vertex 1.74914 -20.2447 8.5344
      vertex 1.74914 -20.2447 0.1016
      vertex 1.74914 -10.1565 8.5344
    endloop
  endfacet
  facet normal 0 -1 6.12323e-17
    outer loop
      vertex 10.0067 -10.1565 8.5344
      vertex 10.0067 -10.1565 0.1016
      vertex 10.0102 -10.1565 0.0884519
    endloop
  endfacet
  facet normal 0 -1 6.12323e-17
    outer loop
      vertex 10.033 -10.1565 0.0753039
      vertex 10.0067 -10.1565 8.5344
      vertex 10.0199 -10.1565 0.0788269
    endloop
  endfacet
  facet normal 0 -1 6.12323e-17
    outer loop
      vertex 10.0199 -10.1565 0.0788269
      vertex 10.0067 -10.1565 8.5344
      vertex 10.0102 -10.1565 0.0884519
    endloop
  endfacet
  facet normal 0 -1 6.12323e-17
    outer loop
      vertex 11.5824 -10.1565 0.0753039
      vertex 10.0067 -10.1565 8.5344
      vertex 10.033 -10.1565 0.0753039
    endloop
  endfacet
  facet normal 0 -1 6.12323e-17
    outer loop
      vertex 11.5955 -10.1565 0.0788269
      vertex 10.0067 -10.1565 8.5344
      vertex 11.5824 -10.1565 0.0753039
    endloop
  endfacet
  facet normal 0 -1 6.12323e-17
    outer loop
      vertex 11.6052 -10.1565 0.0884519
      vertex 10.0067 -10.1565 8.5344
      vertex 11.5955 -10.1565 0.0788269
    endloop
  endfacet
  facet normal 0 -1 6.12323e-17
    outer loop
      vertex 11.6087 -10.1565 0.1016
      vertex 10.0067 -10.1565 8.5344
      vertex 11.6052 -10.1565 0.0884519
    endloop
  endfacet
  facet normal 0 -1 6.12323e-17
    outer loop
      vertex 11.6087 -10.1565 8.5344
      vertex 10.0067 -10.1565 8.5344
      vertex 11.6087 -10.1565 0.1016
    endloop
  endfacet
  facet normal 0 -1 6.12323e-17
    outer loop
      vertex 11.6052 -10.1565 8.54755
      vertex 10.0067 -10.1565 8.5344
      vertex 11.6087 -10.1565 8.5344
    endloop
  endfacet
  facet normal 0 -1 6.12323e-17
    outer loop
      vertex 11.5955 -10.1565 8.55717
      vertex 10.0067 -10.1565 8.5344
      vertex 11.6052 -10.1565 8.54755
    endloop
  endfacet
  facet normal 0 -1 6.12323e-17
    outer loop
      vertex 11.5824 -10.1565 8.5607
      vertex 10.0067 -10.1565 8.5344
      vertex 11.5955 -10.1565 8.55717
    endloop
  endfacet
  facet normal 0 -1 6.12323e-17
    outer loop
      vertex 10.033 -10.1565 8.5607
      vertex 10.0067 -10.1565 8.5344
      vertex 11.5824 -10.1565 8.5607
    endloop
  endfacet
  facet normal 0 -1 6.12323e-17
    outer loop
      vertex 10.0199 -10.1565 8.55717
      vertex 10.0067 -10.1565 8.5344
      vertex 10.033 -10.1565 8.5607
    endloop
  endfacet
  facet normal 0 -1 6.12323e-17
    outer loop
      vertex 10.0102 -10.1565 8.54755
      vertex 10.0067 -10.1565 8.5344
      vertex 10.0199 -10.1565 8.55717
    endloop
  endfacet
  facet normal 0.362786 -0.858355 -0.362786
    outer loop
      vertex 11.6052 -10.1565 0.0884519
      vertex 11.5955 -10.1565 0.0788269
      vertex 11.6036 -10.1472 0.0647982
    endloop
  endfacet
  facet normal 0.362786 -0.858355 -0.362786
    outer loop
      vertex 11.6088 -10.1492 0.0747354
      vertex 11.6052 -10.1565 0.0884519
      vertex 11.6036 -10.1472 0.0647982
    endloop
  endfacet
  facet normal 0.495576 -0.858354 -0.132788
    outer loop
      vertex 11.6087 -10.1565 0.1016
      vertex 11.6052 -10.1565 0.0884519
      vertex 11.6493 -10.1329 0.100263
    endloop
  endfacet
  facet normal 0.495576 -0.858354 -0.132788
    outer loop
      vertex 11.6493 -10.1329 0.100263
      vertex 11.6524 -10.1313 0.1016
      vertex 11.6087 -10.1565 0.1016
    endloop
  endfacet
  facet normal 0.495576 -0.858354 -0.13279
    outer loop
      vertex 11.6533 -10.1302 0.098078
      vertex 11.6542 -10.1302 0.1016
      vertex 11.6493 -10.1329 0.100263
    endloop
  endfacet
  facet normal 0.866023 -0.500004 3.06164e-17
    outer loop
      vertex 11.6542 -10.1302 8.5344
      vertex 11.6542 -10.1302 0.1016
      vertex 11.6766 -10.0915 0.1016
    endloop
  endfacet
  facet normal 0.866023 -0.500004 3.06164e-17
    outer loop
      vertex 11.6766 -10.0915 8.5344
      vertex 11.6542 -10.1302 8.5344
      vertex 11.6766 -10.0915 0.1016
    endloop
  endfacet
  facet normal 0.866023 -0.500004 3.06164e-17
    outer loop
      vertex 11.6766 -10.0915 8.5344
      vertex 11.6766 -10.0915 0.1016
      vertex 11.6805 -10.0847 0.1016
    endloop
  endfacet
  facet normal 0.866023 -0.500004 3.06164e-17
    outer loop
      vertex 11.6805 -10.0847 8.5344
      vertex 11.6766 -10.0915 8.5344
      vertex 11.6805 -10.0847 0.1016
    endloop
  endfacet
  facet normal 0.843608 -0.487062 -0.226044
    outer loop
      vertex 11.6805 -10.0847 0.1016
      vertex 11.6766 -10.0915 0.1016
      vertex 11.6795 -10.0847 0.0975528
    endloop
  endfacet
  facet normal 1 0 0
    outer loop
      vertex 11.6805 -10.0847 0.1016
      vertex 11.6805 -0.0753039 0.1016
      vertex 11.6805 -0.0753039 8.5344
    endloop
  endfacet
  facet normal 1 0 0
    outer loop
      vertex 11.6805 -10.0847 8.5344
      vertex 11.6805 -10.0847 0.1016
      vertex 11.6805 -0.0753039 8.5344
    endloop
  endfacet
  facet normal 0.866023 0.500004 -3.06164e-17
    outer loop
      vertex 11.6805 -0.0753039 0.1016
      vertex 11.6542 -0.0297581 0.1016
      vertex 11.6542 -0.0297581 8.5344
    endloop
  endfacet
  facet normal 0.866023 0.500004 -3.06164e-17
    outer loop
      vertex 11.6805 -0.0753039 8.5344
      vertex 11.6805 -0.0753039 0.1016
      vertex 11.6542 -0.0297581 8.5344
    endloop
  endfacet
  facet normal 0.500004 0.866023 -5.30286e-17
    outer loop
      vertex 11.6087 -0.00346202 0.1016
      vertex 11.6087 -0.00346202 8.5344
      vertex 11.6542 -0.0297581 0.1016
    endloop
  endfacet
  facet normal 0.500004 0.866023 -5.30286e-17
    outer loop
      vertex 11.6542 -0.0297581 0.1016
      vertex 11.6087 -0.00346202 8.5344
      vertex 11.6542 -0.0297581 8.5344
    endloop
  endfacet
  facet normal 0.495576 0.858354 -0.132788
    outer loop
      vertex 11.6542 -0.0297581 0.1016
      vertex 11.6052 -0.00346202 0.0884519
      vertex 11.6087 -0.00346202 0.1016
    endloop
  endfacet
  facet normal -0.495576 0.858354 -0.132788
    outer loop
      vertex 10.0102 -0.00346202 0.0884519
      vertex 9.96116 -0.0297581 0.1016
      vertex 10.0067 -0.00346202 0.1016
    endloop
  endfacet
  facet normal 0.495576 0.858354 0.132788
    outer loop
      vertex 11.6087 -0.00346202 8.5344
      vertex 11.6052 -0.00346202 8.54755
      vertex 11.6542 -0.0297581 8.5344
    endloop
  endfacet
  facet normal 0.495576 0.858354 0.13279
    outer loop
      vertex 11.6542 -0.0297581 8.5344
      vertex 11.6052 -0.00346202 8.54755
      vertex 11.6446 -0.0297581 8.57032
    endloop
  endfacet
  facet normal 0.362786 0.858355 0.362786
    outer loop
      vertex 11.6052 -0.00346202 8.54755
      vertex 11.5955 -0.00346202 8.55717
      vertex 11.6446 -0.0297581 8.57032
    endloop
  endfacet
  facet normal 0.362786 0.858355 0.362786
    outer loop
      vertex 11.6446 -0.0297581 8.57032
      vertex 11.5955 -0.00346202 8.55717
      vertex 11.6183 -0.0297581 8.59662
    endloop
  endfacet
  facet normal -0.362786 0.858355 0.362786
    outer loop
      vertex 10.0199 -0.00346202 8.55717
      vertex 9.97078 -0.0297581 8.57032
      vertex 9.99708 -0.0297581 8.59662
    endloop
  endfacet
  facet normal -0.362786 0.858355 0.362786
    outer loop
      vertex 10.0102 -0.00346202 8.54755
      vertex 9.97078 -0.0297581 8.57032
      vertex 10.0199 -0.00346202 8.55717
    endloop
  endfacet
  facet normal -0.495576 0.858354 0.13279
    outer loop
      vertex 10.0102 -0.00346202 8.54755
      vertex 9.96116 -0.0297581 8.5344
      vertex 9.97078 -0.0297581 8.57032
    endloop
  endfacet
  facet normal -0.495576 0.858354 0.132788
    outer loop
      vertex 10.0067 -0.00346202 8.5344
      vertex 9.96116 -0.0297581 8.5344
      vertex 10.0102 -0.00346202 8.54755
    endloop
  endfacet
  facet normal -0.500004 0.866023 -5.30286e-17
    outer loop
      vertex 9.96116 -0.0297581 0.1016
      vertex 9.96116 -0.0297581 8.5344
      vertex 10.0067 -0.00346202 0.1016
    endloop
  endfacet
  facet normal -0.500004 0.866023 -5.30286e-17
    outer loop
      vertex 10.0067 -0.00346202 0.1016
      vertex 9.96116 -0.0297581 8.5344
      vertex 10.0067 -0.00346202 8.5344
    endloop
  endfacet
  facet normal -1 0 0
    outer loop
      vertex 9.93486 -0.0753039 0.1016
      vertex 9.93486 -8.13146 0.1016
      vertex 9.93486 -0.0753039 8.5344
    endloop
  endfacet
  facet normal -1 0 0
    outer loop
      vertex 9.93486 -0.0753039 8.5344
      vertex 9.93486 -8.13146 0.1016
      vertex 9.93486 -8.13146 8.5344
    endloop
  endfacet
  facet normal -0.866023 0.500004 -3.06164e-17
    outer loop
      vertex 9.93486 -0.0753039 0.1016
      vertex 9.93486 -0.0753039 8.5344
      vertex 9.96116 -0.0297581 0.1016
    endloop
  endfacet
  facet normal -0.866023 0.500004 -3.06164e-17
    outer loop
      vertex 9.96116 -0.0297581 0.1016
      vertex 9.93486 -0.0753039 8.5344
      vertex 9.96116 -0.0297581 8.5344
    endloop
  endfacet
  facet normal -0.965926 1.58481e-17 0.258819
    outer loop
      vertex 9.93486 -0.0753039 8.5344
      vertex 9.93486 -8.13146 8.5344
      vertex 9.94801 -0.0753039 8.58347
    endloop
  endfacet
  facet normal -0.965926 1.58481e-17 0.258819
    outer loop
      vertex 9.94801 -0.0753039 8.58347
      vertex 9.93486 -8.13146 8.5344
      vertex 9.94191 -8.13146 8.5607
    endloop
  endfacet
  facet normal -0.965926 1.58481e-17 0.258819
    outer loop
      vertex 9.94801 -0.0753039 8.58347
      vertex 9.94191 -8.13146 8.5607
      vertex 9.94801 -8.14461 8.58347
    endloop
  endfacet
  facet normal -0.843608 0.487062 0.226044
    outer loop
      vertex 9.96116 -0.0297581 8.5344
      vertex 9.93486 -0.0753039 8.5344
      vertex 9.94801 -0.0753039 8.58347
    endloop
  endfacet
  facet normal -0.843608 0.487063 0.226045
    outer loop
      vertex 9.96116 -0.0297581 8.5344
      vertex 9.94801 -0.0753039 8.58347
      vertex 9.97078 -0.0297581 8.57032
    endloop
  endfacet
  facet normal 0.843608 0.487063 0.226045
    outer loop
      vertex 11.6542 -0.0297581 8.5344
      vertex 11.6446 -0.0297581 8.57032
      vertex 11.6674 -0.0753039 8.58347
    endloop
  endfacet
  facet normal 0.843608 0.487062 0.226044
    outer loop
      vertex 11.6805 -0.0753039 8.5344
      vertex 11.6542 -0.0297581 8.5344
      vertex 11.6674 -0.0753039 8.58347
    endloop
  endfacet
  facet normal 0.965926 1.58481e-17 0.258819
    outer loop
      vertex 11.6805 -0.0753039 8.5344
      vertex 11.6674 -0.0753039 8.58347
      vertex 11.6674 -10.0847 8.58347
    endloop
  endfacet
  facet normal 0.965926 1.58481e-17 0.258819
    outer loop
      vertex 11.6805 -10.0847 8.5344
      vertex 11.6805 -0.0753039 8.5344
      vertex 11.6674 -10.0847 8.58347
    endloop
  endfacet
  facet normal 0.843608 -0.487063 0.226045
    outer loop
      vertex 11.6674 -10.0847 8.58347
      vertex 11.6446 -10.1302 8.57032
      vertex 11.6542 -10.1302 8.5344
    endloop
  endfacet
  facet normal 0.843608 -0.487062 0.226044
    outer loop
      vertex 11.6674 -10.0847 8.58347
      vertex 11.6542 -10.1302 8.5344
      vertex 11.6766 -10.0915 8.5344
    endloop
  endfacet
  facet normal 0.843608 -0.487062 0.226044
    outer loop
      vertex 11.6805 -10.0847 8.5344
      vertex 11.6674 -10.0847 8.58347
      vertex 11.6795 -10.0847 8.53845
    endloop
  endfacet
  facet normal 0.843608 -0.487062 0.226044
    outer loop
      vertex 11.6795 -10.0847 8.53845
      vertex 11.6674 -10.0847 8.58347
      vertex 11.6766 -10.0915 8.5344
    endloop
  endfacet
  facet normal 0.617564 -0.487062 0.617564
    outer loop
      vertex 11.6243 -10.1302 8.59063
      vertex 11.6183 -10.1302 8.59662
      vertex 11.6446 -10.1302 8.57032
    endloop
  endfacet
  facet normal 0.617564 -0.487062 0.617564
    outer loop
      vertex 11.6233 -10.1128 8.60531
      vertex 11.6183 -10.1302 8.59662
      vertex 11.6243 -10.1302 8.59063
    endloop
  endfacet
  facet normal 0.617564 -0.487062 0.617564
    outer loop
      vertex 11.6297 -10.0908 8.61634
      vertex 11.6183 -10.1302 8.59662
      vertex 11.6233 -10.1128 8.60531
    endloop
  endfacet
  facet normal 0.495576 -0.858354 0.13279
    outer loop
      vertex 11.6446 -10.1302 8.57032
      vertex 11.6052 -10.1565 8.54755
      vertex 11.6493 -10.1329 8.53574
    endloop
  endfacet
  facet normal 0.495576 -0.858354 0.13279
    outer loop
      vertex 11.6542 -10.1302 8.5344
      vertex 11.6446 -10.1302 8.57032
      vertex 11.6533 -10.1302 8.53792
    endloop
  endfacet
  facet normal 0.495576 -0.858354 0.13279
    outer loop
      vertex 11.6533 -10.1302 8.53792
      vertex 11.6446 -10.1302 8.57032
      vertex 11.6493 -10.1329 8.53574
    endloop
  endfacet
  facet normal 0.362786 -0.858355 0.362786
    outer loop
      vertex 11.6432 -10.131 8.56995
      vertex 11.5955 -10.1565 8.55717
      vertex 11.6052 -10.1565 8.54755
    endloop
  endfacet
  facet normal 0.362786 -0.858355 0.362786
    outer loop
      vertex 11.643 -10.1313 8.56942
      vertex 11.6432 -10.131 8.56995
      vertex 11.6052 -10.1565 8.54755
    endloop
  endfacet
  facet normal 0.362786 -0.858355 0.362786
    outer loop
      vertex 11.6446 -10.1302 8.57032
      vertex 11.643 -10.1313 8.56942
      vertex 11.6052 -10.1565 8.54755
    endloop
  endfacet
  facet normal 0.362786 -0.858355 0.362786
    outer loop
      vertex 11.6432 -10.131 8.56995
      vertex 11.6446 -10.1302 8.57032
      vertex 11.6183 -10.1302 8.59662
    endloop
  endfacet
  facet normal 0.362786 -0.858355 0.362786
    outer loop
      vertex 11.6183 -10.1302 8.59662
      vertex 11.6021 -10.1489 8.56856
      vertex 11.6036 -10.1472 8.5712
    endloop
  endfacet
  facet normal 0.362786 -0.858355 0.362786
    outer loop
      vertex 11.6432 -10.131 8.56995
      vertex 11.6183 -10.1302 8.59662
      vertex 11.6036 -10.1472 8.5712
    endloop
  endfacet
  facet normal 0.362786 -0.858355 0.362786
    outer loop
      vertex 11.643 -10.1313 8.56942
      vertex 11.6446 -10.1302 8.57032
      vertex 11.6432 -10.131 8.56995
    endloop
  endfacet
  facet normal 0.13279 -0.858354 0.495576
    outer loop
      vertex 11.6021 -10.1489 8.56856
      vertex 11.5919 -10.1492 8.57081
      vertex 11.5955 -10.1565 8.55717
    endloop
  endfacet
  facet normal 0.13279 -0.858354 0.495576
    outer loop
      vertex 11.6036 -10.1472 8.5712
      vertex 11.6021 -10.1489 8.56856
      vertex 11.5955 -10.1565 8.55717
    endloop
  endfacet
  facet normal 0.132788 -0.858354 0.495576
    outer loop
      vertex 11.5824 -10.15 8.57208
      vertex 11.5824 -10.1565 8.5607
      vertex 11.5955 -10.1565 8.55717
    endloop
  endfacet
  facet normal 0.132788 -0.858354 0.495576
    outer loop
      vertex 11.5919 -10.1492 8.57081
      vertex 11.5824 -10.15 8.57208
      vertex 11.5955 -10.1565 8.55717
    endloop
  endfacet
  facet normal 0 -0.866023 0.500004
    outer loop
      vertex 10.033 -10.15 8.57208
      vertex 10.033 -10.1565 8.5607
      vertex 11.5824 -10.1565 8.5607
    endloop
  endfacet
  facet normal 0 -0.866023 0.500004
    outer loop
      vertex 11.5824 -10.15 8.57208
      vertex 10.033 -10.15 8.57208
      vertex 11.5824 -10.1565 8.5607
    endloop
  endfacet
  facet normal 0.362786 -0.858355 0.362786
    outer loop
      vertex 11.6036 -10.1472 8.5712
      vertex 11.5955 -10.1565 8.55717
      vertex 11.6432 -10.131 8.56995
    endloop
  endfacet
  facet normal 0.495576 -0.858354 0.132788
    outer loop
      vertex 11.6493 -10.1329 8.53574
      vertex 11.6052 -10.1565 8.54755
      vertex 11.6087 -10.1565 8.5344
    endloop
  endfacet
  facet normal 0.495576 -0.858354 0.132788
    outer loop
      vertex 11.6524 -10.1313 8.5344
      vertex 11.6493 -10.1329 8.53574
      vertex 11.6087 -10.1565 8.5344
    endloop
  endfacet
  facet normal 0.500004 -0.866023 5.30286e-17
    outer loop
      vertex 11.6087 -10.1565 8.5344
      vertex 11.6087 -10.1565 0.1016
      vertex 11.6524 -10.1313 0.1016
    endloop
  endfacet
  facet normal 0.500004 -0.866023 5.30286e-17
    outer loop
      vertex 11.6524 -10.1313 8.5344
      vertex 11.6087 -10.1565 8.5344
      vertex 11.6524 -10.1313 0.1016
    endloop
  endfacet
  facet normal 0.495576 -0.858354 -0.132788
    outer loop
      vertex 11.6524 -10.1313 0.1016
      vertex 11.6493 -10.1329 0.100263
      vertex 11.6542 -10.1302 0.1016
    endloop
  endfacet
  facet normal 0.500004 -0.866023 5.30286e-17
    outer loop
      vertex 11.6524 -10.1313 8.5344
      vertex 11.6524 -10.1313 0.1016
      vertex 11.6542 -10.1302 0.1016
    endloop
  endfacet
  facet normal 0.500004 -0.866023 5.30286e-17
    outer loop
      vertex 11.6542 -10.1302 8.5344
      vertex 11.6524 -10.1313 8.5344
      vertex 11.6542 -10.1302 0.1016
    endloop
  endfacet
  facet normal 0.843608 -0.487062 0.226044
    outer loop
      vertex 11.6795 -10.0847 8.53845
      vertex 11.6766 -10.0915 8.5344
      vertex 11.6805 -10.0847 8.5344
    endloop
  endfacet
  facet normal 0.495576 -0.858354 0.13279
    outer loop
      vertex 11.6533 -10.1302 8.53792
      vertex 11.6493 -10.1329 8.53574
      vertex 11.6542 -10.1302 8.5344
    endloop
  endfacet
  facet normal 0.495576 -0.858354 0.132788
    outer loop
      vertex 11.6542 -10.1302 8.5344
      vertex 11.6493 -10.1329 8.53574
      vertex 11.6524 -10.1313 8.5344
    endloop
  endfacet
endsolid OpenSCAD_Model
