solid OpenSCAD_Model
  facet normal -1 0 0
    outer loop
      vertex 0.00346202 -0.0753039 0.1016
      vertex 0.00346202 -16.4347 0.1016
      vertex 0.00346202 -0.0753039 8.7884
    endloop
  endfacet
  facet normal -1 0 0
    outer loop
      vertex 0.00346202 -0.0753039 8.7884
      vertex 0.00346202 -16.4347 0.1016
      vertex 0.00346202 -16.4347 8.7884
    endloop
  endfacet
  facet normal -0.965926 -1.58481e-17 -0.258819
    outer loop
      vertex 0.00346202 -0.0753039 0.1016
      vertex 0.0166101 -0.0753039 0.0525308
      vertex 0.00346202 -16.4347 0.1016
    endloop
  endfacet
  facet normal -0.965926 -1.58481e-17 -0.258819
    outer loop
      vertex 0.00346202 -16.4347 0.1016
      vertex 0.0166101 -0.0753039 0.0525308
      vertex 0.0166101 -16.4347 0.0525308
    endloop
  endfacet
  facet normal -0.843608 0.487062 -0.226044
    outer loop
      vertex 0.0166101 -0.0753039 0.0525308
      vertex 0.00346202 -0.0753039 0.1016
      vertex 0.0297581 -0.0297581 0.1016
    endloop
  endfacet
  facet normal -0.866023 0.500004 -3.06164e-17
    outer loop
      vertex 0.00346202 -0.0753039 0.1016
      vertex 0.00346202 -0.0753039 8.7884
      vertex 0.0297581 -0.0297581 0.1016
    endloop
  endfacet
  facet normal -0.866023 0.500004 -3.06164e-17
    outer loop
      vertex 0.0297581 -0.0297581 0.1016
      vertex 0.00346202 -0.0753039 8.7884
      vertex 0.0297581 -0.0297581 8.7884
    endloop
  endfacet
  facet normal -0.843608 0.487062 0.226044
    outer loop
      vertex 0.0297581 -0.0297581 8.7884
      vertex 0.00346202 -0.0753039 8.7884
      vertex 0.0166101 -0.0753039 8.83747
    endloop
  endfacet
  facet normal -0.965926 1.58481e-17 0.258819
    outer loop
      vertex 0.00346202 -0.0753039 8.7884
      vertex 0.00346202 -16.4347 8.7884
      vertex 0.0166101 -0.0753039 8.83747
    endloop
  endfacet
  facet normal -0.965926 1.58481e-17 0.258819
    outer loop
      vertex 0.0166101 -0.0753039 8.83747
      vertex 0.00346202 -16.4347 8.7884
      vertex 0.0166101 -16.4347 8.83747
    endloop
  endfacet
  facet normal -0.866023 -0.500004 3.06164e-17
    outer loop
      vertex 0.00346202 -16.4347 0.1016
      vertex 0.0297581 -16.4802 0.1016
      vertex 0.00346202 -16.4347 8.7884
    endloop
  endfacet
  facet normal -0.866023 -0.500004 3.06164e-17
    outer loop
      vertex 0.00346202 -16.4347 8.7884
      vertex 0.0297581 -16.4802 0.1016
      vertex 0.0297581 -16.4802 8.7884
    endloop
  endfacet
  facet normal -0.843608 -0.487062 0.226044
    outer loop
      vertex 0.0166101 -16.4347 8.83747
      vertex 0.00346202 -16.4347 8.7884
      vertex 0.0297581 -16.4802 8.7884
    endloop
  endfacet
  facet normal -0.843608 -0.487062 -0.226044
    outer loop
      vertex 0.0297581 -16.4802 0.1016
      vertex 0.00346202 -16.4347 0.1016
      vertex 0.0166101 -16.4347 0.0525308
    endloop
  endfacet
  facet normal -0.617564 -0.487062 -0.617564
    outer loop
      vertex 0.0166101 -16.4347 0.0525308
      vertex 0.0525308 -16.4347 0.0166101
      vertex 0.0393832 -16.4802 0.0656788
    endloop
  endfacet
  facet normal -0.617564 -0.487062 -0.617564
    outer loop
      vertex 0.0393832 -16.4802 0.0656788
      vertex 0.0525308 -16.4347 0.0166101
      vertex 0.0656788 -16.4802 0.0393832
    endloop
  endfacet
  facet normal -0.707107 -4.32978e-17 -0.707107
    outer loop
      vertex 0.0166101 -0.0753039 0.0525308
      vertex 0.0525308 -0.0753039 0.0166101
      vertex 0.0166101 -16.4347 0.0525308
    endloop
  endfacet
  facet normal -0.707107 -4.32978e-17 -0.707107
    outer loop
      vertex 0.0166101 -16.4347 0.0525308
      vertex 0.0525308 -0.0753039 0.0166101
      vertex 0.0525308 -16.4347 0.0166101
    endloop
  endfacet
  facet normal -0.843608 -0.487063 -0.226045
    outer loop
      vertex 0.0297581 -16.4802 0.1016
      vertex 0.0166101 -16.4347 0.0525308
      vertex 0.0393832 -16.4802 0.0656788
    endloop
  endfacet
  facet normal -0.617564 0.487062 -0.617564
    outer loop
      vertex 0.0166101 -0.0753039 0.0525308
      vertex 0.0393832 -0.0297581 0.0656788
      vertex 0.0525308 -0.0753039 0.0166101
    endloop
  endfacet
  facet normal -0.617564 0.487062 -0.617564
    outer loop
      vertex 0.0525308 -0.0753039 0.0166101
      vertex 0.0393832 -0.0297581 0.0656788
      vertex 0.0656788 -0.0297581 0.0393832
    endloop
  endfacet
  facet normal -0.843608 0.487063 -0.226045
    outer loop
      vertex 0.0393832 -0.0297581 0.0656788
      vertex 0.0166101 -0.0753039 0.0525308
      vertex 0.0297581 -0.0297581 0.1016
    endloop
  endfacet
  facet normal -0.495576 0.858354 -0.132788
    outer loop
      vertex 0.0788269 -0.00346202 0.0884519
      vertex 0.0297581 -0.0297581 0.1016
      vertex 0.0753039 -0.00346202 0.1016
    endloop
  endfacet
  facet normal -0.500004 0.866023 -5.30286e-17
    outer loop
      vertex 0.0297581 -0.0297581 0.1016
      vertex 0.0297581 -0.0297581 8.7884
      vertex 0.0753039 -0.00346202 0.1016
    endloop
  endfacet
  facet normal -0.500004 0.866023 -5.30286e-17
    outer loop
      vertex 0.0753039 -0.00346202 0.1016
      vertex 0.0297581 -0.0297581 8.7884
      vertex 0.0753039 -0.00346202 8.7884
    endloop
  endfacet
  facet normal -0.495576 0.858354 -0.13279
    outer loop
      vertex 0.0393832 -0.0297581 0.0656788
      vertex 0.0297581 -0.0297581 0.1016
      vertex 0.0788269 -0.00346202 0.0884519
    endloop
  endfacet
  facet normal -0.495576 0.858354 0.132788
    outer loop
      vertex 0.0753039 -0.00346202 8.7884
      vertex 0.0297581 -0.0297581 8.7884
      vertex 0.0788269 -0.00346202 8.80155
    endloop
  endfacet
  facet normal -0.495576 0.858354 0.13279
    outer loop
      vertex 0.0788269 -0.00346202 8.80155
      vertex 0.0297581 -0.0297581 8.7884
      vertex 0.0393832 -0.0297581 8.82432
    endloop
  endfacet
  facet normal -0.843608 0.487063 0.226045
    outer loop
      vertex 0.0297581 -0.0297581 8.7884
      vertex 0.0166101 -0.0753039 8.83747
      vertex 0.0393832 -0.0297581 8.82432
    endloop
  endfacet
  facet normal -0.707107 4.32978e-17 0.707107
    outer loop
      vertex 0.0525308 -0.0753039 8.87339
      vertex 0.0166101 -0.0753039 8.83747
      vertex 0.0166101 -16.4347 8.83747
    endloop
  endfacet
  facet normal -0.707107 4.32978e-17 0.707107
    outer loop
      vertex 0.0525308 -16.4347 8.87339
      vertex 0.0525308 -0.0753039 8.87339
      vertex 0.0166101 -16.4347 8.83747
    endloop
  endfacet
  facet normal -0.617564 0.487062 0.617564
    outer loop
      vertex 0.0393832 -0.0297581 8.82432
      vertex 0.0166101 -0.0753039 8.83747
      vertex 0.0525308 -0.0753039 8.87339
    endloop
  endfacet
  facet normal -0.843608 -0.487063 0.226045
    outer loop
      vertex 0.0393832 -16.4802 8.82432
      vertex 0.0166101 -16.4347 8.83747
      vertex 0.0297581 -16.4802 8.7884
    endloop
  endfacet
  facet normal -0.617564 -0.487062 0.617564
    outer loop
      vertex 0.0525308 -16.4347 8.87339
      vertex 0.0166101 -16.4347 8.83747
      vertex 0.0393832 -16.4802 8.82432
    endloop
  endfacet
  facet normal -0.495576 -0.858354 0.13279
    outer loop
      vertex 0.0393832 -16.4802 8.82432
      vertex 0.0297581 -16.4802 8.7884
      vertex 0.0788269 -16.5065 8.80155
    endloop
  endfacet
  facet normal -0.495576 -0.858354 0.132788
    outer loop
      vertex 0.0788269 -16.5065 8.80155
      vertex 0.0297581 -16.4802 8.7884
      vertex 0.0753039 -16.5065 8.7884
    endloop
  endfacet
  facet normal -0.500004 -0.866023 5.30286e-17
    outer loop
      vertex 0.0297581 -16.4802 8.7884
      vertex 0.0297581 -16.4802 0.1016
      vertex 0.0753039 -16.5065 0.1016
    endloop
  endfacet
  facet normal -0.500004 -0.866023 5.30286e-17
    outer loop
      vertex 0.0753039 -16.5065 8.7884
      vertex 0.0297581 -16.4802 8.7884
      vertex 0.0753039 -16.5065 0.1016
    endloop
  endfacet
  facet normal -0.495576 -0.858354 -0.13279
    outer loop
      vertex 0.0788269 -16.5065 0.0884519
      vertex 0.0297581 -16.4802 0.1016
      vertex 0.0393832 -16.4802 0.0656788
    endloop
  endfacet
  facet normal -0.495576 -0.858354 -0.132788
    outer loop
      vertex 0.0753039 -16.5065 0.1016
      vertex 0.0297581 -16.4802 0.1016
      vertex 0.0788269 -16.5065 0.0884519
    endloop
  endfacet
  facet normal -0.362786 -0.858355 -0.362786
    outer loop
      vertex 0.0788269 -16.5065 0.0884519
      vertex 0.0393832 -16.4802 0.0656788
      vertex 0.0656788 -16.4802 0.0393832
    endloop
  endfacet
  facet normal -0.362786 -0.858355 -0.362786
    outer loop
      vertex 0.0884519 -16.5065 0.0788269
      vertex 0.0788269 -16.5065 0.0884519
      vertex 0.0656788 -16.4802 0.0393832
    endloop
  endfacet
  facet normal -0.13279 -0.858354 -0.495576
    outer loop
      vertex 0.0884519 -16.5065 0.0788269
      vertex 0.0656788 -16.4802 0.0393832
      vertex 0.1016 -16.4802 0.0297581
    endloop
  endfacet
  facet normal -0.226045 -0.487063 -0.843608
    outer loop
      vertex 0.0656788 -16.4802 0.0393832
      vertex 0.0525308 -16.4347 0.0166101
      vertex 0.1016 -16.4802 0.0297581
    endloop
  endfacet
  facet normal -0.226044 -0.487062 -0.843608
    outer loop
      vertex 0.1016 -16.4802 0.0297581
      vertex 0.0525308 -16.4347 0.0166101
      vertex 0.1016 -16.4347 0.00346202
    endloop
  endfacet
  facet normal -0.258819 -5.91459e-17 -0.965926
    outer loop
      vertex 0.0525308 -0.0753039 0.0166101
      vertex 0.1016 -0.0753039 0.00346202
      vertex 0.0525308 -16.4347 0.0166101
    endloop
  endfacet
  facet normal -0.258819 -5.91459e-17 -0.965926
    outer loop
      vertex 0.0525308 -16.4347 0.0166101
      vertex 0.1016 -0.0753039 0.00346202
      vertex 0.1016 -16.4347 0.00346202
    endloop
  endfacet
  facet normal -0.226045 0.487063 -0.843608
    outer loop
      vertex 0.1016 -0.0297581 0.0297581
      vertex 0.0525308 -0.0753039 0.0166101
      vertex 0.0656788 -0.0297581 0.0393832
    endloop
  endfacet
  facet normal -0.226044 0.487062 -0.843608
    outer loop
      vertex 0.1016 -0.0753039 0.00346202
      vertex 0.0525308 -0.0753039 0.0166101
      vertex 0.1016 -0.0297581 0.0297581
    endloop
  endfacet
  facet normal -0.13279 0.858354 -0.495576
    outer loop
      vertex 0.1016 -0.0297581 0.0297581
      vertex 0.0656788 -0.0297581 0.0393832
      vertex 0.0884519 -0.00346202 0.0788269
    endloop
  endfacet
  facet normal -0.362786 0.858355 -0.362786
    outer loop
      vertex 0.0393832 -0.0297581 0.0656788
      vertex 0.0788269 -0.00346202 0.0884519
      vertex 0.0656788 -0.0297581 0.0393832
    endloop
  endfacet
  facet normal -0.362786 0.858355 -0.362786
    outer loop
      vertex 0.0656788 -0.0297581 0.0393832
      vertex 0.0788269 -0.00346202 0.0884519
      vertex 0.0884519 -0.00346202 0.0788269
    endloop
  endfacet
  facet normal 0 1 -6.12323e-17
    outer loop
      vertex 0.0753039 -0.00346202 0.1016
      vertex 0.0753039 -0.00346202 8.7884
      vertex 0.0788269 -0.00346202 0.0884519
    endloop
  endfacet
  facet normal 0 1 -6.12323e-17
    outer loop
      vertex 0.0788269 -0.00346202 0.0884519
      vertex 0.0753039 -0.00346202 8.7884
      vertex 0.0788269 -0.00346202 8.80155
    endloop
  endfacet
  facet normal 0 1 -6.12323e-17
    outer loop
      vertex 0.0788269 -0.00346202 0.0884519
      vertex 0.0788269 -0.00346202 8.80155
      vertex 0.0884519 -0.00346202 8.81117
    endloop
  endfacet
  facet normal 0 1 -6.12323e-17
    outer loop
      vertex 0.0788269 -0.00346202 0.0884519
      vertex 0.0884519 -0.00346202 8.81117
      vertex 0.1016 -0.00346202 8.8147
    endloop
  endfacet
  facet normal 0 1 -6.12323e-17
    outer loop
      vertex 0.0788269 -0.00346202 0.0884519
      vertex 0.1016 -0.00346202 8.8147
      vertex 1.27 -0.00346202 8.8147
    endloop
  endfacet
  facet normal 0 1 -6.12323e-17
    outer loop
      vertex 0.0788269 -0.00346202 0.0884519
      vertex 1.27 -0.00346202 8.8147
      vertex 1.28315 -0.00346202 8.81117
    endloop
  endfacet
  facet normal 0 1 -6.12323e-17
    outer loop
      vertex 0.0788269 -0.00346202 0.0884519
      vertex 1.28315 -0.00346202 8.81117
      vertex 1.29277 -0.00346202 8.80155
    endloop
  endfacet
  facet normal 0 1 -6.12323e-17
    outer loop
      vertex 0.0788269 -0.00346202 0.0884519
      vertex 1.29277 -0.00346202 8.80155
      vertex 1.2963 -0.00346202 8.7884
    endloop
  endfacet
  facet normal 0 1 -6.12323e-17
    outer loop
      vertex 0.0788269 -0.00346202 0.0884519
      vertex 1.2963 -0.00346202 8.7884
      vertex 1.2963 -0.00346202 0.1016
    endloop
  endfacet
  facet normal 0 1 -6.12323e-17
    outer loop
      vertex 0.0788269 -0.00346202 0.0884519
      vertex 1.2963 -0.00346202 0.1016
      vertex 1.29277 -0.00346202 0.0884519
    endloop
  endfacet
  facet normal 0 1 -6.12323e-17
    outer loop
      vertex 0.0788269 -0.00346202 0.0884519
      vertex 1.29277 -0.00346202 0.0884519
      vertex 1.28315 -0.00346202 0.0788269
    endloop
  endfacet
  facet normal 0 1 -6.12323e-17
    outer loop
      vertex 0.0788269 -0.00346202 0.0884519
      vertex 1.28315 -0.00346202 0.0788269
      vertex 1.27 -0.00346202 0.0753039
    endloop
  endfacet
  facet normal 0 1 -6.12323e-17
    outer loop
      vertex 0.0788269 -0.00346202 0.0884519
      vertex 1.27 -0.00346202 0.0753039
      vertex 0.1016 -0.00346202 0.0753039
    endloop
  endfacet
  facet normal 0 1 -6.12323e-17
    outer loop
      vertex 0.0788269 -0.00346202 0.0884519
      vertex 0.1016 -0.00346202 0.0753039
      vertex 0.0884519 -0.00346202 0.0788269
    endloop
  endfacet
  facet normal -0.362786 0.858355 0.362786
    outer loop
      vertex 0.0788269 -0.00346202 8.80155
      vertex 0.0393832 -0.0297581 8.82432
      vertex 0.0884519 -0.00346202 8.81117
    endloop
  endfacet
  facet normal -0.362786 0.858355 0.362786
    outer loop
      vertex 0.0884519 -0.00346202 8.81117
      vertex 0.0393832 -0.0297581 8.82432
      vertex 0.0656788 -0.0297581 8.85062
    endloop
  endfacet
  facet normal -0.617564 0.487062 0.617564
    outer loop
      vertex 0.0656788 -0.0297581 8.85062
      vertex 0.0393832 -0.0297581 8.82432
      vertex 0.0525308 -0.0753039 8.87339
    endloop
  endfacet
  facet normal -0.226044 0.487062 0.843608
    outer loop
      vertex 0.1016 -0.0297581 8.86024
      vertex 0.0525308 -0.0753039 8.87339
      vertex 0.1016 -0.0753039 8.88654
    endloop
  endfacet
  facet normal -0.258819 5.91459e-17 0.965926
    outer loop
      vertex 0.1016 -0.0753039 8.88654
      vertex 0.0525308 -0.0753039 8.87339
      vertex 0.0525308 -16.4347 8.87339
    endloop
  endfacet
  facet normal -0.258819 5.91459e-17 0.965926
    outer loop
      vertex 0.1016 -16.4347 8.88654
      vertex 0.1016 -0.0753039 8.88654
      vertex 0.0525308 -16.4347 8.87339
    endloop
  endfacet
  facet normal -0.226045 0.487063 0.843608
    outer loop
      vertex 0.0656788 -0.0297581 8.85062
      vertex 0.0525308 -0.0753039 8.87339
      vertex 0.1016 -0.0297581 8.86024
    endloop
  endfacet
  facet normal -0.226044 -0.487062 0.843608
    outer loop
      vertex 0.1016 -16.4347 8.88654
      vertex 0.0525308 -16.4347 8.87339
      vertex 0.1016 -16.4802 8.86024
    endloop
  endfacet
  facet normal -0.226045 -0.487063 0.843608
    outer loop
      vertex 0.1016 -16.4802 8.86024
      vertex 0.0525308 -16.4347 8.87339
      vertex 0.0656788 -16.4802 8.85062
    endloop
  endfacet
  facet normal -0.617564 -0.487062 0.617564
    outer loop
      vertex 0.0525308 -16.4347 8.87339
      vertex 0.0393832 -16.4802 8.82432
      vertex 0.0656788 -16.4802 8.85062
    endloop
  endfacet
  facet normal -0.362786 -0.858355 0.362786
    outer loop
      vertex 0.0656788 -16.4802 8.85062
      vertex 0.0393832 -16.4802 8.82432
      vertex 0.0884519 -16.5065 8.81117
    endloop
  endfacet
  facet normal -0.362786 -0.858355 0.362786
    outer loop
      vertex 0.0884519 -16.5065 8.81117
      vertex 0.0393832 -16.4802 8.82432
      vertex 0.0788269 -16.5065 8.80155
    endloop
  endfacet
  facet normal 0 -1 6.12323e-17
    outer loop
      vertex 0.0753039 -16.5065 8.7884
      vertex 0.0753039 -16.5065 0.1016
      vertex 0.0788269 -16.5065 0.0884519
    endloop
  endfacet
  facet normal 0 -1 6.12323e-17
    outer loop
      vertex 0.1016 -16.5065 0.0753039
      vertex 0.0753039 -16.5065 8.7884
      vertex 0.0884519 -16.5065 0.0788269
    endloop
  endfacet
  facet normal 0 -1 6.12323e-17
    outer loop
      vertex 0.0884519 -16.5065 0.0788269
      vertex 0.0753039 -16.5065 8.7884
      vertex 0.0788269 -16.5065 0.0884519
    endloop
  endfacet
  facet normal 0 -1 6.12323e-17
    outer loop
      vertex 1.27 -16.5065 0.0753039
      vertex 0.0753039 -16.5065 8.7884
      vertex 0.1016 -16.5065 0.0753039
    endloop
  endfacet
  facet normal 0 -1 6.12323e-17
    outer loop
      vertex 1.28315 -16.5065 0.0788269
      vertex 0.0753039 -16.5065 8.7884
      vertex 1.27 -16.5065 0.0753039
    endloop
  endfacet
  facet normal 0 -1 6.12323e-17
    outer loop
      vertex 1.29277 -16.5065 0.0884519
      vertex 0.0753039 -16.5065 8.7884
      vertex 1.28315 -16.5065 0.0788269
    endloop
  endfacet
  facet normal 0 -1 6.12323e-17
    outer loop
      vertex 1.2963 -16.5065 0.1016
      vertex 0.0753039 -16.5065 8.7884
      vertex 1.29277 -16.5065 0.0884519
    endloop
  endfacet
  facet normal 0 -1 6.12323e-17
    outer loop
      vertex 1.2963 -16.5065 8.7884
      vertex 0.0753039 -16.5065 8.7884
      vertex 1.2963 -16.5065 0.1016
    endloop
  endfacet
  facet normal 0 -1 6.12323e-17
    outer loop
      vertex 1.29277 -16.5065 8.80155
      vertex 0.0753039 -16.5065 8.7884
      vertex 1.2963 -16.5065 8.7884
    endloop
  endfacet
  facet normal 0 -1 6.12323e-17
    outer loop
      vertex 1.28315 -16.5065 8.81117
      vertex 0.0753039 -16.5065 8.7884
      vertex 1.29277 -16.5065 8.80155
    endloop
  endfacet
  facet normal 0 -1 6.12323e-17
    outer loop
      vertex 1.27 -16.5065 8.8147
      vertex 0.0753039 -16.5065 8.7884
      vertex 1.28315 -16.5065 8.81117
    endloop
  endfacet
  facet normal 0 -1 6.12323e-17
    outer loop
      vertex 0.1016 -16.5065 8.8147
      vertex 0.0753039 -16.5065 8.7884
      vertex 1.27 -16.5065 8.8147
    endloop
  endfacet
  facet normal 0 -1 6.12323e-17
    outer loop
      vertex 0.0884519 -16.5065 8.81117
      vertex 0.0753039 -16.5065 8.7884
      vertex 0.1016 -16.5065 8.8147
    endloop
  endfacet
  facet normal 0 -1 6.12323e-17
    outer loop
      vertex 0.0788269 -16.5065 8.80155
      vertex 0.0753039 -16.5065 8.7884
      vertex 0.0884519 -16.5065 8.81117
    endloop
  endfacet
  facet normal -0.132788 -0.858354 -0.495576
    outer loop
      vertex 0.1016 -16.5065 0.0753039
      vertex 0.0884519 -16.5065 0.0788269
      vertex 0.1016 -16.4802 0.0297581
    endloop
  endfacet
  facet normal 0 -0.866023 -0.500004
    outer loop
      vertex 0.1016 -16.5065 0.0753039
      vertex 0.1016 -16.4802 0.0297581
      vertex 1.27 -16.4802 0.0297581
    endloop
  endfacet
  facet normal 0 -0.866023 -0.500004
    outer loop
      vertex 1.27 -16.5065 0.0753039
      vertex 0.1016 -16.5065 0.0753039
      vertex 1.27 -16.4802 0.0297581
    endloop
  endfacet
  facet normal 0 -0.500004 -0.866023
    outer loop
      vertex 0.1016 -16.4347 0.00346202
      vertex 1.27 -16.4347 0.00346202
      vertex 0.1016 -16.4802 0.0297581
    endloop
  endfacet
  facet normal 0 -0.500004 -0.866023
    outer loop
      vertex 0.1016 -16.4802 0.0297581
      vertex 1.27 -16.4347 0.00346202
      vertex 1.27 -16.4802 0.0297581
    endloop
  endfacet
  facet normal 0 -6.12323e-17 -1
    outer loop
      vertex 0.1016 -0.0753039 0.00346202
      vertex 1.27 -0.0753039 0.00346202
      vertex 0.1016 -16.4347 0.00346202
    endloop
  endfacet
  facet normal 0 -6.12323e-17 -1
    outer loop
      vertex 0.1016 -16.4347 0.00346202
      vertex 1.27 -0.0753039 0.00346202
      vertex 1.27 -6.6793 0.00346202
    endloop
  endfacet
  facet normal 0 -6.12323e-17 -1
    outer loop
      vertex 1.27 -8.1797 0.00346202
      vertex 1.27 -6.6793 0.00346202
      vertex 7.874 -6.6793 0.00346202
    endloop
  endfacet
  facet normal 0 -6.12323e-17 -1
    outer loop
      vertex 7.874 -6.6793 0.00346202
      vertex 7.874 -0.0753039 0.00346202
      vertex 9.0424 -0.0753039 0.00346202
    endloop
  endfacet
  facet normal 0 -6.12323e-17 -1
    outer loop
      vertex 7.874 -6.6793 0.00346202
      vertex 9.0424 -0.0753039 0.00346202
      vertex 9.0424 -6.6793 0.00346202
    endloop
  endfacet
  facet normal 0 -6.12323e-17 -1
    outer loop
      vertex 0.1016 -16.4347 0.00346202
      vertex 1.27 -6.6793 0.00346202
      vertex 1.27 -8.1797 0.00346202
    endloop
  endfacet
  facet normal 0 -6.12323e-17 -1
    outer loop
      vertex 1.27 -16.4347 0.00346202
      vertex 0.1016 -16.4347 0.00346202
      vertex 1.27 -8.1797 0.00346202
    endloop
  endfacet
  facet normal 0 -6.12323e-17 -1
    outer loop
      vertex 1.27 -8.1797 0.00346202
      vertex 7.874 -6.6793 0.00346202
      vertex 9.0424 -6.6793 0.00346202
    endloop
  endfacet
  facet normal 0 -6.12323e-17 -1
    outer loop
      vertex 1.27 -8.1797 0.00346202
      vertex 9.0424 -6.6793 0.00346202
      vertex 9.0424 -8.1797 0.00346202
    endloop
  endfacet
  facet normal 0 0.500004 -0.866023
    outer loop
      vertex 0.1016 -0.0753039 0.00346202
      vertex 0.1016 -0.0297581 0.0297581
      vertex 1.27 -0.0753039 0.00346202
    endloop
  endfacet
  facet normal 0 0.500004 -0.866023
    outer loop
      vertex 1.27 -0.0753039 0.00346202
      vertex 0.1016 -0.0297581 0.0297581
      vertex 1.27 -0.0297581 0.0297581
    endloop
  endfacet
  facet normal 0 0.866023 -0.500004
    outer loop
      vertex 0.1016 -0.0297581 0.0297581
      vertex 0.1016 -0.00346202 0.0753039
      vertex 1.27 -0.0297581 0.0297581
    endloop
  endfacet
  facet normal 0 0.866023 -0.500004
    outer loop
      vertex 1.27 -0.0297581 0.0297581
      vertex 0.1016 -0.00346202 0.0753039
      vertex 1.27 -0.00346202 0.0753039
    endloop
  endfacet
  facet normal -0.132788 0.858354 -0.495576
    outer loop
      vertex 0.1016 -0.0297581 0.0297581
      vertex 0.0884519 -0.00346202 0.0788269
      vertex 0.1016 -0.00346202 0.0753039
    endloop
  endfacet
  facet normal 0.132788 0.858354 -0.495576
    outer loop
      vertex 1.28315 -0.00346202 0.0788269
      vertex 1.27 -0.0297581 0.0297581
      vertex 1.27 -0.00346202 0.0753039
    endloop
  endfacet
  facet normal 0.13279 0.858354 -0.495576
    outer loop
      vertex 1.30592 -0.0297581 0.0393832
      vertex 1.27 -0.0297581 0.0297581
      vertex 1.28315 -0.00346202 0.0788269
    endloop
  endfacet
  facet normal 0.362786 0.858355 -0.362786
    outer loop
      vertex 1.30592 -0.0297581 0.0393832
      vertex 1.28315 -0.00346202 0.0788269
      vertex 1.29277 -0.00346202 0.0884519
    endloop
  endfacet
  facet normal 0.362786 0.858355 -0.362786
    outer loop
      vertex 1.30592 -0.0297581 0.0393832
      vertex 1.29277 -0.00346202 0.0884519
      vertex 1.33222 -0.0297581 0.0656788
    endloop
  endfacet
  facet normal 0.495576 0.858354 -0.13279
    outer loop
      vertex 1.33222 -0.0297581 0.0656788
      vertex 1.29277 -0.00346202 0.0884519
      vertex 1.34184 -0.0297581 0.1016
    endloop
  endfacet
  facet normal 0.495576 0.858354 -0.132788
    outer loop
      vertex 1.34184 -0.0297581 0.1016
      vertex 1.29277 -0.00346202 0.0884519
      vertex 1.2963 -0.00346202 0.1016
    endloop
  endfacet
  facet normal 0.500004 0.866023 -5.30286e-17
    outer loop
      vertex 1.2963 -0.00346202 0.1016
      vertex 1.2963 -0.00346202 8.7884
      vertex 1.34184 -0.0297581 0.1016
    endloop
  endfacet
  facet normal 0.500004 0.866023 -5.30286e-17
    outer loop
      vertex 1.34184 -0.0297581 0.1016
      vertex 1.2963 -0.00346202 8.7884
      vertex 1.34184 -0.0297581 8.7884
    endloop
  endfacet
  facet normal 0.495576 0.858354 0.132788
    outer loop
      vertex 1.2963 -0.00346202 8.7884
      vertex 1.29277 -0.00346202 8.80155
      vertex 1.34184 -0.0297581 8.7884
    endloop
  endfacet
  facet normal 0.495576 0.858354 0.13279
    outer loop
      vertex 1.34184 -0.0297581 8.7884
      vertex 1.29277 -0.00346202 8.80155
      vertex 1.33222 -0.0297581 8.82432
    endloop
  endfacet
  facet normal 0.362786 0.858355 0.362786
    outer loop
      vertex 1.29277 -0.00346202 8.80155
      vertex 1.28315 -0.00346202 8.81117
      vertex 1.33222 -0.0297581 8.82432
    endloop
  endfacet
  facet normal 0.132788 0.858354 0.495576
    outer loop
      vertex 1.28315 -0.00346202 8.81117
      vertex 1.27 -0.00346202 8.8147
      vertex 1.27 -0.0297581 8.86024
    endloop
  endfacet
  facet normal 0.362786 0.858355 0.362786
    outer loop
      vertex 1.33222 -0.0297581 8.82432
      vertex 1.28315 -0.00346202 8.81117
      vertex 1.30592 -0.0297581 8.85062
    endloop
  endfacet
  facet normal 0.13279 0.858354 0.495576
    outer loop
      vertex 1.28315 -0.00346202 8.81117
      vertex 1.27 -0.0297581 8.86024
      vertex 1.30592 -0.0297581 8.85062
    endloop
  endfacet
  facet normal 0 0.866023 0.500004
    outer loop
      vertex 0.1016 -0.00346202 8.8147
      vertex 0.1016 -0.0297581 8.86024
      vertex 1.27 -0.00346202 8.8147
    endloop
  endfacet
  facet normal 0 0.866023 0.500004
    outer loop
      vertex 1.27 -0.00346202 8.8147
      vertex 0.1016 -0.0297581 8.86024
      vertex 1.27 -0.0297581 8.86024
    endloop
  endfacet
  facet normal -0.132788 0.858354 0.495576
    outer loop
      vertex 0.1016 -0.00346202 8.8147
      vertex 0.0884519 -0.00346202 8.81117
      vertex 0.1016 -0.0297581 8.86024
    endloop
  endfacet
  facet normal -0.13279 0.858354 0.495576
    outer loop
      vertex 0.0884519 -0.00346202 8.81117
      vertex 0.0656788 -0.0297581 8.85062
      vertex 0.1016 -0.0297581 8.86024
    endloop
  endfacet
  facet normal 0 0.500004 0.866023
    outer loop
      vertex 1.27 -0.0297581 8.86024
      vertex 0.1016 -0.0297581 8.86024
      vertex 0.1016 -0.0753039 8.88654
    endloop
  endfacet
  facet normal 0 0.500004 0.866023
    outer loop
      vertex 1.27 -0.0753039 8.88654
      vertex 1.27 -0.0297581 8.86024
      vertex 0.1016 -0.0753039 8.88654
    endloop
  endfacet
  facet normal 0 6.12323e-17 1
    outer loop
      vertex 1.27 -0.0753039 8.88654
      vertex 0.1016 -0.0753039 8.88654
      vertex 0.1016 -16.4347 8.88654
    endloop
  endfacet
  facet normal 0 6.12323e-17 1
    outer loop
      vertex 1.27 -6.6793 8.88654
      vertex 1.27 -0.0753039 8.88654
      vertex 0.1016 -16.4347 8.88654
    endloop
  endfacet
  facet normal 0 6.12323e-17 1
    outer loop
      vertex 1.27 -8.1797 8.88654
      vertex 1.27 -6.6793 8.88654
      vertex 0.1016 -16.4347 8.88654
    endloop
  endfacet
  facet normal 0 6.12323e-17 1
    outer loop
      vertex 1.27 -16.4347 8.88654
      vertex 1.27 -8.1797 8.88654
      vertex 0.1016 -16.4347 8.88654
    endloop
  endfacet
  facet normal 0 6.12323e-17 1
    outer loop
      vertex 7.874 -0.0753039 8.88654
      vertex 7.874 -6.6793 8.88654
      vertex 9.0424 -6.6793 8.88654
    endloop
  endfacet
  facet normal 0 6.12323e-17 1
    outer loop
      vertex 9.0424 -8.1797 8.88654
      vertex 9.0424 -6.6793 8.88654
      vertex 7.874 -6.6793 8.88654
    endloop
  endfacet
  facet normal 0 6.12323e-17 1
    outer loop
      vertex 9.0424 -8.1797 8.88654
      vertex 1.27 -6.6793 8.88654
      vertex 1.27 -8.1797 8.88654
    endloop
  endfacet
  facet normal 0 6.12323e-17 1
    outer loop
      vertex 7.874 -6.6793 8.88654
      vertex 1.27 -6.6793 8.88654
      vertex 9.0424 -8.1797 8.88654
    endloop
  endfacet
  facet normal 0 6.12323e-17 1
    outer loop
      vertex 9.0424 -6.6793 8.88654
      vertex 9.0424 -0.0753039 8.88654
      vertex 7.874 -0.0753039 8.88654
    endloop
  endfacet
  facet normal 0 -0.500004 0.866023
    outer loop
      vertex 0.1016 -16.4347 8.88654
      vertex 0.1016 -16.4802 8.86024
      vertex 1.27 -16.4802 8.86024
    endloop
  endfacet
  facet normal 0 -0.500004 0.866023
    outer loop
      vertex 1.27 -16.4347 8.88654
      vertex 0.1016 -16.4347 8.88654
      vertex 1.27 -16.4802 8.86024
    endloop
  endfacet
  facet normal 0 -0.866023 0.500004
    outer loop
      vertex 0.1016 -16.4802 8.86024
      vertex 0.1016 -16.5065 8.8147
      vertex 1.27 -16.5065 8.8147
    endloop
  endfacet
  facet normal 0 -0.866023 0.500004
    outer loop
      vertex 1.27 -16.4802 8.86024
      vertex 0.1016 -16.4802 8.86024
      vertex 1.27 -16.5065 8.8147
    endloop
  endfacet
  facet normal -0.132788 -0.858354 0.495576
    outer loop
      vertex 0.1016 -16.4802 8.86024
      vertex 0.0884519 -16.5065 8.81117
      vertex 0.1016 -16.5065 8.8147
    endloop
  endfacet
  facet normal -0.13279 -0.858354 0.495576
    outer loop
      vertex 0.1016 -16.4802 8.86024
      vertex 0.0656788 -16.4802 8.85062
      vertex 0.0884519 -16.5065 8.81117
    endloop
  endfacet
  facet normal 0.132788 -0.858354 0.495576
    outer loop
      vertex 1.27 -16.4802 8.86024
      vertex 1.27 -16.5065 8.8147
      vertex 1.28315 -16.5065 8.81117
    endloop
  endfacet
  facet normal 0.13279 -0.858354 0.495576
    outer loop
      vertex 1.30592 -16.4802 8.85062
      vertex 1.27 -16.4802 8.86024
      vertex 1.28315 -16.5065 8.81117
    endloop
  endfacet
  facet normal 0.362786 -0.858355 0.362786
    outer loop
      vertex 1.30592 -16.4802 8.85062
      vertex 1.28315 -16.5065 8.81117
      vertex 1.33222 -16.4802 8.82432
    endloop
  endfacet
  facet normal 0.362786 -0.858355 0.362786
    outer loop
      vertex 1.33222 -16.4802 8.82432
      vertex 1.28315 -16.5065 8.81117
      vertex 1.29277 -16.5065 8.80155
    endloop
  endfacet
  facet normal 0.495576 -0.858354 0.132788
    outer loop
      vertex 1.34184 -16.4802 8.7884
      vertex 1.29277 -16.5065 8.80155
      vertex 1.2963 -16.5065 8.7884
    endloop
  endfacet
  facet normal 0.495576 -0.858354 0.13279
    outer loop
      vertex 1.33222 -16.4802 8.82432
      vertex 1.29277 -16.5065 8.80155
      vertex 1.34184 -16.4802 8.7884
    endloop
  endfacet
  facet normal 0.500004 -0.866023 5.30286e-17
    outer loop
      vertex 1.2963 -16.5065 8.7884
      vertex 1.2963 -16.5065 0.1016
      vertex 1.34184 -16.4802 0.1016
    endloop
  endfacet
  facet normal 0.500004 -0.866023 5.30286e-17
    outer loop
      vertex 1.34184 -16.4802 8.7884
      vertex 1.2963 -16.5065 8.7884
      vertex 1.34184 -16.4802 0.1016
    endloop
  endfacet
  facet normal 0.495576 -0.858354 -0.132788
    outer loop
      vertex 1.2963 -16.5065 0.1016
      vertex 1.29277 -16.5065 0.0884519
      vertex 1.34184 -16.4802 0.1016
    endloop
  endfacet
  facet normal 0.495576 -0.858354 -0.13279
    outer loop
      vertex 1.34184 -16.4802 0.1016
      vertex 1.29277 -16.5065 0.0884519
      vertex 1.33222 -16.4802 0.0656788
    endloop
  endfacet
  facet normal 0.362786 -0.858355 -0.362786
    outer loop
      vertex 1.33222 -16.4802 0.0656788
      vertex 1.29277 -16.5065 0.0884519
      vertex 1.30592 -16.4802 0.0393832
    endloop
  endfacet
  facet normal 0.362786 -0.858355 -0.362786
    outer loop
      vertex 1.29277 -16.5065 0.0884519
      vertex 1.28315 -16.5065 0.0788269
      vertex 1.30592 -16.4802 0.0393832
    endloop
  endfacet
  facet normal 0.13279 -0.858354 -0.495576
    outer loop
      vertex 1.28315 -16.5065 0.0788269
      vertex 1.27 -16.4802 0.0297581
      vertex 1.30592 -16.4802 0.0393832
    endloop
  endfacet
  facet normal 0.132788 -0.858354 -0.495576
    outer loop
      vertex 1.27 -16.5065 0.0753039
      vertex 1.27 -16.4802 0.0297581
      vertex 1.28315 -16.5065 0.0788269
    endloop
  endfacet
  facet normal 0.226045 -0.487063 -0.843608
    outer loop
      vertex 1.30592 -16.4802 0.0393832
      vertex 1.27 -16.4802 0.0297581
      vertex 1.31907 -16.4347 0.0166101
    endloop
  endfacet
  facet normal 0.226044 -0.487062 -0.843608
    outer loop
      vertex 1.27 -16.4802 0.0297581
      vertex 1.27 -16.4347 0.00346202
      vertex 1.31907 -16.4347 0.0166101
    endloop
  endfacet
  facet normal 0.258819 -5.91459e-17 -0.965926
    outer loop
      vertex 1.27 -8.1797 0.00346202
      vertex 1.31907 -8.20247 0.0166101
      vertex 1.27 -16.4347 0.00346202
    endloop
  endfacet
  facet normal 0.258819 -5.91459e-17 -0.965926
    outer loop
      vertex 1.27 -16.4347 0.00346202
      vertex 1.31907 -8.20247 0.0166101
      vertex 1.31907 -16.4347 0.0166101
    endloop
  endfacet
  facet normal 0 -0.500004 -0.866023
    outer loop
      vertex 1.27 -8.1797 0.00346202
      vertex 9.0424 -8.1797 0.00346202
      vertex 1.31907 -8.20247 0.0166101
    endloop
  endfacet
  facet normal 0 -0.500004 -0.866023
    outer loop
      vertex 1.31907 -8.20247 0.0166101
      vertex 9.0424 -8.1797 0.00346202
      vertex 9.0424 -8.22524 0.0297581
    endloop
  endfacet
  facet normal 0 -0.500004 -0.866023
    outer loop
      vertex 1.31907 -8.20247 0.0166101
      vertex 9.0424 -8.22524 0.0297581
      vertex 1.33222 -8.22524 0.0297581
    endloop
  endfacet
  facet normal 0.226044 -0.487062 -0.843608
    outer loop
      vertex 9.0424 -8.22524 0.0297581
      vertex 9.0424 -8.1797 0.00346202
      vertex 9.09147 -8.1797 0.0166101
    endloop
  endfacet
  facet normal 0.258819 -5.91459e-17 -0.965926
    outer loop
      vertex 9.0424 -6.6793 0.00346202
      vertex 9.09147 -6.6793 0.0166101
      vertex 9.0424 -8.1797 0.00346202
    endloop
  endfacet
  facet normal 0.258819 -5.91459e-17 -0.965926
    outer loop
      vertex 9.0424 -8.1797 0.00346202
      vertex 9.09147 -6.6793 0.0166101
      vertex 9.09147 -8.1797 0.0166101
    endloop
  endfacet
  facet normal 0.258819 -5.91459e-17 -0.965926
    outer loop
      vertex 9.0424 -0.0753039 0.00346202
      vertex 9.09147 -0.0753039 0.0166101
      vertex 9.0424 -6.6793 0.00346202
    endloop
  endfacet
  facet normal 0.258819 -5.91459e-17 -0.965926
    outer loop
      vertex 9.0424 -6.6793 0.00346202
      vertex 9.09147 -0.0753039 0.0166101
      vertex 9.09147 -6.6793 0.0166101
    endloop
  endfacet
  facet normal 0 0.500004 -0.866023
    outer loop
      vertex 7.874 -0.0753039 0.00346202
      vertex 7.874 -0.0297581 0.0297581
      vertex 9.0424 -0.0753039 0.00346202
    endloop
  endfacet
  facet normal 0 0.500004 -0.866023
    outer loop
      vertex 9.0424 -0.0753039 0.00346202
      vertex 7.874 -0.0297581 0.0297581
      vertex 9.0424 -0.0297581 0.0297581
    endloop
  endfacet
  facet normal 0.226044 0.487062 -0.843608
    outer loop
      vertex 9.09147 -0.0753039 0.0166101
      vertex 9.0424 -0.0753039 0.00346202
      vertex 9.0424 -0.0297581 0.0297581
    endloop
  endfacet
  facet normal -0.258819 -5.91459e-17 -0.965926
    outer loop
      vertex 7.82493 -0.0753039 0.0166101
      vertex 7.874 -0.0753039 0.00346202
      vertex 7.82493 -6.65653 0.0166101
    endloop
  endfacet
  facet normal -0.258819 -5.91459e-17 -0.965926
    outer loop
      vertex 7.82493 -6.65653 0.0166101
      vertex 7.874 -0.0753039 0.00346202
      vertex 7.874 -6.6793 0.00346202
    endloop
  endfacet
  facet normal -0.226044 0.487062 -0.843608
    outer loop
      vertex 7.874 -0.0753039 0.00346202
      vertex 7.82493 -0.0753039 0.0166101
      vertex 7.874 -0.0297581 0.0297581
    endloop
  endfacet
  facet normal 0 0.500004 -0.866023
    outer loop
      vertex 1.27 -6.6793 0.00346202
      vertex 1.31907 -6.65653 0.0166101
      vertex 7.874 -6.6793 0.00346202
    endloop
  endfacet
  facet normal 0 0.500004 -0.866023
    outer loop
      vertex 7.874 -6.6793 0.00346202
      vertex 1.31907 -6.65653 0.0166101
      vertex 1.33222 -6.63376 0.0297581
    endloop
  endfacet
  facet normal 0 0.500004 -0.866023
    outer loop
      vertex 7.82493 -6.65653 0.0166101
      vertex 1.33222 -6.63376 0.0297581
      vertex 7.81178 -6.63376 0.0297581
    endloop
  endfacet
  facet normal 0 0.500004 -0.866023
    outer loop
      vertex 7.874 -6.6793 0.00346202
      vertex 1.33222 -6.63376 0.0297581
      vertex 7.82493 -6.65653 0.0166101
    endloop
  endfacet
  facet normal 0.258819 -5.91459e-17 -0.965926
    outer loop
      vertex 1.27 -0.0753039 0.00346202
      vertex 1.31907 -0.0753039 0.0166101
      vertex 1.27 -6.6793 0.00346202
    endloop
  endfacet
  facet normal 0.258819 -5.91459e-17 -0.965926
    outer loop
      vertex 1.27 -6.6793 0.00346202
      vertex 1.31907 -0.0753039 0.0166101
      vertex 1.31907 -6.65653 0.0166101
    endloop
  endfacet
  facet normal 0.226044 0.487062 -0.843608
    outer loop
      vertex 1.31907 -0.0753039 0.0166101
      vertex 1.27 -0.0753039 0.00346202
      vertex 1.27 -0.0297581 0.0297581
    endloop
  endfacet
  facet normal 0.226045 0.487063 -0.843608
    outer loop
      vertex 1.31907 -0.0753039 0.0166101
      vertex 1.27 -0.0297581 0.0297581
      vertex 1.30592 -0.0297581 0.0393832
    endloop
  endfacet
  facet normal 0.617564 0.487062 -0.617564
    outer loop
      vertex 1.31907 -0.0753039 0.0166101
      vertex 1.30592 -0.0297581 0.0393832
      vertex 1.33222 -0.0297581 0.0656788
    endloop
  endfacet
  facet normal 0.617564 0.487062 -0.617564
    outer loop
      vertex 1.35499 -0.0753039 0.0525308
      vertex 1.31907 -0.0753039 0.0166101
      vertex 1.33222 -0.0297581 0.0656788
    endloop
  endfacet
  facet normal 0.843608 0.487063 -0.226045
    outer loop
      vertex 1.35499 -0.0753039 0.0525308
      vertex 1.33222 -0.0297581 0.0656788
      vertex 1.34184 -0.0297581 0.1016
    endloop
  endfacet
  facet normal 0.843608 0.487062 -0.226044
    outer loop
      vertex 1.35499 -0.0753039 0.0525308
      vertex 1.34184 -0.0297581 0.1016
      vertex 1.36814 -0.0753039 0.1016
    endloop
  endfacet
  facet normal 0.866023 0.500004 -3.06164e-17
    outer loop
      vertex 1.36814 -0.0753039 0.1016
      vertex 1.34184 -0.0297581 0.1016
      vertex 1.34184 -0.0297581 8.7884
    endloop
  endfacet
  facet normal 0.866023 0.500004 -3.06164e-17
    outer loop
      vertex 1.36814 -0.0753039 8.7884
      vertex 1.36814 -0.0753039 0.1016
      vertex 1.34184 -0.0297581 8.7884
    endloop
  endfacet
  facet normal 0.843608 0.487062 0.226044
    outer loop
      vertex 1.36814 -0.0753039 8.7884
      vertex 1.34184 -0.0297581 8.7884
      vertex 1.35499 -0.0753039 8.83747
    endloop
  endfacet
  facet normal 0.843608 0.487063 0.226045
    outer loop
      vertex 1.34184 -0.0297581 8.7884
      vertex 1.33222 -0.0297581 8.82432
      vertex 1.35499 -0.0753039 8.83747
    endloop
  endfacet
  facet normal 0.617564 0.487062 0.617564
    outer loop
      vertex 1.33222 -0.0297581 8.82432
      vertex 1.31907 -0.0753039 8.87339
      vertex 1.35499 -0.0753039 8.83747
    endloop
  endfacet
  facet normal 0.617564 0.487062 0.617564
    outer loop
      vertex 1.33222 -0.0297581 8.82432
      vertex 1.30592 -0.0297581 8.85062
      vertex 1.31907 -0.0753039 8.87339
    endloop
  endfacet
  facet normal 0.226045 0.487063 0.843608
    outer loop
      vertex 1.30592 -0.0297581 8.85062
      vertex 1.27 -0.0297581 8.86024
      vertex 1.31907 -0.0753039 8.87339
    endloop
  endfacet
  facet normal 0.226044 0.487062 0.843608
    outer loop
      vertex 1.31907 -0.0753039 8.87339
      vertex 1.27 -0.0297581 8.86024
      vertex 1.27 -0.0753039 8.88654
    endloop
  endfacet
  facet normal 0.258819 5.91459e-17 0.965926
    outer loop
      vertex 1.31907 -0.0753039 8.87339
      vertex 1.27 -0.0753039 8.88654
      vertex 1.27 -6.6793 8.88654
    endloop
  endfacet
  facet normal 0.258819 5.91459e-17 0.965926
    outer loop
      vertex 1.31907 -6.65653 8.87339
      vertex 1.31907 -0.0753039 8.87339
      vertex 1.27 -6.6793 8.88654
    endloop
  endfacet
  facet normal 0 0.500004 0.866023
    outer loop
      vertex 1.31907 -6.65653 8.87339
      vertex 1.27 -6.6793 8.88654
      vertex 7.874 -6.6793 8.88654
    endloop
  endfacet
  facet normal 0 0.500004 0.866023
    outer loop
      vertex 7.81178 -6.63376 8.86024
      vertex 1.31907 -6.65653 8.87339
      vertex 7.82493 -6.65653 8.87339
    endloop
  endfacet
  facet normal 0 0.500004 0.866023
    outer loop
      vertex 7.82493 -6.65653 8.87339
      vertex 1.31907 -6.65653 8.87339
      vertex 7.874 -6.6793 8.88654
    endloop
  endfacet
  facet normal 0 0.500004 0.866023
    outer loop
      vertex 1.33222 -6.63376 8.86024
      vertex 1.31907 -6.65653 8.87339
      vertex 7.81178 -6.63376 8.86024
    endloop
  endfacet
  facet normal -0.258819 5.91459e-17 0.965926
    outer loop
      vertex 7.874 -0.0753039 8.88654
      vertex 7.82493 -0.0753039 8.87339
      vertex 7.82493 -6.65653 8.87339
    endloop
  endfacet
  facet normal -0.258819 5.91459e-17 0.965926
    outer loop
      vertex 7.874 -6.6793 8.88654
      vertex 7.874 -0.0753039 8.88654
      vertex 7.82493 -6.65653 8.87339
    endloop
  endfacet
  facet normal 0 0.500004 0.866023
    outer loop
      vertex 9.0424 -0.0297581 8.86024
      vertex 7.874 -0.0297581 8.86024
      vertex 7.874 -0.0753039 8.88654
    endloop
  endfacet
  facet normal 0 0.500004 0.866023
    outer loop
      vertex 9.0424 -0.0753039 8.88654
      vertex 9.0424 -0.0297581 8.86024
      vertex 7.874 -0.0753039 8.88654
    endloop
  endfacet
  facet normal -0.226044 0.487062 0.843608
    outer loop
      vertex 7.874 -0.0297581 8.86024
      vertex 7.82493 -0.0753039 8.87339
      vertex 7.874 -0.0753039 8.88654
    endloop
  endfacet
  facet normal 0.226044 0.487062 0.843608
    outer loop
      vertex 9.09147 -0.0753039 8.87339
      vertex 9.0424 -0.0297581 8.86024
      vertex 9.0424 -0.0753039 8.88654
    endloop
  endfacet
  facet normal 0.258819 5.91459e-17 0.965926
    outer loop
      vertex 9.09147 -0.0753039 8.87339
      vertex 9.0424 -0.0753039 8.88654
      vertex 9.0424 -6.6793 8.88654
    endloop
  endfacet
  facet normal 0.258819 5.91459e-17 0.965926
    outer loop
      vertex 9.09147 -6.6793 8.87339
      vertex 9.09147 -0.0753039 8.87339
      vertex 9.0424 -6.6793 8.88654
    endloop
  endfacet
  facet normal 0.258819 5.91459e-17 0.965926
    outer loop
      vertex 9.09147 -6.6793 8.87339
      vertex 9.0424 -6.6793 8.88654
      vertex 9.0424 -8.1797 8.88654
    endloop
  endfacet
  facet normal 0.258819 5.91459e-17 0.965926
    outer loop
      vertex 9.09147 -8.1797 8.87339
      vertex 9.09147 -6.6793 8.87339
      vertex 9.0424 -8.1797 8.88654
    endloop
  endfacet
  facet normal 0.226044 -0.487062 0.843608
    outer loop
      vertex 9.0424 -8.1797 8.88654
      vertex 9.0424 -8.22524 8.86024
      vertex 9.09147 -8.1797 8.87339
    endloop
  endfacet
  facet normal 0 -0.500004 0.866023
    outer loop
      vertex 9.0424 -8.1797 8.88654
      vertex 1.27 -8.1797 8.88654
      vertex 1.31907 -8.20247 8.87339
    endloop
  endfacet
  facet normal 0 -0.500004 0.866023
    outer loop
      vertex 1.33222 -8.22524 8.86024
      vertex 9.0424 -8.1797 8.88654
      vertex 1.31907 -8.20247 8.87339
    endloop
  endfacet
  facet normal 0 -0.500004 0.866023
    outer loop
      vertex 1.33222 -8.22524 8.86024
      vertex 9.0424 -8.22524 8.86024
      vertex 9.0424 -8.1797 8.88654
    endloop
  endfacet
  facet normal 0.258819 5.91459e-17 0.965926
    outer loop
      vertex 1.31907 -8.20247 8.87339
      vertex 1.27 -8.1797 8.88654
      vertex 1.27 -16.4347 8.88654
    endloop
  endfacet
  facet normal 0.258819 5.91459e-17 0.965926
    outer loop
      vertex 1.31907 -16.4347 8.87339
      vertex 1.31907 -8.20247 8.87339
      vertex 1.27 -16.4347 8.88654
    endloop
  endfacet
  facet normal 0.226044 -0.487062 0.843608
    outer loop
      vertex 1.27 -16.4347 8.88654
      vertex 1.27 -16.4802 8.86024
      vertex 1.31907 -16.4347 8.87339
    endloop
  endfacet
  facet normal 0.226045 -0.487063 0.843608
    outer loop
      vertex 1.31907 -16.4347 8.87339
      vertex 1.27 -16.4802 8.86024
      vertex 1.30592 -16.4802 8.85062
    endloop
  endfacet
  facet normal 0.617564 -0.487062 0.617564
    outer loop
      vertex 1.31907 -16.4347 8.87339
      vertex 1.30592 -16.4802 8.85062
      vertex 1.33222 -16.4802 8.82432
    endloop
  endfacet
  facet normal 0.617564 -0.487062 0.617564
    outer loop
      vertex 1.35499 -16.4347 8.83747
      vertex 1.31907 -16.4347 8.87339
      vertex 1.33222 -16.4802 8.82432
    endloop
  endfacet
  facet normal 0.843608 -0.487063 0.226045
    outer loop
      vertex 1.35499 -16.4347 8.83747
      vertex 1.33222 -16.4802 8.82432
      vertex 1.34184 -16.4802 8.7884
    endloop
  endfacet
  facet normal 0.843608 -0.487062 0.226044
    outer loop
      vertex 1.35499 -16.4347 8.83747
      vertex 1.34184 -16.4802 8.7884
      vertex 1.36814 -16.4347 8.7884
    endloop
  endfacet
  facet normal 0.866023 -0.500004 3.06164e-17
    outer loop
      vertex 1.34184 -16.4802 8.7884
      vertex 1.34184 -16.4802 0.1016
      vertex 1.36814 -16.4347 0.1016
    endloop
  endfacet
  facet normal 0.866023 -0.500004 3.06164e-17
    outer loop
      vertex 1.36814 -16.4347 8.7884
      vertex 1.34184 -16.4802 8.7884
      vertex 1.36814 -16.4347 0.1016
    endloop
  endfacet
  facet normal 0.843608 -0.487062 -0.226044
    outer loop
      vertex 1.36814 -16.4347 0.1016
      vertex 1.34184 -16.4802 0.1016
      vertex 1.35499 -16.4347 0.0525308
    endloop
  endfacet
  facet normal 0.843608 -0.487063 -0.226045
    outer loop
      vertex 1.34184 -16.4802 0.1016
      vertex 1.33222 -16.4802 0.0656788
      vertex 1.35499 -16.4347 0.0525308
    endloop
  endfacet
  facet normal 0.617564 -0.487062 -0.617564
    outer loop
      vertex 1.33222 -16.4802 0.0656788
      vertex 1.31907 -16.4347 0.0166101
      vertex 1.35499 -16.4347 0.0525308
    endloop
  endfacet
  facet normal 0.617564 -0.487062 -0.617564
    outer loop
      vertex 1.33222 -16.4802 0.0656788
      vertex 1.30592 -16.4802 0.0393832
      vertex 1.31907 -16.4347 0.0166101
    endloop
  endfacet
  facet normal 0.707107 -4.32978e-17 -0.707107
    outer loop
      vertex 1.31907 -8.20247 0.0166101
      vertex 1.33222 -8.22524 0.0297581
      vertex 1.31907 -16.4347 0.0166101
    endloop
  endfacet
  facet normal 0.707107 -4.32978e-17 -0.707107
    outer loop
      vertex 1.31907 -16.4347 0.0166101
      vertex 1.33222 -8.22524 0.0297581
      vertex 1.35499 -8.23839 0.0525308
    endloop
  endfacet
  facet normal 0.707107 -4.32978e-17 -0.707107
    outer loop
      vertex 1.31907 -16.4347 0.0166101
      vertex 1.35499 -8.23839 0.0525308
      vertex 1.35499 -16.4347 0.0525308
    endloop
  endfacet
  facet normal 0 -0.866023 -0.500004
    outer loop
      vertex 1.35499 -8.23839 0.0525308
      vertex 1.33222 -8.22524 0.0297581
      vertex 9.0424 -8.22524 0.0297581
    endloop
  endfacet
  facet normal 0 -0.866023 -0.500004
    outer loop
      vertex 9.0424 -8.24628 0.0661947
      vertex 1.35499 -8.23839 0.0525308
      vertex 9.0424 -8.22524 0.0297581
    endloop
  endfacet
  facet normal 0 -0.866023 -0.500004
    outer loop
      vertex 9.0424 -8.24953 0.0718315
      vertex 9.0424 -8.24628 0.0661947
      vertex 9.0424 -8.22524 0.0297581
    endloop
  endfacet
  facet normal 0 -0.866023 -0.500004
    outer loop
      vertex 7.874 -8.24628 0.0661947
      vertex 1.35499 -8.23839 0.0525308
      vertex 9.0424 -8.24628 0.0661947
    endloop
  endfacet
  facet normal 0 -0.866023 -0.500004
    outer loop
      vertex 1.36109 -8.25154 0.0753039
      vertex 1.35499 -8.23839 0.0525308
      vertex 7.874 -8.25154 0.0753039
    endloop
  endfacet
  facet normal 0 -0.866023 -0.500004
    outer loop
      vertex 7.874 -8.24628 0.0661947
      vertex 7.874 -8.25154 0.0753039
      vertex 1.35499 -8.23839 0.0525308
    endloop
  endfacet
  facet normal 0.13279 -0.858354 -0.495576
    outer loop
      vertex 9.05418 -8.2488 0.0737256
      vertex 9.0424 -8.22524 0.0297581
      vertex 9.07832 -8.22524 0.0393832
    endloop
  endfacet
  facet normal 0.13279 -0.858354 -0.495576
    outer loop
      vertex 9.05799 -8.24872 0.0745994
      vertex 9.05418 -8.2488 0.0737256
      vertex 9.07832 -8.22524 0.0393832
    endloop
  endfacet
  facet normal 0.13279 -0.858354 -0.495576
    outer loop
      vertex 9.05555 -8.25154 0.0788269
      vertex 9.05799 -8.24872 0.0745994
      vertex 9.07832 -8.22524 0.0393832
    endloop
  endfacet
  facet normal 0.226045 -0.487063 -0.843608
    outer loop
      vertex 9.07832 -8.22524 0.0393832
      vertex 9.0424 -8.22524 0.0297581
      vertex 9.09147 -8.1797 0.0166101
    endloop
  endfacet
  facet normal 0.132788 -0.858354 -0.495576
    outer loop
      vertex 9.05418 -8.2488 0.0737255
      vertex 9.0424 -8.22524 0.0297581
      vertex 9.05418 -8.2488 0.0737256
    endloop
  endfacet
  facet normal 0.132788 -0.858354 -0.495576
    outer loop
      vertex 9.0424 -8.24953 0.0718315
      vertex 9.0424 -8.22524 0.0297581
      vertex 9.05418 -8.2488 0.0737255
    endloop
  endfacet
  facet normal 0.617564 -0.487062 -0.617564
    outer loop
      vertex 9.11368 -8.19242 0.0488575
      vertex 9.07832 -8.22524 0.0393832
      vertex 9.09147 -8.1797 0.0166101
    endloop
  endfacet
  facet normal 0.617564 -0.487062 -0.617564
    outer loop
      vertex 9.10753 -8.1797 0.0326728
      vertex 9.11368 -8.19242 0.0488575
      vertex 9.09147 -8.1797 0.0166101
    endloop
  endfacet
  facet normal 0.707107 -4.32978e-17 -0.707107
    outer loop
      vertex 9.09147 -8.1797 0.0166101
      vertex 9.09147 -6.6793 0.0166101
      vertex 9.10045 -6.6793 0.0255902
    endloop
  endfacet
  facet normal 0.707107 -4.32978e-17 -0.707107
    outer loop
      vertex 9.10753 -8.1797 0.0326728
      vertex 9.09147 -8.1797 0.0166101
      vertex 9.10045 -8.1797 0.0255902
    endloop
  endfacet
  facet normal 0.707107 -4.32978e-17 -0.707107
    outer loop
      vertex 9.10045 -8.1797 0.0255902
      vertex 9.09147 -8.1797 0.0166101
      vertex 9.10045 -6.6793 0.0255902
    endloop
  endfacet
  facet normal 0.707107 -4.32978e-17 -0.707107
    outer loop
      vertex 9.09147 -0.0753039 0.0166101
      vertex 9.12739 -0.0753039 0.0525308
      vertex 9.09147 -6.6793 0.0166101
    endloop
  endfacet
  facet normal 0.707107 -4.32978e-17 -0.707107
    outer loop
      vertex 9.10045 -6.6793 0.0255902
      vertex 9.12739 -0.0753039 0.0525308
      vertex 9.12739 -8.1797 0.0525308
    endloop
  endfacet
  facet normal 0.707107 -4.32978e-17 -0.707107
    outer loop
      vertex 9.09147 -6.6793 0.0166101
      vertex 9.12739 -0.0753039 0.0525308
      vertex 9.10045 -6.6793 0.0255902
    endloop
  endfacet
  facet normal 0.707107 -4.32978e-17 -0.707107
    outer loop
      vertex 9.10045 -6.6793 0.0255902
      vertex 9.12739 -8.1797 0.0525308
      vertex 9.10045 -8.1797 0.0255902
    endloop
  endfacet
  facet normal 0.617564 0.487062 -0.617564
    outer loop
      vertex 9.09147 -0.0753039 0.0166101
      vertex 9.07832 -0.0297581 0.0393832
      vertex 9.10462 -0.0297581 0.0656788
    endloop
  endfacet
  facet normal 0.226045 0.487063 -0.843608
    outer loop
      vertex 9.09147 -0.0753039 0.0166101
      vertex 9.0424 -0.0297581 0.0297581
      vertex 9.07832 -0.0297581 0.0393832
    endloop
  endfacet
  facet normal 0.617564 0.487062 -0.617564
    outer loop
      vertex 9.12739 -0.0753039 0.0525308
      vertex 9.09147 -0.0753039 0.0166101
      vertex 9.10462 -0.0297581 0.0656788
    endloop
  endfacet
  facet normal 0.132788 0.858354 -0.495576
    outer loop
      vertex 9.05555 -0.00346202 0.0788269
      vertex 9.0424 -0.0297581 0.0297581
      vertex 9.0424 -0.00346202 0.0753039
    endloop
  endfacet
  facet normal 0 0.866023 -0.500004
    outer loop
      vertex 7.874 -0.0297581 0.0297581
      vertex 7.874 -0.00346202 0.0753039
      vertex 9.0424 -0.0297581 0.0297581
    endloop
  endfacet
  facet normal 0 0.866023 -0.500004
    outer loop
      vertex 9.0424 -0.0297581 0.0297581
      vertex 7.874 -0.00346202 0.0753039
      vertex 9.0424 -0.00346202 0.0753039
    endloop
  endfacet
  facet normal 0.13279 0.858354 -0.495576
    outer loop
      vertex 9.07832 -0.0297581 0.0393832
      vertex 9.0424 -0.0297581 0.0297581
      vertex 9.05555 -0.00346202 0.0788269
    endloop
  endfacet
  facet normal -0.132788 0.858354 -0.495576
    outer loop
      vertex 7.874 -0.0297581 0.0297581
      vertex 7.86085 -0.00346202 0.0788269
      vertex 7.874 -0.00346202 0.0753039
    endloop
  endfacet
  facet normal -0.13279 0.858354 -0.495576
    outer loop
      vertex 7.874 -0.0297581 0.0297581
      vertex 7.83808 -0.0297581 0.0393832
      vertex 7.86085 -0.00346202 0.0788269
    endloop
  endfacet
  facet normal -0.226045 0.487063 -0.843608
    outer loop
      vertex 7.874 -0.0297581 0.0297581
      vertex 7.82493 -0.0753039 0.0166101
      vertex 7.83808 -0.0297581 0.0393832
    endloop
  endfacet
  facet normal -0.707107 -4.32978e-17 -0.707107
    outer loop
      vertex 7.78901 -0.0753039 0.0525308
      vertex 7.82493 -0.0753039 0.0166101
      vertex 7.78901 -6.62061 0.0525308
    endloop
  endfacet
  facet normal -0.707107 -4.32978e-17 -0.707107
    outer loop
      vertex 7.81178 -6.63376 0.0297581
      vertex 7.82493 -0.0753039 0.0166101
      vertex 7.82493 -6.65653 0.0166101
    endloop
  endfacet
  facet normal -0.707107 -4.32978e-17 -0.707107
    outer loop
      vertex 7.78901 -6.62061 0.0525308
      vertex 7.82493 -0.0753039 0.0166101
      vertex 7.81178 -6.63376 0.0297581
    endloop
  endfacet
  facet normal -0.617564 0.487062 -0.617564
    outer loop
      vertex 7.78901 -0.0753039 0.0525308
      vertex 7.81178 -0.0297581 0.0656788
      vertex 7.82493 -0.0753039 0.0166101
    endloop
  endfacet
  facet normal -0.617564 0.487062 -0.617564
    outer loop
      vertex 7.82493 -0.0753039 0.0166101
      vertex 7.81178 -0.0297581 0.0656788
      vertex 7.83808 -0.0297581 0.0393832
    endloop
  endfacet
  facet normal 0 0.866023 -0.500004
    outer loop
      vertex 1.33222 -6.63376 0.0297581
      vertex 1.35499 -6.62061 0.0525308
      vertex 7.81178 -6.63376 0.0297581
    endloop
  endfacet
  facet normal 0 0.866023 -0.500004
    outer loop
      vertex 7.81178 -6.63376 0.0297581
      vertex 1.35499 -6.62061 0.0525308
      vertex 1.36109 -6.60746 0.0753039
    endloop
  endfacet
  facet normal 0 0.866023 -0.500004
    outer loop
      vertex 7.78901 -6.62061 0.0525308
      vertex 1.36109 -6.60746 0.0753039
      vertex 7.78291 -6.60746 0.0753039
    endloop
  endfacet
  facet normal 0 0.866023 -0.500004
    outer loop
      vertex 7.81178 -6.63376 0.0297581
      vertex 1.36109 -6.60746 0.0753039
      vertex 7.78901 -6.62061 0.0525308
    endloop
  endfacet
  facet normal 0.707107 -4.32978e-17 -0.707107
    outer loop
      vertex 1.31907 -0.0753039 0.0166101
      vertex 1.35499 -0.0753039 0.0525308
      vertex 1.31907 -6.65653 0.0166101
    endloop
  endfacet
  facet normal 0.707107 -4.32978e-17 -0.707107
    outer loop
      vertex 1.33222 -6.63376 0.0297581
      vertex 1.35499 -0.0753039 0.0525308
      vertex 1.35499 -6.62061 0.0525308
    endloop
  endfacet
  facet normal 0.707107 -4.32978e-17 -0.707107
    outer loop
      vertex 1.31907 -6.65653 0.0166101
      vertex 1.35499 -0.0753039 0.0525308
      vertex 1.33222 -6.63376 0.0297581
    endloop
  endfacet
  facet normal 0.965926 -1.58481e-17 -0.258819
    outer loop
      vertex 1.35499 -6.62061 0.0525308
      vertex 1.35499 -0.0753039 0.0525308
      vertex 1.36814 -0.0753039 0.1016
    endloop
  endfacet
  facet normal 0.965926 -1.58481e-17 -0.258819
    outer loop
      vertex 1.36109 -6.60746 0.0753039
      vertex 1.35499 -6.62061 0.0525308
      vertex 1.36814 -0.0753039 0.1016
    endloop
  endfacet
  facet normal 0.965926 -1.58481e-17 -0.258819
    outer loop
      vertex 1.36814 -6.60746 0.1016
      vertex 1.36109 -6.60746 0.0753039
      vertex 1.36814 -0.0753039 0.1016
    endloop
  endfacet
  facet normal 1 0 0
    outer loop
      vertex 1.36814 -6.60746 0.1016
      vertex 1.36814 -0.0753039 0.1016
      vertex 1.36814 -0.0753039 8.7884
    endloop
  endfacet
  facet normal 1 0 0
    outer loop
      vertex 1.36814 -6.60746 8.7884
      vertex 1.36814 -6.60746 0.1016
      vertex 1.36814 -0.0753039 8.7884
    endloop
  endfacet
  facet normal 0.965926 1.58481e-17 0.258819
    outer loop
      vertex 1.36814 -0.0753039 8.7884
      vertex 1.35499 -0.0753039 8.83747
      vertex 1.35499 -6.62061 8.83747
    endloop
  endfacet
  facet normal 0.965926 1.58481e-17 0.258819
    outer loop
      vertex 1.36814 -6.60746 8.7884
      vertex 1.36814 -0.0753039 8.7884
      vertex 1.36109 -6.60746 8.8147
    endloop
  endfacet
  facet normal 0.965926 1.58481e-17 0.258819
    outer loop
      vertex 1.36109 -6.60746 8.8147
      vertex 1.36814 -0.0753039 8.7884
      vertex 1.35499 -6.62061 8.83747
    endloop
  endfacet
  facet normal 0.707107 4.32978e-17 0.707107
    outer loop
      vertex 1.35499 -0.0753039 8.83747
      vertex 1.31907 -0.0753039 8.87339
      vertex 1.31907 -6.65653 8.87339
    endloop
  endfacet
  facet normal 0.707107 4.32978e-17 0.707107
    outer loop
      vertex 1.35499 -6.62061 8.83747
      vertex 1.35499 -0.0753039 8.83747
      vertex 1.33222 -6.63376 8.86024
    endloop
  endfacet
  facet normal 0.707107 4.32978e-17 0.707107
    outer loop
      vertex 1.33222 -6.63376 8.86024
      vertex 1.35499 -0.0753039 8.83747
      vertex 1.31907 -6.65653 8.87339
    endloop
  endfacet
  facet normal 0 0.866023 0.500004
    outer loop
      vertex 1.33222 -6.63376 8.86024
      vertex 7.81178 -6.63376 8.86024
      vertex 1.35499 -6.62061 8.83747
    endloop
  endfacet
  facet normal 0 0.866023 0.500004
    outer loop
      vertex 1.35499 -6.62061 8.83747
      vertex 7.81178 -6.63376 8.86024
      vertex 7.78901 -6.62061 8.83747
    endloop
  endfacet
  facet normal 0 0.866023 0.500004
    outer loop
      vertex 1.35499 -6.62061 8.83747
      vertex 7.78901 -6.62061 8.83747
      vertex 7.78291 -6.60746 8.8147
    endloop
  endfacet
  facet normal 0 0.866023 0.500004
    outer loop
      vertex 1.35499 -6.62061 8.83747
      vertex 7.78291 -6.60746 8.8147
      vertex 1.36109 -6.60746 8.8147
    endloop
  endfacet
  facet normal -0.707107 4.32978e-17 0.707107
    outer loop
      vertex 7.82493 -0.0753039 8.87339
      vertex 7.78901 -0.0753039 8.83747
      vertex 7.78901 -6.62061 8.83747
    endloop
  endfacet
  facet normal -0.707107 4.32978e-17 0.707107
    outer loop
      vertex 7.82493 -6.65653 8.87339
      vertex 7.82493 -0.0753039 8.87339
      vertex 7.81178 -6.63376 8.86024
    endloop
  endfacet
  facet normal -0.707107 4.32978e-17 0.707107
    outer loop
      vertex 7.81178 -6.63376 8.86024
      vertex 7.82493 -0.0753039 8.87339
      vertex 7.78901 -6.62061 8.83747
    endloop
  endfacet
  facet normal -0.617564 0.487062 0.617564
    outer loop
      vertex 7.81178 -0.0297581 8.82432
      vertex 7.78901 -0.0753039 8.83747
      vertex 7.82493 -0.0753039 8.87339
    endloop
  endfacet
  facet normal -0.617564 0.487062 0.617564
    outer loop
      vertex 7.83808 -0.0297581 8.85062
      vertex 7.81178 -0.0297581 8.82432
      vertex 7.82493 -0.0753039 8.87339
    endloop
  endfacet
  facet normal -0.226045 0.487063 0.843608
    outer loop
      vertex 7.83808 -0.0297581 8.85062
      vertex 7.82493 -0.0753039 8.87339
      vertex 7.874 -0.0297581 8.86024
    endloop
  endfacet
  facet normal 0.132788 0.858354 0.495576
    outer loop
      vertex 9.05555 -0.00346202 8.81117
      vertex 9.0424 -0.00346202 8.8147
      vertex 9.0424 -0.0297581 8.86024
    endloop
  endfacet
  facet normal 0.13279 0.858354 0.495576
    outer loop
      vertex 9.05555 -0.00346202 8.81117
      vertex 9.0424 -0.0297581 8.86024
      vertex 9.07832 -0.0297581 8.85062
    endloop
  endfacet
  facet normal 0.226045 0.487063 0.843608
    outer loop
      vertex 9.07832 -0.0297581 8.85062
      vertex 9.0424 -0.0297581 8.86024
      vertex 9.09147 -0.0753039 8.87339
    endloop
  endfacet
  facet normal 0 0.866023 0.500004
    outer loop
      vertex 7.874 -0.00346202 8.8147
      vertex 7.874 -0.0297581 8.86024
      vertex 9.0424 -0.00346202 8.8147
    endloop
  endfacet
  facet normal 0 0.866023 0.500004
    outer loop
      vertex 9.0424 -0.00346202 8.8147
      vertex 7.874 -0.0297581 8.86024
      vertex 9.0424 -0.0297581 8.86024
    endloop
  endfacet
  facet normal -0.13279 0.858354 0.495576
    outer loop
      vertex 7.86085 -0.00346202 8.81117
      vertex 7.83808 -0.0297581 8.85062
      vertex 7.874 -0.0297581 8.86024
    endloop
  endfacet
  facet normal -0.132788 0.858354 0.495576
    outer loop
      vertex 7.874 -0.00346202 8.8147
      vertex 7.86085 -0.00346202 8.81117
      vertex 7.874 -0.0297581 8.86024
    endloop
  endfacet
  facet normal 0.617564 0.487062 0.617564
    outer loop
      vertex 9.10462 -0.0297581 8.82432
      vertex 9.09147 -0.0753039 8.87339
      vertex 9.12739 -0.0753039 8.83747
    endloop
  endfacet
  facet normal 0.707107 4.32978e-17 0.707107
    outer loop
      vertex 9.12739 -0.0753039 8.83747
      vertex 9.09147 -0.0753039 8.87339
      vertex 9.09147 -6.6793 8.87339
    endloop
  endfacet
  facet normal 0.707107 4.32978e-17 0.707107
    outer loop
      vertex 9.10045 -6.6793 8.86441
      vertex 9.12739 -0.0753039 8.83747
      vertex 9.09147 -6.6793 8.87339
    endloop
  endfacet
  facet normal 0.707107 4.32978e-17 0.707107
    outer loop
      vertex 9.10045 -8.1797 8.86441
      vertex 9.12739 -0.0753039 8.83747
      vertex 9.10045 -6.6793 8.86441
    endloop
  endfacet
  facet normal 0.707107 4.32978e-17 0.707107
    outer loop
      vertex 9.12739 -8.1797 8.83747
      vertex 9.12739 -0.0753039 8.83747
      vertex 9.10045 -8.1797 8.86441
    endloop
  endfacet
  facet normal 0.617564 0.487062 0.617564
    outer loop
      vertex 9.10462 -0.0297581 8.82432
      vertex 9.07832 -0.0297581 8.85062
      vertex 9.09147 -0.0753039 8.87339
    endloop
  endfacet
  facet normal 0.707107 4.32978e-17 0.707107
    outer loop
      vertex 9.10045 -6.6793 8.86441
      vertex 9.09147 -6.6793 8.87339
      vertex 9.09147 -8.1797 8.87339
    endloop
  endfacet
  facet normal 0.707107 4.32978e-17 0.707107
    outer loop
      vertex 9.10045 -8.1797 8.86441
      vertex 9.10045 -6.6793 8.86441
      vertex 9.09147 -8.1797 8.87339
    endloop
  endfacet
  facet normal 0.707107 4.32978e-17 0.707107
    outer loop
      vertex 9.10753 -8.1797 8.85733
      vertex 9.10045 -8.1797 8.86441
      vertex 9.09147 -8.1797 8.87339
    endloop
  endfacet
  facet normal 0.617564 -0.487062 0.617564
    outer loop
      vertex 9.09147 -8.1797 8.87339
      vertex 9.07832 -8.22524 8.85062
      vertex 9.10462 -8.22524 8.82432
    endloop
  endfacet
  facet normal 0.617564 -0.487062 0.617564
    outer loop
      vertex 9.10753 -8.1797 8.85733
      vertex 9.09147 -8.1797 8.87339
      vertex 9.10611 -8.22226 8.82518
    endloop
  endfacet
  facet normal 0.617564 -0.487062 0.617564
    outer loop
      vertex 9.10611 -8.22226 8.82518
      vertex 9.09147 -8.1797 8.87339
      vertex 9.10462 -8.22524 8.82432
    endloop
  endfacet
  facet normal 0.226045 -0.487063 0.843608
    outer loop
      vertex 9.09147 -8.1797 8.87339
      vertex 9.0424 -8.22524 8.86024
      vertex 9.07832 -8.22524 8.85062
    endloop
  endfacet
  facet normal 0.132788 -0.858354 0.495576
    outer loop
      vertex 9.0424 -8.22524 8.86024
      vertex 9.0424 -8.24953 8.81817
      vertex 9.05418 -8.2488 8.81627
    endloop
  endfacet
  facet normal 0 -0.866023 0.500004
    outer loop
      vertex 9.0424 -8.24628 8.82381
      vertex 9.0424 -8.24953 8.81817
      vertex 9.0424 -8.22524 8.86024
    endloop
  endfacet
  facet normal 0 -0.866023 0.500004
    outer loop
      vertex 9.0424 -8.22524 8.86024
      vertex 1.33222 -8.22524 8.86024
      vertex 1.35499 -8.23839 8.83747
    endloop
  endfacet
  facet normal 0 -0.866023 0.500004
    outer loop
      vertex 1.36109 -8.25154 8.8147
      vertex 9.0424 -8.22524 8.86024
      vertex 1.35499 -8.23839 8.83747
    endloop
  endfacet
  facet normal 0 -0.866023 0.500004
    outer loop
      vertex 1.36109 -8.25154 8.8147
      vertex 7.874 -8.24628 8.82381
      vertex 9.0424 -8.22524 8.86024
    endloop
  endfacet
  facet normal 0 -0.866023 0.500004
    outer loop
      vertex 1.36109 -8.25154 8.8147
      vertex 7.874 -8.25154 8.8147
      vertex 7.874 -8.24628 8.82381
    endloop
  endfacet
  facet normal 0 -0.866023 0.500004
    outer loop
      vertex 7.874 -8.24628 8.82381
      vertex 9.0424 -8.24628 8.82381
      vertex 9.0424 -8.22524 8.86024
    endloop
  endfacet
  facet normal 0.13279 -0.858354 0.495576
    outer loop
      vertex 9.07832 -8.22524 8.85062
      vertex 9.0424 -8.22524 8.86024
      vertex 9.05418 -8.2488 8.81627
    endloop
  endfacet
  facet normal 0.13279 -0.858354 0.495576
    outer loop
      vertex 9.05555 -8.25154 8.81117
      vertex 9.07832 -8.22524 8.85062
      vertex 9.05799 -8.24872 8.8154
    endloop
  endfacet
  facet normal 0.13279 -0.858354 0.495576
    outer loop
      vertex 9.05799 -8.24872 8.8154
      vertex 9.07832 -8.22524 8.85062
      vertex 9.05418 -8.2488 8.81627
    endloop
  endfacet
  facet normal 0.707107 4.32978e-17 0.707107
    outer loop
      vertex 1.33222 -8.22524 8.86024
      vertex 1.31907 -8.20247 8.87339
      vertex 1.31907 -16.4347 8.87339
    endloop
  endfacet
  facet normal 0.707107 4.32978e-17 0.707107
    outer loop
      vertex 1.35499 -8.23839 8.83747
      vertex 1.33222 -8.22524 8.86024
      vertex 1.35499 -16.4347 8.83747
    endloop
  endfacet
  facet normal 0.707107 4.32978e-17 0.707107
    outer loop
      vertex 1.35499 -16.4347 8.83747
      vertex 1.33222 -8.22524 8.86024
      vertex 1.31907 -16.4347 8.87339
    endloop
  endfacet
  facet normal 0.965926 1.58481e-17 0.258819
    outer loop
      vertex 1.36109 -8.25154 8.8147
      vertex 1.35499 -8.23839 8.83747
      vertex 1.35499 -16.4347 8.83747
    endloop
  endfacet
  facet normal 0.965926 1.58481e-17 0.258819
    outer loop
      vertex 1.36814 -8.25154 8.7884
      vertex 1.36109 -8.25154 8.8147
      vertex 1.36814 -16.4347 8.7884
    endloop
  endfacet
  facet normal 0.965926 1.58481e-17 0.258819
    outer loop
      vertex 1.36814 -16.4347 8.7884
      vertex 1.36109 -8.25154 8.8147
      vertex 1.35499 -16.4347 8.83747
    endloop
  endfacet
  facet normal 1 0 0
    outer loop
      vertex 1.36814 -16.4347 0.1016
      vertex 1.36814 -8.25154 0.1016
      vertex 1.36814 -8.25154 8.7884
    endloop
  endfacet
  facet normal 1 0 0
    outer loop
      vertex 1.36814 -16.4347 8.7884
      vertex 1.36814 -16.4347 0.1016
      vertex 1.36814 -8.25154 8.7884
    endloop
  endfacet
  facet normal 0.965926 -1.58481e-17 -0.258819
    outer loop
      vertex 1.35499 -16.4347 0.0525308
      vertex 1.35499 -8.23839 0.0525308
      vertex 1.36109 -8.25154 0.0753039
    endloop
  endfacet
  facet normal 0.965926 -1.58481e-17 -0.258819
    outer loop
      vertex 1.36814 -8.25154 0.1016
      vertex 1.35499 -16.4347 0.0525308
      vertex 1.36109 -8.25154 0.0753039
    endloop
  endfacet
  facet normal 0.965926 -1.58481e-17 -0.258819
    outer loop
      vertex 1.36814 -8.25154 0.1016
      vertex 1.36814 -16.4347 0.1016
      vertex 1.35499 -16.4347 0.0525308
    endloop
  endfacet
  facet normal 0 -1 6.12323e-17
    outer loop
      vertex 1.36814 -8.25154 0.1016
      vertex 1.36109 -8.25154 0.0753039
      vertex 7.874 -8.25154 0.0753039
    endloop
  endfacet
  facet normal 0 -1 6.12323e-17
    outer loop
      vertex 7.86085 -8.25154 0.0788269
      vertex 1.36814 -8.25154 0.1016
      vertex 7.874 -8.25154 0.0753039
    endloop
  endfacet
  facet normal 0 -1 6.12323e-17
    outer loop
      vertex 7.85123 -8.25154 0.0884519
      vertex 1.36814 -8.25154 0.1016
      vertex 7.86085 -8.25154 0.0788269
    endloop
  endfacet
  facet normal 0 -1 6.12323e-17
    outer loop
      vertex 7.8477 -8.25154 0.1016
      vertex 1.36814 -8.25154 0.1016
      vertex 7.85123 -8.25154 0.0884519
    endloop
  endfacet
  facet normal 0 -1 6.12323e-17
    outer loop
      vertex 7.8477 -8.25154 8.7884
      vertex 1.36814 -8.25154 0.1016
      vertex 7.8477 -8.25154 0.1016
    endloop
  endfacet
  facet normal 0 -1 6.12323e-17
    outer loop
      vertex 7.85123 -8.25154 8.80155
      vertex 1.36814 -8.25154 0.1016
      vertex 7.8477 -8.25154 8.7884
    endloop
  endfacet
  facet normal 0 -1 6.12323e-17
    outer loop
      vertex 1.36814 -8.25154 8.7884
      vertex 1.36814 -8.25154 0.1016
      vertex 7.85123 -8.25154 8.80155
    endloop
  endfacet
  facet normal 0 -1 6.12323e-17
    outer loop
      vertex 1.36109 -8.25154 8.8147
      vertex 7.85123 -8.25154 8.80155
      vertex 7.86085 -8.25154 8.81117
    endloop
  endfacet
  facet normal 0 -1 6.12323e-17
    outer loop
      vertex 1.36109 -8.25154 8.8147
      vertex 7.86085 -8.25154 8.81117
      vertex 7.874 -8.25154 8.8147
    endloop
  endfacet
  facet normal 0 -1 6.12323e-17
    outer loop
      vertex 1.36109 -8.25154 8.8147
      vertex 1.36814 -8.25154 8.7884
      vertex 7.85123 -8.25154 8.80155
    endloop
  endfacet
  facet normal 0 -0.866023 -0.500004
    outer loop
      vertex 7.874 -8.25154 0.0753039
      vertex 7.874 -8.24628 0.0661947
      vertex 9.0424 -8.24628 0.0661947
    endloop
  endfacet
  facet normal 0 -0.866023 -0.500004
    outer loop
      vertex 9.0424 -8.25154 0.0753039
      vertex 7.874 -8.25154 0.0753039
      vertex 9.0424 -8.24628 0.0661947
    endloop
  endfacet
  facet normal 0.132788 -0.858354 -0.495576
    outer loop
      vertex 9.0424 -8.25154 0.0753039
      vertex 9.0424 -8.24628 0.0661947
      vertex 9.0424 -8.24953 0.0718315
    endloop
  endfacet
  facet normal 0.132788 -0.858354 -0.495576
    outer loop
      vertex 9.05418 -8.2488 0.0737255
      vertex 9.0424 -8.25154 0.0753039
      vertex 9.0424 -8.24953 0.0718315
    endloop
  endfacet
  facet normal 0.132788 -0.858354 -0.495576
    outer loop
      vertex 9.05418 -8.2488 0.0737255
      vertex 9.05555 -8.25154 0.0788269
      vertex 9.0424 -8.25154 0.0753039
    endloop
  endfacet
  facet normal 0.13279 -0.858354 -0.495576
    outer loop
      vertex 9.05555 -8.25154 0.0788269
      vertex 9.05418 -8.2488 0.0737255
      vertex 9.05418 -8.2488 0.0737256
    endloop
  endfacet
  facet normal 0.13279 -0.858354 -0.495576
    outer loop
      vertex 9.05799 -8.24872 0.0745994
      vertex 9.05555 -8.25154 0.0788269
      vertex 9.05418 -8.2488 0.0737256
    endloop
  endfacet
  facet normal 0.362786 -0.858355 -0.362786
    outer loop
      vertex 9.06517 -8.25154 0.0884519
      vertex 9.05555 -8.25154 0.0788269
      vertex 9.07832 -8.22524 0.0393832
    endloop
  endfacet
  facet normal 0.362786 -0.858355 -0.362786
    outer loop
      vertex 9.10462 -8.22524 0.0656788
      vertex 9.06517 -8.25154 0.0884519
      vertex 9.07832 -8.22524 0.0393832
    endloop
  endfacet
  facet normal 0.617564 -0.487062 -0.617564
    outer loop
      vertex 9.10462 -8.22524 0.0656788
      vertex 9.07832 -8.22524 0.0393832
      vertex 9.11368 -8.19242 0.0488575
    endloop
  endfacet
  facet normal 0.617564 -0.487062 -0.617564
    outer loop
      vertex 9.10611 -8.22226 0.064819
      vertex 9.10462 -8.22524 0.0656788
      vertex 9.11368 -8.19242 0.0488575
    endloop
  endfacet
  facet normal 0.617564 -0.487062 -0.617564
    outer loop
      vertex 9.10045 -8.1797 0.0255902
      vertex 9.12739 -8.1797 0.0525308
      vertex 9.10753 -8.1797 0.0326728
    endloop
  endfacet
  facet normal 0.617564 -0.487062 -0.617564
    outer loop
      vertex 9.10611 -8.22226 0.064819
      vertex 9.12739 -8.1797 0.0525308
      vertex 9.10462 -8.22524 0.0656788
    endloop
  endfacet
  facet normal 0.617564 -0.487062 -0.617564
    outer loop
      vertex 9.11368 -8.19242 0.0488575
      vertex 9.12739 -8.1797 0.0525308
      vertex 9.10611 -8.22226 0.064819
    endloop
  endfacet
  facet normal 0.617564 -0.487062 -0.617564
    outer loop
      vertex 9.10753 -8.1797 0.0326728
      vertex 9.12739 -8.1797 0.0525308
      vertex 9.11368 -8.19242 0.0488575
    endloop
  endfacet
  facet normal 0.843608 -0.487063 -0.226045
    outer loop
      vertex 9.10794 -8.22524 0.0780819
      vertex 9.10462 -8.22524 0.0656788
      vertex 9.12739 -8.1797 0.0525308
    endloop
  endfacet
  facet normal 0.843608 -0.487063 -0.226045
    outer loop
      vertex 9.11885 -8.20926 0.0843837
      vertex 9.10794 -8.22524 0.0780819
      vertex 9.12739 -8.1797 0.0525308
    endloop
  endfacet
  facet normal 0.843608 -0.487062 -0.226044
    outer loop
      vertex 9.13194 -8.1797 0.0695132
      vertex 9.11885 -8.20926 0.0843837
      vertex 9.12739 -8.1797 0.0525308
    endloop
  endfacet
  facet normal 0.843608 -0.487062 -0.226044
    outer loop
      vertex 9.13302 -8.1797 0.0735604
      vertex 9.13194 -8.1797 0.0695132
      vertex 9.12739 -8.1797 0.0525308
    endloop
  endfacet
  facet normal 0.965926 -1.58481e-17 -0.258819
    outer loop
      vertex 9.12739 -8.1797 0.0525308
      vertex 9.12739 -0.0753039 0.0525308
      vertex 9.14054 -0.0753039 0.1016
    endloop
  endfacet
  facet normal 0.965926 -1.58481e-17 -0.258819
    outer loop
      vertex 9.13302 -6.6793 0.0735604
      vertex 9.12739 -8.1797 0.0525308
      vertex 9.14054 -0.0753039 0.1016
    endloop
  endfacet
  facet normal 0.965926 -1.58481e-17 -0.258819
    outer loop
      vertex 9.14054 -6.6793 0.1016
      vertex 9.13302 -6.6793 0.0735604
      vertex 9.14054 -0.0753039 0.1016
    endloop
  endfacet
  facet normal 0.965926 -1.58481e-17 -0.258819
    outer loop
      vertex 9.13302 -6.6793 0.0735604
      vertex 9.13302 -8.1797 0.0735604
      vertex 9.12739 -8.1797 0.0525308
    endloop
  endfacet
  facet normal 0.843608 0.487062 -0.226044
    outer loop
      vertex 9.12739 -0.0753039 0.0525308
      vertex 9.11424 -0.0297581 0.1016
      vertex 9.14054 -0.0753039 0.1016
    endloop
  endfacet
  facet normal 0.843608 0.487063 -0.226045
    outer loop
      vertex 9.12739 -0.0753039 0.0525308
      vertex 9.10462 -0.0297581 0.0656788
      vertex 9.11424 -0.0297581 0.1016
    endloop
  endfacet
  facet normal 0.495576 0.858354 -0.13279
    outer loop
      vertex 9.10462 -0.0297581 0.0656788
      vertex 9.06517 -0.00346202 0.0884519
      vertex 9.11424 -0.0297581 0.1016
    endloop
  endfacet
  facet normal 0.362786 0.858355 -0.362786
    outer loop
      vertex 9.07832 -0.0297581 0.0393832
      vertex 9.06517 -0.00346202 0.0884519
      vertex 9.10462 -0.0297581 0.0656788
    endloop
  endfacet
  facet normal 0.362786 0.858355 -0.362786
    outer loop
      vertex 9.07832 -0.0297581 0.0393832
      vertex 9.05555 -0.00346202 0.0788269
      vertex 9.06517 -0.00346202 0.0884519
    endloop
  endfacet
  facet normal 0 1 -6.12323e-17
    outer loop
      vertex 7.8477 -0.00346202 0.1016
      vertex 7.8477 -0.00346202 8.7884
      vertex 7.85123 -0.00346202 0.0884519
    endloop
  endfacet
  facet normal 0 1 -6.12323e-17
    outer loop
      vertex 7.85123 -0.00346202 0.0884519
      vertex 7.8477 -0.00346202 8.7884
      vertex 7.85123 -0.00346202 8.80155
    endloop
  endfacet
  facet normal 0 1 -6.12323e-17
    outer loop
      vertex 7.85123 -0.00346202 0.0884519
      vertex 7.85123 -0.00346202 8.80155
      vertex 7.86085 -0.00346202 8.81117
    endloop
  endfacet
  facet normal 0 1 -6.12323e-17
    outer loop
      vertex 7.85123 -0.00346202 0.0884519
      vertex 7.86085 -0.00346202 8.81117
      vertex 7.874 -0.00346202 8.8147
    endloop
  endfacet
  facet normal 0 1 -6.12323e-17
    outer loop
      vertex 7.85123 -0.00346202 0.0884519
      vertex 7.874 -0.00346202 8.8147
      vertex 9.0424 -0.00346202 8.8147
    endloop
  endfacet
  facet normal 0 1 -6.12323e-17
    outer loop
      vertex 7.85123 -0.00346202 0.0884519
      vertex 9.0424 -0.00346202 8.8147
      vertex 9.05555 -0.00346202 8.81117
    endloop
  endfacet
  facet normal 0 1 -6.12323e-17
    outer loop
      vertex 7.85123 -0.00346202 0.0884519
      vertex 9.05555 -0.00346202 8.81117
      vertex 9.06517 -0.00346202 8.80155
    endloop
  endfacet
  facet normal 0 1 -6.12323e-17
    outer loop
      vertex 7.85123 -0.00346202 0.0884519
      vertex 9.06517 -0.00346202 8.80155
      vertex 9.0687 -0.00346202 8.7884
    endloop
  endfacet
  facet normal 0 1 -6.12323e-17
    outer loop
      vertex 7.85123 -0.00346202 0.0884519
      vertex 9.0687 -0.00346202 8.7884
      vertex 9.0687 -0.00346202 0.1016
    endloop
  endfacet
  facet normal 0 1 -6.12323e-17
    outer loop
      vertex 7.85123 -0.00346202 0.0884519
      vertex 9.0687 -0.00346202 0.1016
      vertex 9.06517 -0.00346202 0.0884519
    endloop
  endfacet
  facet normal 0 1 -6.12323e-17
    outer loop
      vertex 7.85123 -0.00346202 0.0884519
      vertex 9.06517 -0.00346202 0.0884519
      vertex 9.05555 -0.00346202 0.0788269
    endloop
  endfacet
  facet normal 0 1 -6.12323e-17
    outer loop
      vertex 7.85123 -0.00346202 0.0884519
      vertex 9.05555 -0.00346202 0.0788269
      vertex 9.0424 -0.00346202 0.0753039
    endloop
  endfacet
  facet normal 0 1 -6.12323e-17
    outer loop
      vertex 7.85123 -0.00346202 0.0884519
      vertex 9.0424 -0.00346202 0.0753039
      vertex 7.874 -0.00346202 0.0753039
    endloop
  endfacet
  facet normal 0 1 -6.12323e-17
    outer loop
      vertex 7.85123 -0.00346202 0.0884519
      vertex 7.874 -0.00346202 0.0753039
      vertex 7.86085 -0.00346202 0.0788269
    endloop
  endfacet
  facet normal -0.362786 0.858355 -0.362786
    outer loop
      vertex 7.81178 -0.0297581 0.0656788
      vertex 7.85123 -0.00346202 0.0884519
      vertex 7.83808 -0.0297581 0.0393832
    endloop
  endfacet
  facet normal -0.362786 0.858355 -0.362786
    outer loop
      vertex 7.83808 -0.0297581 0.0393832
      vertex 7.85123 -0.00346202 0.0884519
      vertex 7.86085 -0.00346202 0.0788269
    endloop
  endfacet
  facet normal -0.965926 -1.58481e-17 -0.258819
    outer loop
      vertex 7.77586 -0.0753039 0.1016
      vertex 7.78901 -0.0753039 0.0525308
      vertex 7.77586 -6.60746 0.1016
    endloop
  endfacet
  facet normal -0.965926 -1.58481e-17 -0.258819
    outer loop
      vertex 7.78291 -6.60746 0.0753039
      vertex 7.78901 -0.0753039 0.0525308
      vertex 7.78901 -6.62061 0.0525308
    endloop
  endfacet
  facet normal -0.965926 -1.58481e-17 -0.258819
    outer loop
      vertex 7.77586 -6.60746 0.1016
      vertex 7.78901 -0.0753039 0.0525308
      vertex 7.78291 -6.60746 0.0753039
    endloop
  endfacet
  facet normal -0.843608 0.487063 -0.226045
    outer loop
      vertex 7.81178 -0.0297581 0.0656788
      vertex 7.78901 -0.0753039 0.0525308
      vertex 7.80216 -0.0297581 0.1016
    endloop
  endfacet
  facet normal -0.843608 0.487062 -0.226044
    outer loop
      vertex 7.78901 -0.0753039 0.0525308
      vertex 7.77586 -0.0753039 0.1016
      vertex 7.80216 -0.0297581 0.1016
    endloop
  endfacet
  facet normal -0.495576 0.858354 -0.13279
    outer loop
      vertex 7.81178 -0.0297581 0.0656788
      vertex 7.80216 -0.0297581 0.1016
      vertex 7.85123 -0.00346202 0.0884519
    endloop
  endfacet
  facet normal 0 1 -6.12323e-17
    outer loop
      vertex 1.36109 -6.60746 0.0753039
      vertex 1.36814 -6.60746 0.1016
      vertex 7.78291 -6.60746 0.0753039
    endloop
  endfacet
  facet normal 0 1 -6.12323e-17
    outer loop
      vertex 7.78291 -6.60746 0.0753039
      vertex 1.36814 -6.60746 0.1016
      vertex 1.36814 -6.60746 8.7884
    endloop
  endfacet
  facet normal 0 1 -6.12323e-17
    outer loop
      vertex 1.36814 -6.60746 8.7884
      vertex 1.36109 -6.60746 8.8147
      vertex 7.78291 -6.60746 0.0753039
    endloop
  endfacet
  facet normal 0 1 -6.12323e-17
    outer loop
      vertex 7.77586 -6.60746 8.7884
      vertex 1.36109 -6.60746 8.8147
      vertex 7.78291 -6.60746 8.8147
    endloop
  endfacet
  facet normal 0 1 -6.12323e-17
    outer loop
      vertex 7.77586 -6.60746 0.1016
      vertex 1.36109 -6.60746 8.8147
      vertex 7.77586 -6.60746 8.7884
    endloop
  endfacet
  facet normal 0 1 -6.12323e-17
    outer loop
      vertex 7.78291 -6.60746 0.0753039
      vertex 1.36109 -6.60746 8.8147
      vertex 7.77586 -6.60746 0.1016
    endloop
  endfacet
  facet normal -0.965926 1.58481e-17 0.258819
    outer loop
      vertex 7.77586 -0.0753039 8.7884
      vertex 7.77586 -6.60746 8.7884
      vertex 7.78901 -0.0753039 8.83747
    endloop
  endfacet
  facet normal -0.965926 1.58481e-17 0.258819
    outer loop
      vertex 7.78901 -0.0753039 8.83747
      vertex 7.77586 -6.60746 8.7884
      vertex 7.78291 -6.60746 8.8147
    endloop
  endfacet
  facet normal -0.965926 1.58481e-17 0.258819
    outer loop
      vertex 7.78901 -0.0753039 8.83747
      vertex 7.78291 -6.60746 8.8147
      vertex 7.78901 -6.62061 8.83747
    endloop
  endfacet
  facet normal -0.843608 0.487062 0.226044
    outer loop
      vertex 7.80216 -0.0297581 8.7884
      vertex 7.77586 -0.0753039 8.7884
      vertex 7.78901 -0.0753039 8.83747
    endloop
  endfacet
  facet normal -0.843608 0.487063 0.226045
    outer loop
      vertex 7.80216 -0.0297581 8.7884
      vertex 7.78901 -0.0753039 8.83747
      vertex 7.81178 -0.0297581 8.82432
    endloop
  endfacet
  facet normal -0.362786 0.858355 0.362786
    outer loop
      vertex 7.86085 -0.00346202 8.81117
      vertex 7.81178 -0.0297581 8.82432
      vertex 7.83808 -0.0297581 8.85062
    endloop
  endfacet
  facet normal -0.495576 0.858354 0.13279
    outer loop
      vertex 7.85123 -0.00346202 8.80155
      vertex 7.80216 -0.0297581 8.7884
      vertex 7.81178 -0.0297581 8.82432
    endloop
  endfacet
  facet normal -0.362786 0.858355 0.362786
    outer loop
      vertex 7.85123 -0.00346202 8.80155
      vertex 7.81178 -0.0297581 8.82432
      vertex 7.86085 -0.00346202 8.81117
    endloop
  endfacet
  facet normal 0.362786 0.858355 0.362786
    outer loop
      vertex 9.06517 -0.00346202 8.80155
      vertex 9.05555 -0.00346202 8.81117
      vertex 9.10462 -0.0297581 8.82432
    endloop
  endfacet
  facet normal 0.362786 0.858355 0.362786
    outer loop
      vertex 9.10462 -0.0297581 8.82432
      vertex 9.05555 -0.00346202 8.81117
      vertex 9.07832 -0.0297581 8.85062
    endloop
  endfacet
  facet normal 0.495576 0.858354 0.13279
    outer loop
      vertex 9.11424 -0.0297581 8.7884
      vertex 9.06517 -0.00346202 8.80155
      vertex 9.10462 -0.0297581 8.82432
    endloop
  endfacet
  facet normal 0.843608 0.487063 0.226045
    outer loop
      vertex 9.11424 -0.0297581 8.7884
      vertex 9.10462 -0.0297581 8.82432
      vertex 9.12739 -0.0753039 8.83747
    endloop
  endfacet
  facet normal 0.843608 0.487062 0.226044
    outer loop
      vertex 9.14054 -0.0753039 8.7884
      vertex 9.11424 -0.0297581 8.7884
      vertex 9.12739 -0.0753039 8.83747
    endloop
  endfacet
  facet normal 0.965926 1.58481e-17 0.258819
    outer loop
      vertex 9.14054 -0.0753039 8.7884
      vertex 9.12739 -0.0753039 8.83747
      vertex 9.12739 -8.1797 8.83747
    endloop
  endfacet
  facet normal 0.965926 1.58481e-17 0.258819
    outer loop
      vertex 9.13302 -6.6793 8.81644
      vertex 9.14054 -0.0753039 8.7884
      vertex 9.12739 -8.1797 8.83747
    endloop
  endfacet
  facet normal 0.965926 1.58481e-17 0.258819
    outer loop
      vertex 9.13302 -8.1797 8.81644
      vertex 9.13302 -6.6793 8.81644
      vertex 9.12739 -8.1797 8.83747
    endloop
  endfacet
  facet normal 0.965926 1.58481e-17 0.258819
    outer loop
      vertex 9.13302 -6.6793 8.81644
      vertex 9.14054 -6.6793 8.7884
      vertex 9.14054 -0.0753039 8.7884
    endloop
  endfacet
  facet normal 0.843608 -0.487063 0.226045
    outer loop
      vertex 9.12739 -8.1797 8.83747
      vertex 9.10462 -8.22524 8.82432
      vertex 9.10794 -8.22524 8.81192
    endloop
  endfacet
  facet normal 0.843608 -0.487063 0.226045
    outer loop
      vertex 9.11885 -8.20926 8.80562
      vertex 9.12739 -8.1797 8.83747
      vertex 9.10794 -8.22524 8.81192
    endloop
  endfacet
  facet normal 0.617564 -0.487062 0.617564
    outer loop
      vertex 9.12739 -8.1797 8.83747
      vertex 9.10045 -8.1797 8.86441
      vertex 9.10753 -8.1797 8.85733
    endloop
  endfacet
  facet normal 0.617564 -0.487062 0.617564
    outer loop
      vertex 9.10611 -8.22226 8.82518
      vertex 9.12739 -8.1797 8.83747
      vertex 9.10753 -8.1797 8.85733
    endloop
  endfacet
  facet normal 0.617564 -0.487062 0.617564
    outer loop
      vertex 9.10611 -8.22226 8.82518
      vertex 9.10462 -8.22524 8.82432
      vertex 9.12739 -8.1797 8.83747
    endloop
  endfacet
  facet normal 0.843608 -0.487062 0.226044
    outer loop
      vertex 9.12739 -8.1797 8.83747
      vertex 9.11885 -8.20926 8.80562
      vertex 9.13194 -8.1797 8.82049
    endloop
  endfacet
  facet normal 0.843608 -0.487062 0.226044
    outer loop
      vertex 9.13302 -8.1797 8.81644
      vertex 9.12739 -8.1797 8.83747
      vertex 9.13194 -8.1797 8.82049
    endloop
  endfacet
  facet normal 0.843608 -0.487063 0.226045
    outer loop
      vertex 9.10794 -8.22524 8.81192
      vertex 9.10462 -8.22524 8.82432
      vertex 9.11424 -8.22524 8.7884
    endloop
  endfacet
  facet normal 0.843608 -0.487063 0.226045
    outer loop
      vertex 9.11885 -8.20926 8.80562
      vertex 9.10794 -8.22524 8.81192
      vertex 9.11424 -8.22524 8.7884
    endloop
  endfacet
  facet normal 0.362786 -0.858355 0.362786
    outer loop
      vertex 9.07832 -8.22524 8.85062
      vertex 9.05555 -8.25154 8.81117
      vertex 9.06517 -8.25154 8.80155
    endloop
  endfacet
  facet normal 0.362786 -0.858355 0.362786
    outer loop
      vertex 9.10462 -8.22524 8.82432
      vertex 9.07832 -8.22524 8.85062
      vertex 9.06517 -8.25154 8.80155
    endloop
  endfacet
  facet normal 0.495576 -0.858354 0.13279
    outer loop
      vertex 9.10462 -8.22524 8.82432
      vertex 9.06517 -8.25154 8.80155
      vertex 9.11424 -8.22524 8.7884
    endloop
  endfacet
  facet normal 0.13279 -0.858354 0.495576
    outer loop
      vertex 9.05799 -8.24872 8.8154
      vertex 9.05418 -8.2488 8.81627
      vertex 9.05555 -8.25154 8.81117
    endloop
  endfacet
  facet normal 0.132788 -0.858354 0.495576
    outer loop
      vertex 9.0424 -8.24953 8.81817
      vertex 9.0424 -8.25154 8.8147
      vertex 9.05555 -8.25154 8.81117
    endloop
  endfacet
  facet normal 0.132788 -0.858354 0.495576
    outer loop
      vertex 9.0424 -8.24628 8.82381
      vertex 9.0424 -8.25154 8.8147
      vertex 9.0424 -8.24953 8.81817
    endloop
  endfacet
  facet normal 0.132788 -0.858354 0.495576
    outer loop
      vertex 9.05418 -8.2488 8.81627
      vertex 9.0424 -8.24953 8.81817
      vertex 9.05555 -8.25154 8.81117
    endloop
  endfacet
  facet normal 0 -0.866023 0.500004
    outer loop
      vertex 7.874 -8.24628 8.82381
      vertex 7.874 -8.25154 8.8147
      vertex 9.0424 -8.25154 8.8147
    endloop
  endfacet
  facet normal 0 -0.866023 0.500004
    outer loop
      vertex 9.0424 -8.24628 8.82381
      vertex 7.874 -8.24628 8.82381
      vertex 9.0424 -8.25154 8.8147
    endloop
  endfacet
  facet normal 0 -1 6.12323e-17
    outer loop
      vertex 7.8477 -8.25154 8.7884
      vertex 7.8477 -8.25154 0.1016
      vertex 7.85123 -8.25154 0.0884519
    endloop
  endfacet
  facet normal 0 -1 6.12323e-17
    outer loop
      vertex 7.874 -8.25154 0.0753039
      vertex 7.8477 -8.25154 8.7884
      vertex 7.86085 -8.25154 0.0788269
    endloop
  endfacet
  facet normal 0 -1 6.12323e-17
    outer loop
      vertex 7.86085 -8.25154 0.0788269
      vertex 7.8477 -8.25154 8.7884
      vertex 7.85123 -8.25154 0.0884519
    endloop
  endfacet
  facet normal 0 -1 6.12323e-17
    outer loop
      vertex 9.0424 -8.25154 0.0753039
      vertex 7.8477 -8.25154 8.7884
      vertex 7.874 -8.25154 0.0753039
    endloop
  endfacet
  facet normal 0 -1 6.12323e-17
    outer loop
      vertex 9.05555 -8.25154 0.0788269
      vertex 7.8477 -8.25154 8.7884
      vertex 9.0424 -8.25154 0.0753039
    endloop
  endfacet
  facet normal 0 -1 6.12323e-17
    outer loop
      vertex 9.06517 -8.25154 0.0884519
      vertex 7.8477 -8.25154 8.7884
      vertex 9.05555 -8.25154 0.0788269
    endloop
  endfacet
  facet normal 0 -1 6.12323e-17
    outer loop
      vertex 9.0687 -8.25154 0.1016
      vertex 7.8477 -8.25154 8.7884
      vertex 9.06517 -8.25154 0.0884519
    endloop
  endfacet
  facet normal 0 -1 6.12323e-17
    outer loop
      vertex 9.0687 -8.25154 8.7884
      vertex 7.8477 -8.25154 8.7884
      vertex 9.0687 -8.25154 0.1016
    endloop
  endfacet
  facet normal 0 -1 6.12323e-17
    outer loop
      vertex 9.06517 -8.25154 8.80155
      vertex 7.8477 -8.25154 8.7884
      vertex 9.0687 -8.25154 8.7884
    endloop
  endfacet
  facet normal 0 -1 6.12323e-17
    outer loop
      vertex 9.05555 -8.25154 8.81117
      vertex 7.8477 -8.25154 8.7884
      vertex 9.06517 -8.25154 8.80155
    endloop
  endfacet
  facet normal 0 -1 6.12323e-17
    outer loop
      vertex 9.0424 -8.25154 8.8147
      vertex 7.8477 -8.25154 8.7884
      vertex 9.05555 -8.25154 8.81117
    endloop
  endfacet
  facet normal 0 -1 6.12323e-17
    outer loop
      vertex 7.874 -8.25154 8.8147
      vertex 7.8477 -8.25154 8.7884
      vertex 9.0424 -8.25154 8.8147
    endloop
  endfacet
  facet normal 0 -1 6.12323e-17
    outer loop
      vertex 7.86085 -8.25154 8.81117
      vertex 7.8477 -8.25154 8.7884
      vertex 7.874 -8.25154 8.8147
    endloop
  endfacet
  facet normal 0 -1 6.12323e-17
    outer loop
      vertex 7.85123 -8.25154 8.80155
      vertex 7.8477 -8.25154 8.7884
      vertex 7.86085 -8.25154 8.81117
    endloop
  endfacet
  facet normal 0.495576 -0.858354 -0.132788
    outer loop
      vertex 9.0737 -8.24865 0.1016
      vertex 9.0687 -8.25154 0.1016
      vertex 9.06784 -8.25154 0.0983917
    endloop
  endfacet
  facet normal 0.495576 -0.858354 -0.132788
    outer loop
      vertex 9.06784 -8.25154 0.0983917
      vertex 9.0687 -8.25154 0.1016
      vertex 9.06517 -8.25154 0.0884519
    endloop
  endfacet
  facet normal 0.495576 -0.858354 -0.132788
    outer loop
      vertex 9.06784 -8.25154 0.0983917
      vertex 9.06517 -8.25154 0.0884519
      vertex 9.11424 -8.22524 0.1016
    endloop
  endfacet
  facet normal 0.495576 -0.858354 -0.132788
    outer loop
      vertex 9.0737 -8.24865 0.1016
      vertex 9.06784 -8.25154 0.0983917
      vertex 9.11424 -8.22524 0.1016
    endloop
  endfacet
  facet normal 0.495576 -0.858354 -0.13279
    outer loop
      vertex 9.11424 -8.22524 0.1016
      vertex 9.06517 -8.25154 0.0884519
      vertex 9.10462 -8.22524 0.0656788
    endloop
  endfacet
  facet normal 0.843608 -0.487063 -0.226045
    outer loop
      vertex 9.10794 -8.22524 0.0780819
      vertex 9.11885 -8.20926 0.0843837
      vertex 9.11424 -8.22524 0.1016
    endloop
  endfacet
  facet normal 0.843608 -0.487063 -0.226045
    outer loop
      vertex 9.10462 -8.22524 0.0656788
      vertex 9.10794 -8.22524 0.0780819
      vertex 9.11424 -8.22524 0.1016
    endloop
  endfacet
  facet normal 0.843608 -0.487062 -0.226044
    outer loop
      vertex 9.14054 -8.1797 0.1016
      vertex 9.11424 -8.22524 0.1016
      vertex 9.11885 -8.20926 0.0843837
    endloop
  endfacet
  facet normal 0.843608 -0.487062 -0.226044
    outer loop
      vertex 9.11885 -8.20926 0.0843837
      vertex 9.13194 -8.1797 0.0695132
      vertex 9.14054 -8.1797 0.1016
    endloop
  endfacet
  facet normal 0.965926 -1.58481e-17 -0.258819
    outer loop
      vertex 9.14054 -8.1797 0.1016
      vertex 9.13194 -8.1797 0.0695132
      vertex 9.13302 -8.1797 0.0735604
    endloop
  endfacet
  facet normal 0.965926 -1.58481e-17 -0.258819
    outer loop
      vertex 9.13302 -6.6793 0.0735604
      vertex 9.14054 -8.1797 0.1016
      vertex 9.13302 -8.1797 0.0735604
    endloop
  endfacet
  facet normal 0.965926 -1.58481e-17 -0.258819
    outer loop
      vertex 9.13302 -6.6793 0.0735604
      vertex 9.14054 -6.6793 0.1016
      vertex 9.14054 -8.1797 0.1016
    endloop
  endfacet
  facet normal 1 0 0
    outer loop
      vertex 9.14054 -6.6793 0.1016
      vertex 9.14054 -0.0753039 0.1016
      vertex 9.14054 -0.0753039 8.7884
    endloop
  endfacet
  facet normal 1 0 0
    outer loop
      vertex 9.14054 -6.6793 8.7884
      vertex 9.14054 -6.6793 0.1016
      vertex 9.14054 -0.0753039 8.7884
    endloop
  endfacet
  facet normal 0.866023 0.500004 -3.06164e-17
    outer loop
      vertex 9.14054 -0.0753039 0.1016
      vertex 9.11424 -0.0297581 0.1016
      vertex 9.11424 -0.0297581 8.7884
    endloop
  endfacet
  facet normal 0.866023 0.500004 -3.06164e-17
    outer loop
      vertex 9.14054 -0.0753039 8.7884
      vertex 9.14054 -0.0753039 0.1016
      vertex 9.11424 -0.0297581 8.7884
    endloop
  endfacet
  facet normal 0.500004 0.866023 -5.30286e-17
    outer loop
      vertex 9.0687 -0.00346202 0.1016
      vertex 9.0687 -0.00346202 8.7884
      vertex 9.11424 -0.0297581 0.1016
    endloop
  endfacet
  facet normal 0.500004 0.866023 -5.30286e-17
    outer loop
      vertex 9.11424 -0.0297581 0.1016
      vertex 9.0687 -0.00346202 8.7884
      vertex 9.11424 -0.0297581 8.7884
    endloop
  endfacet
  facet normal 0.495576 0.858354 -0.132788
    outer loop
      vertex 9.11424 -0.0297581 0.1016
      vertex 9.06517 -0.00346202 0.0884519
      vertex 9.0687 -0.00346202 0.1016
    endloop
  endfacet
  facet normal -0.495576 0.858354 -0.132788
    outer loop
      vertex 7.85123 -0.00346202 0.0884519
      vertex 7.80216 -0.0297581 0.1016
      vertex 7.8477 -0.00346202 0.1016
    endloop
  endfacet
  facet normal 0.495576 0.858354 0.132788
    outer loop
      vertex 9.0687 -0.00346202 8.7884
      vertex 9.06517 -0.00346202 8.80155
      vertex 9.11424 -0.0297581 8.7884
    endloop
  endfacet
  facet normal -0.495576 0.858354 0.132788
    outer loop
      vertex 7.8477 -0.00346202 8.7884
      vertex 7.80216 -0.0297581 8.7884
      vertex 7.85123 -0.00346202 8.80155
    endloop
  endfacet
  facet normal -0.500004 0.866023 -5.30286e-17
    outer loop
      vertex 7.80216 -0.0297581 0.1016
      vertex 7.80216 -0.0297581 8.7884
      vertex 7.8477 -0.00346202 0.1016
    endloop
  endfacet
  facet normal -0.500004 0.866023 -5.30286e-17
    outer loop
      vertex 7.8477 -0.00346202 0.1016
      vertex 7.80216 -0.0297581 8.7884
      vertex 7.8477 -0.00346202 8.7884
    endloop
  endfacet
  facet normal -1 0 0
    outer loop
      vertex 7.77586 -0.0753039 0.1016
      vertex 7.77586 -6.60746 0.1016
      vertex 7.77586 -0.0753039 8.7884
    endloop
  endfacet
  facet normal -1 0 0
    outer loop
      vertex 7.77586 -0.0753039 8.7884
      vertex 7.77586 -6.60746 0.1016
      vertex 7.77586 -6.60746 8.7884
    endloop
  endfacet
  facet normal -0.866023 0.500004 -3.06164e-17
    outer loop
      vertex 7.77586 -0.0753039 0.1016
      vertex 7.77586 -0.0753039 8.7884
      vertex 7.80216 -0.0297581 0.1016
    endloop
  endfacet
  facet normal -0.866023 0.500004 -3.06164e-17
    outer loop
      vertex 7.80216 -0.0297581 0.1016
      vertex 7.77586 -0.0753039 8.7884
      vertex 7.80216 -0.0297581 8.7884
    endloop
  endfacet
  facet normal 0.965926 1.58481e-17 0.258819
    outer loop
      vertex 9.13302 -8.1797 8.81644
      vertex 9.13194 -8.1797 8.82049
      vertex 9.14054 -8.1797 8.7884
    endloop
  endfacet
  facet normal 0.965926 1.58481e-17 0.258819
    outer loop
      vertex 9.14054 -6.6793 8.7884
      vertex 9.13302 -8.1797 8.81644
      vertex 9.14054 -8.1797 8.7884
    endloop
  endfacet
  facet normal 0.965926 1.58481e-17 0.258819
    outer loop
      vertex 9.13302 -6.6793 8.81644
      vertex 9.13302 -8.1797 8.81644
      vertex 9.14054 -6.6793 8.7884
    endloop
  endfacet
  facet normal 0.843608 -0.487062 0.226044
    outer loop
      vertex 9.11885 -8.20926 8.80562
      vertex 9.11424 -8.22524 8.7884
      vertex 9.14054 -8.1797 8.7884
    endloop
  endfacet
  facet normal 0.843608 -0.487062 0.226044
    outer loop
      vertex 9.13194 -8.1797 8.82049
      vertex 9.11885 -8.20926 8.80562
      vertex 9.14054 -8.1797 8.7884
    endloop
  endfacet
  facet normal 0.866023 -0.500004 3.06164e-17
    outer loop
      vertex 9.11424 -8.22524 8.7884
      vertex 9.11424 -8.22524 0.1016
      vertex 9.14054 -8.1797 0.1016
    endloop
  endfacet
  facet normal 0.866023 -0.500004 3.06164e-17
    outer loop
      vertex 9.14054 -8.1797 8.7884
      vertex 9.11424 -8.22524 8.7884
      vertex 9.14054 -8.1797 0.1016
    endloop
  endfacet
  facet normal 0.500004 -0.866023 5.30286e-17
    outer loop
      vertex 9.0737 -8.24865 8.7884
      vertex 9.0737 -8.24865 0.1016
      vertex 9.11424 -8.22524 0.1016
    endloop
  endfacet
  facet normal 0.500004 -0.866023 5.30286e-17
    outer loop
      vertex 9.11424 -8.22524 8.7884
      vertex 9.0737 -8.24865 8.7884
      vertex 9.11424 -8.22524 0.1016
    endloop
  endfacet
  facet normal 0.495576 -0.858354 0.132788
    outer loop
      vertex 9.11424 -8.22524 8.7884
      vertex 9.06517 -8.25154 8.80155
      vertex 9.06784 -8.25154 8.79161
    endloop
  endfacet
  facet normal 0.495576 -0.858354 0.132788
    outer loop
      vertex 9.0737 -8.24865 8.7884
      vertex 9.11424 -8.22524 8.7884
      vertex 9.06784 -8.25154 8.79161
    endloop
  endfacet
  facet normal 0.495576 -0.858354 0.132788
    outer loop
      vertex 9.06784 -8.25154 8.79161
      vertex 9.06517 -8.25154 8.80155
      vertex 9.0687 -8.25154 8.7884
    endloop
  endfacet
  facet normal 0.495576 -0.858354 0.132788
    outer loop
      vertex 9.0737 -8.24865 8.7884
      vertex 9.06784 -8.25154 8.79161
      vertex 9.0687 -8.25154 8.7884
    endloop
  endfacet
  facet normal 0.500004 -0.866023 5.30286e-17
    outer loop
      vertex 9.0687 -8.25154 8.7884
      vertex 9.0687 -8.25154 0.1016
      vertex 9.0737 -8.24865 0.1016
    endloop
  endfacet
  facet normal 0.500004 -0.866023 5.30286e-17
    outer loop
      vertex 9.0737 -8.24865 8.7884
      vertex 9.0687 -8.25154 8.7884
      vertex 9.0737 -8.24865 0.1016
    endloop
  endfacet
  facet normal 1 0 0
    outer loop
      vertex 9.14054 -8.1797 0.1016
      vertex 9.14054 -6.6793 0.1016
      vertex 9.14054 -6.6793 8.7884
    endloop
  endfacet
  facet normal 1 0 0
    outer loop
      vertex 9.14054 -8.1797 8.7884
      vertex 9.14054 -8.1797 0.1016
      vertex 9.14054 -6.6793 8.7884
    endloop
  endfacet
endsolid OpenSCAD_Model
