solid OpenSCAD_Model
  facet normal -0.5 -0.866025 0
    outer loop
      vertex -7.36035 -1.9722 36.576
      vertex -7.36035 -1.9722 0
      vertex -5.38815 -3.11085 0
    endloop
  endfacet
  facet normal -0.5 -0.866025 0
    outer loop
      vertex -5.38815 -3.11085 36.576
      vertex -7.36035 -1.9722 36.576
      vertex -5.38815 -3.11085 0
    endloop
  endfacet
  facet normal 0 0 -1
    outer loop
      vertex -4.31052 -2.48868 0
      vertex -5.38815 -3.11085 0
      vertex -5.88828 -1.57776 0
    endloop
  endfacet
  facet normal 0 0 -1
    outer loop
      vertex -5.88828 1.57776 0
      vertex -6.2217 3.74952e-15 0
      vertex -7.36035 1.9722 0
    endloop
  endfacet
  facet normal 0 0 -1
    outer loop
      vertex -1.57776 -5.88828 0
      vertex -3.11085 -5.38815 0
      vertex -2.48868 -4.31052 0
    endloop
  endfacet
  facet normal 0 0 -1
    outer loop
      vertex -4.31052 4.31052 0
      vertex -5.38815 3.11085 0
      vertex -5.38815 5.38815 0
    endloop
  endfacet
  facet normal 0 0 -1
    outer loop
      vertex -1.57776 5.88828 0
      vertex -1.9722 7.36035 0
      vertex 3.74952e-15 6.2217 0
    endloop
  endfacet
  facet normal 0 0 -1
    outer loop
      vertex 2.99962e-15 4.97736 0
      vertex 3.74952e-15 6.2217 0
      vertex 1.9722 7.36035 0
    endloop
  endfacet
  facet normal 0 0 -1
    outer loop
      vertex 1.57776 5.88828 0
      vertex 1.9722 7.36035 0
      vertex 3.11085 5.38815 0
    endloop
  endfacet
  facet normal 0 0 -1
    outer loop
      vertex 2.48868 4.31052 0
      vertex 3.11085 5.38815 0
      vertex 5.38815 5.38815 0
    endloop
  endfacet
  facet normal 0 0 -1
    outer loop
      vertex 4.31052 2.48868 0
      vertex 5.38815 5.38815 0
      vertex 5.38815 3.11085 0
    endloop
  endfacet
  facet normal 0 0 -1
    outer loop
      vertex 5.88828 1.57776 0
      vertex 5.38815 3.11085 0
      vertex 7.36035 1.9722 0
    endloop
  endfacet
  facet normal 0 0 -1
    outer loop
      vertex 4.97736 -2.99962e-15 0
      vertex 7.36035 1.9722 0
      vertex 6.2217 -3.74952e-15 0
    endloop
  endfacet
  facet normal 0 0 -1
    outer loop
      vertex 5.88828 -1.57776 0
      vertex 6.2217 -3.74952e-15 0
      vertex 7.36035 -1.9722 0
    endloop
  endfacet
  facet normal 0 0 -1
    outer loop
      vertex 4.31052 -2.48868 0
      vertex 7.36035 -1.9722 0
      vertex 5.38815 -3.11085 0
    endloop
  endfacet
  facet normal 0 0 -1
    outer loop
      vertex 4.31052 -4.31052 0
      vertex 5.38815 -3.11085 0
      vertex 5.38815 -5.38815 0
    endloop
  endfacet
  facet normal 0 0 -1
    outer loop
      vertex 1.57776 -5.88828 0
      vertex 3.11085 -5.38815 0
      vertex 1.9722 -7.36035 0
    endloop
  endfacet
  facet normal 0 0 -1
    outer loop
      vertex 2.48868 -4.31052 0
      vertex 3.11085 -5.38815 0
      vertex 1.57776 -5.88828 0
    endloop
  endfacet
  facet normal 0 0 -1
    outer loop
      vertex -5.38815 -5.38815 0
      vertex -5.38815 -3.11085 0
      vertex -4.31052 -4.31052 0
    endloop
  endfacet
  facet normal 0 0 -1
    outer loop
      vertex -4.97736 2.99962e-15 0
      vertex -6.2217 3.74952e-15 0
      vertex -5.88828 1.57776 0
    endloop
  endfacet
  facet normal 0 0 -1
    outer loop
      vertex -1.57776 -5.88828 0
      vertex -1.9722 -7.36035 0
      vertex -3.11085 -5.38815 0
    endloop
  endfacet
  facet normal 0 0 -1
    outer loop
      vertex -5.38815 -5.38815 0
      vertex -4.31052 -4.31052 0
      vertex -3.11085 -5.38815 0
    endloop
  endfacet
  facet normal 0 0 -1
    outer loop
      vertex -5.88828 -1.57776 0
      vertex -6.2217 3.74952e-15 0
      vertex -4.97736 2.99962e-15 0
    endloop
  endfacet
  facet normal 0 0 -1
    outer loop
      vertex -7.36035 -1.9722 0
      vertex -6.2217 3.74952e-15 0
      vertex -5.88828 -1.57776 0
    endloop
  endfacet
  facet normal 0 0 -1
    outer loop
      vertex -7.36035 -1.9722 0
      vertex -5.88828 -1.57776 0
      vertex -5.38815 -3.11085 0
    endloop
  endfacet
  facet normal 0 0 -1
    outer loop
      vertex -4.31052 -4.31052 0
      vertex -5.38815 -3.11085 0
      vertex -4.31052 -2.48868 0
    endloop
  endfacet
  facet normal 0 0 -1
    outer loop
      vertex -2.48868 -4.31052 0
      vertex -3.11085 -5.38815 0
      vertex -4.31052 -4.31052 0
    endloop
  endfacet
  facet normal 0 0 -1
    outer loop
      vertex -3.74952e-15 -6.2217 0
      vertex -1.9722 -7.36035 0
      vertex -1.57776 -5.88828 0
    endloop
  endfacet
  facet normal 0 0 -1
    outer loop
      vertex -2.99962e-15 -4.97736 0
      vertex -3.74952e-15 -6.2217 0
      vertex -1.57776 -5.88828 0
    endloop
  endfacet
  facet normal 0 0 -1
    outer loop
      vertex 1.57776 -5.88828 0
      vertex -3.74952e-15 -6.2217 0
      vertex -2.99962e-15 -4.97736 0
    endloop
  endfacet
  facet normal 0 0 -1
    outer loop
      vertex 2.48868 -4.31052 0
      vertex 5.38815 -5.38815 0
      vertex 3.11085 -5.38815 0
    endloop
  endfacet
  facet normal 0 0 -1
    outer loop
      vertex -3.74952e-15 -6.2217 0
      vertex 1.57776 -5.88828 0
      vertex 1.9722 -7.36035 0
    endloop
  endfacet
  facet normal 0 0 -1
    outer loop
      vertex 2.48868 -4.31052 0
      vertex 4.31052 -4.31052 0
      vertex 5.38815 -5.38815 0
    endloop
  endfacet
  facet normal 0 0 -1
    outer loop
      vertex 4.31052 2.48868 0
      vertex 5.38815 3.11085 0
      vertex 5.88828 1.57776 0
    endloop
  endfacet
  facet normal 0 0 -1
    outer loop
      vertex 2.48868 4.31052 0
      vertex 5.38815 5.38815 0
      vertex 4.31052 4.31052 0
    endloop
  endfacet
  facet normal 0 0 -1
    outer loop
      vertex 4.31052 4.31052 0
      vertex 5.38815 5.38815 0
      vertex 4.31052 2.48868 0
    endloop
  endfacet
  facet normal 0 0 -1
    outer loop
      vertex 5.88828 1.57776 0
      vertex 7.36035 1.9722 0
      vertex 4.97736 -2.99962e-15 0
    endloop
  endfacet
  facet normal 0 0 -1
    outer loop
      vertex 4.97736 -2.99962e-15 0
      vertex 6.2217 -3.74952e-15 0
      vertex 5.88828 -1.57776 0
    endloop
  endfacet
  facet normal 0 0 -1
    outer loop
      vertex 5.88828 -1.57776 0
      vertex 7.36035 -1.9722 0
      vertex 4.31052 -2.48868 0
    endloop
  endfacet
  facet normal 0 0 -1
    outer loop
      vertex -2.48868 4.31052 0
      vertex -1.9722 7.36035 0
      vertex -1.57776 5.88828 0
    endloop
  endfacet
  facet normal 0 0 -1
    outer loop
      vertex 4.31052 -2.48868 0
      vertex 5.38815 -3.11085 0
      vertex 4.31052 -4.31052 0
    endloop
  endfacet
  facet normal 0 0 -1
    outer loop
      vertex -4.31052 2.48868 0
      vertex -5.38815 3.11085 0
      vertex -4.31052 4.31052 0
    endloop
  endfacet
  facet normal 0 0 -1
    outer loop
      vertex -3.11085 5.38815 0
      vertex -4.31052 4.31052 0
      vertex -5.38815 5.38815 0
    endloop
  endfacet
  facet normal 0 0 -1
    outer loop
      vertex -5.38815 3.11085 0
      vertex -5.88828 1.57776 0
      vertex -7.36035 1.9722 0
    endloop
  endfacet
  facet normal 0 0 -1
    outer loop
      vertex -3.11085 5.38815 0
      vertex -1.9722 7.36035 0
      vertex -2.48868 4.31052 0
    endloop
  endfacet
  facet normal 0 0 -1
    outer loop
      vertex -4.31052 4.31052 0
      vertex -3.11085 5.38815 0
      vertex -2.48868 4.31052 0
    endloop
  endfacet
  facet normal 0 0 -1
    outer loop
      vertex -5.88828 1.57776 0
      vertex -5.38815 3.11085 0
      vertex -4.31052 2.48868 0
    endloop
  endfacet
  facet normal 0 0 -1
    outer loop
      vertex 2.99962e-15 4.97736 0
      vertex 1.9722 7.36035 0
      vertex 1.57776 5.88828 0
    endloop
  endfacet
  facet normal 0 0 -1
    outer loop
      vertex -1.57776 5.88828 0
      vertex 3.74952e-15 6.2217 0
      vertex 2.99962e-15 4.97736 0
    endloop
  endfacet
  facet normal 0 0 -1
    outer loop
      vertex 1.57776 5.88828 0
      vertex 3.11085 5.38815 0
      vertex 2.48868 4.31052 0
    endloop
  endfacet
  facet normal -0.866025 0.5 0
    outer loop
      vertex -7.36035 -1.9722 0
      vertex -7.36035 -1.9722 36.576
      vertex -6.2217 3.74952e-15 0
    endloop
  endfacet
  facet normal -0.866025 0.5 0
    outer loop
      vertex -6.2217 3.74952e-15 0
      vertex -7.36035 -1.9722 36.576
      vertex -6.2217 3.74952e-15 36.576
    endloop
  endfacet
  facet normal 0 0 1
    outer loop
      vertex -5.88828 -1.57776 36.576
      vertex -7.36035 -1.9722 36.576
      vertex -5.38815 -3.11085 36.576
    endloop
  endfacet
  facet normal 0 0 1
    outer loop
      vertex 4.31052 -4.31052 36.576
      vertex 2.48868 -4.31052 36.576
      vertex 5.38815 -5.38815 36.576
    endloop
  endfacet
  facet normal 0 0 1
    outer loop
      vertex -4.31052 -4.31052 36.576
      vertex -4.31052 -2.48868 36.576
      vertex -5.38815 -3.11085 36.576
    endloop
  endfacet
  facet normal 0 0 1
    outer loop
      vertex 4.31052 4.31052 36.576
      vertex 4.31052 2.48868 36.576
      vertex 5.38815 3.11085 36.576
    endloop
  endfacet
  facet normal 0 0 1
    outer loop
      vertex 2.48868 4.31052 36.576
      vertex 4.31052 4.31052 36.576
      vertex 5.38815 5.38815 36.576
    endloop
  endfacet
  facet normal 0 0 1
    outer loop
      vertex 3.74952e-15 6.2217 36.576
      vertex 2.99962e-15 4.97736 36.576
      vertex 1.9722 7.36035 36.576
    endloop
  endfacet
  facet normal 0 0 1
    outer loop
      vertex 7.36035 -1.9722 36.576
      vertex 6.2217 -3.74952e-15 36.576
      vertex 4.97736 -2.99962e-15 36.576
    endloop
  endfacet
  facet normal 0 0 1
    outer loop
      vertex -2.99962e-15 -4.97736 36.576
      vertex -1.57776 -5.88828 36.576
      vertex -3.74952e-15 -6.2217 36.576
    endloop
  endfacet
  facet normal 0 0 1
    outer loop
      vertex -4.31052 2.48868 36.576
      vertex -4.31052 4.31052 36.576
      vertex -5.38815 3.11085 36.576
    endloop
  endfacet
  facet normal 0 0 1
    outer loop
      vertex -1.57776 5.88828 36.576
      vertex -1.9722 7.36035 36.576
      vertex -3.11085 5.38815 36.576
    endloop
  endfacet
  facet normal 0 0 1
    outer loop
      vertex -4.31052 2.48868 36.576
      vertex -5.38815 3.11085 36.576
      vertex -5.88828 1.57776 36.576
    endloop
  endfacet
  facet normal 0 0 1
    outer loop
      vertex -4.31052 4.31052 36.576
      vertex -5.38815 5.38815 36.576
      vertex -5.38815 3.11085 36.576
    endloop
  endfacet
  facet normal 0 0 1
    outer loop
      vertex -5.88828 1.57776 36.576
      vertex -7.36035 1.9722 36.576
      vertex -6.2217 3.74952e-15 36.576
    endloop
  endfacet
  facet normal 0 0 1
    outer loop
      vertex -6.2217 3.74952e-15 36.576
      vertex -7.36035 -1.9722 36.576
      vertex -5.88828 -1.57776 36.576
    endloop
  endfacet
  facet normal 0 0 1
    outer loop
      vertex -4.31052 4.31052 36.576
      vertex -2.48868 4.31052 36.576
      vertex -3.11085 5.38815 36.576
    endloop
  endfacet
  facet normal 0 0 1
    outer loop
      vertex -2.48868 4.31052 36.576
      vertex -1.57776 5.88828 36.576
      vertex -3.11085 5.38815 36.576
    endloop
  endfacet
  facet normal 0 0 1
    outer loop
      vertex -4.31052 -2.48868 36.576
      vertex -5.88828 -1.57776 36.576
      vertex -5.38815 -3.11085 36.576
    endloop
  endfacet
  facet normal 0 0 1
    outer loop
      vertex -1.57776 5.88828 36.576
      vertex 2.99962e-15 4.97736 36.576
      vertex 3.74952e-15 6.2217 36.576
    endloop
  endfacet
  facet normal 0 0 1
    outer loop
      vertex 1.57776 5.88828 36.576
      vertex 2.48868 4.31052 36.576
      vertex 3.11085 5.38815 36.576
    endloop
  endfacet
  facet normal 0 0 1
    outer loop
      vertex -3.11085 5.38815 36.576
      vertex -5.38815 5.38815 36.576
      vertex -4.31052 4.31052 36.576
    endloop
  endfacet
  facet normal 0 0 1
    outer loop
      vertex 3.74952e-15 6.2217 36.576
      vertex -1.9722 7.36035 36.576
      vertex -1.57776 5.88828 36.576
    endloop
  endfacet
  facet normal 0 0 1
    outer loop
      vertex 1.57776 5.88828 36.576
      vertex 1.9722 7.36035 36.576
      vertex 2.99962e-15 4.97736 36.576
    endloop
  endfacet
  facet normal 0 0 1
    outer loop
      vertex -2.99962e-15 -4.97736 36.576
      vertex -3.74952e-15 -6.2217 36.576
      vertex 1.9722 -7.36035 36.576
    endloop
  endfacet
  facet normal 0 0 1
    outer loop
      vertex 3.11085 5.38815 36.576
      vertex 1.9722 7.36035 36.576
      vertex 1.57776 5.88828 36.576
    endloop
  endfacet
  facet normal 0 0 1
    outer loop
      vertex 5.38815 5.38815 36.576
      vertex 3.11085 5.38815 36.576
      vertex 2.48868 4.31052 36.576
    endloop
  endfacet
  facet normal 0 0 1
    outer loop
      vertex 5.38815 3.11085 36.576
      vertex 5.38815 5.38815 36.576
      vertex 4.31052 4.31052 36.576
    endloop
  endfacet
  facet normal 0 0 1
    outer loop
      vertex 7.36035 1.9722 36.576
      vertex 5.38815 3.11085 36.576
      vertex 4.31052 2.48868 36.576
    endloop
  endfacet
  facet normal 0 0 1
    outer loop
      vertex 6.2217 -3.74952e-15 36.576
      vertex 7.36035 1.9722 36.576
      vertex 5.88828 1.57776 36.576
    endloop
  endfacet
  facet normal 0 0 1
    outer loop
      vertex 6.2217 -3.74952e-15 36.576
      vertex 5.88828 1.57776 36.576
      vertex 4.97736 -2.99962e-15 36.576
    endloop
  endfacet
  facet normal 0 0 1
    outer loop
      vertex 4.31052 -2.48868 36.576
      vertex 4.31052 -4.31052 36.576
      vertex 5.38815 -3.11085 36.576
    endloop
  endfacet
  facet normal 0 0 1
    outer loop
      vertex 7.36035 -1.9722 36.576
      vertex 4.97736 -2.99962e-15 36.576
      vertex 5.88828 -1.57776 36.576
    endloop
  endfacet
  facet normal 0 0 1
    outer loop
      vertex 5.38815 -3.11085 36.576
      vertex 7.36035 -1.9722 36.576
      vertex 4.31052 -2.48868 36.576
    endloop
  endfacet
  facet normal 0 0 1
    outer loop
      vertex 4.31052 2.48868 36.576
      vertex 5.88828 1.57776 36.576
      vertex 7.36035 1.9722 36.576
    endloop
  endfacet
  facet normal 0 0 1
    outer loop
      vertex 5.38815 -5.38815 36.576
      vertex 5.38815 -3.11085 36.576
      vertex 4.31052 -4.31052 36.576
    endloop
  endfacet
  facet normal 0 0 1
    outer loop
      vertex 3.11085 -5.38815 36.576
      vertex 5.38815 -5.38815 36.576
      vertex 2.48868 -4.31052 36.576
    endloop
  endfacet
  facet normal 0 0 1
    outer loop
      vertex 1.9722 -7.36035 36.576
      vertex 3.11085 -5.38815 36.576
      vertex 1.57776 -5.88828 36.576
    endloop
  endfacet
  facet normal 0 0 1
    outer loop
      vertex 1.9722 -7.36035 36.576
      vertex 1.57776 -5.88828 36.576
      vertex -2.99962e-15 -4.97736 36.576
    endloop
  endfacet
  facet normal 0 0 1
    outer loop
      vertex -1.9722 -7.36035 36.576
      vertex -1.57776 -5.88828 36.576
      vertex -3.11085 -5.38815 36.576
    endloop
  endfacet
  facet normal 0 0 1
    outer loop
      vertex -1.9722 -7.36035 36.576
      vertex -3.74952e-15 -6.2217 36.576
      vertex -1.57776 -5.88828 36.576
    endloop
  endfacet
  facet normal 0 0 1
    outer loop
      vertex 5.88828 -1.57776 36.576
      vertex 4.31052 -2.48868 36.576
      vertex 7.36035 -1.9722 36.576
    endloop
  endfacet
  facet normal 0 0 1
    outer loop
      vertex -5.38815 -5.38815 36.576
      vertex -4.31052 -4.31052 36.576
      vertex -5.38815 -3.11085 36.576
    endloop
  endfacet
  facet normal 0 0 1
    outer loop
      vertex -5.38815 -5.38815 36.576
      vertex -3.11085 -5.38815 36.576
      vertex -4.31052 -4.31052 36.576
    endloop
  endfacet
  facet normal 0 0 1
    outer loop
      vertex -4.97736 2.99962e-15 36.576
      vertex -5.88828 1.57776 36.576
      vertex -6.2217 3.74952e-15 36.576
    endloop
  endfacet
  facet normal 0 0 1
    outer loop
      vertex -5.38815 3.11085 36.576
      vertex -7.36035 1.9722 36.576
      vertex -5.88828 1.57776 36.576
    endloop
  endfacet
  facet normal 0 0 1
    outer loop
      vertex 2.48868 -4.31052 36.576
      vertex 1.57776 -5.88828 36.576
      vertex 3.11085 -5.38815 36.576
    endloop
  endfacet
  facet normal 0 0 1
    outer loop
      vertex -1.57776 -5.88828 36.576
      vertex -2.48868 -4.31052 36.576
      vertex -3.11085 -5.38815 36.576
    endloop
  endfacet
  facet normal 0 0 1
    outer loop
      vertex -2.48868 -4.31052 36.576
      vertex -4.31052 -4.31052 36.576
      vertex -3.11085 -5.38815 36.576
    endloop
  endfacet
  facet normal 0 0 1
    outer loop
      vertex -5.88828 -1.57776 36.576
      vertex -4.97736 2.99962e-15 36.576
      vertex -6.2217 3.74952e-15 36.576
    endloop
  endfacet
  facet normal -1 2.44929e-16 0
    outer loop
      vertex -5.38815 -5.38815 0
      vertex -5.38815 -5.38815 36.576
      vertex -5.38815 -3.11085 0
    endloop
  endfacet
  facet normal -1 2.44929e-16 0
    outer loop
      vertex -5.38815 -3.11085 0
      vertex -5.38815 -5.38815 36.576
      vertex -5.38815 -3.11085 36.576
    endloop
  endfacet
  facet normal -2.44929e-16 -1 0
    outer loop
      vertex -5.38815 -5.38815 36.576
      vertex -5.38815 -5.38815 0
      vertex -3.11085 -5.38815 0
    endloop
  endfacet
  facet normal -2.44929e-16 -1 0
    outer loop
      vertex -3.11085 -5.38815 36.576
      vertex -5.38815 -5.38815 36.576
      vertex -3.11085 -5.38815 0
    endloop
  endfacet
  facet normal -0.866025 -0.5 0
    outer loop
      vertex -3.11085 -5.38815 0
      vertex -1.9722 -7.36035 0
      vertex -3.11085 -5.38815 36.576
    endloop
  endfacet
  facet normal -0.866025 -0.5 0
    outer loop
      vertex -3.11085 -5.38815 36.576
      vertex -1.9722 -7.36035 0
      vertex -1.9722 -7.36035 36.576
    endloop
  endfacet
  facet normal 0.5 -0.866025 0
    outer loop
      vertex -1.9722 -7.36035 36.576
      vertex -1.9722 -7.36035 0
      vertex -3.74952e-15 -6.2217 0
    endloop
  endfacet
  facet normal 0.5 -0.866025 0
    outer loop
      vertex -3.74952e-15 -6.2217 36.576
      vertex -1.9722 -7.36035 36.576
      vertex -3.74952e-15 -6.2217 0
    endloop
  endfacet
  facet normal -0.5 -0.866025 0
    outer loop
      vertex -3.74952e-15 -6.2217 36.576
      vertex -3.74952e-15 -6.2217 0
      vertex 1.9722 -7.36035 0
    endloop
  endfacet
  facet normal -0.5 -0.866025 0
    outer loop
      vertex 1.9722 -7.36035 36.576
      vertex -3.74952e-15 -6.2217 36.576
      vertex 1.9722 -7.36035 0
    endloop
  endfacet
  facet normal 0.866025 -0.5 0
    outer loop
      vertex 1.9722 -7.36035 36.576
      vertex 1.9722 -7.36035 0
      vertex 3.11085 -5.38815 0
    endloop
  endfacet
  facet normal 0.866025 -0.5 0
    outer loop
      vertex 3.11085 -5.38815 36.576
      vertex 1.9722 -7.36035 36.576
      vertex 3.11085 -5.38815 0
    endloop
  endfacet
  facet normal -2.44929e-16 -1 0
    outer loop
      vertex 3.11085 -5.38815 36.576
      vertex 3.11085 -5.38815 0
      vertex 5.38815 -5.38815 0
    endloop
  endfacet
  facet normal -2.44929e-16 -1 0
    outer loop
      vertex 5.38815 -5.38815 36.576
      vertex 3.11085 -5.38815 36.576
      vertex 5.38815 -5.38815 0
    endloop
  endfacet
  facet normal 1 -2.44929e-16 0
    outer loop
      vertex 5.38815 -5.38815 36.576
      vertex 5.38815 -5.38815 0
      vertex 5.38815 -3.11085 0
    endloop
  endfacet
  facet normal 1 -2.44929e-16 0
    outer loop
      vertex 5.38815 -3.11085 36.576
      vertex 5.38815 -5.38815 36.576
      vertex 5.38815 -3.11085 0
    endloop
  endfacet
  facet normal 0.5 -0.866025 0
    outer loop
      vertex 5.38815 -3.11085 36.576
      vertex 5.38815 -3.11085 0
      vertex 7.36035 -1.9722 0
    endloop
  endfacet
  facet normal 0.5 -0.866025 0
    outer loop
      vertex 7.36035 -1.9722 36.576
      vertex 5.38815 -3.11085 36.576
      vertex 7.36035 -1.9722 0
    endloop
  endfacet
  facet normal 0.866025 0.5 0
    outer loop
      vertex 7.36035 -1.9722 0
      vertex 6.2217 -3.74952e-15 0
      vertex 6.2217 -3.74952e-15 36.576
    endloop
  endfacet
  facet normal 0.866025 0.5 0
    outer loop
      vertex 7.36035 -1.9722 36.576
      vertex 7.36035 -1.9722 0
      vertex 6.2217 -3.74952e-15 36.576
    endloop
  endfacet
  facet normal 0.866025 -0.5 0
    outer loop
      vertex 6.2217 -3.74952e-15 36.576
      vertex 6.2217 -3.74952e-15 0
      vertex 7.36035 1.9722 0
    endloop
  endfacet
  facet normal 0.866025 -0.5 0
    outer loop
      vertex 7.36035 1.9722 36.576
      vertex 6.2217 -3.74952e-15 36.576
      vertex 7.36035 1.9722 0
    endloop
  endfacet
  facet normal 0.5 0.866025 0
    outer loop
      vertex 5.38815 3.11085 0
      vertex 5.38815 3.11085 36.576
      vertex 7.36035 1.9722 0
    endloop
  endfacet
  facet normal 0.5 0.866025 0
    outer loop
      vertex 7.36035 1.9722 0
      vertex 5.38815 3.11085 36.576
      vertex 7.36035 1.9722 36.576
    endloop
  endfacet
  facet normal 1 -2.44929e-16 0
    outer loop
      vertex 5.38815 3.11085 36.576
      vertex 5.38815 3.11085 0
      vertex 5.38815 5.38815 0
    endloop
  endfacet
  facet normal 1 -2.44929e-16 0
    outer loop
      vertex 5.38815 5.38815 36.576
      vertex 5.38815 3.11085 36.576
      vertex 5.38815 5.38815 0
    endloop
  endfacet
  facet normal 2.44929e-16 1 0
    outer loop
      vertex 3.11085 5.38815 0
      vertex 3.11085 5.38815 36.576
      vertex 5.38815 5.38815 0
    endloop
  endfacet
  facet normal 2.44929e-16 1 0
    outer loop
      vertex 5.38815 5.38815 0
      vertex 3.11085 5.38815 36.576
      vertex 5.38815 5.38815 36.576
    endloop
  endfacet
  facet normal 0.866025 0.5 0
    outer loop
      vertex 3.11085 5.38815 0
      vertex 1.9722 7.36035 0
      vertex 1.9722 7.36035 36.576
    endloop
  endfacet
  facet normal 0.866025 0.5 0
    outer loop
      vertex 3.11085 5.38815 36.576
      vertex 3.11085 5.38815 0
      vertex 1.9722 7.36035 36.576
    endloop
  endfacet
  facet normal -0.5 0.866025 0
    outer loop
      vertex 3.74952e-15 6.2217 0
      vertex 3.74952e-15 6.2217 36.576
      vertex 1.9722 7.36035 0
    endloop
  endfacet
  facet normal -0.5 0.866025 0
    outer loop
      vertex 1.9722 7.36035 0
      vertex 3.74952e-15 6.2217 36.576
      vertex 1.9722 7.36035 36.576
    endloop
  endfacet
  facet normal 0.5 0.866025 0
    outer loop
      vertex -1.9722 7.36035 0
      vertex -1.9722 7.36035 36.576
      vertex 3.74952e-15 6.2217 0
    endloop
  endfacet
  facet normal 0.5 0.866025 0
    outer loop
      vertex 3.74952e-15 6.2217 0
      vertex -1.9722 7.36035 36.576
      vertex 3.74952e-15 6.2217 36.576
    endloop
  endfacet
  facet normal -0.866025 0.5 0
    outer loop
      vertex -3.11085 5.38815 0
      vertex -3.11085 5.38815 36.576
      vertex -1.9722 7.36035 0
    endloop
  endfacet
  facet normal -0.866025 0.5 0
    outer loop
      vertex -1.9722 7.36035 0
      vertex -3.11085 5.38815 36.576
      vertex -1.9722 7.36035 36.576
    endloop
  endfacet
  facet normal 2.44929e-16 1 0
    outer loop
      vertex -5.38815 5.38815 0
      vertex -5.38815 5.38815 36.576
      vertex -3.11085 5.38815 0
    endloop
  endfacet
  facet normal 2.44929e-16 1 0
    outer loop
      vertex -3.11085 5.38815 0
      vertex -5.38815 5.38815 36.576
      vertex -3.11085 5.38815 36.576
    endloop
  endfacet
  facet normal -1 2.44929e-16 0
    outer loop
      vertex -5.38815 3.11085 0
      vertex -5.38815 3.11085 36.576
      vertex -5.38815 5.38815 0
    endloop
  endfacet
  facet normal -1 2.44929e-16 0
    outer loop
      vertex -5.38815 5.38815 0
      vertex -5.38815 3.11085 36.576
      vertex -5.38815 5.38815 36.576
    endloop
  endfacet
  facet normal -0.5 0.866025 0
    outer loop
      vertex -7.36035 1.9722 0
      vertex -7.36035 1.9722 36.576
      vertex -5.38815 3.11085 0
    endloop
  endfacet
  facet normal -0.5 0.866025 0
    outer loop
      vertex -5.38815 3.11085 0
      vertex -7.36035 1.9722 36.576
      vertex -5.38815 3.11085 36.576
    endloop
  endfacet
  facet normal -0.866025 -0.5 0
    outer loop
      vertex -7.36035 1.9722 0
      vertex -6.2217 3.74952e-15 0
      vertex -7.36035 1.9722 36.576
    endloop
  endfacet
  facet normal -0.866025 -0.5 0
    outer loop
      vertex -7.36035 1.9722 36.576
      vertex -6.2217 3.74952e-15 0
      vertex -6.2217 3.74952e-15 36.576
    endloop
  endfacet
  facet normal 0.866025 -0.5 0
    outer loop
      vertex -4.97736 2.99962e-15 0
      vertex -4.97736 2.99962e-15 36.576
      vertex -5.88828 -1.57776 36.576
    endloop
  endfacet
  facet normal 0.866025 -0.5 0
    outer loop
      vertex -5.88828 -1.57776 0
      vertex -4.97736 2.99962e-15 0
      vertex -5.88828 -1.57776 36.576
    endloop
  endfacet
  facet normal 0.866025 0.5 0
    outer loop
      vertex -5.88828 1.57776 36.576
      vertex -4.97736 2.99962e-15 36.576
      vertex -4.97736 2.99962e-15 0
    endloop
  endfacet
  facet normal 0.866025 0.5 0
    outer loop
      vertex -5.88828 1.57776 0
      vertex -5.88828 1.57776 36.576
      vertex -4.97736 2.99962e-15 0
    endloop
  endfacet
  facet normal 0.5 -0.866025 0
    outer loop
      vertex -4.31052 2.48868 0
      vertex -4.31052 2.48868 36.576
      vertex -5.88828 1.57776 36.576
    endloop
  endfacet
  facet normal 0.5 -0.866025 0
    outer loop
      vertex -5.88828 1.57776 0
      vertex -4.31052 2.48868 0
      vertex -5.88828 1.57776 36.576
    endloop
  endfacet
  facet normal 1 -2.44929e-16 0
    outer loop
      vertex -4.31052 4.31052 0
      vertex -4.31052 4.31052 36.576
      vertex -4.31052 2.48868 36.576
    endloop
  endfacet
  facet normal 1 -2.44929e-16 0
    outer loop
      vertex -4.31052 2.48868 0
      vertex -4.31052 4.31052 0
      vertex -4.31052 2.48868 36.576
    endloop
  endfacet
  facet normal -2.44929e-16 -1 0
    outer loop
      vertex -2.48868 4.31052 0
      vertex -2.48868 4.31052 36.576
      vertex -4.31052 4.31052 36.576
    endloop
  endfacet
  facet normal -2.44929e-16 -1 0
    outer loop
      vertex -4.31052 4.31052 0
      vertex -2.48868 4.31052 0
      vertex -4.31052 4.31052 36.576
    endloop
  endfacet
  facet normal 0.866025 -0.5 0
    outer loop
      vertex -1.57776 5.88828 0
      vertex -1.57776 5.88828 36.576
      vertex -2.48868 4.31052 36.576
    endloop
  endfacet
  facet normal 0.866025 -0.5 0
    outer loop
      vertex -2.48868 4.31052 0
      vertex -1.57776 5.88828 0
      vertex -2.48868 4.31052 36.576
    endloop
  endfacet
  facet normal -0.5 -0.866025 0
    outer loop
      vertex 2.99962e-15 4.97736 0
      vertex 2.99962e-15 4.97736 36.576
      vertex -1.57776 5.88828 36.576
    endloop
  endfacet
  facet normal -0.5 -0.866025 0
    outer loop
      vertex -1.57776 5.88828 0
      vertex 2.99962e-15 4.97736 0
      vertex -1.57776 5.88828 36.576
    endloop
  endfacet
  facet normal 0.5 -0.866025 0
    outer loop
      vertex 1.57776 5.88828 0
      vertex 1.57776 5.88828 36.576
      vertex 2.99962e-15 4.97736 36.576
    endloop
  endfacet
  facet normal 0.5 -0.866025 0
    outer loop
      vertex 2.99962e-15 4.97736 0
      vertex 1.57776 5.88828 0
      vertex 2.99962e-15 4.97736 36.576
    endloop
  endfacet
  facet normal -0.866025 -0.5 0
    outer loop
      vertex 2.48868 4.31052 36.576
      vertex 1.57776 5.88828 36.576
      vertex 2.48868 4.31052 0
    endloop
  endfacet
  facet normal -0.866025 -0.5 0
    outer loop
      vertex 2.48868 4.31052 0
      vertex 1.57776 5.88828 36.576
      vertex 1.57776 5.88828 0
    endloop
  endfacet
  facet normal -2.44929e-16 -1 0
    outer loop
      vertex 4.31052 4.31052 0
      vertex 4.31052 4.31052 36.576
      vertex 2.48868 4.31052 36.576
    endloop
  endfacet
  facet normal -2.44929e-16 -1 0
    outer loop
      vertex 2.48868 4.31052 0
      vertex 4.31052 4.31052 0
      vertex 2.48868 4.31052 36.576
    endloop
  endfacet
  facet normal -1 2.44929e-16 0
    outer loop
      vertex 4.31052 4.31052 36.576
      vertex 4.31052 4.31052 0
      vertex 4.31052 2.48868 36.576
    endloop
  endfacet
  facet normal -1 2.44929e-16 0
    outer loop
      vertex 4.31052 2.48868 36.576
      vertex 4.31052 4.31052 0
      vertex 4.31052 2.48868 0
    endloop
  endfacet
  facet normal -0.5 -0.866025 0
    outer loop
      vertex 5.88828 1.57776 0
      vertex 5.88828 1.57776 36.576
      vertex 4.31052 2.48868 36.576
    endloop
  endfacet
  facet normal -0.5 -0.866025 0
    outer loop
      vertex 4.31052 2.48868 0
      vertex 5.88828 1.57776 0
      vertex 4.31052 2.48868 36.576
    endloop
  endfacet
  facet normal -0.866025 0.5 0
    outer loop
      vertex 5.88828 1.57776 36.576
      vertex 5.88828 1.57776 0
      vertex 4.97736 -2.99962e-15 36.576
    endloop
  endfacet
  facet normal -0.866025 0.5 0
    outer loop
      vertex 4.97736 -2.99962e-15 36.576
      vertex 5.88828 1.57776 0
      vertex 4.97736 -2.99962e-15 0
    endloop
  endfacet
  facet normal -0.866025 -0.5 0
    outer loop
      vertex 5.88828 -1.57776 36.576
      vertex 4.97736 -2.99962e-15 36.576
      vertex 5.88828 -1.57776 0
    endloop
  endfacet
  facet normal -0.866025 -0.5 0
    outer loop
      vertex 5.88828 -1.57776 0
      vertex 4.97736 -2.99962e-15 36.576
      vertex 4.97736 -2.99962e-15 0
    endloop
  endfacet
  facet normal -0.5 0.866025 0
    outer loop
      vertex 5.88828 -1.57776 36.576
      vertex 5.88828 -1.57776 0
      vertex 4.31052 -2.48868 36.576
    endloop
  endfacet
  facet normal -0.5 0.866025 0
    outer loop
      vertex 4.31052 -2.48868 36.576
      vertex 5.88828 -1.57776 0
      vertex 4.31052 -2.48868 0
    endloop
  endfacet
  facet normal -1 2.44929e-16 0
    outer loop
      vertex 4.31052 -2.48868 36.576
      vertex 4.31052 -2.48868 0
      vertex 4.31052 -4.31052 36.576
    endloop
  endfacet
  facet normal -1 2.44929e-16 0
    outer loop
      vertex 4.31052 -4.31052 36.576
      vertex 4.31052 -2.48868 0
      vertex 4.31052 -4.31052 0
    endloop
  endfacet
  facet normal 2.44929e-16 1 0
    outer loop
      vertex 4.31052 -4.31052 36.576
      vertex 4.31052 -4.31052 0
      vertex 2.48868 -4.31052 36.576
    endloop
  endfacet
  facet normal 2.44929e-16 1 0
    outer loop
      vertex 2.48868 -4.31052 36.576
      vertex 4.31052 -4.31052 0
      vertex 2.48868 -4.31052 0
    endloop
  endfacet
  facet normal -0.866025 0.5 0
    outer loop
      vertex 2.48868 -4.31052 36.576
      vertex 2.48868 -4.31052 0
      vertex 1.57776 -5.88828 36.576
    endloop
  endfacet
  facet normal -0.866025 0.5 0
    outer loop
      vertex 1.57776 -5.88828 36.576
      vertex 2.48868 -4.31052 0
      vertex 1.57776 -5.88828 0
    endloop
  endfacet
  facet normal 0.5 0.866025 0
    outer loop
      vertex 1.57776 -5.88828 36.576
      vertex 1.57776 -5.88828 0
      vertex -2.99962e-15 -4.97736 36.576
    endloop
  endfacet
  facet normal 0.5 0.866025 0
    outer loop
      vertex -2.99962e-15 -4.97736 36.576
      vertex 1.57776 -5.88828 0
      vertex -2.99962e-15 -4.97736 0
    endloop
  endfacet
  facet normal -0.5 0.866025 0
    outer loop
      vertex -2.99962e-15 -4.97736 36.576
      vertex -2.99962e-15 -4.97736 0
      vertex -1.57776 -5.88828 36.576
    endloop
  endfacet
  facet normal -0.5 0.866025 0
    outer loop
      vertex -1.57776 -5.88828 36.576
      vertex -2.99962e-15 -4.97736 0
      vertex -1.57776 -5.88828 0
    endloop
  endfacet
  facet normal 0.866025 0.5 0
    outer loop
      vertex -2.48868 -4.31052 36.576
      vertex -1.57776 -5.88828 36.576
      vertex -1.57776 -5.88828 0
    endloop
  endfacet
  facet normal 0.866025 0.5 0
    outer loop
      vertex -2.48868 -4.31052 0
      vertex -2.48868 -4.31052 36.576
      vertex -1.57776 -5.88828 0
    endloop
  endfacet
  facet normal 2.44929e-16 1 0
    outer loop
      vertex -2.48868 -4.31052 36.576
      vertex -2.48868 -4.31052 0
      vertex -4.31052 -4.31052 36.576
    endloop
  endfacet
  facet normal 2.44929e-16 1 0
    outer loop
      vertex -4.31052 -4.31052 36.576
      vertex -2.48868 -4.31052 0
      vertex -4.31052 -4.31052 0
    endloop
  endfacet
  facet normal 1 -2.44929e-16 0
    outer loop
      vertex -4.31052 -2.48868 0
      vertex -4.31052 -2.48868 36.576
      vertex -4.31052 -4.31052 36.576
    endloop
  endfacet
  facet normal 1 -2.44929e-16 0
    outer loop
      vertex -4.31052 -4.31052 0
      vertex -4.31052 -2.48868 0
      vertex -4.31052 -4.31052 36.576
    endloop
  endfacet
  facet normal 0.5 0.866025 0
    outer loop
      vertex -4.31052 -2.48868 36.576
      vertex -4.31052 -2.48868 0
      vertex -5.88828 -1.57776 36.576
    endloop
  endfacet
  facet normal 0.5 0.866025 0
    outer loop
      vertex -5.88828 -1.57776 36.576
      vertex -4.31052 -2.48868 0
      vertex -5.88828 -1.57776 0
    endloop
  endfacet
endsolid OpenSCAD_Model
