solid OpenSCAD_Model
  facet normal -1 0 0
    outer loop
      vertex 0.0263799 0.774192 0.573816
      vertex 0.0263799 0.774192 16.6982
      vertex 0.0263799 39.8658 0.573816
    endloop
  endfacet
  facet normal -1 0 0
    outer loop
      vertex 0.0263799 39.8658 9.78938
      vertex 0.0263799 0.774192 16.6982
      vertex 0.0263799 39.8658 16.6982
    endloop
  endfacet
  facet normal -1 0 0
    outer loop
      vertex 0.0263799 39.8658 0.573816
      vertex 0.0263799 0.774192 16.6982
      vertex 0.0263799 39.8658 9.78938
    endloop
  endfacet
  facet normal -0.965926 -0.258819 0
    outer loop
      vertex 0.0263799 0.774192 0.573816
      vertex 0.126568 0.400286 0.573816
      vertex 0.0263799 0.774192 16.6982
    endloop
  endfacet
  facet normal -0.965926 -0.258819 0
    outer loop
      vertex 0.0263799 0.774192 16.6982
      vertex 0.126568 0.400286 0.573816
      vertex 0.126568 0.400286 16.6982
    endloop
  endfacet
  facet normal -0.84361 -0.226045 -0.487058
    outer loop
      vertex 0.126568 0.400286 0.573816
      vertex 0.0263799 0.774192 0.573816
      vertex 0.300098 0.500474 0.226755
    endloop
  endfacet
  facet normal -0.84361 -0.226045 -0.487058
    outer loop
      vertex 0.300098 0.500474 0.226755
      vertex 0.0263799 0.774192 0.573816
      vertex 0.226755 0.774192 0.226755
    endloop
  endfacet
  facet normal -0.866026 0 -0.5
    outer loop
      vertex 0.0263799 0.774192 0.573816
      vertex 0.0263799 39.8658 0.573816
      vertex 0.226755 0.774192 0.226755
    endloop
  endfacet
  facet normal -0.866026 0 -0.5
    outer loop
      vertex 0.226755 0.774192 0.226755
      vertex 0.0263799 39.8658 0.573816
      vertex 0.226755 39.8658 0.226755
    endloop
  endfacet
  facet normal -0.84361 0.226045 -0.487058
    outer loop
      vertex 0.226755 39.8658 0.226755
      vertex 0.0263799 39.8658 0.573816
      vertex 0.300098 40.1395 0.226755
    endloop
  endfacet
  facet normal -0.84361 0.226045 -0.487058
    outer loop
      vertex 0.300098 40.1395 0.226755
      vertex 0.0263799 39.8658 0.573816
      vertex 0.126568 40.2397 0.573816
    endloop
  endfacet
  facet normal -0.965926 0.258819 0
    outer loop
      vertex 0.0263799 39.8658 0.573816
      vertex 0.0263799 39.8658 9.78938
      vertex 0.126568 40.2397 0.573816
    endloop
  endfacet
  facet normal -0.965926 0.258819 0
    outer loop
      vertex 0.126568 40.2397 0.573816
      vertex 0.0263799 39.8658 9.78938
      vertex 0.126568 40.2397 9.78938
    endloop
  endfacet
  facet normal -0.965926 0.258819 0
    outer loop
      vertex 0.0263799 39.8658 9.78938
      vertex 0.0263799 39.8658 16.6982
      vertex 0.126568 40.2397 16.6982
    endloop
  endfacet
  facet normal -0.965926 0.258819 0
    outer loop
      vertex 0.0263799 39.8658 9.78938
      vertex 0.126568 40.2397 16.6982
      vertex 0.126568 40.2397 9.78938
    endloop
  endfacet
  facet normal -0.866026 0 0.5
    outer loop
      vertex 0.0263799 0.774192 16.6982
      vertex 0.226755 0.774192 17.0452
      vertex 0.0263799 39.8658 16.6982
    endloop
  endfacet
  facet normal -0.866026 0 0.5
    outer loop
      vertex 0.0263799 39.8658 16.6982
      vertex 0.226755 0.774192 17.0452
      vertex 0.226755 39.8658 17.0452
    endloop
  endfacet
  facet normal -0.84361 0.226045 0.487058
    outer loop
      vertex 0.126568 40.2397 16.6982
      vertex 0.0263799 39.8658 16.6982
      vertex 0.300098 40.1395 17.0452
    endloop
  endfacet
  facet normal -0.84361 0.226045 0.487058
    outer loop
      vertex 0.300098 40.1395 17.0452
      vertex 0.0263799 39.8658 16.6982
      vertex 0.226755 39.8658 17.0452
    endloop
  endfacet
  facet normal -0.84361 -0.226045 0.487058
    outer loop
      vertex 0.226755 0.774192 17.0452
      vertex 0.0263799 0.774192 16.6982
      vertex 0.300098 0.500474 17.0452
    endloop
  endfacet
  facet normal -0.84361 -0.226045 0.487058
    outer loop
      vertex 0.300098 0.500474 17.0452
      vertex 0.0263799 0.774192 16.6982
      vertex 0.126568 0.400286 16.6982
    endloop
  endfacet
  facet normal -0.707107 -0.707107 0
    outer loop
      vertex 0.126568 0.400286 16.6982
      vertex 0.126568 0.400286 0.573816
      vertex 0.400286 0.126568 0.573816
    endloop
  endfacet
  facet normal -0.707107 -0.707107 0
    outer loop
      vertex 0.400286 0.126568 16.6982
      vertex 0.126568 0.400286 16.6982
      vertex 0.400286 0.126568 0.573816
    endloop
  endfacet
  facet normal -0.617566 -0.617566 0.487058
    outer loop
      vertex 0.300098 0.500474 17.0452
      vertex 0.126568 0.400286 16.6982
      vertex 0.400286 0.126568 16.6982
    endloop
  endfacet
  facet normal -0.617566 -0.617566 0.487058
    outer loop
      vertex 0.500474 0.300098 17.0452
      vertex 0.300098 0.500474 17.0452
      vertex 0.400286 0.126568 16.6982
    endloop
  endfacet
  facet normal -0.617566 -0.617566 -0.487058
    outer loop
      vertex 0.400286 0.126568 0.573816
      vertex 0.126568 0.400286 0.573816
      vertex 0.300098 0.500474 0.226755
    endloop
  endfacet
  facet normal -0.617566 -0.617566 -0.487058
    outer loop
      vertex 0.500474 0.300098 0.226755
      vertex 0.400286 0.126568 0.573816
      vertex 0.300098 0.500474 0.226755
    endloop
  endfacet
  facet normal -0.362784 -0.362784 -0.858356
    outer loop
      vertex 0.300098 0.500474 0.226755
      vertex 0.600662 0.674004 0.0263799
      vertex 0.500474 0.300098 0.226755
    endloop
  endfacet
  facet normal -0.362784 -0.362784 -0.858356
    outer loop
      vertex 0.500474 0.300098 0.226755
      vertex 0.600662 0.674004 0.0263799
      vertex 0.674004 0.600662 0.0263799
    endloop
  endfacet
  facet normal -0.495572 -0.132788 -0.858357
    outer loop
      vertex 0.600662 0.674004 0.0263799
      vertex 0.300098 0.500474 0.226755
      vertex 0.573816 0.774192 0.0263799
    endloop
  endfacet
  facet normal -0.495572 -0.132788 -0.858357
    outer loop
      vertex 0.300098 0.500474 0.226755
      vertex 0.226755 0.774192 0.226755
      vertex 0.573816 0.774192 0.0263799
    endloop
  endfacet
  facet normal -0.5 0 -0.866026
    outer loop
      vertex 0.226755 0.774192 0.226755
      vertex 0.226755 39.8658 0.226755
      vertex 0.573816 0.774192 0.0263799
    endloop
  endfacet
  facet normal -0.5 0 -0.866026
    outer loop
      vertex 0.573816 0.774192 0.0263799
      vertex 0.226755 39.8658 0.226755
      vertex 0.573816 39.8658 0.0263799
    endloop
  endfacet
  facet normal -0.495572 0.132788 -0.858357
    outer loop
      vertex 0.573816 39.8658 0.0263799
      vertex 0.226755 39.8658 0.226755
      vertex 0.300098 40.1395 0.226755
    endloop
  endfacet
  facet normal -0.362784 0.362784 -0.858356
    outer loop
      vertex 0.500474 40.0238 0.0931718
      vertex 0.300098 40.1395 0.226755
      vertex 0.555062 40.0712 0.0901208
    endloop
  endfacet
  facet normal -0.362784 0.362784 -0.858356
    outer loop
      vertex 0.555062 40.0712 0.0901208
      vertex 0.300098 40.1395 0.226755
      vertex 0.500474 40.3399 0.226755
    endloop
  endfacet
  facet normal -0.617566 0.617566 -0.487058
    outer loop
      vertex 0.500474 40.3399 0.226755
      vertex 0.300098 40.1395 0.226755
      vertex 0.400286 40.5134 0.573816
    endloop
  endfacet
  facet normal -0.617566 0.617566 -0.487058
    outer loop
      vertex 0.300098 40.1395 0.226755
      vertex 0.126568 40.2397 0.573816
      vertex 0.400286 40.5134 0.573816
    endloop
  endfacet
  facet normal -0.495572 0.132788 -0.858357
    outer loop
      vertex 0.300098 40.1395 0.226755
      vertex 0.500474 40.0238 0.0931718
      vertex 0.573816 39.8658 0.0263799
    endloop
  endfacet
  facet normal -0.495572 0.132788 -0.858357
    outer loop
      vertex 0.573816 39.8658 0.0263799
      vertex 0.500474 40.0238 0.0931718
      vertex 0.587239 39.9159 0.0263799
    endloop
  endfacet
  facet normal -0.707107 0.707107 0
    outer loop
      vertex 0.126568 40.2397 0.573816
      vertex 0.126568 40.2397 9.78938
      vertex 0.400286 40.5134 0.573816
    endloop
  endfacet
  facet normal -0.707107 0.707107 0
    outer loop
      vertex 0.400286 40.5134 0.573816
      vertex 0.126568 40.2397 9.78938
      vertex 0.400286 40.5134 9.78938
    endloop
  endfacet
  facet normal -0.707107 0.707107 0
    outer loop
      vertex 0.126568 40.2397 9.78938
      vertex 0.126568 40.2397 16.6982
      vertex 0.400286 40.5134 9.78938
    endloop
  endfacet
  facet normal -0.707107 0.707107 0
    outer loop
      vertex 0.400286 40.5134 9.78938
      vertex 0.126568 40.2397 16.6982
      vertex 0.400286 40.5134 16.6982
    endloop
  endfacet
  facet normal -0.617566 0.617566 0.487058
    outer loop
      vertex 0.400286 40.5134 16.6982
      vertex 0.126568 40.2397 16.6982
      vertex 0.500474 40.3399 17.0452
    endloop
  endfacet
  facet normal -0.617566 0.617566 0.487058
    outer loop
      vertex 0.500474 40.3399 17.0452
      vertex 0.126568 40.2397 16.6982
      vertex 0.300098 40.1395 17.0452
    endloop
  endfacet
  facet normal -0.5 0 0.866026
    outer loop
      vertex 0.226755 39.8658 17.0452
      vertex 0.226755 0.774192 17.0452
      vertex 0.573816 0.774192 17.2456
    endloop
  endfacet
  facet normal -0.5 0 0.866026
    outer loop
      vertex 0.573816 39.8658 17.2456
      vertex 0.226755 39.8658 17.0452
      vertex 0.573816 0.774192 17.2456
    endloop
  endfacet
  facet normal -0.495572 0.132788 0.858357
    outer loop
      vertex 0.300098 40.1395 17.0452
      vertex 0.226755 39.8658 17.0452
      vertex 0.573816 39.8658 17.2456
    endloop
  endfacet
  facet normal -0.495572 -0.132788 0.858357
    outer loop
      vertex 0.573816 0.774192 17.2456
      vertex 0.226755 0.774192 17.0452
      vertex 0.300098 0.500474 17.0452
    endloop
  endfacet
  facet normal -0.495572 0.132788 0.858357
    outer loop
      vertex 0.600662 39.966 17.2456
      vertex 0.300098 40.1395 17.0452
      vertex 0.573816 39.8658 17.2456
    endloop
  endfacet
  facet normal -0.362784 0.362784 0.858356
    outer loop
      vertex 0.500474 40.3399 17.0452
      vertex 0.300098 40.1395 17.0452
      vertex 0.600662 39.966 17.2456
    endloop
  endfacet
  facet normal -0.495572 -0.132788 0.858357
    outer loop
      vertex 0.573816 0.774192 17.2456
      vertex 0.300098 0.500474 17.0452
      vertex 0.600662 0.674004 17.2456
    endloop
  endfacet
  facet normal -0.362784 -0.362784 0.858356
    outer loop
      vertex 0.600662 0.674004 17.2456
      vertex 0.300098 0.500474 17.0452
      vertex 0.500474 0.300098 17.0452
    endloop
  endfacet
  facet normal -0.362784 -0.362784 0.858356
    outer loop
      vertex 0.674004 0.600662 17.2456
      vertex 0.600662 0.674004 17.2456
      vertex 0.500474 0.300098 17.0452
    endloop
  endfacet
  facet normal -0.226045 -0.84361 0.487058
    outer loop
      vertex 0.500474 0.300098 17.0452
      vertex 0.400286 0.126568 16.6982
      vertex 0.774192 0.0263799 16.6982
    endloop
  endfacet
  facet normal -0.258819 -0.965926 0
    outer loop
      vertex 0.400286 0.126568 16.6982
      vertex 0.400286 0.126568 0.573816
      vertex 0.774192 0.0263799 0.573816
    endloop
  endfacet
  facet normal -0.258819 -0.965926 0
    outer loop
      vertex 0.774192 0.0263799 16.6982
      vertex 0.400286 0.126568 16.6982
      vertex 0.774192 0.0263799 0.573816
    endloop
  endfacet
  facet normal -0.226045 -0.84361 -0.487058
    outer loop
      vertex 0.774192 0.0263799 0.573816
      vertex 0.400286 0.126568 0.573816
      vertex 0.500474 0.300098 0.226755
    endloop
  endfacet
  facet normal -0.132788 -0.495572 0.858357
    outer loop
      vertex 0.674004 0.600662 17.2456
      vertex 0.500474 0.300098 17.0452
      vertex 0.774192 0.573816 17.2456
    endloop
  endfacet
  facet normal -0.132788 -0.495572 0.858357
    outer loop
      vertex 0.774192 0.573816 17.2456
      vertex 0.500474 0.300098 17.0452
      vertex 0.774192 0.226755 17.0452
    endloop
  endfacet
  facet normal -0.226045 -0.84361 0.487058
    outer loop
      vertex 0.774192 0.226755 17.0452
      vertex 0.500474 0.300098 17.0452
      vertex 0.774192 0.0263799 16.6982
    endloop
  endfacet
  facet normal -0.226045 -0.84361 -0.487058
    outer loop
      vertex 0.774192 0.0263799 0.573816
      vertex 0.500474 0.300098 0.226755
      vertex 0.774192 0.226755 0.226755
    endloop
  endfacet
  facet normal -0.132788 -0.495572 -0.858357
    outer loop
      vertex 0.774192 0.226755 0.226755
      vertex 0.500474 0.300098 0.226755
      vertex 0.774192 0.573816 0.0263799
    endloop
  endfacet
  facet normal -0.132788 -0.495572 -0.858357
    outer loop
      vertex 0.774192 0.573816 0.0263799
      vertex 0.500474 0.300098 0.226755
      vertex 0.674004 0.600662 0.0263799
    endloop
  endfacet
  facet normal 0 0 -1
    outer loop
      vertex 0.573816 0.774192 0.0263799
      vertex 0.573816 39.8658 0.0263799
      vertex 0.600662 0.674004 0.0263799
    endloop
  endfacet
  facet normal 0 0 -1
    outer loop
      vertex 0.600662 0.674004 0.0263799
      vertex 0.573816 39.8658 0.0263799
      vertex 0.587239 39.9159 0.0263799
    endloop
  endfacet
  facet normal 0 0 -1
    outer loop
      vertex 0.600662 0.674004 0.0263799
      vertex 0.587239 39.9159 0.0263799
      vertex 0.600662 39.966 0.0263799
    endloop
  endfacet
  facet normal 0 0 -1
    outer loop
      vertex 0.600662 0.674004 0.0263799
      vertex 0.600662 39.966 0.0263799
      vertex 0.618997 39.9843 0.0263799
    endloop
  endfacet
  facet normal 0 0 -1
    outer loop
      vertex 0.600662 0.674004 0.0263799
      vertex 0.618997 39.9843 0.0263799
      vertex 0.674004 40.0393 0.0263799
    endloop
  endfacet
  facet normal 0 0 -1
    outer loop
      vertex 0.600662 0.674004 0.0263799
      vertex 0.674004 40.0393 0.0263799
      vertex 0.724098 40.0528 0.0263799
    endloop
  endfacet
  facet normal 0 0 -1
    outer loop
      vertex 0.600662 0.674004 0.0263799
      vertex 0.724098 40.0528 0.0263799
      vertex 0.774192 40.0662 0.0263799
    endloop
  endfacet
  facet normal 0 0 -1
    outer loop
      vertex 0.600662 0.674004 0.0263799
      vertex 0.774192 40.0662 0.0263799
      vertex 17.5138 40.0662 0.0263799
    endloop
  endfacet
  facet normal 0 0 -1
    outer loop
      vertex 0.600662 0.674004 0.0263799
      vertex 17.5138 40.0662 0.0263799
      vertex 17.5639 40.0528 0.0263799
    endloop
  endfacet
  facet normal 0 0 -1
    outer loop
      vertex 0.600662 0.674004 0.0263799
      vertex 17.5639 40.0528 0.0263799
      vertex 17.614 40.0393 0.0263799
    endloop
  endfacet
  facet normal 0 0 -1
    outer loop
      vertex 0.600662 0.674004 0.0263799
      vertex 17.614 40.0393 0.0263799
      vertex 17.669 39.9843 0.0263799
    endloop
  endfacet
  facet normal 0 0 -1
    outer loop
      vertex 0.600662 0.674004 0.0263799
      vertex 17.669 39.9843 0.0263799
      vertex 17.6873 39.966 0.0263799
    endloop
  endfacet
  facet normal 0 0 -1
    outer loop
      vertex 0.600662 0.674004 0.0263799
      vertex 17.6873 39.966 0.0263799
      vertex 17.7008 39.9159 0.0263799
    endloop
  endfacet
  facet normal 0 0 -1
    outer loop
      vertex 0.600662 0.674004 0.0263799
      vertex 17.7008 39.9159 0.0263799
      vertex 17.7142 39.8658 0.0263799
    endloop
  endfacet
  facet normal 0 0 -1
    outer loop
      vertex 0.600662 0.674004 0.0263799
      vertex 17.7142 39.8658 0.0263799
      vertex 17.7142 0.774192 0.0263799
    endloop
  endfacet
  facet normal 0 0 -1
    outer loop
      vertex 0.600662 0.674004 0.0263799
      vertex 17.7142 0.774192 0.0263799
      vertex 17.6873 0.674004 0.0263799
    endloop
  endfacet
  facet normal 0 0 -1
    outer loop
      vertex 0.600662 0.674004 0.0263799
      vertex 17.6873 0.674004 0.0263799
      vertex 17.614 0.600662 0.0263799
    endloop
  endfacet
  facet normal 0 0 -1
    outer loop
      vertex 0.600662 0.674004 0.0263799
      vertex 17.614 0.600662 0.0263799
      vertex 17.5138 0.573816 0.0263799
    endloop
  endfacet
  facet normal 0 0 -1
    outer loop
      vertex 0.600662 0.674004 0.0263799
      vertex 17.5138 0.573816 0.0263799
      vertex 0.774192 0.573816 0.0263799
    endloop
  endfacet
  facet normal 0 0 -1
    outer loop
      vertex 0.600662 0.674004 0.0263799
      vertex 0.774192 0.573816 0.0263799
      vertex 0.674004 0.600662 0.0263799
    endloop
  endfacet
  facet normal -0.495572 0.132788 -0.858357
    outer loop
      vertex 0.587239 39.9159 0.0263799
      vertex 0.500474 40.0238 0.0931718
      vertex 0.600662 39.966 0.0263799
    endloop
  endfacet
  facet normal -0.362784 0.362784 -0.858356
    outer loop
      vertex 0.500474 40.0238 0.0931718
      vertex 0.555062 40.0712 0.0901208
      vertex 0.600662 39.966 0.0263799
    endloop
  endfacet
  facet normal -0.362784 0.362784 -0.858356
    outer loop
      vertex 0.600662 39.966 0.0263799
      vertex 0.555062 40.0712 0.0901208
      vertex 0.500474 40.3399 0.226755
    endloop
  endfacet
  facet normal -0.362784 0.362784 -0.858356
    outer loop
      vertex 0.500474 40.3399 0.226755
      vertex 0.5785 40.0649 0.0775605
      vertex 0.600662 39.966 0.0263799
    endloop
  endfacet
  facet normal -0.362784 0.362784 -0.858356
    outer loop
      vertex 0.600662 39.966 0.0263799
      vertex 0.5785 40.0649 0.0775605
      vertex 0.618997 39.9843 0.0263799
    endloop
  endfacet
  facet normal -0.362784 0.362784 -0.858356
    outer loop
      vertex 0.5785 40.0649 0.0775605
      vertex 0.500474 40.3399 0.226755
      vertex 0.674004 40.0393 0.0263799
    endloop
  endfacet
  facet normal -0.132788 0.495572 -0.858357
    outer loop
      vertex 0.674004 40.0393 0.0263799
      vertex 0.500474 40.3399 0.226755
      vertex 0.724098 40.0528 0.0263799
    endloop
  endfacet
  facet normal -0.132788 0.495572 -0.858357
    outer loop
      vertex 0.724098 40.0528 0.0263799
      vertex 0.500474 40.3399 0.226755
      vertex 0.774192 40.0662 0.0263799
    endloop
  endfacet
  facet normal -0.132788 0.495572 -0.858357
    outer loop
      vertex 0.774192 40.0662 0.0263799
      vertex 0.500474 40.3399 0.226755
      vertex 0.774192 40.2149 0.112255
    endloop
  endfacet
  facet normal -0.132788 0.495572 -0.858357
    outer loop
      vertex 0.774192 40.2149 0.112255
      vertex 0.500474 40.3399 0.226755
      vertex 0.774192 40.4132 0.226755
    endloop
  endfacet
  facet normal -0.226045 0.84361 -0.487058
    outer loop
      vertex 0.774192 40.4132 0.226755
      vertex 0.500474 40.3399 0.226755
      vertex 0.774192 40.6136 0.573816
    endloop
  endfacet
  facet normal -0.226045 0.84361 -0.487058
    outer loop
      vertex 0.500474 40.3399 0.226755
      vertex 0.400286 40.5134 0.573816
      vertex 0.774192 40.6136 0.573816
    endloop
  endfacet
  facet normal -0.258819 0.965926 0
    outer loop
      vertex 0.400286 40.5134 0.573816
      vertex 0.400286 40.5134 9.78938
      vertex 0.774192 40.6136 0.573816
    endloop
  endfacet
  facet normal -0.258819 0.965926 0
    outer loop
      vertex 0.774192 40.6136 0.573816
      vertex 0.400286 40.5134 9.78938
      vertex 0.774192 40.6136 9.78938
    endloop
  endfacet
  facet normal -0.258819 0.965926 0
    outer loop
      vertex 0.400286 40.5134 9.78938
      vertex 0.400286 40.5134 16.6982
      vertex 0.774192 40.6136 16.6982
    endloop
  endfacet
  facet normal -0.258819 0.965926 0
    outer loop
      vertex 0.400286 40.5134 9.78938
      vertex 0.774192 40.6136 16.6982
      vertex 0.774192 40.6136 9.78938
    endloop
  endfacet
  facet normal -0.226045 0.84361 0.487058
    outer loop
      vertex 0.774192 40.6136 16.6982
      vertex 0.400286 40.5134 16.6982
      vertex 0.500474 40.3399 17.0452
    endloop
  endfacet
  facet normal -0.132788 0.495572 0.858357
    outer loop
      vertex 0.774192 40.0662 17.2456
      vertex 0.500474 40.3399 17.0452
      vertex 0.674004 40.0393 17.2456
    endloop
  endfacet
  facet normal -0.362784 0.362784 0.858356
    outer loop
      vertex 0.674004 40.0393 17.2456
      vertex 0.500474 40.3399 17.0452
      vertex 0.600662 39.966 17.2456
    endloop
  endfacet
  facet normal -0.226045 0.84361 0.487058
    outer loop
      vertex 0.774192 40.6136 16.6982
      vertex 0.500474 40.3399 17.0452
      vertex 0.774192 40.4132 17.0452
    endloop
  endfacet
  facet normal -0.132788 0.495572 0.858357
    outer loop
      vertex 0.774192 40.4132 17.0452
      vertex 0.500474 40.3399 17.0452
      vertex 0.774192 40.0662 17.2456
    endloop
  endfacet
  facet normal 0 0 1
    outer loop
      vertex 0.573816 39.8658 17.2456
      vertex 0.573816 0.774192 17.2456
      vertex 0.600662 0.674004 17.2456
    endloop
  endfacet
  facet normal 0 0 1
    outer loop
      vertex 0.774192 0.573816 17.2456
      vertex 0.573816 39.8658 17.2456
      vertex 0.674004 0.600662 17.2456
    endloop
  endfacet
  facet normal 0 0 1
    outer loop
      vertex 0.674004 0.600662 17.2456
      vertex 0.573816 39.8658 17.2456
      vertex 0.600662 0.674004 17.2456
    endloop
  endfacet
  facet normal 0 0 1
    outer loop
      vertex 3.79781 0.573816 17.2456
      vertex 0.573816 39.8658 17.2456
      vertex 0.774192 0.573816 17.2456
    endloop
  endfacet
  facet normal 0 0 1
    outer loop
      vertex 3.898 0.600662 17.2456
      vertex 0.573816 39.8658 17.2456
      vertex 3.79781 0.573816 17.2456
    endloop
  endfacet
  facet normal 0 0 1
    outer loop
      vertex 3.97134 0.674004 17.2456
      vertex 0.573816 39.8658 17.2456
      vertex 3.898 0.600662 17.2456
    endloop
  endfacet
  facet normal 0 0 1
    outer loop
      vertex 3.99818 0.774192 17.2456
      vertex 0.573816 39.8658 17.2456
      vertex 3.97134 0.674004 17.2456
    endloop
  endfacet
  facet normal 0 0 1
    outer loop
      vertex 3.99818 39.8658 17.2456
      vertex 0.573816 39.8658 17.2456
      vertex 3.99818 0.774192 17.2456
    endloop
  endfacet
  facet normal 0 0 1
    outer loop
      vertex 3.97134 39.966 17.2456
      vertex 0.573816 39.8658 17.2456
      vertex 3.99818 39.8658 17.2456
    endloop
  endfacet
  facet normal 0 0 1
    outer loop
      vertex 3.898 40.0393 17.2456
      vertex 0.573816 39.8658 17.2456
      vertex 3.97134 39.966 17.2456
    endloop
  endfacet
  facet normal 0 0 1
    outer loop
      vertex 3.79781 40.0662 17.2456
      vertex 0.573816 39.8658 17.2456
      vertex 3.898 40.0393 17.2456
    endloop
  endfacet
  facet normal 0 0 1
    outer loop
      vertex 0.774192 40.0662 17.2456
      vertex 0.573816 39.8658 17.2456
      vertex 3.79781 40.0662 17.2456
    endloop
  endfacet
  facet normal 0 0 1
    outer loop
      vertex 0.674004 40.0393 17.2456
      vertex 0.573816 39.8658 17.2456
      vertex 0.774192 40.0662 17.2456
    endloop
  endfacet
  facet normal 0 0 1
    outer loop
      vertex 0.600662 39.966 17.2456
      vertex 0.573816 39.8658 17.2456
      vertex 0.674004 40.0393 17.2456
    endloop
  endfacet
  facet normal 0 -0.866026 0.5
    outer loop
      vertex 0.774192 0.226755 17.0452
      vertex 0.774192 0.0263799 16.6982
      vertex 3.79781 0.0263799 16.6982
    endloop
  endfacet
  facet normal 0 -0.866026 0.5
    outer loop
      vertex 3.79781 0.226755 17.0452
      vertex 0.774192 0.226755 17.0452
      vertex 3.79781 0.0263799 16.6982
    endloop
  endfacet
  facet normal 0 -1 0
    outer loop
      vertex 3.79781 0.0263799 9.78938
      vertex 0.774192 0.0263799 0.573816
      vertex 17.5138 0.0263799 0.573816
    endloop
  endfacet
  facet normal 0 -1 0
    outer loop
      vertex 3.79781 0.0263799 9.78938
      vertex 3.79781 0.0263799 16.6982
      vertex 0.774192 0.0263799 16.6982
    endloop
  endfacet
  facet normal 0 -1 0
    outer loop
      vertex 0.774192 0.0263799 16.6982
      vertex 0.774192 0.0263799 0.573816
      vertex 3.79781 0.0263799 9.78938
    endloop
  endfacet
  facet normal 0 -1 0
    outer loop
      vertex 17.5138 0.0263799 9.78938
      vertex 3.79781 0.0263799 9.78938
      vertex 17.5138 0.0263799 0.573816
    endloop
  endfacet
  facet normal 0 -0.866026 -0.5
    outer loop
      vertex 17.5138 0.0263799 0.573816
      vertex 0.774192 0.0263799 0.573816
      vertex 0.774192 0.226755 0.226755
    endloop
  endfacet
  facet normal 0 -0.866026 -0.5
    outer loop
      vertex 17.5138 0.226755 0.226755
      vertex 17.5138 0.0263799 0.573816
      vertex 0.774192 0.226755 0.226755
    endloop
  endfacet
  facet normal 0 -0.5 0.866026
    outer loop
      vertex 0.774192 0.573816 17.2456
      vertex 0.774192 0.226755 17.0452
      vertex 3.79781 0.226755 17.0452
    endloop
  endfacet
  facet normal 0 -0.5 0.866026
    outer loop
      vertex 3.79781 0.573816 17.2456
      vertex 0.774192 0.573816 17.2456
      vertex 3.79781 0.226755 17.0452
    endloop
  endfacet
  facet normal 0 -0.5 -0.866026
    outer loop
      vertex 0.774192 0.226755 0.226755
      vertex 0.774192 0.573816 0.0263799
      vertex 17.5138 0.226755 0.226755
    endloop
  endfacet
  facet normal 0 -0.5 -0.866026
    outer loop
      vertex 17.5138 0.226755 0.226755
      vertex 0.774192 0.573816 0.0263799
      vertex 17.5138 0.573816 0.0263799
    endloop
  endfacet
  facet normal 0.132788 -0.495572 -0.858357
    outer loop
      vertex 17.7875 0.300098 0.226755
      vertex 17.5138 0.226755 0.226755
      vertex 17.5138 0.573816 0.0263799
    endloop
  endfacet
  facet normal 0.132788 -0.495572 -0.858357
    outer loop
      vertex 17.7875 0.300098 0.226755
      vertex 17.5138 0.573816 0.0263799
      vertex 17.614 0.600662 0.0263799
    endloop
  endfacet
  facet normal 0.362784 -0.362784 -0.858356
    outer loop
      vertex 17.7875 0.300098 0.226755
      vertex 17.614 0.600662 0.0263799
      vertex 17.9879 0.500474 0.226755
    endloop
  endfacet
  facet normal 0.362784 -0.362784 -0.858356
    outer loop
      vertex 17.9879 0.500474 0.226755
      vertex 17.614 0.600662 0.0263799
      vertex 17.6873 0.674004 0.0263799
    endloop
  endfacet
  facet normal 0.495572 -0.132788 -0.858357
    outer loop
      vertex 17.9879 0.500474 0.226755
      vertex 17.6873 0.674004 0.0263799
      vertex 17.7142 0.774192 0.0263799
    endloop
  endfacet
  facet normal 0.495572 -0.132788 -0.858357
    outer loop
      vertex 17.9879 0.500474 0.226755
      vertex 17.7142 0.774192 0.0263799
      vertex 18.0612 0.774192 0.226755
    endloop
  endfacet
  facet normal 0.5 0 -0.866026
    outer loop
      vertex 17.7142 0.774192 0.0263799
      vertex 17.7142 39.8658 0.0263799
      vertex 18.0612 0.774192 0.226755
    endloop
  endfacet
  facet normal 0.5 0 -0.866026
    outer loop
      vertex 18.0612 0.774192 0.226755
      vertex 17.7142 39.8658 0.0263799
      vertex 18.0612 39.8658 0.226755
    endloop
  endfacet
  facet normal 0.495572 0.132788 -0.858357
    outer loop
      vertex 18.0612 39.8658 0.226755
      vertex 17.7142 39.8658 0.0263799
      vertex 17.9879 40.1395 0.226755
    endloop
  endfacet
  facet normal 0.495572 0.132788 -0.858357
    outer loop
      vertex 17.7008 39.9159 0.0263799
      vertex 17.7875 40.0238 0.0931718
      vertex 17.7142 39.8658 0.0263799
    endloop
  endfacet
  facet normal 0.495572 0.132788 -0.858357
    outer loop
      vertex 17.7142 39.8658 0.0263799
      vertex 17.7875 40.0238 0.0931718
      vertex 17.9879 40.1395 0.226755
    endloop
  endfacet
  facet normal 0.495572 0.132788 -0.858357
    outer loop
      vertex 17.7008 39.9159 0.0263799
      vertex 17.6873 39.966 0.0263799
      vertex 17.7875 40.0238 0.0931718
    endloop
  endfacet
  facet normal 0.362784 0.362784 -0.858356
    outer loop
      vertex 17.6873 39.966 0.0263799
      vertex 17.669 39.9843 0.0263799
      vertex 17.7875 40.0238 0.0931718
    endloop
  endfacet
  facet normal 0.362784 0.362784 -0.858356
    outer loop
      vertex 17.614 40.0393 0.0263799
      vertex 17.9879 40.1395 0.226755
      vertex 17.669 39.9843 0.0263799
    endloop
  endfacet
  facet normal 0.362784 0.362784 -0.858356
    outer loop
      vertex 17.669 39.9843 0.0263799
      vertex 17.9879 40.1395 0.226755
      vertex 17.7875 40.0238 0.0931718
    endloop
  endfacet
  facet normal 0.362784 0.362784 -0.858356
    outer loop
      vertex 17.9879 40.1395 0.226755
      vertex 17.614 40.0393 0.0263799
      vertex 17.7875 40.3399 0.226755
    endloop
  endfacet
  facet normal 0.132788 0.495572 -0.858357
    outer loop
      vertex 17.614 40.0393 0.0263799
      vertex 17.5639 40.0528 0.0263799
      vertex 17.7875 40.3399 0.226755
    endloop
  endfacet
  facet normal 0.132788 0.495572 -0.858357
    outer loop
      vertex 17.5639 40.0528 0.0263799
      vertex 17.5138 40.0662 0.0263799
      vertex 17.7875 40.3399 0.226755
    endloop
  endfacet
  facet normal 0.132788 0.495572 -0.858357
    outer loop
      vertex 17.7875 40.3399 0.226755
      vertex 17.5138 40.0662 0.0263799
      vertex 17.5138 40.2149 0.112255
    endloop
  endfacet
  facet normal 0 0.5 -0.866026
    outer loop
      vertex 0.774192 40.0662 0.0263799
      vertex 0.774192 40.2149 0.112255
      vertex 17.5138 40.0662 0.0263799
    endloop
  endfacet
  facet normal 0 0.5 -0.866026
    outer loop
      vertex 17.5138 40.0662 0.0263799
      vertex 0.774192 40.2149 0.112255
      vertex 17.5138 40.2149 0.112255
    endloop
  endfacet
  facet normal -0.362784 0.362784 -0.858356
    outer loop
      vertex 0.618997 39.9843 0.0263799
      vertex 0.5785 40.0649 0.0775605
      vertex 0.674004 40.0393 0.0263799
    endloop
  endfacet
  facet normal 0 0.5 -0.866026
    outer loop
      vertex 0.774192 40.2149 0.112255
      vertex 0.774192 40.4132 0.226755
      vertex 17.5138 40.2149 0.112255
    endloop
  endfacet
  facet normal 0 0.5 -0.866026
    outer loop
      vertex 17.5138 40.2149 0.112255
      vertex 0.774192 40.4132 0.226755
      vertex 17.5138 40.4132 0.226755
    endloop
  endfacet
  facet normal 0 0.866026 -0.5
    outer loop
      vertex 0.774192 40.4132 0.226755
      vertex 0.774192 40.6136 0.573816
      vertex 17.5138 40.4132 0.226755
    endloop
  endfacet
  facet normal 0 0.866026 -0.5
    outer loop
      vertex 17.5138 40.4132 0.226755
      vertex 0.774192 40.6136 0.573816
      vertex 17.5138 40.6136 0.573816
    endloop
  endfacet
  facet normal 0 1 0
    outer loop
      vertex 0.774192 40.6136 0.573816
      vertex 0.774192 40.6136 9.78938
      vertex 17.5138 40.6136 0.573816
    endloop
  endfacet
  facet normal 0 1 0
    outer loop
      vertex 3.79781 40.6136 9.78938
      vertex 0.774192 40.6136 9.78938
      vertex 0.774192 40.6136 16.6982
    endloop
  endfacet
  facet normal 0 1 0
    outer loop
      vertex 17.5138 40.6136 0.573816
      vertex 0.774192 40.6136 9.78938
      vertex 3.79781 40.6136 9.78938
    endloop
  endfacet
  facet normal 0 1 0
    outer loop
      vertex 17.5138 40.6136 9.78938
      vertex 17.5138 40.6136 0.573816
      vertex 3.79781 40.6136 9.78938
    endloop
  endfacet
  facet normal 0 1 0
    outer loop
      vertex 3.79781 40.6136 9.78938
      vertex 0.774192 40.6136 16.6982
      vertex 3.79781 40.6136 16.6982
    endloop
  endfacet
  facet normal 0 0.866026 0.5
    outer loop
      vertex 0.774192 40.4132 17.0452
      vertex 3.79781 40.4132 17.0452
      vertex 0.774192 40.6136 16.6982
    endloop
  endfacet
  facet normal 0 0.866026 0.5
    outer loop
      vertex 0.774192 40.6136 16.6982
      vertex 3.79781 40.4132 17.0452
      vertex 3.79781 40.6136 16.6982
    endloop
  endfacet
  facet normal 0 0.5 0.866026
    outer loop
      vertex 0.774192 40.4132 17.0452
      vertex 0.774192 40.0662 17.2456
      vertex 3.79781 40.0662 17.2456
    endloop
  endfacet
  facet normal 0 0.5 0.866026
    outer loop
      vertex 3.79781 40.4132 17.0452
      vertex 0.774192 40.4132 17.0452
      vertex 3.79781 40.0662 17.2456
    endloop
  endfacet
  facet normal 0.132788 0.495572 0.858357
    outer loop
      vertex 3.79781 40.4132 17.0452
      vertex 3.79781 40.0662 17.2456
      vertex 4.07153 40.3399 17.0452
    endloop
  endfacet
  facet normal 0.132788 0.495572 0.858357
    outer loop
      vertex 4.07153 40.3399 17.0452
      vertex 3.79781 40.0662 17.2456
      vertex 3.898 40.0393 17.2456
    endloop
  endfacet
  facet normal 0.362784 0.362784 0.858356
    outer loop
      vertex 4.07153 40.3399 17.0452
      vertex 3.898 40.0393 17.2456
      vertex 3.97134 39.966 17.2456
    endloop
  endfacet
  facet normal 0.362784 0.362784 0.858356
    outer loop
      vertex 4.07153 40.3399 17.0452
      vertex 3.97134 39.966 17.2456
      vertex 4.2719 40.1395 17.0452
    endloop
  endfacet
  facet normal 0.495572 0.132788 0.858357
    outer loop
      vertex 4.2719 40.1395 17.0452
      vertex 3.97134 39.966 17.2456
      vertex 3.99818 39.8658 17.2456
    endloop
  endfacet
  facet normal 0.495572 0.132788 0.858357
    outer loop
      vertex 4.2719 40.1395 17.0452
      vertex 3.99818 39.8658 17.2456
      vertex 4.34524 39.8658 17.0452
    endloop
  endfacet
  facet normal 0.5 0 0.866026
    outer loop
      vertex 3.99818 39.8658 17.2456
      vertex 3.99818 0.774192 17.2456
      vertex 4.34524 0.774192 17.0452
    endloop
  endfacet
  facet normal 0.5 0 0.866026
    outer loop
      vertex 4.34524 39.8658 17.0452
      vertex 3.99818 39.8658 17.2456
      vertex 4.34524 0.774192 17.0452
    endloop
  endfacet
  facet normal 0.495572 -0.132788 0.858357
    outer loop
      vertex 4.34524 0.774192 17.0452
      vertex 3.99818 0.774192 17.2456
      vertex 4.2719 0.500474 17.0452
    endloop
  endfacet
  facet normal 0.495572 -0.132788 0.858357
    outer loop
      vertex 3.99818 0.774192 17.2456
      vertex 3.97134 0.674004 17.2456
      vertex 4.2719 0.500474 17.0452
    endloop
  endfacet
  facet normal 0.362784 -0.362784 0.858356
    outer loop
      vertex 4.2719 0.500474 17.0452
      vertex 3.97134 0.674004 17.2456
      vertex 4.07153 0.300098 17.0452
    endloop
  endfacet
  facet normal 0.362784 -0.362784 0.858356
    outer loop
      vertex 3.97134 0.674004 17.2456
      vertex 3.898 0.600662 17.2456
      vertex 4.07153 0.300098 17.0452
    endloop
  endfacet
  facet normal 0.132788 -0.495572 0.858357
    outer loop
      vertex 3.898 0.600662 17.2456
      vertex 3.79781 0.573816 17.2456
      vertex 4.07153 0.300098 17.0452
    endloop
  endfacet
  facet normal 0.132788 -0.495572 0.858357
    outer loop
      vertex 3.79781 0.573816 17.2456
      vertex 3.79781 0.226755 17.0452
      vertex 4.07153 0.300098 17.0452
    endloop
  endfacet
  facet normal 0.226045 -0.84361 0.487058
    outer loop
      vertex 3.79781 0.226755 17.0452
      vertex 3.79781 0.0263799 16.6982
      vertex 4.07153 0.300098 17.0452
    endloop
  endfacet
  facet normal 0.226045 -0.84361 0.487058
    outer loop
      vertex 4.07153 0.300098 17.0452
      vertex 3.79781 0.0263799 16.6982
      vertex 4.17171 0.126568 16.6982
    endloop
  endfacet
  facet normal 0.258819 -0.965926 0
    outer loop
      vertex 3.79781 0.0263799 16.6982
      vertex 3.79781 0.0263799 9.78938
      vertex 4.17171 0.126568 9.96291
    endloop
  endfacet
  facet normal 0.258819 -0.965926 0
    outer loop
      vertex 4.17171 0.126568 16.6982
      vertex 3.79781 0.0263799 16.6982
      vertex 4.17171 0.126568 9.96291
    endloop
  endfacet
  facet normal 0 -0.866026 0.5
    outer loop
      vertex 4.17171 0.126568 9.96291
      vertex 3.79781 0.0263799 9.78938
      vertex 17.5138 0.0263799 9.78938
    endloop
  endfacet
  facet normal 0 -0.866026 0.5
    outer loop
      vertex 4.2719 0.226755 10.1364
      vertex 4.17171 0.126568 9.96291
      vertex 17.5138 0.226755 10.1364
    endloop
  endfacet
  facet normal 0 -0.866026 0.5
    outer loop
      vertex 17.5138 0.226755 10.1364
      vertex 4.17171 0.126568 9.96291
      vertex 17.5138 0.0263799 9.78938
    endloop
  endfacet
  facet normal 0.258819 -0.965926 0
    outer loop
      vertex 17.5138 0.0263799 9.78938
      vertex 17.5138 0.0263799 0.573816
      vertex 17.8877 0.126568 0.573816
    endloop
  endfacet
  facet normal 0.258819 -0.965926 0
    outer loop
      vertex 17.8877 0.126568 9.78938
      vertex 17.5138 0.0263799 9.78938
      vertex 17.8877 0.126568 0.573816
    endloop
  endfacet
  facet normal 0.226045 -0.84361 0.487058
    outer loop
      vertex 17.5138 0.226755 10.1364
      vertex 17.5138 0.0263799 9.78938
      vertex 17.7875 0.300098 10.1364
    endloop
  endfacet
  facet normal 0.226045 -0.84361 0.487058
    outer loop
      vertex 17.7875 0.300098 10.1364
      vertex 17.5138 0.0263799 9.78938
      vertex 17.8877 0.126568 9.78938
    endloop
  endfacet
  facet normal 0.226045 -0.84361 -0.487058
    outer loop
      vertex 17.8877 0.126568 0.573816
      vertex 17.5138 0.0263799 0.573816
      vertex 17.7875 0.300098 0.226755
    endloop
  endfacet
  facet normal 0.226045 -0.84361 -0.487058
    outer loop
      vertex 17.7875 0.300098 0.226755
      vertex 17.5138 0.0263799 0.573816
      vertex 17.5138 0.226755 0.226755
    endloop
  endfacet
  facet normal 0.617566 -0.617566 -0.487058
    outer loop
      vertex 17.8877 0.126568 0.573816
      vertex 17.7875 0.300098 0.226755
      vertex 17.9879 0.500474 0.226755
    endloop
  endfacet
  facet normal 0.617566 -0.617566 -0.487058
    outer loop
      vertex 18.1614 0.400286 0.573816
      vertex 17.8877 0.126568 0.573816
      vertex 17.9879 0.500474 0.226755
    endloop
  endfacet
  facet normal 0.84361 -0.226045 -0.487058
    outer loop
      vertex 18.1614 0.400286 0.573816
      vertex 17.9879 0.500474 0.226755
      vertex 18.2616 0.774192 0.573816
    endloop
  endfacet
  facet normal 0.84361 -0.226045 -0.487058
    outer loop
      vertex 18.2616 0.774192 0.573816
      vertex 17.9879 0.500474 0.226755
      vertex 18.0612 0.774192 0.226755
    endloop
  endfacet
  facet normal 0.866026 0 -0.5
    outer loop
      vertex 18.2616 0.774192 0.573816
      vertex 18.0612 0.774192 0.226755
      vertex 18.0612 39.8658 0.226755
    endloop
  endfacet
  facet normal 0.866026 0 -0.5
    outer loop
      vertex 18.2616 39.8658 0.573816
      vertex 18.2616 0.774192 0.573816
      vertex 18.0612 39.8658 0.226755
    endloop
  endfacet
  facet normal 0.84361 0.226045 -0.487058
    outer loop
      vertex 18.0612 39.8658 0.226755
      vertex 17.9879 40.1395 0.226755
      vertex 18.2616 39.8658 0.573816
    endloop
  endfacet
  facet normal 0.84361 0.226045 -0.487058
    outer loop
      vertex 18.2616 39.8658 0.573816
      vertex 17.9879 40.1395 0.226755
      vertex 18.1614 40.2397 0.573816
    endloop
  endfacet
  facet normal 0.617566 0.617566 -0.487058
    outer loop
      vertex 17.9879 40.1395 0.226755
      vertex 17.8877 40.5134 0.573816
      vertex 18.1614 40.2397 0.573816
    endloop
  endfacet
  facet normal 0.617566 0.617566 -0.487058
    outer loop
      vertex 17.9879 40.1395 0.226755
      vertex 17.7875 40.3399 0.226755
      vertex 17.8877 40.5134 0.573816
    endloop
  endfacet
  facet normal 0.226045 0.84361 -0.487058
    outer loop
      vertex 17.7875 40.3399 0.226755
      vertex 17.5138 40.4132 0.226755
      vertex 17.5138 40.6136 0.573816
    endloop
  endfacet
  facet normal 0.132788 0.495572 -0.858357
    outer loop
      vertex 17.7875 40.3399 0.226755
      vertex 17.5138 40.2149 0.112255
      vertex 17.5138 40.4132 0.226755
    endloop
  endfacet
  facet normal 0.226045 0.84361 -0.487058
    outer loop
      vertex 17.7875 40.3399 0.226755
      vertex 17.5138 40.6136 0.573816
      vertex 17.8877 40.5134 0.573816
    endloop
  endfacet
  facet normal 0.258819 0.965926 0
    outer loop
      vertex 17.5138 40.6136 0.573816
      vertex 17.5138 40.6136 9.78938
      vertex 17.8877 40.5134 0.573816
    endloop
  endfacet
  facet normal 0.258819 0.965926 0
    outer loop
      vertex 17.8877 40.5134 0.573816
      vertex 17.5138 40.6136 9.78938
      vertex 17.8877 40.5134 9.78938
    endloop
  endfacet
  facet normal 0.226045 0.84361 0.487058
    outer loop
      vertex 17.8877 40.5134 9.78938
      vertex 17.5138 40.6136 9.78938
      vertex 17.7875 40.3399 10.1364
    endloop
  endfacet
  facet normal 0.226045 0.84361 0.487058
    outer loop
      vertex 17.5138 40.6136 9.78938
      vertex 17.5138 40.4132 10.1364
      vertex 17.7875 40.3399 10.1364
    endloop
  endfacet
  facet normal 0 0.866026 0.5
    outer loop
      vertex 3.79781 40.6136 9.78938
      vertex 4.17171 40.5134 9.96291
      vertex 17.5138 40.6136 9.78938
    endloop
  endfacet
  facet normal 0 0.866026 0.5
    outer loop
      vertex 17.5138 40.6136 9.78938
      vertex 4.17171 40.5134 9.96291
      vertex 4.2719 40.4132 10.1364
    endloop
  endfacet
  facet normal 0 0.866026 0.5
    outer loop
      vertex 17.5138 40.6136 9.78938
      vertex 4.2719 40.4132 10.1364
      vertex 17.5138 40.4132 10.1364
    endloop
  endfacet
  facet normal 0.258819 0.965926 0
    outer loop
      vertex 3.79781 40.6136 9.78938
      vertex 3.79781 40.6136 16.6982
      vertex 4.17171 40.5134 9.96291
    endloop
  endfacet
  facet normal 0.258819 0.965926 0
    outer loop
      vertex 4.17171 40.5134 9.96291
      vertex 3.79781 40.6136 16.6982
      vertex 4.17171 40.5134 16.6982
    endloop
  endfacet
  facet normal 0.226045 0.84361 0.487058
    outer loop
      vertex 4.17171 40.5134 16.6982
      vertex 3.79781 40.6136 16.6982
      vertex 4.07153 40.3399 17.0452
    endloop
  endfacet
  facet normal 0.226045 0.84361 0.487058
    outer loop
      vertex 3.79781 40.6136 16.6982
      vertex 3.79781 40.4132 17.0452
      vertex 4.07153 40.3399 17.0452
    endloop
  endfacet
  facet normal 0.617566 0.617566 0.487058
    outer loop
      vertex 4.17171 40.5134 16.6982
      vertex 4.07153 40.3399 17.0452
      vertex 4.44543 40.2397 16.6982
    endloop
  endfacet
  facet normal 0.617566 0.617566 0.487058
    outer loop
      vertex 4.44543 40.2397 16.6982
      vertex 4.07153 40.3399 17.0452
      vertex 4.2719 40.1395 17.0452
    endloop
  endfacet
  facet normal 0.84361 0.226045 0.487058
    outer loop
      vertex 4.44543 40.2397 16.6982
      vertex 4.2719 40.1395 17.0452
      vertex 4.54562 39.8658 16.6982
    endloop
  endfacet
  facet normal 0.84361 0.226045 0.487058
    outer loop
      vertex 4.54562 39.8658 16.6982
      vertex 4.2719 40.1395 17.0452
      vertex 4.34524 39.8658 17.0452
    endloop
  endfacet
  facet normal 0.866026 0 0.5
    outer loop
      vertex 4.34524 39.8658 17.0452
      vertex 4.34524 0.774192 17.0452
      vertex 4.54562 0.774192 16.6982
    endloop
  endfacet
  facet normal 0.866026 0 0.5
    outer loop
      vertex 4.54562 39.8658 16.6982
      vertex 4.34524 39.8658 17.0452
      vertex 4.54562 0.774192 16.6982
    endloop
  endfacet
  facet normal 0.84361 -0.226045 0.487058
    outer loop
      vertex 4.34524 0.774192 17.0452
      vertex 4.2719 0.500474 17.0452
      vertex 4.54562 0.774192 16.6982
    endloop
  endfacet
  facet normal 0.84361 -0.226045 0.487058
    outer loop
      vertex 4.54562 0.774192 16.6982
      vertex 4.2719 0.500474 17.0452
      vertex 4.44543 0.400286 16.6982
    endloop
  endfacet
  facet normal 0.617566 -0.617566 0.487058
    outer loop
      vertex 4.2719 0.500474 17.0452
      vertex 4.07153 0.300098 17.0452
      vertex 4.44543 0.400286 16.6982
    endloop
  endfacet
  facet normal 0.617566 -0.617566 0.487058
    outer loop
      vertex 4.44543 0.400286 16.6982
      vertex 4.07153 0.300098 17.0452
      vertex 4.17171 0.126568 16.6982
    endloop
  endfacet
  facet normal 0.707107 -0.707107 0
    outer loop
      vertex 4.17171 0.126568 16.6982
      vertex 4.17171 0.126568 9.96291
      vertex 4.2719 0.226755 10.1364
    endloop
  endfacet
  facet normal 0.707107 -0.707107 0
    outer loop
      vertex 4.44543 0.400286 10.2366
      vertex 4.17171 0.126568 16.6982
      vertex 4.2719 0.226755 10.1364
    endloop
  endfacet
  facet normal 0.707107 -0.707107 0
    outer loop
      vertex 4.44543 0.400286 10.2366
      vertex 4.44543 0.400286 16.6982
      vertex 4.17171 0.126568 16.6982
    endloop
  endfacet
  facet normal 0 -0.5 0.866026
    outer loop
      vertex 4.44543 0.400286 10.2366
      vertex 4.2719 0.226755 10.1364
      vertex 17.5138 0.226755 10.1364
    endloop
  endfacet
  facet normal 0 -0.5 0.866026
    outer loop
      vertex 4.49193 0.573816 10.3368
      vertex 4.44543 0.400286 10.2366
      vertex 17.5138 0.573816 10.3368
    endloop
  endfacet
  facet normal 0 -0.5 0.866026
    outer loop
      vertex 17.5138 0.573816 10.3368
      vertex 4.44543 0.400286 10.2366
      vertex 17.5138 0.226755 10.1364
    endloop
  endfacet
  facet normal 0.132788 -0.495572 0.858357
    outer loop
      vertex 17.5138 0.573816 10.3368
      vertex 17.5138 0.226755 10.1364
      vertex 17.7875 0.300098 10.1364
    endloop
  endfacet
  facet normal 0.617566 -0.617566 0.487058
    outer loop
      vertex 17.9879 0.500474 10.1364
      vertex 17.8877 0.126568 9.78938
      vertex 18.1614 0.400286 9.78938
    endloop
  endfacet
  facet normal 0.707107 -0.707107 0
    outer loop
      vertex 17.8877 0.126568 9.78938
      vertex 17.8877 0.126568 0.573816
      vertex 18.1614 0.400286 0.573816
    endloop
  endfacet
  facet normal 0.707107 -0.707107 0
    outer loop
      vertex 18.1614 0.400286 9.78938
      vertex 17.8877 0.126568 9.78938
      vertex 18.1614 0.400286 0.573816
    endloop
  endfacet
  facet normal 0.617566 -0.617566 0.487058
    outer loop
      vertex 17.9879 0.500474 10.1364
      vertex 17.7875 0.300098 10.1364
      vertex 17.8877 0.126568 9.78938
    endloop
  endfacet
  facet normal 0.132788 -0.495572 0.858357
    outer loop
      vertex 17.614 0.600662 10.3368
      vertex 17.5138 0.573816 10.3368
      vertex 17.7875 0.300098 10.1364
    endloop
  endfacet
  facet normal 0.362784 -0.362784 0.858356
    outer loop
      vertex 17.9879 0.500474 10.1364
      vertex 17.614 0.600662 10.3368
      vertex 17.7875 0.300098 10.1364
    endloop
  endfacet
  facet normal 0.965926 -0.258819 0
    outer loop
      vertex 18.1614 0.400286 9.78938
      vertex 18.1614 0.400286 0.573816
      vertex 18.2616 0.774192 0.573816
    endloop
  endfacet
  facet normal 0.965926 -0.258819 0
    outer loop
      vertex 18.2616 0.774192 9.78938
      vertex 18.1614 0.400286 9.78938
      vertex 18.2616 0.774192 0.573816
    endloop
  endfacet
  facet normal 1 0 0
    outer loop
      vertex 18.2616 3.79781 6.33498
      vertex 18.2616 0.774192 0.573816
      vertex 18.2616 39.8658 0.573816
    endloop
  endfacet
  facet normal 1 0 0
    outer loop
      vertex 18.2616 3.79781 6.33498
      vertex 18.2616 3.79781 9.78938
      vertex 18.2616 0.774192 9.78938
    endloop
  endfacet
  facet normal 1 0 0
    outer loop
      vertex 18.2616 39.8658 9.78938
      vertex 18.2616 36.8422 9.78938
      vertex 18.2616 39.8658 0.573816
    endloop
  endfacet
  facet normal 1 0 0
    outer loop
      vertex 18.2616 36.8422 9.78938
      vertex 18.2616 36.8422 6.33498
      vertex 18.2616 39.8658 0.573816
    endloop
  endfacet
  facet normal 1 0 0
    outer loop
      vertex 18.2616 0.774192 9.78938
      vertex 18.2616 0.774192 0.573816
      vertex 18.2616 3.79781 6.33498
    endloop
  endfacet
  facet normal 1 0 0
    outer loop
      vertex 18.2616 36.8422 6.33498
      vertex 18.2616 3.79781 6.33498
      vertex 18.2616 39.8658 0.573816
    endloop
  endfacet
  facet normal 0.965926 0.258819 0
    outer loop
      vertex 18.2616 39.8658 0.573816
      vertex 18.1614 40.2397 0.573816
      vertex 18.1614 40.2397 9.78938
    endloop
  endfacet
  facet normal 0.965926 0.258819 0
    outer loop
      vertex 18.2616 39.8658 9.78938
      vertex 18.2616 39.8658 0.573816
      vertex 18.1614 40.2397 9.78938
    endloop
  endfacet
  facet normal 0.707107 0.707107 0
    outer loop
      vertex 18.1614 40.2397 0.573816
      vertex 17.8877 40.5134 0.573816
      vertex 17.8877 40.5134 9.78938
    endloop
  endfacet
  facet normal 0.707107 0.707107 0
    outer loop
      vertex 18.1614 40.2397 9.78938
      vertex 18.1614 40.2397 0.573816
      vertex 17.8877 40.5134 9.78938
    endloop
  endfacet
  facet normal 0.617566 0.617566 0.487058
    outer loop
      vertex 18.1614 40.2397 9.78938
      vertex 17.8877 40.5134 9.78938
      vertex 17.9879 40.1395 10.1364
    endloop
  endfacet
  facet normal 0.617566 0.617566 0.487058
    outer loop
      vertex 17.8877 40.5134 9.78938
      vertex 17.7875 40.3399 10.1364
      vertex 17.9879 40.1395 10.1364
    endloop
  endfacet
  facet normal 0.362784 0.362784 0.858356
    outer loop
      vertex 17.7875 40.3399 10.1364
      vertex 17.614 40.0393 10.3368
      vertex 17.9879 40.1395 10.1364
    endloop
  endfacet
  facet normal 0.132788 0.495572 0.858357
    outer loop
      vertex 17.7875 40.3399 10.1364
      vertex 17.5138 40.0662 10.3368
      vertex 17.614 40.0393 10.3368
    endloop
  endfacet
  facet normal 0.132788 0.495572 0.858357
    outer loop
      vertex 17.5138 40.4132 10.1364
      vertex 17.5138 40.0662 10.3368
      vertex 17.7875 40.3399 10.1364
    endloop
  endfacet
  facet normal 0 0.5 0.866026
    outer loop
      vertex 17.5138 40.4132 10.1364
      vertex 4.2719 40.4132 10.1364
      vertex 4.44543 40.2397 10.2366
    endloop
  endfacet
  facet normal 0 0.5 0.866026
    outer loop
      vertex 4.49193 40.0662 10.3368
      vertex 17.5138 40.4132 10.1364
      vertex 4.44543 40.2397 10.2366
    endloop
  endfacet
  facet normal 0 0.5 0.866026
    outer loop
      vertex 4.49193 40.0662 10.3368
      vertex 17.5138 40.0662 10.3368
      vertex 17.5138 40.4132 10.1364
    endloop
  endfacet
  facet normal 0.707107 0.707107 0
    outer loop
      vertex 4.17171 40.5134 9.96291
      vertex 4.17171 40.5134 16.6982
      vertex 4.2719 40.4132 10.1364
    endloop
  endfacet
  facet normal 0.707107 0.707107 0
    outer loop
      vertex 4.2719 40.4132 10.1364
      vertex 4.17171 40.5134 16.6982
      vertex 4.44543 40.2397 16.6982
    endloop
  endfacet
  facet normal 0.707107 0.707107 0
    outer loop
      vertex 4.2719 40.4132 10.1364
      vertex 4.44543 40.2397 16.6982
      vertex 4.44543 40.2397 10.2366
    endloop
  endfacet
  facet normal 0.965926 0.258819 0
    outer loop
      vertex 4.49193 40.0662 10.3368
      vertex 4.44543 40.2397 10.2366
      vertex 4.44543 40.2397 16.6982
    endloop
  endfacet
  facet normal 0.965926 0.258819 0
    outer loop
      vertex 4.54562 39.8658 10.3368
      vertex 4.49193 40.0662 10.3368
      vertex 4.54562 39.8658 16.6982
    endloop
  endfacet
  facet normal 0.965926 0.258819 0
    outer loop
      vertex 4.54562 39.8658 16.6982
      vertex 4.49193 40.0662 10.3368
      vertex 4.44543 40.2397 16.6982
    endloop
  endfacet
  facet normal 1 0 0
    outer loop
      vertex 4.54562 4.54562 9.78938
      vertex 4.54562 36.0944 6.88242
      vertex 4.54562 0.774192 16.6982
    endloop
  endfacet
  facet normal 1 0 0
    outer loop
      vertex 4.54562 0.774192 16.6982
      vertex 4.54562 0.774192 10.3368
      vertex 4.54562 3.99818 10.3368
    endloop
  endfacet
  facet normal 1 0 0
    outer loop
      vertex 4.54562 36.0944 9.78938
      vertex 4.54562 36.2948 10.1364
      vertex 4.54562 0.774192 16.6982
    endloop
  endfacet
  facet normal 1 0 0
    outer loop
      vertex 4.54562 4.34524 10.1364
      vertex 4.54562 0.774192 16.6982
      vertex 4.54562 3.99818 10.3368
    endloop
  endfacet
  facet normal 1 0 0
    outer loop
      vertex 4.54562 4.34524 10.1364
      vertex 4.54562 4.54562 9.78938
      vertex 4.54562 0.774192 16.6982
    endloop
  endfacet
  facet normal 1 0 0
    outer loop
      vertex 4.54562 4.54562 6.88242
      vertex 4.54562 36.0944 6.88242
      vertex 4.54562 4.54562 9.78938
    endloop
  endfacet
  facet normal 1 0 0
    outer loop
      vertex 4.54562 36.0944 6.88242
      vertex 4.54562 36.0944 9.78938
      vertex 4.54562 0.774192 16.6982
    endloop
  endfacet
  facet normal 1 0 0
    outer loop
      vertex 4.54562 36.2948 10.1364
      vertex 4.54562 36.6418 10.3368
      vertex 4.54562 0.774192 16.6982
    endloop
  endfacet
  facet normal 1 0 0
    outer loop
      vertex 4.54562 36.6418 10.3368
      vertex 4.54562 39.8658 10.3368
      vertex 4.54562 0.774192 16.6982
    endloop
  endfacet
  facet normal 1 0 0
    outer loop
      vertex 4.54562 39.8658 10.3368
      vertex 4.54562 39.8658 16.6982
      vertex 4.54562 0.774192 16.6982
    endloop
  endfacet
  facet normal 0.965926 -0.258819 0
    outer loop
      vertex 4.44543 0.400286 16.6982
      vertex 4.44543 0.400286 10.2366
      vertex 4.49193 0.573816 10.3368
    endloop
  endfacet
  facet normal 0.965926 -0.258819 0
    outer loop
      vertex 4.54562 0.774192 10.3368
      vertex 4.44543 0.400286 16.6982
      vertex 4.49193 0.573816 10.3368
    endloop
  endfacet
  facet normal 0.965926 -0.258819 0
    outer loop
      vertex 4.54562 0.774192 10.3368
      vertex 4.54562 0.774192 16.6982
      vertex 4.44543 0.400286 16.6982
    endloop
  endfacet
  facet normal 0 0 1
    outer loop
      vertex 4.54562 0.774192 10.3368
      vertex 4.49193 0.573816 10.3368
      vertex 17.5138 0.573816 10.3368
    endloop
  endfacet
  facet normal 0 0 1
    outer loop
      vertex 17.6873 0.674004 10.3368
      vertex 4.54562 0.774192 10.3368
      vertex 17.614 0.600662 10.3368
    endloop
  endfacet
  facet normal 0 0 1
    outer loop
      vertex 17.614 0.600662 10.3368
      vertex 4.54562 0.774192 10.3368
      vertex 17.5138 0.573816 10.3368
    endloop
  endfacet
  facet normal 0 0 1
    outer loop
      vertex 17.7142 0.774192 10.3368
      vertex 4.54562 0.774192 10.3368
      vertex 17.6873 0.674004 10.3368
    endloop
  endfacet
  facet normal 0 0 1
    outer loop
      vertex 17.7142 3.79781 10.3368
      vertex 4.54562 0.774192 10.3368
      vertex 17.7142 0.774192 10.3368
    endloop
  endfacet
  facet normal 0 0 1
    outer loop
      vertex 17.6873 3.898 10.3368
      vertex 4.54562 0.774192 10.3368
      vertex 17.7142 3.79781 10.3368
    endloop
  endfacet
  facet normal 0 0 1
    outer loop
      vertex 17.614 3.97134 10.3368
      vertex 4.54562 0.774192 10.3368
      vertex 17.6873 3.898 10.3368
    endloop
  endfacet
  facet normal 0 0 1
    outer loop
      vertex 17.5138 3.99818 10.3368
      vertex 4.54562 0.774192 10.3368
      vertex 17.614 3.97134 10.3368
    endloop
  endfacet
  facet normal 0 0 1
    outer loop
      vertex 4.54562 3.99818 10.3368
      vertex 4.54562 0.774192 10.3368
      vertex 17.5138 3.99818 10.3368
    endloop
  endfacet
  facet normal 0.362784 -0.362784 0.858356
    outer loop
      vertex 17.6873 0.674004 10.3368
      vertex 17.614 0.600662 10.3368
      vertex 17.9879 0.500474 10.1364
    endloop
  endfacet
  facet normal 0.495572 -0.132788 0.858357
    outer loop
      vertex 17.7142 0.774192 10.3368
      vertex 17.6873 0.674004 10.3368
      vertex 17.9879 0.500474 10.1364
    endloop
  endfacet
  facet normal 0.495572 -0.132788 0.858357
    outer loop
      vertex 18.0612 0.774192 10.1364
      vertex 17.7142 0.774192 10.3368
      vertex 17.9879 0.500474 10.1364
    endloop
  endfacet
  facet normal 0.84361 -0.226045 0.487058
    outer loop
      vertex 18.0612 0.774192 10.1364
      vertex 17.9879 0.500474 10.1364
      vertex 18.2616 0.774192 9.78938
    endloop
  endfacet
  facet normal 0.84361 -0.226045 0.487058
    outer loop
      vertex 18.2616 0.774192 9.78938
      vertex 17.9879 0.500474 10.1364
      vertex 18.1614 0.400286 9.78938
    endloop
  endfacet
  facet normal 0.866026 0 0.5
    outer loop
      vertex 18.0612 3.79781 10.1364
      vertex 18.0612 0.774192 10.1364
      vertex 18.2616 0.774192 9.78938
    endloop
  endfacet
  facet normal 0.866026 0 0.5
    outer loop
      vertex 18.2616 3.79781 9.78938
      vertex 18.0612 3.79781 10.1364
      vertex 18.2616 0.774192 9.78938
    endloop
  endfacet
  facet normal 0.965926 0.258819 0
    outer loop
      vertex 18.2616 3.79781 6.33498
      vertex 18.1614 4.17171 6.50851
      vertex 18.1614 4.17171 9.78938
    endloop
  endfacet
  facet normal 0.965926 0.258819 0
    outer loop
      vertex 18.2616 3.79781 9.78938
      vertex 18.2616 3.79781 6.33498
      vertex 18.1614 4.17171 9.78938
    endloop
  endfacet
  facet normal 0.84361 0.226045 0.487058
    outer loop
      vertex 18.2616 3.79781 9.78938
      vertex 17.9879 4.07153 10.1364
      vertex 18.0612 3.79781 10.1364
    endloop
  endfacet
  facet normal 0.84361 0.226045 0.487058
    outer loop
      vertex 18.1614 4.17171 9.78938
      vertex 17.9879 4.07153 10.1364
      vertex 18.2616 3.79781 9.78938
    endloop
  endfacet
  facet normal 0.866026 0 0.5
    outer loop
      vertex 18.0612 36.3681 6.68204
      vertex 18.0612 4.2719 6.68204
      vertex 18.1614 4.17171 6.50851
    endloop
  endfacet
  facet normal 0.866026 0 0.5
    outer loop
      vertex 18.2616 3.79781 6.33498
      vertex 18.0612 36.3681 6.68204
      vertex 18.1614 4.17171 6.50851
    endloop
  endfacet
  facet normal 0.866026 0 0.5
    outer loop
      vertex 18.2616 3.79781 6.33498
      vertex 18.1614 36.4683 6.50851
      vertex 18.0612 36.3681 6.68204
    endloop
  endfacet
  facet normal 0.866026 0 0.5
    outer loop
      vertex 18.2616 3.79781 6.33498
      vertex 18.2616 36.8422 6.33498
      vertex 18.1614 36.4683 6.50851
    endloop
  endfacet
  facet normal 0.965926 -0.258819 0
    outer loop
      vertex 18.1614 36.4683 9.78938
      vertex 18.1614 36.4683 6.50851
      vertex 18.2616 36.8422 6.33498
    endloop
  endfacet
  facet normal 0.965926 -0.258819 0
    outer loop
      vertex 18.2616 36.8422 9.78938
      vertex 18.1614 36.4683 9.78938
      vertex 18.2616 36.8422 6.33498
    endloop
  endfacet
  facet normal 0.84361 -0.226045 0.487058
    outer loop
      vertex 18.0612 36.8422 10.1364
      vertex 17.9879 36.5685 10.1364
      vertex 18.2616 36.8422 9.78938
    endloop
  endfacet
  facet normal 0.866026 0 0.5
    outer loop
      vertex 18.0612 39.8658 10.1364
      vertex 18.0612 36.8422 10.1364
      vertex 18.2616 36.8422 9.78938
    endloop
  endfacet
  facet normal 0.866026 0 0.5
    outer loop
      vertex 18.2616 39.8658 9.78938
      vertex 18.0612 39.8658 10.1364
      vertex 18.2616 36.8422 9.78938
    endloop
  endfacet
  facet normal 0.84361 -0.226045 0.487058
    outer loop
      vertex 18.2616 36.8422 9.78938
      vertex 17.9879 36.5685 10.1364
      vertex 18.1614 36.4683 9.78938
    endloop
  endfacet
  facet normal 0.84361 0.226045 0.487058
    outer loop
      vertex 18.2616 39.8658 9.78938
      vertex 17.9879 40.1395 10.1364
      vertex 18.0612 39.8658 10.1364
    endloop
  endfacet
  facet normal 0.84361 0.226045 0.487058
    outer loop
      vertex 18.1614 40.2397 9.78938
      vertex 17.9879 40.1395 10.1364
      vertex 18.2616 39.8658 9.78938
    endloop
  endfacet
  facet normal 0.495572 0.132788 0.858357
    outer loop
      vertex 17.9879 40.1395 10.1364
      vertex 17.7142 39.8658 10.3368
      vertex 18.0612 39.8658 10.1364
    endloop
  endfacet
  facet normal 0.495572 0.132788 0.858357
    outer loop
      vertex 17.9879 40.1395 10.1364
      vertex 17.6873 39.966 10.3368
      vertex 17.7142 39.8658 10.3368
    endloop
  endfacet
  facet normal 0.362784 0.362784 0.858356
    outer loop
      vertex 17.9879 40.1395 10.1364
      vertex 17.614 40.0393 10.3368
      vertex 17.6873 39.966 10.3368
    endloop
  endfacet
  facet normal 0 0 1
    outer loop
      vertex 17.5138 40.0662 10.3368
      vertex 4.49193 40.0662 10.3368
      vertex 4.54562 39.8658 10.3368
    endloop
  endfacet
  facet normal 0 0 1
    outer loop
      vertex 4.54562 36.6418 10.3368
      vertex 17.5138 40.0662 10.3368
      vertex 4.54562 39.8658 10.3368
    endloop
  endfacet
  facet normal 0 0 1
    outer loop
      vertex 4.54562 36.6418 10.3368
      vertex 17.5138 36.6418 10.3368
      vertex 17.5138 40.0662 10.3368
    endloop
  endfacet
  facet normal 0 0 1
    outer loop
      vertex 17.5138 36.6418 10.3368
      vertex 17.614 36.6687 10.3368
      vertex 17.5138 40.0662 10.3368
    endloop
  endfacet
  facet normal 0 0 1
    outer loop
      vertex 17.614 36.6687 10.3368
      vertex 17.6873 36.742 10.3368
      vertex 17.5138 40.0662 10.3368
    endloop
  endfacet
  facet normal 0 0 1
    outer loop
      vertex 17.6873 36.742 10.3368
      vertex 17.7142 36.8422 10.3368
      vertex 17.5138 40.0662 10.3368
    endloop
  endfacet
  facet normal 0 0 1
    outer loop
      vertex 17.7142 36.8422 10.3368
      vertex 17.7142 39.8658 10.3368
      vertex 17.5138 40.0662 10.3368
    endloop
  endfacet
  facet normal 0 0 1
    outer loop
      vertex 17.7142 39.8658 10.3368
      vertex 17.6873 39.966 10.3368
      vertex 17.5138 40.0662 10.3368
    endloop
  endfacet
  facet normal 0 0 1
    outer loop
      vertex 17.6873 39.966 10.3368
      vertex 17.614 40.0393 10.3368
      vertex 17.5138 40.0662 10.3368
    endloop
  endfacet
  facet normal 0 -0.5 0.866026
    outer loop
      vertex 4.54562 36.6418 10.3368
      vertex 4.54562 36.2948 10.1364
      vertex 17.5138 36.2948 10.1364
    endloop
  endfacet
  facet normal 0 -0.5 0.866026
    outer loop
      vertex 17.5138 36.6418 10.3368
      vertex 4.54562 36.6418 10.3368
      vertex 17.5138 36.2948 10.1364
    endloop
  endfacet
  facet normal 0 -0.866026 0.5
    outer loop
      vertex 4.54562 36.2948 10.1364
      vertex 4.54562 36.0944 9.78938
      vertex 17.5138 36.0944 9.78938
    endloop
  endfacet
  facet normal 0 -0.866026 0.5
    outer loop
      vertex 17.5138 36.2948 10.1364
      vertex 4.54562 36.2948 10.1364
      vertex 17.5138 36.0944 9.78938
    endloop
  endfacet
  facet normal 0 -1 0
    outer loop
      vertex 4.54562 36.0944 9.78938
      vertex 4.54562 36.0944 6.88242
      vertex 17.5138 36.0944 6.88242
    endloop
  endfacet
  facet normal 0 -1 0
    outer loop
      vertex 17.5138 36.0944 9.78938
      vertex 4.54562 36.0944 9.78938
      vertex 17.5138 36.0944 6.88242
    endloop
  endfacet
  facet normal 0 0 1
    outer loop
      vertex 4.54562 36.0944 6.88242
      vertex 4.54562 4.54562 6.88242
      vertex 17.5138 4.54562 6.88242
    endloop
  endfacet
  facet normal 0 0 1
    outer loop
      vertex 17.7142 4.49193 6.88242
      vertex 4.54562 36.0944 6.88242
      vertex 17.5138 4.54562 6.88242
    endloop
  endfacet
  facet normal 0 0 1
    outer loop
      vertex 17.7142 4.49193 6.88242
      vertex 17.5138 36.0944 6.88242
      vertex 4.54562 36.0944 6.88242
    endloop
  endfacet
  facet normal 0 0 1
    outer loop
      vertex 17.7142 4.49193 6.88242
      vertex 17.7142 36.1481 6.88242
      vertex 17.5138 36.0944 6.88242
    endloop
  endfacet
  facet normal 0 1 0
    outer loop
      vertex 4.54562 4.54562 6.88242
      vertex 4.54562 4.54562 9.78938
      vertex 17.5138 4.54562 6.88242
    endloop
  endfacet
  facet normal 0 1 0
    outer loop
      vertex 17.5138 4.54562 6.88242
      vertex 4.54562 4.54562 9.78938
      vertex 17.5138 4.54562 9.78938
    endloop
  endfacet
  facet normal 0 0.866026 0.5
    outer loop
      vertex 4.54562 4.34524 10.1364
      vertex 17.5138 4.34524 10.1364
      vertex 4.54562 4.54562 9.78938
    endloop
  endfacet
  facet normal 0 0.866026 0.5
    outer loop
      vertex 4.54562 4.54562 9.78938
      vertex 17.5138 4.34524 10.1364
      vertex 17.5138 4.54562 9.78938
    endloop
  endfacet
  facet normal 0 0.5 0.866026
    outer loop
      vertex 4.54562 4.34524 10.1364
      vertex 4.54562 3.99818 10.3368
      vertex 17.5138 3.99818 10.3368
    endloop
  endfacet
  facet normal 0 0.5 0.866026
    outer loop
      vertex 17.5138 4.34524 10.1364
      vertex 4.54562 4.34524 10.1364
      vertex 17.5138 3.99818 10.3368
    endloop
  endfacet
  facet normal 0.132788 0.495572 0.858357
    outer loop
      vertex 17.7875 4.2719 10.1364
      vertex 17.5138 3.99818 10.3368
      vertex 17.614 3.97134 10.3368
    endloop
  endfacet
  facet normal 0.132788 0.495572 0.858357
    outer loop
      vertex 17.5138 4.34524 10.1364
      vertex 17.5138 3.99818 10.3368
      vertex 17.7875 4.2719 10.1364
    endloop
  endfacet
  facet normal 0.362784 0.362784 0.858356
    outer loop
      vertex 17.7875 4.2719 10.1364
      vertex 17.614 3.97134 10.3368
      vertex 17.9879 4.07153 10.1364
    endloop
  endfacet
  facet normal 0.362784 0.362784 0.858356
    outer loop
      vertex 17.9879 4.07153 10.1364
      vertex 17.614 3.97134 10.3368
      vertex 17.6873 3.898 10.3368
    endloop
  endfacet
  facet normal 0.495572 0.132788 0.858357
    outer loop
      vertex 17.9879 4.07153 10.1364
      vertex 17.6873 3.898 10.3368
      vertex 17.7142 3.79781 10.3368
    endloop
  endfacet
  facet normal 0.495572 0.132788 0.858357
    outer loop
      vertex 17.9879 4.07153 10.1364
      vertex 17.7142 3.79781 10.3368
      vertex 18.0612 3.79781 10.1364
    endloop
  endfacet
  facet normal 0.5 0 0.866026
    outer loop
      vertex 17.7142 3.79781 10.3368
      vertex 17.7142 0.774192 10.3368
      vertex 18.0612 0.774192 10.1364
    endloop
  endfacet
  facet normal 0.5 0 0.866026
    outer loop
      vertex 18.0612 3.79781 10.1364
      vertex 17.7142 3.79781 10.3368
      vertex 18.0612 0.774192 10.1364
    endloop
  endfacet
  facet normal 0.617566 0.617566 0.487058
    outer loop
      vertex 18.1614 4.17171 9.78938
      vertex 17.8877 4.44543 9.78938
      vertex 17.9879 4.07153 10.1364
    endloop
  endfacet
  facet normal 0.707107 0.707107 0
    outer loop
      vertex 18.0612 4.2719 6.68204
      vertex 17.8877 4.44543 6.78223
      vertex 17.8877 4.44543 9.78938
    endloop
  endfacet
  facet normal 0.707107 0.707107 0
    outer loop
      vertex 18.1614 4.17171 6.50851
      vertex 18.0612 4.2719 6.68204
      vertex 18.1614 4.17171 9.78938
    endloop
  endfacet
  facet normal 0.707107 0.707107 0
    outer loop
      vertex 18.1614 4.17171 9.78938
      vertex 18.0612 4.2719 6.68204
      vertex 17.8877 4.44543 9.78938
    endloop
  endfacet
  facet normal 0.617566 0.617566 0.487058
    outer loop
      vertex 17.8877 4.44543 9.78938
      vertex 17.7875 4.2719 10.1364
      vertex 17.9879 4.07153 10.1364
    endloop
  endfacet
  facet normal 0.5 0 0.866026
    outer loop
      vertex 17.7142 36.1481 6.88242
      vertex 17.7142 4.49193 6.88242
      vertex 17.8877 4.44543 6.78223
    endloop
  endfacet
  facet normal 0.5 0 0.866026
    outer loop
      vertex 18.0612 4.2719 6.68204
      vertex 17.7142 36.1481 6.88242
      vertex 17.8877 4.44543 6.78223
    endloop
  endfacet
  facet normal 0.5 0 0.866026
    outer loop
      vertex 18.0612 4.2719 6.68204
      vertex 17.8877 36.1946 6.78223
      vertex 17.7142 36.1481 6.88242
    endloop
  endfacet
  facet normal 0.5 0 0.866026
    outer loop
      vertex 18.0612 4.2719 6.68204
      vertex 18.0612 36.3681 6.68204
      vertex 17.8877 36.1946 6.78223
    endloop
  endfacet
  facet normal 0.707107 -0.707107 0
    outer loop
      vertex 17.8877 36.1946 9.78938
      vertex 17.8877 36.1946 6.78223
      vertex 18.0612 36.3681 6.68204
    endloop
  endfacet
  facet normal 0.707107 -0.707107 0
    outer loop
      vertex 18.1614 36.4683 6.50851
      vertex 17.8877 36.1946 9.78938
      vertex 18.0612 36.3681 6.68204
    endloop
  endfacet
  facet normal 0.707107 -0.707107 0
    outer loop
      vertex 18.1614 36.4683 6.50851
      vertex 18.1614 36.4683 9.78938
      vertex 17.8877 36.1946 9.78938
    endloop
  endfacet
  facet normal 0.617566 -0.617566 0.487058
    outer loop
      vertex 17.9879 36.5685 10.1364
      vertex 17.8877 36.1946 9.78938
      vertex 18.1614 36.4683 9.78938
    endloop
  endfacet
  facet normal 0.495572 -0.132788 0.858357
    outer loop
      vertex 18.0612 36.8422 10.1364
      vertex 17.7142 36.8422 10.3368
      vertex 17.9879 36.5685 10.1364
    endloop
  endfacet
  facet normal 0.5 0 0.866026
    outer loop
      vertex 17.7142 39.8658 10.3368
      vertex 17.7142 36.8422 10.3368
      vertex 18.0612 36.8422 10.1364
    endloop
  endfacet
  facet normal 0.5 0 0.866026
    outer loop
      vertex 18.0612 39.8658 10.1364
      vertex 17.7142 39.8658 10.3368
      vertex 18.0612 36.8422 10.1364
    endloop
  endfacet
  facet normal 0.617566 -0.617566 0.487058
    outer loop
      vertex 17.9879 36.5685 10.1364
      vertex 17.7875 36.3681 10.1364
      vertex 17.8877 36.1946 9.78938
    endloop
  endfacet
  facet normal 0.362784 -0.362784 0.858356
    outer loop
      vertex 17.9879 36.5685 10.1364
      vertex 17.614 36.6687 10.3368
      vertex 17.7875 36.3681 10.1364
    endloop
  endfacet
  facet normal 0.362784 -0.362784 0.858356
    outer loop
      vertex 17.6873 36.742 10.3368
      vertex 17.614 36.6687 10.3368
      vertex 17.9879 36.5685 10.1364
    endloop
  endfacet
  facet normal 0.495572 -0.132788 0.858357
    outer loop
      vertex 17.7142 36.8422 10.3368
      vertex 17.6873 36.742 10.3368
      vertex 17.9879 36.5685 10.1364
    endloop
  endfacet
  facet normal 0.132788 -0.495572 0.858357
    outer loop
      vertex 17.614 36.6687 10.3368
      vertex 17.5138 36.6418 10.3368
      vertex 17.7875 36.3681 10.1364
    endloop
  endfacet
  facet normal 0.132788 -0.495572 0.858357
    outer loop
      vertex 17.5138 36.6418 10.3368
      vertex 17.5138 36.2948 10.1364
      vertex 17.7875 36.3681 10.1364
    endloop
  endfacet
  facet normal 0.226045 -0.84361 0.487058
    outer loop
      vertex 17.5138 36.2948 10.1364
      vertex 17.5138 36.0944 9.78938
      vertex 17.7875 36.3681 10.1364
    endloop
  endfacet
  facet normal 0.258819 -0.965926 0
    outer loop
      vertex 17.5138 36.0944 9.78938
      vertex 17.5138 36.0944 6.88242
      vertex 17.7142 36.1481 6.88242
    endloop
  endfacet
  facet normal 0.258819 -0.965926 0
    outer loop
      vertex 17.8877 36.1946 6.78223
      vertex 17.5138 36.0944 9.78938
      vertex 17.7142 36.1481 6.88242
    endloop
  endfacet
  facet normal 0.258819 -0.965926 0
    outer loop
      vertex 17.8877 36.1946 6.78223
      vertex 17.8877 36.1946 9.78938
      vertex 17.5138 36.0944 9.78938
    endloop
  endfacet
  facet normal 0.226045 -0.84361 0.487058
    outer loop
      vertex 17.7875 36.3681 10.1364
      vertex 17.5138 36.0944 9.78938
      vertex 17.8877 36.1946 9.78938
    endloop
  endfacet
  facet normal 0.258819 0.965926 0
    outer loop
      vertex 17.5138 4.54562 6.88242
      vertex 17.5138 4.54562 9.78938
      vertex 17.7142 4.49193 6.88242
    endloop
  endfacet
  facet normal 0.258819 0.965926 0
    outer loop
      vertex 17.7142 4.49193 6.88242
      vertex 17.5138 4.54562 9.78938
      vertex 17.8877 4.44543 9.78938
    endloop
  endfacet
  facet normal 0.258819 0.965926 0
    outer loop
      vertex 17.7142 4.49193 6.88242
      vertex 17.8877 4.44543 9.78938
      vertex 17.8877 4.44543 6.78223
    endloop
  endfacet
  facet normal 0.226045 0.84361 0.487058
    outer loop
      vertex 17.8877 4.44543 9.78938
      vertex 17.5138 4.54562 9.78938
      vertex 17.7875 4.2719 10.1364
    endloop
  endfacet
  facet normal 0.226045 0.84361 0.487058
    outer loop
      vertex 17.5138 4.54562 9.78938
      vertex 17.5138 4.34524 10.1364
      vertex 17.7875 4.2719 10.1364
    endloop
  endfacet
endsolid OpenSCAD_Model
