solid OpenSCAD_Model
  facet normal -1 0 0
    outer loop
      vertex 0.0263799 0.774192 0.573816
      vertex 0.0263799 0.774192 16.6982
      vertex 0.0263799 17.0058 0.573816
    endloop
  endfacet
  facet normal -1 0 0
    outer loop
      vertex 0.0263799 17.0058 9.78938
      vertex 0.0263799 0.774192 16.6982
      vertex 0.0263799 17.0058 16.6982
    endloop
  endfacet
  facet normal -1 0 0
    outer loop
      vertex 0.0263799 17.0058 0.573816
      vertex 0.0263799 0.774192 16.6982
      vertex 0.0263799 17.0058 9.78938
    endloop
  endfacet
  facet normal -0.965926 -0.258819 0
    outer loop
      vertex 0.0263799 0.774192 0.573816
      vertex 0.126568 0.400286 0.573816
      vertex 0.0263799 0.774192 16.6982
    endloop
  endfacet
  facet normal -0.965926 -0.258819 0
    outer loop
      vertex 0.0263799 0.774192 16.6982
      vertex 0.126568 0.400286 0.573816
      vertex 0.126568 0.400286 16.6982
    endloop
  endfacet
  facet normal -0.84361 -0.226045 -0.487058
    outer loop
      vertex 0.126568 0.400286 0.573816
      vertex 0.0263799 0.774192 0.573816
      vertex 0.300098 0.500474 0.226755
    endloop
  endfacet
  facet normal -0.84361 -0.226045 -0.487058
    outer loop
      vertex 0.300098 0.500474 0.226755
      vertex 0.0263799 0.774192 0.573816
      vertex 0.226755 0.774192 0.226755
    endloop
  endfacet
  facet normal -0.866026 0 -0.5
    outer loop
      vertex 0.0263799 0.774192 0.573816
      vertex 0.0263799 17.0058 0.573816
      vertex 0.226755 0.774192 0.226755
    endloop
  endfacet
  facet normal -0.866026 0 -0.5
    outer loop
      vertex 0.226755 0.774192 0.226755
      vertex 0.0263799 17.0058 0.573816
      vertex 0.226755 17.0058 0.226755
    endloop
  endfacet
  facet normal -0.84361 0.226045 -0.487058
    outer loop
      vertex 0.226755 17.0058 0.226755
      vertex 0.0263799 17.0058 0.573816
      vertex 0.300098 17.2795 0.226755
    endloop
  endfacet
  facet normal -0.84361 0.226045 -0.487058
    outer loop
      vertex 0.300098 17.2795 0.226755
      vertex 0.0263799 17.0058 0.573816
      vertex 0.126568 17.3797 0.573816
    endloop
  endfacet
  facet normal -0.965926 0.258819 0
    outer loop
      vertex 0.0263799 17.0058 0.573816
      vertex 0.0263799 17.0058 9.78938
      vertex 0.126568 17.3797 0.573816
    endloop
  endfacet
  facet normal -0.965926 0.258819 0
    outer loop
      vertex 0.126568 17.3797 0.573816
      vertex 0.0263799 17.0058 9.78938
      vertex 0.126568 17.3797 9.78938
    endloop
  endfacet
  facet normal -0.965926 0.258819 0
    outer loop
      vertex 0.0263799 17.0058 9.78938
      vertex 0.0263799 17.0058 16.6982
      vertex 0.126568 17.3797 16.6982
    endloop
  endfacet
  facet normal -0.965926 0.258819 0
    outer loop
      vertex 0.0263799 17.0058 9.78938
      vertex 0.126568 17.3797 16.6982
      vertex 0.126568 17.3797 9.78938
    endloop
  endfacet
  facet normal -0.866026 0 0.5
    outer loop
      vertex 0.0263799 0.774192 16.6982
      vertex 0.226755 0.774192 17.0452
      vertex 0.0263799 17.0058 16.6982
    endloop
  endfacet
  facet normal -0.866026 0 0.5
    outer loop
      vertex 0.0263799 17.0058 16.6982
      vertex 0.226755 0.774192 17.0452
      vertex 0.226755 17.0058 17.0452
    endloop
  endfacet
  facet normal -0.84361 0.226045 0.487058
    outer loop
      vertex 0.126568 17.3797 16.6982
      vertex 0.0263799 17.0058 16.6982
      vertex 0.300098 17.2795 17.0452
    endloop
  endfacet
  facet normal -0.84361 0.226045 0.487058
    outer loop
      vertex 0.300098 17.2795 17.0452
      vertex 0.0263799 17.0058 16.6982
      vertex 0.226755 17.0058 17.0452
    endloop
  endfacet
  facet normal -0.84361 -0.226045 0.487058
    outer loop
      vertex 0.300098 0.500474 17.0452
      vertex 0.0263799 0.774192 16.6982
      vertex 0.126568 0.400286 16.6982
    endloop
  endfacet
  facet normal -0.84361 -0.226045 0.487058
    outer loop
      vertex 0.226755 0.774192 17.0452
      vertex 0.0263799 0.774192 16.6982
      vertex 0.300098 0.500474 17.0452
    endloop
  endfacet
  facet normal -0.617566 -0.617566 0.487058
    outer loop
      vertex 0.300098 0.500474 17.0452
      vertex 0.126568 0.400286 16.6982
      vertex 0.400286 0.126568 16.6982
    endloop
  endfacet
  facet normal -0.617566 -0.617566 0.487058
    outer loop
      vertex 0.500474 0.300098 17.0452
      vertex 0.300098 0.500474 17.0452
      vertex 0.400286 0.126568 16.6982
    endloop
  endfacet
  facet normal -0.707107 -0.707107 0
    outer loop
      vertex 0.126568 0.400286 16.6982
      vertex 0.126568 0.400286 0.573816
      vertex 0.400286 0.126568 0.573816
    endloop
  endfacet
  facet normal -0.707107 -0.707107 0
    outer loop
      vertex 0.400286 0.126568 16.6982
      vertex 0.126568 0.400286 16.6982
      vertex 0.400286 0.126568 0.573816
    endloop
  endfacet
  facet normal -0.617566 -0.617566 -0.487058
    outer loop
      vertex 0.400286 0.126568 0.573816
      vertex 0.126568 0.400286 0.573816
      vertex 0.300098 0.500474 0.226755
    endloop
  endfacet
  facet normal -0.617566 -0.617566 -0.487058
    outer loop
      vertex 0.500474 0.300098 0.226755
      vertex 0.400286 0.126568 0.573816
      vertex 0.300098 0.500474 0.226755
    endloop
  endfacet
  facet normal -0.362784 -0.362784 -0.858356
    outer loop
      vertex 0.300098 0.500474 0.226755
      vertex 0.600662 0.674004 0.0263799
      vertex 0.500474 0.300098 0.226755
    endloop
  endfacet
  facet normal -0.362784 -0.362784 -0.858356
    outer loop
      vertex 0.500474 0.300098 0.226755
      vertex 0.600662 0.674004 0.0263799
      vertex 0.674004 0.600662 0.0263799
    endloop
  endfacet
  facet normal -0.495572 -0.132788 -0.858357
    outer loop
      vertex 0.600662 0.674004 0.0263799
      vertex 0.300098 0.500474 0.226755
      vertex 0.573816 0.774192 0.0263799
    endloop
  endfacet
  facet normal -0.495572 -0.132788 -0.858357
    outer loop
      vertex 0.300098 0.500474 0.226755
      vertex 0.226755 0.774192 0.226755
      vertex 0.573816 0.774192 0.0263799
    endloop
  endfacet
  facet normal -0.5 0 -0.866026
    outer loop
      vertex 0.226755 0.774192 0.226755
      vertex 0.226755 17.0058 0.226755
      vertex 0.573816 0.774192 0.0263799
    endloop
  endfacet
  facet normal -0.5 0 -0.866026
    outer loop
      vertex 0.573816 0.774192 0.0263799
      vertex 0.226755 17.0058 0.226755
      vertex 0.573816 17.0058 0.0263799
    endloop
  endfacet
  facet normal -0.495572 0.132788 -0.858357
    outer loop
      vertex 0.573816 17.0058 0.0263799
      vertex 0.226755 17.0058 0.226755
      vertex 0.300098 17.2795 0.226755
    endloop
  endfacet
  facet normal -0.362784 0.362784 -0.858356
    outer loop
      vertex 0.500474 17.1638 0.0931718
      vertex 0.300098 17.2795 0.226755
      vertex 0.555062 17.2112 0.0901208
    endloop
  endfacet
  facet normal -0.362784 0.362784 -0.858356
    outer loop
      vertex 0.555062 17.2112 0.0901208
      vertex 0.300098 17.2795 0.226755
      vertex 0.500474 17.4799 0.226755
    endloop
  endfacet
  facet normal -0.617566 0.617566 -0.487058
    outer loop
      vertex 0.500474 17.4799 0.226755
      vertex 0.300098 17.2795 0.226755
      vertex 0.400286 17.6534 0.573816
    endloop
  endfacet
  facet normal -0.617566 0.617566 -0.487058
    outer loop
      vertex 0.300098 17.2795 0.226755
      vertex 0.126568 17.3797 0.573816
      vertex 0.400286 17.6534 0.573816
    endloop
  endfacet
  facet normal -0.495572 0.132788 -0.858357
    outer loop
      vertex 0.300098 17.2795 0.226755
      vertex 0.500474 17.1638 0.0931718
      vertex 0.573816 17.0058 0.0263799
    endloop
  endfacet
  facet normal -0.495572 0.132788 -0.858357
    outer loop
      vertex 0.573816 17.0058 0.0263799
      vertex 0.500474 17.1638 0.0931718
      vertex 0.587239 17.0559 0.0263799
    endloop
  endfacet
  facet normal -0.707107 0.707107 0
    outer loop
      vertex 0.126568 17.3797 0.573816
      vertex 0.126568 17.3797 9.78938
      vertex 0.400286 17.6534 0.573816
    endloop
  endfacet
  facet normal -0.707107 0.707107 0
    outer loop
      vertex 0.400286 17.6534 0.573816
      vertex 0.126568 17.3797 9.78938
      vertex 0.400286 17.6534 9.78938
    endloop
  endfacet
  facet normal -0.707107 0.707107 0
    outer loop
      vertex 0.126568 17.3797 9.78938
      vertex 0.126568 17.3797 16.6982
      vertex 0.400286 17.6534 9.78938
    endloop
  endfacet
  facet normal -0.707107 0.707107 0
    outer loop
      vertex 0.400286 17.6534 9.78938
      vertex 0.126568 17.3797 16.6982
      vertex 0.400286 17.6534 16.6982
    endloop
  endfacet
  facet normal -0.617566 0.617566 0.487058
    outer loop
      vertex 0.500474 17.4799 17.0452
      vertex 0.126568 17.3797 16.6982
      vertex 0.300098 17.2795 17.0452
    endloop
  endfacet
  facet normal -0.617566 0.617566 0.487058
    outer loop
      vertex 0.400286 17.6534 16.6982
      vertex 0.126568 17.3797 16.6982
      vertex 0.500474 17.4799 17.0452
    endloop
  endfacet
  facet normal -0.495572 0.132788 0.858357
    outer loop
      vertex 0.300098 17.2795 17.0452
      vertex 0.226755 17.0058 17.0452
      vertex 0.573816 17.0058 17.2456
    endloop
  endfacet
  facet normal -0.5 0 0.866026
    outer loop
      vertex 0.226755 17.0058 17.0452
      vertex 0.226755 0.774192 17.0452
      vertex 0.573816 0.774192 17.2456
    endloop
  endfacet
  facet normal -0.5 0 0.866026
    outer loop
      vertex 0.573816 17.0058 17.2456
      vertex 0.226755 17.0058 17.0452
      vertex 0.573816 0.774192 17.2456
    endloop
  endfacet
  facet normal -0.495572 -0.132788 0.858357
    outer loop
      vertex 0.573816 0.774192 17.2456
      vertex 0.226755 0.774192 17.0452
      vertex 0.300098 0.500474 17.0452
    endloop
  endfacet
  facet normal -0.362784 0.362784 0.858356
    outer loop
      vertex 0.500474 17.4799 17.0452
      vertex 0.300098 17.2795 17.0452
      vertex 0.600662 17.106 17.2456
    endloop
  endfacet
  facet normal -0.495572 0.132788 0.858357
    outer loop
      vertex 0.600662 17.106 17.2456
      vertex 0.300098 17.2795 17.0452
      vertex 0.573816 17.0058 17.2456
    endloop
  endfacet
  facet normal -0.495572 -0.132788 0.858357
    outer loop
      vertex 0.573816 0.774192 17.2456
      vertex 0.300098 0.500474 17.0452
      vertex 0.600662 0.674004 17.2456
    endloop
  endfacet
  facet normal -0.362784 -0.362784 0.858356
    outer loop
      vertex 0.600662 0.674004 17.2456
      vertex 0.300098 0.500474 17.0452
      vertex 0.500474 0.300098 17.0452
    endloop
  endfacet
  facet normal -0.362784 -0.362784 0.858356
    outer loop
      vertex 0.674004 0.600662 17.2456
      vertex 0.600662 0.674004 17.2456
      vertex 0.500474 0.300098 17.0452
    endloop
  endfacet
  facet normal -0.132788 -0.495572 0.858357
    outer loop
      vertex 0.674004 0.600662 17.2456
      vertex 0.500474 0.300098 17.0452
      vertex 0.774192 0.573816 17.2456
    endloop
  endfacet
  facet normal -0.132788 -0.495572 0.858357
    outer loop
      vertex 0.774192 0.573816 17.2456
      vertex 0.500474 0.300098 17.0452
      vertex 0.774192 0.226755 17.0452
    endloop
  endfacet
  facet normal -0.226045 -0.84361 0.487058
    outer loop
      vertex 0.774192 0.226755 17.0452
      vertex 0.500474 0.300098 17.0452
      vertex 0.774192 0.0263799 16.6982
    endloop
  endfacet
  facet normal -0.226045 -0.84361 0.487058
    outer loop
      vertex 0.500474 0.300098 17.0452
      vertex 0.400286 0.126568 16.6982
      vertex 0.774192 0.0263799 16.6982
    endloop
  endfacet
  facet normal -0.258819 -0.965926 0
    outer loop
      vertex 0.400286 0.126568 16.6982
      vertex 0.400286 0.126568 0.573816
      vertex 0.774192 0.0263799 0.573816
    endloop
  endfacet
  facet normal -0.258819 -0.965926 0
    outer loop
      vertex 0.774192 0.0263799 16.6982
      vertex 0.400286 0.126568 16.6982
      vertex 0.774192 0.0263799 0.573816
    endloop
  endfacet
  facet normal -0.226045 -0.84361 -0.487058
    outer loop
      vertex 0.774192 0.0263799 0.573816
      vertex 0.400286 0.126568 0.573816
      vertex 0.500474 0.300098 0.226755
    endloop
  endfacet
  facet normal -0.226045 -0.84361 -0.487058
    outer loop
      vertex 0.774192 0.0263799 0.573816
      vertex 0.500474 0.300098 0.226755
      vertex 0.774192 0.226755 0.226755
    endloop
  endfacet
  facet normal -0.132788 -0.495572 -0.858357
    outer loop
      vertex 0.774192 0.226755 0.226755
      vertex 0.500474 0.300098 0.226755
      vertex 0.774192 0.573816 0.0263799
    endloop
  endfacet
  facet normal -0.132788 -0.495572 -0.858357
    outer loop
      vertex 0.774192 0.573816 0.0263799
      vertex 0.500474 0.300098 0.226755
      vertex 0.674004 0.600662 0.0263799
    endloop
  endfacet
  facet normal 0 0 -1
    outer loop
      vertex 0.573816 0.774192 0.0263799
      vertex 0.573816 17.0058 0.0263799
      vertex 0.600662 0.674004 0.0263799
    endloop
  endfacet
  facet normal 0 0 -1
    outer loop
      vertex 0.600662 0.674004 0.0263799
      vertex 0.573816 17.0058 0.0263799
      vertex 0.587239 17.0559 0.0263799
    endloop
  endfacet
  facet normal 0 0 -1
    outer loop
      vertex 0.600662 0.674004 0.0263799
      vertex 0.587239 17.0559 0.0263799
      vertex 0.600662 17.106 0.0263799
    endloop
  endfacet
  facet normal 0 0 -1
    outer loop
      vertex 0.600662 0.674004 0.0263799
      vertex 0.600662 17.106 0.0263799
      vertex 0.618997 17.1243 0.0263799
    endloop
  endfacet
  facet normal 0 0 -1
    outer loop
      vertex 0.600662 0.674004 0.0263799
      vertex 0.618997 17.1243 0.0263799
      vertex 0.674004 17.1793 0.0263799
    endloop
  endfacet
  facet normal 0 0 -1
    outer loop
      vertex 0.600662 0.674004 0.0263799
      vertex 0.674004 17.1793 0.0263799
      vertex 0.774192 17.2062 0.0263799
    endloop
  endfacet
  facet normal 0 0 -1
    outer loop
      vertex 0.600662 0.674004 0.0263799
      vertex 0.774192 17.2062 0.0263799
      vertex 17.5138 17.2062 0.0263799
    endloop
  endfacet
  facet normal 0 0 -1
    outer loop
      vertex 0.600662 0.674004 0.0263799
      vertex 17.5138 17.2062 0.0263799
      vertex 17.614 17.1793 0.0263799
    endloop
  endfacet
  facet normal 0 0 -1
    outer loop
      vertex 0.600662 0.674004 0.0263799
      vertex 17.614 17.1793 0.0263799
      vertex 17.669 17.1243 0.0263799
    endloop
  endfacet
  facet normal 0 0 -1
    outer loop
      vertex 0.600662 0.674004 0.0263799
      vertex 17.669 17.1243 0.0263799
      vertex 17.6873 17.106 0.0263799
    endloop
  endfacet
  facet normal 0 0 -1
    outer loop
      vertex 0.600662 0.674004 0.0263799
      vertex 17.6873 17.106 0.0263799
      vertex 17.7008 17.0559 0.0263799
    endloop
  endfacet
  facet normal 0 0 -1
    outer loop
      vertex 0.600662 0.674004 0.0263799
      vertex 17.7008 17.0559 0.0263799
      vertex 17.7142 17.0058 0.0263799
    endloop
  endfacet
  facet normal 0 0 -1
    outer loop
      vertex 0.600662 0.674004 0.0263799
      vertex 17.7142 17.0058 0.0263799
      vertex 17.7142 0.774192 0.0263799
    endloop
  endfacet
  facet normal 0 0 -1
    outer loop
      vertex 0.600662 0.674004 0.0263799
      vertex 17.7142 0.774192 0.0263799
      vertex 17.6873 0.674004 0.0263799
    endloop
  endfacet
  facet normal 0 0 -1
    outer loop
      vertex 0.600662 0.674004 0.0263799
      vertex 17.6873 0.674004 0.0263799
      vertex 17.614 0.600662 0.0263799
    endloop
  endfacet
  facet normal 0 0 -1
    outer loop
      vertex 0.600662 0.674004 0.0263799
      vertex 17.614 0.600662 0.0263799
      vertex 17.5138 0.573816 0.0263799
    endloop
  endfacet
  facet normal 0 0 -1
    outer loop
      vertex 0.600662 0.674004 0.0263799
      vertex 17.5138 0.573816 0.0263799
      vertex 0.774192 0.573816 0.0263799
    endloop
  endfacet
  facet normal 0 0 -1
    outer loop
      vertex 0.600662 0.674004 0.0263799
      vertex 0.774192 0.573816 0.0263799
      vertex 0.674004 0.600662 0.0263799
    endloop
  endfacet
  facet normal -0.495572 0.132788 -0.858357
    outer loop
      vertex 0.587239 17.0559 0.0263799
      vertex 0.500474 17.1638 0.0931718
      vertex 0.600662 17.106 0.0263799
    endloop
  endfacet
  facet normal -0.362784 0.362784 -0.858356
    outer loop
      vertex 0.500474 17.1638 0.0931718
      vertex 0.555062 17.2112 0.0901208
      vertex 0.600662 17.106 0.0263799
    endloop
  endfacet
  facet normal -0.362784 0.362784 -0.858356
    outer loop
      vertex 0.600662 17.106 0.0263799
      vertex 0.555062 17.2112 0.0901208
      vertex 0.500474 17.4799 0.226755
    endloop
  endfacet
  facet normal -0.362784 0.362784 -0.858356
    outer loop
      vertex 0.500474 17.4799 0.226755
      vertex 0.5785 17.2049 0.0775605
      vertex 0.600662 17.106 0.0263799
    endloop
  endfacet
  facet normal -0.362784 0.362784 -0.858356
    outer loop
      vertex 0.600662 17.106 0.0263799
      vertex 0.5785 17.2049 0.0775605
      vertex 0.618997 17.1243 0.0263799
    endloop
  endfacet
  facet normal -0.362784 0.362784 -0.858356
    outer loop
      vertex 0.5785 17.2049 0.0775605
      vertex 0.500474 17.4799 0.226755
      vertex 0.674004 17.1793 0.0263799
    endloop
  endfacet
  facet normal -0.132788 0.495572 -0.858357
    outer loop
      vertex 0.674004 17.1793 0.0263799
      vertex 0.500474 17.4799 0.226755
      vertex 0.774192 17.2062 0.0263799
    endloop
  endfacet
  facet normal -0.132788 0.495572 -0.858357
    outer loop
      vertex 0.774192 17.2062 0.0263799
      vertex 0.500474 17.4799 0.226755
      vertex 0.774192 17.5532 0.226755
    endloop
  endfacet
  facet normal -0.226045 0.84361 -0.487058
    outer loop
      vertex 0.774192 17.5532 0.226755
      vertex 0.500474 17.4799 0.226755
      vertex 0.774192 17.7536 0.573816
    endloop
  endfacet
  facet normal -0.226045 0.84361 -0.487058
    outer loop
      vertex 0.500474 17.4799 0.226755
      vertex 0.400286 17.6534 0.573816
      vertex 0.774192 17.7536 0.573816
    endloop
  endfacet
  facet normal -0.258819 0.965926 0
    outer loop
      vertex 0.400286 17.6534 0.573816
      vertex 0.400286 17.6534 9.78938
      vertex 0.774192 17.7536 0.573816
    endloop
  endfacet
  facet normal -0.258819 0.965926 0
    outer loop
      vertex 0.774192 17.7536 0.573816
      vertex 0.400286 17.6534 9.78938
      vertex 0.774192 17.7536 9.78938
    endloop
  endfacet
  facet normal -0.258819 0.965926 0
    outer loop
      vertex 0.400286 17.6534 9.78938
      vertex 0.400286 17.6534 16.6982
      vertex 0.774192 17.7536 16.6982
    endloop
  endfacet
  facet normal -0.258819 0.965926 0
    outer loop
      vertex 0.400286 17.6534 9.78938
      vertex 0.774192 17.7536 16.6982
      vertex 0.774192 17.7536 9.78938
    endloop
  endfacet
  facet normal -0.226045 0.84361 0.487058
    outer loop
      vertex 0.774192 17.7536 16.6982
      vertex 0.400286 17.6534 16.6982
      vertex 0.500474 17.4799 17.0452
    endloop
  endfacet
  facet normal -0.362784 0.362784 0.858356
    outer loop
      vertex 0.674004 17.1793 17.2456
      vertex 0.500474 17.4799 17.0452
      vertex 0.600662 17.106 17.2456
    endloop
  endfacet
  facet normal -0.226045 0.84361 0.487058
    outer loop
      vertex 0.774192 17.7536 16.6982
      vertex 0.500474 17.4799 17.0452
      vertex 0.774192 17.5532 17.0452
    endloop
  endfacet
  facet normal -0.132788 0.495572 0.858357
    outer loop
      vertex 0.774192 17.5532 17.0452
      vertex 0.500474 17.4799 17.0452
      vertex 0.774192 17.2062 17.2456
    endloop
  endfacet
  facet normal -0.132788 0.495572 0.858357
    outer loop
      vertex 0.774192 17.2062 17.2456
      vertex 0.500474 17.4799 17.0452
      vertex 0.674004 17.1793 17.2456
    endloop
  endfacet
  facet normal 0 0 1
    outer loop
      vertex 0.573816 17.0058 17.2456
      vertex 0.573816 0.774192 17.2456
      vertex 0.600662 0.674004 17.2456
    endloop
  endfacet
  facet normal 0 0 1
    outer loop
      vertex 0.774192 0.573816 17.2456
      vertex 0.573816 17.0058 17.2456
      vertex 0.674004 0.600662 17.2456
    endloop
  endfacet
  facet normal 0 0 1
    outer loop
      vertex 0.674004 0.600662 17.2456
      vertex 0.573816 17.0058 17.2456
      vertex 0.600662 0.674004 17.2456
    endloop
  endfacet
  facet normal 0 0 1
    outer loop
      vertex 3.79781 0.573816 17.2456
      vertex 0.573816 17.0058 17.2456
      vertex 0.774192 0.573816 17.2456
    endloop
  endfacet
  facet normal 0 0 1
    outer loop
      vertex 3.898 0.600662 17.2456
      vertex 0.573816 17.0058 17.2456
      vertex 3.79781 0.573816 17.2456
    endloop
  endfacet
  facet normal 0 0 1
    outer loop
      vertex 3.97134 0.674004 17.2456
      vertex 0.573816 17.0058 17.2456
      vertex 3.898 0.600662 17.2456
    endloop
  endfacet
  facet normal 0 0 1
    outer loop
      vertex 3.99818 0.774192 17.2456
      vertex 0.573816 17.0058 17.2456
      vertex 3.97134 0.674004 17.2456
    endloop
  endfacet
  facet normal 0 0 1
    outer loop
      vertex 3.99818 17.0058 17.2456
      vertex 0.573816 17.0058 17.2456
      vertex 3.99818 0.774192 17.2456
    endloop
  endfacet
  facet normal 0 0 1
    outer loop
      vertex 3.97134 17.106 17.2456
      vertex 0.573816 17.0058 17.2456
      vertex 3.99818 17.0058 17.2456
    endloop
  endfacet
  facet normal 0 0 1
    outer loop
      vertex 3.898 17.1793 17.2456
      vertex 0.573816 17.0058 17.2456
      vertex 3.97134 17.106 17.2456
    endloop
  endfacet
  facet normal 0 0 1
    outer loop
      vertex 3.79781 17.2062 17.2456
      vertex 0.573816 17.0058 17.2456
      vertex 3.898 17.1793 17.2456
    endloop
  endfacet
  facet normal 0 0 1
    outer loop
      vertex 0.774192 17.2062 17.2456
      vertex 0.573816 17.0058 17.2456
      vertex 3.79781 17.2062 17.2456
    endloop
  endfacet
  facet normal 0 0 1
    outer loop
      vertex 0.674004 17.1793 17.2456
      vertex 0.573816 17.0058 17.2456
      vertex 0.774192 17.2062 17.2456
    endloop
  endfacet
  facet normal 0 0 1
    outer loop
      vertex 0.600662 17.106 17.2456
      vertex 0.573816 17.0058 17.2456
      vertex 0.674004 17.1793 17.2456
    endloop
  endfacet
  facet normal 0 -0.5 0.866026
    outer loop
      vertex 0.774192 0.573816 17.2456
      vertex 0.774192 0.226755 17.0452
      vertex 3.79781 0.226755 17.0452
    endloop
  endfacet
  facet normal 0 -0.5 0.866026
    outer loop
      vertex 3.79781 0.573816 17.2456
      vertex 0.774192 0.573816 17.2456
      vertex 3.79781 0.226755 17.0452
    endloop
  endfacet
  facet normal 0 -0.866026 0.5
    outer loop
      vertex 0.774192 0.226755 17.0452
      vertex 0.774192 0.0263799 16.6982
      vertex 3.79781 0.0263799 16.6982
    endloop
  endfacet
  facet normal 0 -0.866026 0.5
    outer loop
      vertex 3.79781 0.226755 17.0452
      vertex 0.774192 0.226755 17.0452
      vertex 3.79781 0.0263799 16.6982
    endloop
  endfacet
  facet normal 0 -1 0
    outer loop
      vertex 3.79781 0.0263799 9.78938
      vertex 0.774192 0.0263799 0.573816
      vertex 17.5138 0.0263799 0.573816
    endloop
  endfacet
  facet normal 0 -1 0
    outer loop
      vertex 3.79781 0.0263799 9.78938
      vertex 3.79781 0.0263799 16.6982
      vertex 0.774192 0.0263799 16.6982
    endloop
  endfacet
  facet normal 0 -1 0
    outer loop
      vertex 0.774192 0.0263799 16.6982
      vertex 0.774192 0.0263799 0.573816
      vertex 3.79781 0.0263799 9.78938
    endloop
  endfacet
  facet normal 0 -1 0
    outer loop
      vertex 17.5138 0.0263799 9.78938
      vertex 3.79781 0.0263799 9.78938
      vertex 17.5138 0.0263799 0.573816
    endloop
  endfacet
  facet normal 0 -0.866026 -0.5
    outer loop
      vertex 17.5138 0.0263799 0.573816
      vertex 0.774192 0.0263799 0.573816
      vertex 0.774192 0.226755 0.226755
    endloop
  endfacet
  facet normal 0 -0.866026 -0.5
    outer loop
      vertex 17.5138 0.226755 0.226755
      vertex 17.5138 0.0263799 0.573816
      vertex 0.774192 0.226755 0.226755
    endloop
  endfacet
  facet normal 0 -0.5 -0.866026
    outer loop
      vertex 0.774192 0.226755 0.226755
      vertex 0.774192 0.573816 0.0263799
      vertex 17.5138 0.226755 0.226755
    endloop
  endfacet
  facet normal 0 -0.5 -0.866026
    outer loop
      vertex 17.5138 0.226755 0.226755
      vertex 0.774192 0.573816 0.0263799
      vertex 17.5138 0.573816 0.0263799
    endloop
  endfacet
  facet normal 0.132788 -0.495572 -0.858357
    outer loop
      vertex 17.7875 0.300098 0.226755
      vertex 17.5138 0.226755 0.226755
      vertex 17.5138 0.573816 0.0263799
    endloop
  endfacet
  facet normal 0.132788 -0.495572 -0.858357
    outer loop
      vertex 17.7875 0.300098 0.226755
      vertex 17.5138 0.573816 0.0263799
      vertex 17.614 0.600662 0.0263799
    endloop
  endfacet
  facet normal 0.362784 -0.362784 -0.858356
    outer loop
      vertex 17.7875 0.300098 0.226755
      vertex 17.614 0.600662 0.0263799
      vertex 17.9879 0.500474 0.226755
    endloop
  endfacet
  facet normal 0.362784 -0.362784 -0.858356
    outer loop
      vertex 17.9879 0.500474 0.226755
      vertex 17.614 0.600662 0.0263799
      vertex 17.6873 0.674004 0.0263799
    endloop
  endfacet
  facet normal 0.495572 -0.132788 -0.858357
    outer loop
      vertex 17.9879 0.500474 0.226755
      vertex 17.6873 0.674004 0.0263799
      vertex 17.7142 0.774192 0.0263799
    endloop
  endfacet
  facet normal 0.495572 -0.132788 -0.858357
    outer loop
      vertex 17.9879 0.500474 0.226755
      vertex 17.7142 0.774192 0.0263799
      vertex 18.0612 0.774192 0.226755
    endloop
  endfacet
  facet normal 0.5 0 -0.866026
    outer loop
      vertex 17.7142 0.774192 0.0263799
      vertex 17.7142 17.0058 0.0263799
      vertex 18.0612 0.774192 0.226755
    endloop
  endfacet
  facet normal 0.5 0 -0.866026
    outer loop
      vertex 18.0612 0.774192 0.226755
      vertex 17.7142 17.0058 0.0263799
      vertex 18.0612 17.0058 0.226755
    endloop
  endfacet
  facet normal 0.495572 0.132788 -0.858357
    outer loop
      vertex 18.0612 17.0058 0.226755
      vertex 17.7142 17.0058 0.0263799
      vertex 17.9879 17.2795 0.226755
    endloop
  endfacet
  facet normal 0.495572 0.132788 -0.858357
    outer loop
      vertex 17.7008 17.0559 0.0263799
      vertex 17.7875 17.1638 0.0931718
      vertex 17.7142 17.0058 0.0263799
    endloop
  endfacet
  facet normal 0.495572 0.132788 -0.858357
    outer loop
      vertex 17.7142 17.0058 0.0263799
      vertex 17.7875 17.1638 0.0931718
      vertex 17.9879 17.2795 0.226755
    endloop
  endfacet
  facet normal 0.495572 0.132788 -0.858357
    outer loop
      vertex 17.7008 17.0559 0.0263799
      vertex 17.6873 17.106 0.0263799
      vertex 17.7875 17.1638 0.0931718
    endloop
  endfacet
  facet normal 0.362784 0.362784 -0.858356
    outer loop
      vertex 17.6873 17.106 0.0263799
      vertex 17.669 17.1243 0.0263799
      vertex 17.7875 17.1638 0.0931718
    endloop
  endfacet
  facet normal 0.362784 0.362784 -0.858356
    outer loop
      vertex 17.614 17.1793 0.0263799
      vertex 17.9879 17.2795 0.226755
      vertex 17.669 17.1243 0.0263799
    endloop
  endfacet
  facet normal 0.362784 0.362784 -0.858356
    outer loop
      vertex 17.669 17.1243 0.0263799
      vertex 17.9879 17.2795 0.226755
      vertex 17.7875 17.1638 0.0931718
    endloop
  endfacet
  facet normal 0.362784 0.362784 -0.858356
    outer loop
      vertex 17.9879 17.2795 0.226755
      vertex 17.614 17.1793 0.0263799
      vertex 17.7875 17.4799 0.226755
    endloop
  endfacet
  facet normal 0.132788 0.495572 -0.858357
    outer loop
      vertex 17.614 17.1793 0.0263799
      vertex 17.5138 17.2062 0.0263799
      vertex 17.7875 17.4799 0.226755
    endloop
  endfacet
  facet normal 0.132788 0.495572 -0.858357
    outer loop
      vertex 17.7875 17.4799 0.226755
      vertex 17.5138 17.2062 0.0263799
      vertex 17.5138 17.5532 0.226755
    endloop
  endfacet
  facet normal 0 0.5 -0.866026
    outer loop
      vertex 0.774192 17.2062 0.0263799
      vertex 0.774192 17.5532 0.226755
      vertex 17.5138 17.2062 0.0263799
    endloop
  endfacet
  facet normal 0 0.5 -0.866026
    outer loop
      vertex 17.5138 17.2062 0.0263799
      vertex 0.774192 17.5532 0.226755
      vertex 17.5138 17.5532 0.226755
    endloop
  endfacet
  facet normal -0.362784 0.362784 -0.858356
    outer loop
      vertex 0.618997 17.1243 0.0263799
      vertex 0.5785 17.2049 0.0775605
      vertex 0.674004 17.1793 0.0263799
    endloop
  endfacet
  facet normal 0 0.866026 -0.5
    outer loop
      vertex 0.774192 17.5532 0.226755
      vertex 0.774192 17.7536 0.573816
      vertex 17.5138 17.5532 0.226755
    endloop
  endfacet
  facet normal 0 0.866026 -0.5
    outer loop
      vertex 17.5138 17.5532 0.226755
      vertex 0.774192 17.7536 0.573816
      vertex 17.5138 17.7536 0.573816
    endloop
  endfacet
  facet normal 0 1 0
    outer loop
      vertex 0.774192 17.7536 0.573816
      vertex 0.774192 17.7536 9.78938
      vertex 17.5138 17.7536 0.573816
    endloop
  endfacet
  facet normal 0 1 0
    outer loop
      vertex 3.79781 17.7536 9.78938
      vertex 0.774192 17.7536 9.78938
      vertex 0.774192 17.7536 16.6982
    endloop
  endfacet
  facet normal 0 1 0
    outer loop
      vertex 17.5138 17.7536 0.573816
      vertex 0.774192 17.7536 9.78938
      vertex 3.79781 17.7536 9.78938
    endloop
  endfacet
  facet normal 0 1 0
    outer loop
      vertex 17.5138 17.7536 9.78938
      vertex 17.5138 17.7536 0.573816
      vertex 3.79781 17.7536 9.78938
    endloop
  endfacet
  facet normal 0 1 0
    outer loop
      vertex 3.79781 17.7536 9.78938
      vertex 0.774192 17.7536 16.6982
      vertex 3.79781 17.7536 16.6982
    endloop
  endfacet
  facet normal 0 0.866026 0.5
    outer loop
      vertex 0.774192 17.5532 17.0452
      vertex 3.79781 17.5532 17.0452
      vertex 0.774192 17.7536 16.6982
    endloop
  endfacet
  facet normal 0 0.866026 0.5
    outer loop
      vertex 0.774192 17.7536 16.6982
      vertex 3.79781 17.5532 17.0452
      vertex 3.79781 17.7536 16.6982
    endloop
  endfacet
  facet normal 0 0.5 0.866026
    outer loop
      vertex 0.774192 17.5532 17.0452
      vertex 0.774192 17.2062 17.2456
      vertex 3.79781 17.2062 17.2456
    endloop
  endfacet
  facet normal 0 0.5 0.866026
    outer loop
      vertex 3.79781 17.5532 17.0452
      vertex 0.774192 17.5532 17.0452
      vertex 3.79781 17.2062 17.2456
    endloop
  endfacet
  facet normal 0.132788 0.495572 0.858357
    outer loop
      vertex 4.07153 17.4799 17.0452
      vertex 3.79781 17.2062 17.2456
      vertex 3.898 17.1793 17.2456
    endloop
  endfacet
  facet normal 0.132788 0.495572 0.858357
    outer loop
      vertex 3.79781 17.5532 17.0452
      vertex 3.79781 17.2062 17.2456
      vertex 4.07153 17.4799 17.0452
    endloop
  endfacet
  facet normal 0.362784 0.362784 0.858356
    outer loop
      vertex 4.07153 17.4799 17.0452
      vertex 3.898 17.1793 17.2456
      vertex 3.97134 17.106 17.2456
    endloop
  endfacet
  facet normal 0.362784 0.362784 0.858356
    outer loop
      vertex 4.07153 17.4799 17.0452
      vertex 3.97134 17.106 17.2456
      vertex 4.2719 17.2795 17.0452
    endloop
  endfacet
  facet normal 0.495572 0.132788 0.858357
    outer loop
      vertex 4.2719 17.2795 17.0452
      vertex 3.97134 17.106 17.2456
      vertex 3.99818 17.0058 17.2456
    endloop
  endfacet
  facet normal 0.495572 0.132788 0.858357
    outer loop
      vertex 4.2719 17.2795 17.0452
      vertex 3.99818 17.0058 17.2456
      vertex 4.34524 17.0058 17.0452
    endloop
  endfacet
  facet normal 0.5 0 0.866026
    outer loop
      vertex 3.99818 17.0058 17.2456
      vertex 3.99818 0.774192 17.2456
      vertex 4.34524 0.774192 17.0452
    endloop
  endfacet
  facet normal 0.5 0 0.866026
    outer loop
      vertex 4.34524 17.0058 17.0452
      vertex 3.99818 17.0058 17.2456
      vertex 4.34524 0.774192 17.0452
    endloop
  endfacet
  facet normal 0.495572 -0.132788 0.858357
    outer loop
      vertex 4.34524 0.774192 17.0452
      vertex 3.99818 0.774192 17.2456
      vertex 4.2719 0.500474 17.0452
    endloop
  endfacet
  facet normal 0.495572 -0.132788 0.858357
    outer loop
      vertex 3.99818 0.774192 17.2456
      vertex 3.97134 0.674004 17.2456
      vertex 4.2719 0.500474 17.0452
    endloop
  endfacet
  facet normal 0.362784 -0.362784 0.858356
    outer loop
      vertex 4.2719 0.500474 17.0452
      vertex 3.97134 0.674004 17.2456
      vertex 4.07153 0.300098 17.0452
    endloop
  endfacet
  facet normal 0.362784 -0.362784 0.858356
    outer loop
      vertex 3.97134 0.674004 17.2456
      vertex 3.898 0.600662 17.2456
      vertex 4.07153 0.300098 17.0452
    endloop
  endfacet
  facet normal 0.132788 -0.495572 0.858357
    outer loop
      vertex 3.898 0.600662 17.2456
      vertex 3.79781 0.573816 17.2456
      vertex 4.07153 0.300098 17.0452
    endloop
  endfacet
  facet normal 0.132788 -0.495572 0.858357
    outer loop
      vertex 3.79781 0.573816 17.2456
      vertex 3.79781 0.226755 17.0452
      vertex 4.07153 0.300098 17.0452
    endloop
  endfacet
  facet normal 0.226045 -0.84361 0.487058
    outer loop
      vertex 3.79781 0.226755 17.0452
      vertex 3.79781 0.0263799 16.6982
      vertex 4.07153 0.300098 17.0452
    endloop
  endfacet
  facet normal 0.226045 -0.84361 0.487058
    outer loop
      vertex 4.07153 0.300098 17.0452
      vertex 3.79781 0.0263799 16.6982
      vertex 4.17171 0.126568 16.6982
    endloop
  endfacet
  facet normal 0.258819 -0.965926 0
    outer loop
      vertex 3.79781 0.0263799 16.6982
      vertex 3.79781 0.0263799 9.78938
      vertex 4.17171 0.126568 9.96291
    endloop
  endfacet
  facet normal 0.258819 -0.965926 0
    outer loop
      vertex 4.17171 0.126568 16.6982
      vertex 3.79781 0.0263799 16.6982
      vertex 4.17171 0.126568 9.96291
    endloop
  endfacet
  facet normal 0 -0.866026 0.5
    outer loop
      vertex 4.17171 0.126568 9.96291
      vertex 3.79781 0.0263799 9.78938
      vertex 17.5138 0.0263799 9.78938
    endloop
  endfacet
  facet normal 0 -0.866026 0.5
    outer loop
      vertex 4.2719 0.226755 10.1364
      vertex 4.17171 0.126568 9.96291
      vertex 17.5138 0.226755 10.1364
    endloop
  endfacet
  facet normal 0 -0.866026 0.5
    outer loop
      vertex 17.5138 0.226755 10.1364
      vertex 4.17171 0.126568 9.96291
      vertex 17.5138 0.0263799 9.78938
    endloop
  endfacet
  facet normal 0.258819 -0.965926 0
    outer loop
      vertex 17.5138 0.0263799 9.78938
      vertex 17.5138 0.0263799 0.573816
      vertex 17.8877 0.126568 0.573816
    endloop
  endfacet
  facet normal 0.258819 -0.965926 0
    outer loop
      vertex 17.8877 0.126568 9.78938
      vertex 17.5138 0.0263799 9.78938
      vertex 17.8877 0.126568 0.573816
    endloop
  endfacet
  facet normal 0.226045 -0.84361 0.487058
    outer loop
      vertex 17.5138 0.226755 10.1364
      vertex 17.5138 0.0263799 9.78938
      vertex 17.7875 0.300098 10.1364
    endloop
  endfacet
  facet normal 0.226045 -0.84361 0.487058
    outer loop
      vertex 17.7875 0.300098 10.1364
      vertex 17.5138 0.0263799 9.78938
      vertex 17.8877 0.126568 9.78938
    endloop
  endfacet
  facet normal 0.226045 -0.84361 -0.487058
    outer loop
      vertex 17.8877 0.126568 0.573816
      vertex 17.5138 0.0263799 0.573816
      vertex 17.7875 0.300098 0.226755
    endloop
  endfacet
  facet normal 0.226045 -0.84361 -0.487058
    outer loop
      vertex 17.7875 0.300098 0.226755
      vertex 17.5138 0.0263799 0.573816
      vertex 17.5138 0.226755 0.226755
    endloop
  endfacet
  facet normal 0.617566 -0.617566 -0.487058
    outer loop
      vertex 17.8877 0.126568 0.573816
      vertex 17.7875 0.300098 0.226755
      vertex 17.9879 0.500474 0.226755
    endloop
  endfacet
  facet normal 0.617566 -0.617566 -0.487058
    outer loop
      vertex 18.1614 0.400286 0.573816
      vertex 17.8877 0.126568 0.573816
      vertex 17.9879 0.500474 0.226755
    endloop
  endfacet
  facet normal 0.84361 -0.226045 -0.487058
    outer loop
      vertex 18.1614 0.400286 0.573816
      vertex 17.9879 0.500474 0.226755
      vertex 18.2616 0.774192 0.573816
    endloop
  endfacet
  facet normal 0.84361 -0.226045 -0.487058
    outer loop
      vertex 18.2616 0.774192 0.573816
      vertex 17.9879 0.500474 0.226755
      vertex 18.0612 0.774192 0.226755
    endloop
  endfacet
  facet normal 0.866026 0 -0.5
    outer loop
      vertex 18.2616 0.774192 0.573816
      vertex 18.0612 0.774192 0.226755
      vertex 18.0612 17.0058 0.226755
    endloop
  endfacet
  facet normal 0.866026 0 -0.5
    outer loop
      vertex 18.2616 17.0058 0.573816
      vertex 18.2616 0.774192 0.573816
      vertex 18.0612 17.0058 0.226755
    endloop
  endfacet
  facet normal 0.84361 0.226045 -0.487058
    outer loop
      vertex 18.0612 17.0058 0.226755
      vertex 17.9879 17.2795 0.226755
      vertex 18.2616 17.0058 0.573816
    endloop
  endfacet
  facet normal 0.84361 0.226045 -0.487058
    outer loop
      vertex 18.2616 17.0058 0.573816
      vertex 17.9879 17.2795 0.226755
      vertex 18.1614 17.3797 0.573816
    endloop
  endfacet
  facet normal 0.617566 0.617566 -0.487058
    outer loop
      vertex 17.9879 17.2795 0.226755
      vertex 17.8877 17.6534 0.573816
      vertex 18.1614 17.3797 0.573816
    endloop
  endfacet
  facet normal 0.617566 0.617566 -0.487058
    outer loop
      vertex 17.9879 17.2795 0.226755
      vertex 17.7875 17.4799 0.226755
      vertex 17.8877 17.6534 0.573816
    endloop
  endfacet
  facet normal 0.226045 0.84361 -0.487058
    outer loop
      vertex 17.7875 17.4799 0.226755
      vertex 17.5138 17.5532 0.226755
      vertex 17.5138 17.7536 0.573816
    endloop
  endfacet
  facet normal 0.226045 0.84361 -0.487058
    outer loop
      vertex 17.7875 17.4799 0.226755
      vertex 17.5138 17.7536 0.573816
      vertex 17.8877 17.6534 0.573816
    endloop
  endfacet
  facet normal 0.258819 0.965926 0
    outer loop
      vertex 17.5138 17.7536 0.573816
      vertex 17.5138 17.7536 9.78938
      vertex 17.8877 17.6534 0.573816
    endloop
  endfacet
  facet normal 0.258819 0.965926 0
    outer loop
      vertex 17.8877 17.6534 0.573816
      vertex 17.5138 17.7536 9.78938
      vertex 17.8877 17.6534 9.78938
    endloop
  endfacet
  facet normal 0.226045 0.84361 0.487058
    outer loop
      vertex 17.8877 17.6534 9.78938
      vertex 17.5138 17.7536 9.78938
      vertex 17.7875 17.4799 10.1364
    endloop
  endfacet
  facet normal 0.226045 0.84361 0.487058
    outer loop
      vertex 17.5138 17.7536 9.78938
      vertex 17.5138 17.5532 10.1364
      vertex 17.7875 17.4799 10.1364
    endloop
  endfacet
  facet normal 0 0.866026 0.5
    outer loop
      vertex 3.79781 17.7536 9.78938
      vertex 4.17171 17.6534 9.96291
      vertex 17.5138 17.7536 9.78938
    endloop
  endfacet
  facet normal 0 0.866026 0.5
    outer loop
      vertex 17.5138 17.7536 9.78938
      vertex 4.17171 17.6534 9.96291
      vertex 4.2719 17.5532 10.1364
    endloop
  endfacet
  facet normal 0 0.866026 0.5
    outer loop
      vertex 17.5138 17.7536 9.78938
      vertex 4.2719 17.5532 10.1364
      vertex 17.5138 17.5532 10.1364
    endloop
  endfacet
  facet normal 0.258819 0.965926 0
    outer loop
      vertex 3.79781 17.7536 9.78938
      vertex 3.79781 17.7536 16.6982
      vertex 4.17171 17.6534 9.96291
    endloop
  endfacet
  facet normal 0.258819 0.965926 0
    outer loop
      vertex 4.17171 17.6534 9.96291
      vertex 3.79781 17.7536 16.6982
      vertex 4.17171 17.6534 16.6982
    endloop
  endfacet
  facet normal 0.226045 0.84361 0.487058
    outer loop
      vertex 4.17171 17.6534 16.6982
      vertex 3.79781 17.7536 16.6982
      vertex 4.07153 17.4799 17.0452
    endloop
  endfacet
  facet normal 0.226045 0.84361 0.487058
    outer loop
      vertex 3.79781 17.7536 16.6982
      vertex 3.79781 17.5532 17.0452
      vertex 4.07153 17.4799 17.0452
    endloop
  endfacet
  facet normal 0.617566 0.617566 0.487058
    outer loop
      vertex 4.17171 17.6534 16.6982
      vertex 4.07153 17.4799 17.0452
      vertex 4.44543 17.3797 16.6982
    endloop
  endfacet
  facet normal 0.617566 0.617566 0.487058
    outer loop
      vertex 4.44543 17.3797 16.6982
      vertex 4.07153 17.4799 17.0452
      vertex 4.2719 17.2795 17.0452
    endloop
  endfacet
  facet normal 0.84361 0.226045 0.487058
    outer loop
      vertex 4.44543 17.3797 16.6982
      vertex 4.2719 17.2795 17.0452
      vertex 4.54562 17.0058 16.6982
    endloop
  endfacet
  facet normal 0.84361 0.226045 0.487058
    outer loop
      vertex 4.54562 17.0058 16.6982
      vertex 4.2719 17.2795 17.0452
      vertex 4.34524 17.0058 17.0452
    endloop
  endfacet
  facet normal 0.866026 0 0.5
    outer loop
      vertex 4.34524 17.0058 17.0452
      vertex 4.34524 0.774192 17.0452
      vertex 4.54562 0.774192 16.6982
    endloop
  endfacet
  facet normal 0.866026 0 0.5
    outer loop
      vertex 4.54562 17.0058 16.6982
      vertex 4.34524 17.0058 17.0452
      vertex 4.54562 0.774192 16.6982
    endloop
  endfacet
  facet normal 0.84361 -0.226045 0.487058
    outer loop
      vertex 4.34524 0.774192 17.0452
      vertex 4.2719 0.500474 17.0452
      vertex 4.54562 0.774192 16.6982
    endloop
  endfacet
  facet normal 0.84361 -0.226045 0.487058
    outer loop
      vertex 4.54562 0.774192 16.6982
      vertex 4.2719 0.500474 17.0452
      vertex 4.44543 0.400286 16.6982
    endloop
  endfacet
  facet normal 0.617566 -0.617566 0.487058
    outer loop
      vertex 4.2719 0.500474 17.0452
      vertex 4.07153 0.300098 17.0452
      vertex 4.44543 0.400286 16.6982
    endloop
  endfacet
  facet normal 0.617566 -0.617566 0.487058
    outer loop
      vertex 4.44543 0.400286 16.6982
      vertex 4.07153 0.300098 17.0452
      vertex 4.17171 0.126568 16.6982
    endloop
  endfacet
  facet normal 0.707107 -0.707107 0
    outer loop
      vertex 4.17171 0.126568 16.6982
      vertex 4.17171 0.126568 9.96291
      vertex 4.2719 0.226755 10.1364
    endloop
  endfacet
  facet normal 0.707107 -0.707107 0
    outer loop
      vertex 4.44543 0.400286 10.2366
      vertex 4.17171 0.126568 16.6982
      vertex 4.2719 0.226755 10.1364
    endloop
  endfacet
  facet normal 0.707107 -0.707107 0
    outer loop
      vertex 4.44543 0.400286 10.2366
      vertex 4.44543 0.400286 16.6982
      vertex 4.17171 0.126568 16.6982
    endloop
  endfacet
  facet normal 0 -0.5 0.866026
    outer loop
      vertex 4.44543 0.400286 10.2366
      vertex 4.2719 0.226755 10.1364
      vertex 17.5138 0.226755 10.1364
    endloop
  endfacet
  facet normal 0 -0.5 0.866026
    outer loop
      vertex 4.49193 0.573816 10.3368
      vertex 4.44543 0.400286 10.2366
      vertex 17.5138 0.573816 10.3368
    endloop
  endfacet
  facet normal 0 -0.5 0.866026
    outer loop
      vertex 17.5138 0.573816 10.3368
      vertex 4.44543 0.400286 10.2366
      vertex 17.5138 0.226755 10.1364
    endloop
  endfacet
  facet normal 0.132788 -0.495572 0.858357
    outer loop
      vertex 17.5138 0.573816 10.3368
      vertex 17.5138 0.226755 10.1364
      vertex 17.7875 0.300098 10.1364
    endloop
  endfacet
  facet normal 0.617566 -0.617566 0.487058
    outer loop
      vertex 17.9879 0.500474 10.1364
      vertex 17.8877 0.126568 9.78938
      vertex 18.1614 0.400286 9.78938
    endloop
  endfacet
  facet normal 0.707107 -0.707107 0
    outer loop
      vertex 17.8877 0.126568 9.78938
      vertex 17.8877 0.126568 0.573816
      vertex 18.1614 0.400286 0.573816
    endloop
  endfacet
  facet normal 0.707107 -0.707107 0
    outer loop
      vertex 18.1614 0.400286 9.78938
      vertex 17.8877 0.126568 9.78938
      vertex 18.1614 0.400286 0.573816
    endloop
  endfacet
  facet normal 0.617566 -0.617566 0.487058
    outer loop
      vertex 17.9879 0.500474 10.1364
      vertex 17.7875 0.300098 10.1364
      vertex 17.8877 0.126568 9.78938
    endloop
  endfacet
  facet normal 0.132788 -0.495572 0.858357
    outer loop
      vertex 17.614 0.600662 10.3368
      vertex 17.5138 0.573816 10.3368
      vertex 17.7875 0.300098 10.1364
    endloop
  endfacet
  facet normal 0.362784 -0.362784 0.858356
    outer loop
      vertex 17.9879 0.500474 10.1364
      vertex 17.614 0.600662 10.3368
      vertex 17.7875 0.300098 10.1364
    endloop
  endfacet
  facet normal 0.965926 -0.258819 0
    outer loop
      vertex 18.1614 0.400286 9.78938
      vertex 18.1614 0.400286 0.573816
      vertex 18.2616 0.774192 0.573816
    endloop
  endfacet
  facet normal 0.965926 -0.258819 0
    outer loop
      vertex 18.2616 0.774192 9.78938
      vertex 18.1614 0.400286 9.78938
      vertex 18.2616 0.774192 0.573816
    endloop
  endfacet
  facet normal 1 0 0
    outer loop
      vertex 18.2616 3.79781 6.33498
      vertex 18.2616 0.774192 0.573816
      vertex 18.2616 17.0058 0.573816
    endloop
  endfacet
  facet normal 1 0 0
    outer loop
      vertex 18.2616 3.79781 6.33498
      vertex 18.2616 3.79781 9.78938
      vertex 18.2616 0.774192 9.78938
    endloop
  endfacet
  facet normal 1 0 0
    outer loop
      vertex 18.2616 17.0058 9.78938
      vertex 18.2616 13.9822 9.78938
      vertex 18.2616 17.0058 0.573816
    endloop
  endfacet
  facet normal 1 0 0
    outer loop
      vertex 18.2616 13.9822 9.78938
      vertex 18.2616 13.9822 6.33498
      vertex 18.2616 17.0058 0.573816
    endloop
  endfacet
  facet normal 1 0 0
    outer loop
      vertex 18.2616 0.774192 9.78938
      vertex 18.2616 0.774192 0.573816
      vertex 18.2616 3.79781 6.33498
    endloop
  endfacet
  facet normal 1 0 0
    outer loop
      vertex 18.2616 13.9822 6.33498
      vertex 18.2616 3.79781 6.33498
      vertex 18.2616 17.0058 0.573816
    endloop
  endfacet
  facet normal 0.965926 0.258819 0
    outer loop
      vertex 18.2616 17.0058 0.573816
      vertex 18.1614 17.3797 0.573816
      vertex 18.1614 17.3797 9.78938
    endloop
  endfacet
  facet normal 0.965926 0.258819 0
    outer loop
      vertex 18.2616 17.0058 9.78938
      vertex 18.2616 17.0058 0.573816
      vertex 18.1614 17.3797 9.78938
    endloop
  endfacet
  facet normal 0.707107 0.707107 0
    outer loop
      vertex 18.1614 17.3797 0.573816
      vertex 17.8877 17.6534 0.573816
      vertex 17.8877 17.6534 9.78938
    endloop
  endfacet
  facet normal 0.707107 0.707107 0
    outer loop
      vertex 18.1614 17.3797 9.78938
      vertex 18.1614 17.3797 0.573816
      vertex 17.8877 17.6534 9.78938
    endloop
  endfacet
  facet normal 0.617566 0.617566 0.487058
    outer loop
      vertex 18.1614 17.3797 9.78938
      vertex 17.8877 17.6534 9.78938
      vertex 17.9879 17.2795 10.1364
    endloop
  endfacet
  facet normal 0.617566 0.617566 0.487058
    outer loop
      vertex 17.8877 17.6534 9.78938
      vertex 17.7875 17.4799 10.1364
      vertex 17.9879 17.2795 10.1364
    endloop
  endfacet
  facet normal 0.362784 0.362784 0.858356
    outer loop
      vertex 17.7875 17.4799 10.1364
      vertex 17.614 17.1793 10.3368
      vertex 17.9879 17.2795 10.1364
    endloop
  endfacet
  facet normal 0.132788 0.495572 0.858357
    outer loop
      vertex 17.7875 17.4799 10.1364
      vertex 17.5138 17.2062 10.3368
      vertex 17.614 17.1793 10.3368
    endloop
  endfacet
  facet normal 0.132788 0.495572 0.858357
    outer loop
      vertex 17.5138 17.5532 10.1364
      vertex 17.5138 17.2062 10.3368
      vertex 17.7875 17.4799 10.1364
    endloop
  endfacet
  facet normal 0 0.5 0.866026
    outer loop
      vertex 17.5138 17.5532 10.1364
      vertex 4.2719 17.5532 10.1364
      vertex 4.44543 17.3797 10.2366
    endloop
  endfacet
  facet normal 0 0.5 0.866026
    outer loop
      vertex 4.49193 17.2062 10.3368
      vertex 17.5138 17.5532 10.1364
      vertex 4.44543 17.3797 10.2366
    endloop
  endfacet
  facet normal 0 0.5 0.866026
    outer loop
      vertex 4.49193 17.2062 10.3368
      vertex 17.5138 17.2062 10.3368
      vertex 17.5138 17.5532 10.1364
    endloop
  endfacet
  facet normal 0.707107 0.707107 0
    outer loop
      vertex 4.17171 17.6534 9.96291
      vertex 4.17171 17.6534 16.6982
      vertex 4.2719 17.5532 10.1364
    endloop
  endfacet
  facet normal 0.707107 0.707107 0
    outer loop
      vertex 4.2719 17.5532 10.1364
      vertex 4.17171 17.6534 16.6982
      vertex 4.44543 17.3797 16.6982
    endloop
  endfacet
  facet normal 0.707107 0.707107 0
    outer loop
      vertex 4.2719 17.5532 10.1364
      vertex 4.44543 17.3797 16.6982
      vertex 4.44543 17.3797 10.2366
    endloop
  endfacet
  facet normal 0.965926 0.258819 0
    outer loop
      vertex 4.49193 17.2062 10.3368
      vertex 4.44543 17.3797 10.2366
      vertex 4.44543 17.3797 16.6982
    endloop
  endfacet
  facet normal 0.965926 0.258819 0
    outer loop
      vertex 4.54562 17.0058 10.3368
      vertex 4.49193 17.2062 10.3368
      vertex 4.54562 17.0058 16.6982
    endloop
  endfacet
  facet normal 0.965926 0.258819 0
    outer loop
      vertex 4.54562 17.0058 16.6982
      vertex 4.49193 17.2062 10.3368
      vertex 4.44543 17.3797 16.6982
    endloop
  endfacet
  facet normal 1 0 0
    outer loop
      vertex 4.54562 4.54562 9.78938
      vertex 4.54562 13.2344 6.88242
      vertex 4.54562 0.774192 16.6982
    endloop
  endfacet
  facet normal 1 0 0
    outer loop
      vertex 4.54562 0.774192 16.6982
      vertex 4.54562 0.774192 10.3368
      vertex 4.54562 3.99818 10.3368
    endloop
  endfacet
  facet normal 1 0 0
    outer loop
      vertex 4.54562 13.2344 9.78938
      vertex 4.54562 13.4348 10.1364
      vertex 4.54562 0.774192 16.6982
    endloop
  endfacet
  facet normal 1 0 0
    outer loop
      vertex 4.54562 4.34524 10.1364
      vertex 4.54562 0.774192 16.6982
      vertex 4.54562 3.99818 10.3368
    endloop
  endfacet
  facet normal 1 0 0
    outer loop
      vertex 4.54562 4.34524 10.1364
      vertex 4.54562 4.54562 9.78938
      vertex 4.54562 0.774192 16.6982
    endloop
  endfacet
  facet normal 1 0 0
    outer loop
      vertex 4.54562 4.54562 6.88242
      vertex 4.54562 13.2344 6.88242
      vertex 4.54562 4.54562 9.78938
    endloop
  endfacet
  facet normal 1 0 0
    outer loop
      vertex 4.54562 13.2344 6.88242
      vertex 4.54562 13.2344 9.78938
      vertex 4.54562 0.774192 16.6982
    endloop
  endfacet
  facet normal 1 0 0
    outer loop
      vertex 4.54562 13.4348 10.1364
      vertex 4.54562 13.7818 10.3368
      vertex 4.54562 0.774192 16.6982
    endloop
  endfacet
  facet normal 1 0 0
    outer loop
      vertex 4.54562 13.7818 10.3368
      vertex 4.54562 17.0058 10.3368
      vertex 4.54562 0.774192 16.6982
    endloop
  endfacet
  facet normal 1 0 0
    outer loop
      vertex 4.54562 17.0058 10.3368
      vertex 4.54562 17.0058 16.6982
      vertex 4.54562 0.774192 16.6982
    endloop
  endfacet
  facet normal 0.965926 -0.258819 0
    outer loop
      vertex 4.44543 0.400286 16.6982
      vertex 4.44543 0.400286 10.2366
      vertex 4.49193 0.573816 10.3368
    endloop
  endfacet
  facet normal 0.965926 -0.258819 0
    outer loop
      vertex 4.54562 0.774192 10.3368
      vertex 4.44543 0.400286 16.6982
      vertex 4.49193 0.573816 10.3368
    endloop
  endfacet
  facet normal 0.965926 -0.258819 0
    outer loop
      vertex 4.54562 0.774192 10.3368
      vertex 4.54562 0.774192 16.6982
      vertex 4.44543 0.400286 16.6982
    endloop
  endfacet
  facet normal 0 0 1
    outer loop
      vertex 4.54562 0.774192 10.3368
      vertex 4.49193 0.573816 10.3368
      vertex 17.5138 0.573816 10.3368
    endloop
  endfacet
  facet normal 0 0 1
    outer loop
      vertex 17.6873 0.674004 10.3368
      vertex 4.54562 0.774192 10.3368
      vertex 17.614 0.600662 10.3368
    endloop
  endfacet
  facet normal 0 0 1
    outer loop
      vertex 17.614 0.600662 10.3368
      vertex 4.54562 0.774192 10.3368
      vertex 17.5138 0.573816 10.3368
    endloop
  endfacet
  facet normal 0 0 1
    outer loop
      vertex 17.7142 0.774192 10.3368
      vertex 4.54562 0.774192 10.3368
      vertex 17.6873 0.674004 10.3368
    endloop
  endfacet
  facet normal 0 0 1
    outer loop
      vertex 17.7142 3.79781 10.3368
      vertex 4.54562 0.774192 10.3368
      vertex 17.7142 0.774192 10.3368
    endloop
  endfacet
  facet normal 0 0 1
    outer loop
      vertex 17.6873 3.898 10.3368
      vertex 4.54562 0.774192 10.3368
      vertex 17.7142 3.79781 10.3368
    endloop
  endfacet
  facet normal 0 0 1
    outer loop
      vertex 17.614 3.97134 10.3368
      vertex 4.54562 0.774192 10.3368
      vertex 17.6873 3.898 10.3368
    endloop
  endfacet
  facet normal 0 0 1
    outer loop
      vertex 17.5138 3.99818 10.3368
      vertex 4.54562 0.774192 10.3368
      vertex 17.614 3.97134 10.3368
    endloop
  endfacet
  facet normal 0 0 1
    outer loop
      vertex 4.54562 3.99818 10.3368
      vertex 4.54562 0.774192 10.3368
      vertex 17.5138 3.99818 10.3368
    endloop
  endfacet
  facet normal 0.362784 -0.362784 0.858356
    outer loop
      vertex 17.6873 0.674004 10.3368
      vertex 17.614 0.600662 10.3368
      vertex 17.9879 0.500474 10.1364
    endloop
  endfacet
  facet normal 0.495572 -0.132788 0.858357
    outer loop
      vertex 17.7142 0.774192 10.3368
      vertex 17.6873 0.674004 10.3368
      vertex 17.9879 0.500474 10.1364
    endloop
  endfacet
  facet normal 0.495572 -0.132788 0.858357
    outer loop
      vertex 18.0612 0.774192 10.1364
      vertex 17.7142 0.774192 10.3368
      vertex 17.9879 0.500474 10.1364
    endloop
  endfacet
  facet normal 0.84361 -0.226045 0.487058
    outer loop
      vertex 18.0612 0.774192 10.1364
      vertex 17.9879 0.500474 10.1364
      vertex 18.2616 0.774192 9.78938
    endloop
  endfacet
  facet normal 0.84361 -0.226045 0.487058
    outer loop
      vertex 18.2616 0.774192 9.78938
      vertex 17.9879 0.500474 10.1364
      vertex 18.1614 0.400286 9.78938
    endloop
  endfacet
  facet normal 0.866026 0 0.5
    outer loop
      vertex 18.0612 3.79781 10.1364
      vertex 18.0612 0.774192 10.1364
      vertex 18.2616 0.774192 9.78938
    endloop
  endfacet
  facet normal 0.866026 0 0.5
    outer loop
      vertex 18.2616 3.79781 9.78938
      vertex 18.0612 3.79781 10.1364
      vertex 18.2616 0.774192 9.78938
    endloop
  endfacet
  facet normal 0.965926 0.258819 0
    outer loop
      vertex 18.2616 3.79781 6.33498
      vertex 18.1614 4.17171 6.50851
      vertex 18.1614 4.17171 9.78938
    endloop
  endfacet
  facet normal 0.965926 0.258819 0
    outer loop
      vertex 18.2616 3.79781 9.78938
      vertex 18.2616 3.79781 6.33498
      vertex 18.1614 4.17171 9.78938
    endloop
  endfacet
  facet normal 0.84361 0.226045 0.487058
    outer loop
      vertex 18.2616 3.79781 9.78938
      vertex 17.9879 4.07153 10.1364
      vertex 18.0612 3.79781 10.1364
    endloop
  endfacet
  facet normal 0.84361 0.226045 0.487058
    outer loop
      vertex 18.1614 4.17171 9.78938
      vertex 17.9879 4.07153 10.1364
      vertex 18.2616 3.79781 9.78938
    endloop
  endfacet
  facet normal 0.866026 0 0.5
    outer loop
      vertex 18.0612 13.5081 6.68204
      vertex 18.0612 4.2719 6.68204
      vertex 18.1614 4.17171 6.50851
    endloop
  endfacet
  facet normal 0.866026 0 0.5
    outer loop
      vertex 18.2616 3.79781 6.33498
      vertex 18.0612 13.5081 6.68204
      vertex 18.1614 4.17171 6.50851
    endloop
  endfacet
  facet normal 0.866026 0 0.5
    outer loop
      vertex 18.2616 3.79781 6.33498
      vertex 18.1614 13.6083 6.50851
      vertex 18.0612 13.5081 6.68204
    endloop
  endfacet
  facet normal 0.866026 0 0.5
    outer loop
      vertex 18.2616 3.79781 6.33498
      vertex 18.2616 13.9822 6.33498
      vertex 18.1614 13.6083 6.50851
    endloop
  endfacet
  facet normal 0.965926 -0.258819 0
    outer loop
      vertex 18.1614 13.6083 9.78938
      vertex 18.1614 13.6083 6.50851
      vertex 18.2616 13.9822 6.33498
    endloop
  endfacet
  facet normal 0.965926 -0.258819 0
    outer loop
      vertex 18.2616 13.9822 9.78938
      vertex 18.1614 13.6083 9.78938
      vertex 18.2616 13.9822 6.33498
    endloop
  endfacet
  facet normal 0.84361 -0.226045 0.487058
    outer loop
      vertex 18.0612 13.9822 10.1364
      vertex 17.9879 13.7085 10.1364
      vertex 18.2616 13.9822 9.78938
    endloop
  endfacet
  facet normal 0.866026 0 0.5
    outer loop
      vertex 18.0612 17.0058 10.1364
      vertex 18.0612 13.9822 10.1364
      vertex 18.2616 13.9822 9.78938
    endloop
  endfacet
  facet normal 0.866026 0 0.5
    outer loop
      vertex 18.2616 17.0058 9.78938
      vertex 18.0612 17.0058 10.1364
      vertex 18.2616 13.9822 9.78938
    endloop
  endfacet
  facet normal 0.84361 -0.226045 0.487058
    outer loop
      vertex 18.2616 13.9822 9.78938
      vertex 17.9879 13.7085 10.1364
      vertex 18.1614 13.6083 9.78938
    endloop
  endfacet
  facet normal 0.84361 0.226045 0.487058
    outer loop
      vertex 18.2616 17.0058 9.78938
      vertex 17.9879 17.2795 10.1364
      vertex 18.0612 17.0058 10.1364
    endloop
  endfacet
  facet normal 0.84361 0.226045 0.487058
    outer loop
      vertex 18.1614 17.3797 9.78938
      vertex 17.9879 17.2795 10.1364
      vertex 18.2616 17.0058 9.78938
    endloop
  endfacet
  facet normal 0.495572 0.132788 0.858357
    outer loop
      vertex 17.9879 17.2795 10.1364
      vertex 17.7142 17.0058 10.3368
      vertex 18.0612 17.0058 10.1364
    endloop
  endfacet
  facet normal 0.495572 0.132788 0.858357
    outer loop
      vertex 17.9879 17.2795 10.1364
      vertex 17.6873 17.106 10.3368
      vertex 17.7142 17.0058 10.3368
    endloop
  endfacet
  facet normal 0.362784 0.362784 0.858356
    outer loop
      vertex 17.9879 17.2795 10.1364
      vertex 17.614 17.1793 10.3368
      vertex 17.6873 17.106 10.3368
    endloop
  endfacet
  facet normal 0 0 1
    outer loop
      vertex 17.5138 17.2062 10.3368
      vertex 4.49193 17.2062 10.3368
      vertex 4.54562 17.0058 10.3368
    endloop
  endfacet
  facet normal 0 0 1
    outer loop
      vertex 4.54562 13.7818 10.3368
      vertex 17.5138 17.2062 10.3368
      vertex 4.54562 17.0058 10.3368
    endloop
  endfacet
  facet normal 0 0 1
    outer loop
      vertex 4.54562 13.7818 10.3368
      vertex 17.5138 13.7818 10.3368
      vertex 17.5138 17.2062 10.3368
    endloop
  endfacet
  facet normal 0 0 1
    outer loop
      vertex 17.5138 13.7818 10.3368
      vertex 17.614 13.8087 10.3368
      vertex 17.5138 17.2062 10.3368
    endloop
  endfacet
  facet normal 0 0 1
    outer loop
      vertex 17.614 13.8087 10.3368
      vertex 17.6873 13.882 10.3368
      vertex 17.5138 17.2062 10.3368
    endloop
  endfacet
  facet normal 0 0 1
    outer loop
      vertex 17.6873 13.882 10.3368
      vertex 17.7142 13.9822 10.3368
      vertex 17.5138 17.2062 10.3368
    endloop
  endfacet
  facet normal 0 0 1
    outer loop
      vertex 17.7142 13.9822 10.3368
      vertex 17.7142 17.0058 10.3368
      vertex 17.5138 17.2062 10.3368
    endloop
  endfacet
  facet normal 0 0 1
    outer loop
      vertex 17.7142 17.0058 10.3368
      vertex 17.6873 17.106 10.3368
      vertex 17.5138 17.2062 10.3368
    endloop
  endfacet
  facet normal 0 0 1
    outer loop
      vertex 17.6873 17.106 10.3368
      vertex 17.614 17.1793 10.3368
      vertex 17.5138 17.2062 10.3368
    endloop
  endfacet
  facet normal 0 -0.5 0.866026
    outer loop
      vertex 4.54562 13.7818 10.3368
      vertex 4.54562 13.4348 10.1364
      vertex 17.5138 13.4348 10.1364
    endloop
  endfacet
  facet normal 0 -0.5 0.866026
    outer loop
      vertex 17.5138 13.7818 10.3368
      vertex 4.54562 13.7818 10.3368
      vertex 17.5138 13.4348 10.1364
    endloop
  endfacet
  facet normal 0 -0.866026 0.5
    outer loop
      vertex 4.54562 13.4348 10.1364
      vertex 4.54562 13.2344 9.78938
      vertex 17.5138 13.2344 9.78938
    endloop
  endfacet
  facet normal 0 -0.866026 0.5
    outer loop
      vertex 17.5138 13.4348 10.1364
      vertex 4.54562 13.4348 10.1364
      vertex 17.5138 13.2344 9.78938
    endloop
  endfacet
  facet normal 0 -1 0
    outer loop
      vertex 4.54562 13.2344 9.78938
      vertex 4.54562 13.2344 6.88242
      vertex 17.5138 13.2344 6.88242
    endloop
  endfacet
  facet normal 0 -1 0
    outer loop
      vertex 17.5138 13.2344 9.78938
      vertex 4.54562 13.2344 9.78938
      vertex 17.5138 13.2344 6.88242
    endloop
  endfacet
  facet normal 0 0 1
    outer loop
      vertex 4.54562 13.2344 6.88242
      vertex 4.54562 4.54562 6.88242
      vertex 17.5138 4.54562 6.88242
    endloop
  endfacet
  facet normal 0 0 1
    outer loop
      vertex 17.7142 4.49193 6.88242
      vertex 4.54562 13.2344 6.88242
      vertex 17.5138 4.54562 6.88242
    endloop
  endfacet
  facet normal 0 0 1
    outer loop
      vertex 17.7142 4.49193 6.88242
      vertex 17.5138 13.2344 6.88242
      vertex 4.54562 13.2344 6.88242
    endloop
  endfacet
  facet normal 0 0 1
    outer loop
      vertex 17.7142 4.49193 6.88242
      vertex 17.7142 13.2881 6.88242
      vertex 17.5138 13.2344 6.88242
    endloop
  endfacet
  facet normal 0 1 0
    outer loop
      vertex 4.54562 4.54562 6.88242
      vertex 4.54562 4.54562 9.78938
      vertex 17.5138 4.54562 6.88242
    endloop
  endfacet
  facet normal 0 1 0
    outer loop
      vertex 17.5138 4.54562 6.88242
      vertex 4.54562 4.54562 9.78938
      vertex 17.5138 4.54562 9.78938
    endloop
  endfacet
  facet normal 0 0.866026 0.5
    outer loop
      vertex 4.54562 4.34524 10.1364
      vertex 17.5138 4.34524 10.1364
      vertex 4.54562 4.54562 9.78938
    endloop
  endfacet
  facet normal 0 0.866026 0.5
    outer loop
      vertex 4.54562 4.54562 9.78938
      vertex 17.5138 4.34524 10.1364
      vertex 17.5138 4.54562 9.78938
    endloop
  endfacet
  facet normal 0 0.5 0.866026
    outer loop
      vertex 4.54562 4.34524 10.1364
      vertex 4.54562 3.99818 10.3368
      vertex 17.5138 3.99818 10.3368
    endloop
  endfacet
  facet normal 0 0.5 0.866026
    outer loop
      vertex 17.5138 4.34524 10.1364
      vertex 4.54562 4.34524 10.1364
      vertex 17.5138 3.99818 10.3368
    endloop
  endfacet
  facet normal 0.132788 0.495572 0.858357
    outer loop
      vertex 17.7875 4.2719 10.1364
      vertex 17.5138 3.99818 10.3368
      vertex 17.614 3.97134 10.3368
    endloop
  endfacet
  facet normal 0.132788 0.495572 0.858357
    outer loop
      vertex 17.5138 4.34524 10.1364
      vertex 17.5138 3.99818 10.3368
      vertex 17.7875 4.2719 10.1364
    endloop
  endfacet
  facet normal 0.362784 0.362784 0.858356
    outer loop
      vertex 17.7875 4.2719 10.1364
      vertex 17.614 3.97134 10.3368
      vertex 17.9879 4.07153 10.1364
    endloop
  endfacet
  facet normal 0.362784 0.362784 0.858356
    outer loop
      vertex 17.9879 4.07153 10.1364
      vertex 17.614 3.97134 10.3368
      vertex 17.6873 3.898 10.3368
    endloop
  endfacet
  facet normal 0.495572 0.132788 0.858357
    outer loop
      vertex 17.9879 4.07153 10.1364
      vertex 17.6873 3.898 10.3368
      vertex 17.7142 3.79781 10.3368
    endloop
  endfacet
  facet normal 0.495572 0.132788 0.858357
    outer loop
      vertex 17.9879 4.07153 10.1364
      vertex 17.7142 3.79781 10.3368
      vertex 18.0612 3.79781 10.1364
    endloop
  endfacet
  facet normal 0.5 0 0.866026
    outer loop
      vertex 17.7142 3.79781 10.3368
      vertex 17.7142 0.774192 10.3368
      vertex 18.0612 0.774192 10.1364
    endloop
  endfacet
  facet normal 0.5 0 0.866026
    outer loop
      vertex 18.0612 3.79781 10.1364
      vertex 17.7142 3.79781 10.3368
      vertex 18.0612 0.774192 10.1364
    endloop
  endfacet
  facet normal 0.617566 0.617566 0.487058
    outer loop
      vertex 18.1614 4.17171 9.78938
      vertex 17.8877 4.44543 9.78938
      vertex 17.9879 4.07153 10.1364
    endloop
  endfacet
  facet normal 0.707107 0.707107 0
    outer loop
      vertex 18.0612 4.2719 6.68204
      vertex 17.8877 4.44543 6.78223
      vertex 17.8877 4.44543 9.78938
    endloop
  endfacet
  facet normal 0.707107 0.707107 0
    outer loop
      vertex 18.1614 4.17171 6.50851
      vertex 18.0612 4.2719 6.68204
      vertex 18.1614 4.17171 9.78938
    endloop
  endfacet
  facet normal 0.707107 0.707107 0
    outer loop
      vertex 18.1614 4.17171 9.78938
      vertex 18.0612 4.2719 6.68204
      vertex 17.8877 4.44543 9.78938
    endloop
  endfacet
  facet normal 0.617566 0.617566 0.487058
    outer loop
      vertex 17.8877 4.44543 9.78938
      vertex 17.7875 4.2719 10.1364
      vertex 17.9879 4.07153 10.1364
    endloop
  endfacet
  facet normal 0.5 0 0.866026
    outer loop
      vertex 17.7142 13.2881 6.88242
      vertex 17.7142 4.49193 6.88242
      vertex 17.8877 4.44543 6.78223
    endloop
  endfacet
  facet normal 0.5 0 0.866026
    outer loop
      vertex 18.0612 4.2719 6.68204
      vertex 17.7142 13.2881 6.88242
      vertex 17.8877 4.44543 6.78223
    endloop
  endfacet
  facet normal 0.5 0 0.866026
    outer loop
      vertex 18.0612 4.2719 6.68204
      vertex 17.8877 13.3346 6.78223
      vertex 17.7142 13.2881 6.88242
    endloop
  endfacet
  facet normal 0.5 0 0.866026
    outer loop
      vertex 18.0612 4.2719 6.68204
      vertex 18.0612 13.5081 6.68204
      vertex 17.8877 13.3346 6.78223
    endloop
  endfacet
  facet normal 0.707107 -0.707107 0
    outer loop
      vertex 17.8877 13.3346 9.78938
      vertex 17.8877 13.3346 6.78223
      vertex 18.0612 13.5081 6.68204
    endloop
  endfacet
  facet normal 0.707107 -0.707107 0
    outer loop
      vertex 18.1614 13.6083 6.50851
      vertex 17.8877 13.3346 9.78938
      vertex 18.0612 13.5081 6.68204
    endloop
  endfacet
  facet normal 0.707107 -0.707107 0
    outer loop
      vertex 18.1614 13.6083 6.50851
      vertex 18.1614 13.6083 9.78938
      vertex 17.8877 13.3346 9.78938
    endloop
  endfacet
  facet normal 0.617566 -0.617566 0.487058
    outer loop
      vertex 17.9879 13.7085 10.1364
      vertex 17.8877 13.3346 9.78938
      vertex 18.1614 13.6083 9.78938
    endloop
  endfacet
  facet normal 0.495572 -0.132788 0.858357
    outer loop
      vertex 18.0612 13.9822 10.1364
      vertex 17.7142 13.9822 10.3368
      vertex 17.9879 13.7085 10.1364
    endloop
  endfacet
  facet normal 0.5 0 0.866026
    outer loop
      vertex 17.7142 17.0058 10.3368
      vertex 17.7142 13.9822 10.3368
      vertex 18.0612 13.9822 10.1364
    endloop
  endfacet
  facet normal 0.5 0 0.866026
    outer loop
      vertex 18.0612 17.0058 10.1364
      vertex 17.7142 17.0058 10.3368
      vertex 18.0612 13.9822 10.1364
    endloop
  endfacet
  facet normal 0.617566 -0.617566 0.487058
    outer loop
      vertex 17.9879 13.7085 10.1364
      vertex 17.7875 13.5081 10.1364
      vertex 17.8877 13.3346 9.78938
    endloop
  endfacet
  facet normal 0.362784 -0.362784 0.858356
    outer loop
      vertex 17.9879 13.7085 10.1364
      vertex 17.614 13.8087 10.3368
      vertex 17.7875 13.5081 10.1364
    endloop
  endfacet
  facet normal 0.362784 -0.362784 0.858356
    outer loop
      vertex 17.6873 13.882 10.3368
      vertex 17.614 13.8087 10.3368
      vertex 17.9879 13.7085 10.1364
    endloop
  endfacet
  facet normal 0.495572 -0.132788 0.858357
    outer loop
      vertex 17.7142 13.9822 10.3368
      vertex 17.6873 13.882 10.3368
      vertex 17.9879 13.7085 10.1364
    endloop
  endfacet
  facet normal 0.132788 -0.495572 0.858357
    outer loop
      vertex 17.614 13.8087 10.3368
      vertex 17.5138 13.7818 10.3368
      vertex 17.7875 13.5081 10.1364
    endloop
  endfacet
  facet normal 0.132788 -0.495572 0.858357
    outer loop
      vertex 17.5138 13.7818 10.3368
      vertex 17.5138 13.4348 10.1364
      vertex 17.7875 13.5081 10.1364
    endloop
  endfacet
  facet normal 0.226045 -0.84361 0.487058
    outer loop
      vertex 17.5138 13.4348 10.1364
      vertex 17.5138 13.2344 9.78938
      vertex 17.7875 13.5081 10.1364
    endloop
  endfacet
  facet normal 0.258819 -0.965926 0
    outer loop
      vertex 17.5138 13.2344 9.78938
      vertex 17.5138 13.2344 6.88242
      vertex 17.7142 13.2881 6.88242
    endloop
  endfacet
  facet normal 0.258819 -0.965926 0
    outer loop
      vertex 17.8877 13.3346 6.78223
      vertex 17.5138 13.2344 9.78938
      vertex 17.7142 13.2881 6.88242
    endloop
  endfacet
  facet normal 0.258819 -0.965926 0
    outer loop
      vertex 17.8877 13.3346 6.78223
      vertex 17.8877 13.3346 9.78938
      vertex 17.5138 13.2344 9.78938
    endloop
  endfacet
  facet normal 0.226045 -0.84361 0.487058
    outer loop
      vertex 17.7875 13.5081 10.1364
      vertex 17.5138 13.2344 9.78938
      vertex 17.8877 13.3346 9.78938
    endloop
  endfacet
  facet normal 0.258819 0.965926 0
    outer loop
      vertex 17.5138 4.54562 6.88242
      vertex 17.5138 4.54562 9.78938
      vertex 17.7142 4.49193 6.88242
    endloop
  endfacet
  facet normal 0.258819 0.965926 0
    outer loop
      vertex 17.7142 4.49193 6.88242
      vertex 17.5138 4.54562 9.78938
      vertex 17.8877 4.44543 9.78938
    endloop
  endfacet
  facet normal 0.258819 0.965926 0
    outer loop
      vertex 17.7142 4.49193 6.88242
      vertex 17.8877 4.44543 9.78938
      vertex 17.8877 4.44543 6.78223
    endloop
  endfacet
  facet normal 0.226045 0.84361 0.487058
    outer loop
      vertex 17.8877 4.44543 9.78938
      vertex 17.5138 4.54562 9.78938
      vertex 17.7875 4.2719 10.1364
    endloop
  endfacet
  facet normal 0.226045 0.84361 0.487058
    outer loop
      vertex 17.5138 4.54562 9.78938
      vertex 17.5138 4.34524 10.1364
      vertex 17.7875 4.2719 10.1364
    endloop
  endfacet
endsolid OpenSCAD_Model
