solid OpenSCAD_Model
  facet normal -1 0 0
    outer loop
      vertex 0.0263799 0.774192 0.573816
      vertex 0.0263799 0.774192 16.6982
      vertex 0.0263799 26.6578 0.573816
    endloop
  endfacet
  facet normal -1 0 0
    outer loop
      vertex 0.0263799 26.6578 9.78938
      vertex 0.0263799 0.774192 16.6982
      vertex 0.0263799 26.6578 16.6982
    endloop
  endfacet
  facet normal -1 0 0
    outer loop
      vertex 0.0263799 26.6578 0.573816
      vertex 0.0263799 0.774192 16.6982
      vertex 0.0263799 26.6578 9.78938
    endloop
  endfacet
  facet normal -0.965926 -0.258819 0
    outer loop
      vertex 0.0263799 0.774192 0.573816
      vertex 0.126568 0.400286 0.573816
      vertex 0.0263799 0.774192 16.6982
    endloop
  endfacet
  facet normal -0.965926 -0.258819 0
    outer loop
      vertex 0.0263799 0.774192 16.6982
      vertex 0.126568 0.400286 0.573816
      vertex 0.126568 0.400286 16.6982
    endloop
  endfacet
  facet normal -0.84361 -0.226045 -0.487058
    outer loop
      vertex 0.126568 0.400286 0.573816
      vertex 0.0263799 0.774192 0.573816
      vertex 0.300098 0.500474 0.226755
    endloop
  endfacet
  facet normal -0.84361 -0.226045 -0.487058
    outer loop
      vertex 0.300098 0.500474 0.226755
      vertex 0.0263799 0.774192 0.573816
      vertex 0.226755 0.774192 0.226755
    endloop
  endfacet
  facet normal -0.866026 0 -0.5
    outer loop
      vertex 0.0263799 0.774192 0.573816
      vertex 0.0263799 26.6578 0.573816
      vertex 0.226755 0.774192 0.226755
    endloop
  endfacet
  facet normal -0.866026 0 -0.5
    outer loop
      vertex 0.226755 0.774192 0.226755
      vertex 0.0263799 26.6578 0.573816
      vertex 0.226755 26.6578 0.226755
    endloop
  endfacet
  facet normal -0.84361 0.226045 -0.487058
    outer loop
      vertex 0.226755 26.6578 0.226755
      vertex 0.0263799 26.6578 0.573816
      vertex 0.300098 26.9315 0.226755
    endloop
  endfacet
  facet normal -0.84361 0.226045 -0.487058
    outer loop
      vertex 0.300098 26.9315 0.226755
      vertex 0.0263799 26.6578 0.573816
      vertex 0.126568 27.0317 0.573816
    endloop
  endfacet
  facet normal -0.965926 0.258819 0
    outer loop
      vertex 0.0263799 26.6578 0.573816
      vertex 0.0263799 26.6578 9.78938
      vertex 0.126568 27.0317 0.573816
    endloop
  endfacet
  facet normal -0.965926 0.258819 0
    outer loop
      vertex 0.126568 27.0317 0.573816
      vertex 0.0263799 26.6578 9.78938
      vertex 0.126568 27.0317 9.78938
    endloop
  endfacet
  facet normal -0.965926 0.258819 0
    outer loop
      vertex 0.0263799 26.6578 9.78938
      vertex 0.0263799 26.6578 16.6982
      vertex 0.126568 27.0317 16.6982
    endloop
  endfacet
  facet normal -0.965926 0.258819 0
    outer loop
      vertex 0.0263799 26.6578 9.78938
      vertex 0.126568 27.0317 16.6982
      vertex 0.126568 27.0317 9.78938
    endloop
  endfacet
  facet normal -0.84361 0.226045 0.487058
    outer loop
      vertex 0.126568 27.0317 16.6982
      vertex 0.0263799 26.6578 16.6982
      vertex 0.300098 26.9315 17.0452
    endloop
  endfacet
  facet normal -0.84361 0.226045 0.487058
    outer loop
      vertex 0.300098 26.9315 17.0452
      vertex 0.0263799 26.6578 16.6982
      vertex 0.226755 26.6578 17.0452
    endloop
  endfacet
  facet normal -0.866026 0 0.5
    outer loop
      vertex 0.0263799 0.774192 16.6982
      vertex 0.226755 0.774192 17.0452
      vertex 0.0263799 26.6578 16.6982
    endloop
  endfacet
  facet normal -0.866026 0 0.5
    outer loop
      vertex 0.0263799 26.6578 16.6982
      vertex 0.226755 0.774192 17.0452
      vertex 0.226755 26.6578 17.0452
    endloop
  endfacet
  facet normal -0.84361 -0.226045 0.487058
    outer loop
      vertex 0.226755 0.774192 17.0452
      vertex 0.0263799 0.774192 16.6982
      vertex 0.300098 0.500474 17.0452
    endloop
  endfacet
  facet normal -0.84361 -0.226045 0.487058
    outer loop
      vertex 0.300098 0.500474 17.0452
      vertex 0.0263799 0.774192 16.6982
      vertex 0.126568 0.400286 16.6982
    endloop
  endfacet
  facet normal -0.617566 -0.617566 0.487058
    outer loop
      vertex 0.300098 0.500474 17.0452
      vertex 0.126568 0.400286 16.6982
      vertex 0.400286 0.126568 16.6982
    endloop
  endfacet
  facet normal -0.617566 -0.617566 0.487058
    outer loop
      vertex 0.500474 0.300098 17.0452
      vertex 0.300098 0.500474 17.0452
      vertex 0.400286 0.126568 16.6982
    endloop
  endfacet
  facet normal -0.707107 -0.707107 0
    outer loop
      vertex 0.126568 0.400286 16.6982
      vertex 0.126568 0.400286 0.573816
      vertex 0.400286 0.126568 0.573816
    endloop
  endfacet
  facet normal -0.707107 -0.707107 0
    outer loop
      vertex 0.400286 0.126568 16.6982
      vertex 0.126568 0.400286 16.6982
      vertex 0.400286 0.126568 0.573816
    endloop
  endfacet
  facet normal -0.617566 -0.617566 -0.487058
    outer loop
      vertex 0.400286 0.126568 0.573816
      vertex 0.126568 0.400286 0.573816
      vertex 0.300098 0.500474 0.226755
    endloop
  endfacet
  facet normal -0.617566 -0.617566 -0.487058
    outer loop
      vertex 0.500474 0.300098 0.226755
      vertex 0.400286 0.126568 0.573816
      vertex 0.300098 0.500474 0.226755
    endloop
  endfacet
  facet normal -0.362784 -0.362784 -0.858356
    outer loop
      vertex 0.300098 0.500474 0.226755
      vertex 0.600662 0.674004 0.0263799
      vertex 0.500474 0.300098 0.226755
    endloop
  endfacet
  facet normal -0.362784 -0.362784 -0.858356
    outer loop
      vertex 0.500474 0.300098 0.226755
      vertex 0.600662 0.674004 0.0263799
      vertex 0.674004 0.600662 0.0263799
    endloop
  endfacet
  facet normal -0.495572 -0.132788 -0.858357
    outer loop
      vertex 0.600662 0.674004 0.0263799
      vertex 0.300098 0.500474 0.226755
      vertex 0.573816 0.774192 0.0263799
    endloop
  endfacet
  facet normal -0.495572 -0.132788 -0.858357
    outer loop
      vertex 0.300098 0.500474 0.226755
      vertex 0.226755 0.774192 0.226755
      vertex 0.573816 0.774192 0.0263799
    endloop
  endfacet
  facet normal -0.5 0 -0.866026
    outer loop
      vertex 0.226755 0.774192 0.226755
      vertex 0.226755 26.6578 0.226755
      vertex 0.573816 0.774192 0.0263799
    endloop
  endfacet
  facet normal -0.5 0 -0.866026
    outer loop
      vertex 0.573816 0.774192 0.0263799
      vertex 0.226755 26.6578 0.226755
      vertex 0.573816 26.6578 0.0263799
    endloop
  endfacet
  facet normal -0.495572 0.132788 -0.858357
    outer loop
      vertex 0.573816 26.6578 0.0263799
      vertex 0.226755 26.6578 0.226755
      vertex 0.300098 26.9315 0.226755
    endloop
  endfacet
  facet normal -0.362784 0.362784 -0.858356
    outer loop
      vertex 0.500474 26.8158 0.0931718
      vertex 0.300098 26.9315 0.226755
      vertex 0.555062 26.8632 0.0901208
    endloop
  endfacet
  facet normal -0.362784 0.362784 -0.858356
    outer loop
      vertex 0.555062 26.8632 0.0901208
      vertex 0.300098 26.9315 0.226755
      vertex 0.500474 27.1319 0.226755
    endloop
  endfacet
  facet normal -0.617566 0.617566 -0.487058
    outer loop
      vertex 0.500474 27.1319 0.226755
      vertex 0.300098 26.9315 0.226755
      vertex 0.400286 27.3054 0.573816
    endloop
  endfacet
  facet normal -0.617566 0.617566 -0.487058
    outer loop
      vertex 0.300098 26.9315 0.226755
      vertex 0.126568 27.0317 0.573816
      vertex 0.400286 27.3054 0.573816
    endloop
  endfacet
  facet normal -0.495572 0.132788 -0.858357
    outer loop
      vertex 0.300098 26.9315 0.226755
      vertex 0.500474 26.8158 0.0931718
      vertex 0.573816 26.6578 0.0263799
    endloop
  endfacet
  facet normal -0.495572 0.132788 -0.858357
    outer loop
      vertex 0.573816 26.6578 0.0263799
      vertex 0.500474 26.8158 0.0931718
      vertex 0.587239 26.7079 0.0263799
    endloop
  endfacet
  facet normal -0.707107 0.707107 0
    outer loop
      vertex 0.126568 27.0317 0.573816
      vertex 0.126568 27.0317 9.78938
      vertex 0.400286 27.3054 0.573816
    endloop
  endfacet
  facet normal -0.707107 0.707107 0
    outer loop
      vertex 0.400286 27.3054 0.573816
      vertex 0.126568 27.0317 9.78938
      vertex 0.400286 27.3054 9.78938
    endloop
  endfacet
  facet normal -0.707107 0.707107 0
    outer loop
      vertex 0.126568 27.0317 9.78938
      vertex 0.126568 27.0317 16.6982
      vertex 0.400286 27.3054 9.78938
    endloop
  endfacet
  facet normal -0.707107 0.707107 0
    outer loop
      vertex 0.400286 27.3054 9.78938
      vertex 0.126568 27.0317 16.6982
      vertex 0.400286 27.3054 16.6982
    endloop
  endfacet
  facet normal -0.617566 0.617566 0.487058
    outer loop
      vertex 0.400286 27.3054 16.6982
      vertex 0.126568 27.0317 16.6982
      vertex 0.500474 27.1319 17.0452
    endloop
  endfacet
  facet normal -0.617566 0.617566 0.487058
    outer loop
      vertex 0.500474 27.1319 17.0452
      vertex 0.126568 27.0317 16.6982
      vertex 0.300098 26.9315 17.0452
    endloop
  endfacet
  facet normal -0.495572 0.132788 0.858357
    outer loop
      vertex 0.600662 26.758 17.2456
      vertex 0.300098 26.9315 17.0452
      vertex 0.573816 26.6578 17.2456
    endloop
  endfacet
  facet normal -0.495572 0.132788 0.858357
    outer loop
      vertex 0.300098 26.9315 17.0452
      vertex 0.226755 26.6578 17.0452
      vertex 0.573816 26.6578 17.2456
    endloop
  endfacet
  facet normal -0.362784 0.362784 0.858356
    outer loop
      vertex 0.500474 27.1319 17.0452
      vertex 0.300098 26.9315 17.0452
      vertex 0.600662 26.758 17.2456
    endloop
  endfacet
  facet normal -0.5 0 0.866026
    outer loop
      vertex 0.226755 26.6578 17.0452
      vertex 0.226755 0.774192 17.0452
      vertex 0.573816 0.774192 17.2456
    endloop
  endfacet
  facet normal -0.5 0 0.866026
    outer loop
      vertex 0.573816 26.6578 17.2456
      vertex 0.226755 26.6578 17.0452
      vertex 0.573816 0.774192 17.2456
    endloop
  endfacet
  facet normal -0.495572 -0.132788 0.858357
    outer loop
      vertex 0.573816 0.774192 17.2456
      vertex 0.226755 0.774192 17.0452
      vertex 0.300098 0.500474 17.0452
    endloop
  endfacet
  facet normal -0.362784 -0.362784 0.858356
    outer loop
      vertex 0.600662 0.674004 17.2456
      vertex 0.300098 0.500474 17.0452
      vertex 0.500474 0.300098 17.0452
    endloop
  endfacet
  facet normal -0.362784 -0.362784 0.858356
    outer loop
      vertex 0.674004 0.600662 17.2456
      vertex 0.600662 0.674004 17.2456
      vertex 0.500474 0.300098 17.0452
    endloop
  endfacet
  facet normal -0.495572 -0.132788 0.858357
    outer loop
      vertex 0.573816 0.774192 17.2456
      vertex 0.300098 0.500474 17.0452
      vertex 0.600662 0.674004 17.2456
    endloop
  endfacet
  facet normal -0.226045 -0.84361 0.487058
    outer loop
      vertex 0.774192 0.226755 17.0452
      vertex 0.500474 0.300098 17.0452
      vertex 0.774192 0.0263799 16.6982
    endloop
  endfacet
  facet normal -0.226045 -0.84361 0.487058
    outer loop
      vertex 0.500474 0.300098 17.0452
      vertex 0.400286 0.126568 16.6982
      vertex 0.774192 0.0263799 16.6982
    endloop
  endfacet
  facet normal -0.132788 -0.495572 0.858357
    outer loop
      vertex 0.674004 0.600662 17.2456
      vertex 0.500474 0.300098 17.0452
      vertex 0.774192 0.573816 17.2456
    endloop
  endfacet
  facet normal -0.132788 -0.495572 0.858357
    outer loop
      vertex 0.774192 0.573816 17.2456
      vertex 0.500474 0.300098 17.0452
      vertex 0.774192 0.226755 17.0452
    endloop
  endfacet
  facet normal -0.258819 -0.965926 0
    outer loop
      vertex 0.400286 0.126568 16.6982
      vertex 0.400286 0.126568 0.573816
      vertex 0.774192 0.0263799 0.573816
    endloop
  endfacet
  facet normal -0.258819 -0.965926 0
    outer loop
      vertex 0.774192 0.0263799 16.6982
      vertex 0.400286 0.126568 16.6982
      vertex 0.774192 0.0263799 0.573816
    endloop
  endfacet
  facet normal -0.226045 -0.84361 -0.487058
    outer loop
      vertex 0.774192 0.0263799 0.573816
      vertex 0.400286 0.126568 0.573816
      vertex 0.500474 0.300098 0.226755
    endloop
  endfacet
  facet normal -0.226045 -0.84361 -0.487058
    outer loop
      vertex 0.774192 0.0263799 0.573816
      vertex 0.500474 0.300098 0.226755
      vertex 0.774192 0.226755 0.226755
    endloop
  endfacet
  facet normal -0.132788 -0.495572 -0.858357
    outer loop
      vertex 0.774192 0.226755 0.226755
      vertex 0.500474 0.300098 0.226755
      vertex 0.774192 0.573816 0.0263799
    endloop
  endfacet
  facet normal -0.132788 -0.495572 -0.858357
    outer loop
      vertex 0.774192 0.573816 0.0263799
      vertex 0.500474 0.300098 0.226755
      vertex 0.674004 0.600662 0.0263799
    endloop
  endfacet
  facet normal 0 0 -1
    outer loop
      vertex 0.573816 0.774192 0.0263799
      vertex 0.573816 26.6578 0.0263799
      vertex 0.600662 0.674004 0.0263799
    endloop
  endfacet
  facet normal 0 0 -1
    outer loop
      vertex 0.600662 0.674004 0.0263799
      vertex 0.573816 26.6578 0.0263799
      vertex 0.587239 26.7079 0.0263799
    endloop
  endfacet
  facet normal 0 0 -1
    outer loop
      vertex 0.600662 0.674004 0.0263799
      vertex 0.587239 26.7079 0.0263799
      vertex 0.600662 26.758 0.0263799
    endloop
  endfacet
  facet normal 0 0 -1
    outer loop
      vertex 0.600662 0.674004 0.0263799
      vertex 0.600662 26.758 0.0263799
      vertex 0.618997 26.7763 0.0263799
    endloop
  endfacet
  facet normal 0 0 -1
    outer loop
      vertex 0.600662 0.674004 0.0263799
      vertex 0.618997 26.7763 0.0263799
      vertex 0.674004 26.8313 0.0263799
    endloop
  endfacet
  facet normal 0 0 -1
    outer loop
      vertex 0.600662 0.674004 0.0263799
      vertex 0.674004 26.8313 0.0263799
      vertex 0.774192 26.8582 0.0263799
    endloop
  endfacet
  facet normal 0 0 -1
    outer loop
      vertex 0.600662 0.674004 0.0263799
      vertex 0.774192 26.8582 0.0263799
      vertex 17.5138 26.8582 0.0263799
    endloop
  endfacet
  facet normal 0 0 -1
    outer loop
      vertex 0.600662 0.674004 0.0263799
      vertex 17.5138 26.8582 0.0263799
      vertex 17.614 26.8313 0.0263799
    endloop
  endfacet
  facet normal 0 0 -1
    outer loop
      vertex 0.600662 0.674004 0.0263799
      vertex 17.614 26.8313 0.0263799
      vertex 17.669 26.7763 0.0263799
    endloop
  endfacet
  facet normal 0 0 -1
    outer loop
      vertex 0.600662 0.674004 0.0263799
      vertex 17.669 26.7763 0.0263799
      vertex 17.6873 26.758 0.0263799
    endloop
  endfacet
  facet normal 0 0 -1
    outer loop
      vertex 0.600662 0.674004 0.0263799
      vertex 17.6873 26.758 0.0263799
      vertex 17.7008 26.7079 0.0263799
    endloop
  endfacet
  facet normal 0 0 -1
    outer loop
      vertex 0.600662 0.674004 0.0263799
      vertex 17.7008 26.7079 0.0263799
      vertex 17.7142 26.6578 0.0263799
    endloop
  endfacet
  facet normal 0 0 -1
    outer loop
      vertex 0.600662 0.674004 0.0263799
      vertex 17.7142 26.6578 0.0263799
      vertex 17.7142 0.774192 0.0263799
    endloop
  endfacet
  facet normal 0 0 -1
    outer loop
      vertex 0.600662 0.674004 0.0263799
      vertex 17.7142 0.774192 0.0263799
      vertex 17.6873 0.674004 0.0263799
    endloop
  endfacet
  facet normal 0 0 -1
    outer loop
      vertex 0.600662 0.674004 0.0263799
      vertex 17.6873 0.674004 0.0263799
      vertex 17.614 0.600662 0.0263799
    endloop
  endfacet
  facet normal 0 0 -1
    outer loop
      vertex 0.600662 0.674004 0.0263799
      vertex 17.614 0.600662 0.0263799
      vertex 17.5138 0.573816 0.0263799
    endloop
  endfacet
  facet normal 0 0 -1
    outer loop
      vertex 0.600662 0.674004 0.0263799
      vertex 17.5138 0.573816 0.0263799
      vertex 0.774192 0.573816 0.0263799
    endloop
  endfacet
  facet normal 0 0 -1
    outer loop
      vertex 0.600662 0.674004 0.0263799
      vertex 0.774192 0.573816 0.0263799
      vertex 0.674004 0.600662 0.0263799
    endloop
  endfacet
  facet normal -0.495572 0.132788 -0.858357
    outer loop
      vertex 0.587239 26.7079 0.0263799
      vertex 0.500474 26.8158 0.0931718
      vertex 0.600662 26.758 0.0263799
    endloop
  endfacet
  facet normal -0.362784 0.362784 -0.858356
    outer loop
      vertex 0.500474 26.8158 0.0931718
      vertex 0.555062 26.8632 0.0901208
      vertex 0.600662 26.758 0.0263799
    endloop
  endfacet
  facet normal -0.362784 0.362784 -0.858356
    outer loop
      vertex 0.600662 26.758 0.0263799
      vertex 0.555062 26.8632 0.0901208
      vertex 0.500474 27.1319 0.226755
    endloop
  endfacet
  facet normal -0.362784 0.362784 -0.858356
    outer loop
      vertex 0.500474 27.1319 0.226755
      vertex 0.5785 26.8569 0.0775605
      vertex 0.600662 26.758 0.0263799
    endloop
  endfacet
  facet normal -0.362784 0.362784 -0.858356
    outer loop
      vertex 0.600662 26.758 0.0263799
      vertex 0.5785 26.8569 0.0775605
      vertex 0.618997 26.7763 0.0263799
    endloop
  endfacet
  facet normal -0.362784 0.362784 -0.858356
    outer loop
      vertex 0.5785 26.8569 0.0775605
      vertex 0.500474 27.1319 0.226755
      vertex 0.674004 26.8313 0.0263799
    endloop
  endfacet
  facet normal -0.132788 0.495572 -0.858357
    outer loop
      vertex 0.674004 26.8313 0.0263799
      vertex 0.500474 27.1319 0.226755
      vertex 0.774192 26.8582 0.0263799
    endloop
  endfacet
  facet normal -0.132788 0.495572 -0.858357
    outer loop
      vertex 0.774192 26.8582 0.0263799
      vertex 0.500474 27.1319 0.226755
      vertex 0.774192 27.2052 0.226755
    endloop
  endfacet
  facet normal -0.226045 0.84361 -0.487058
    outer loop
      vertex 0.774192 27.2052 0.226755
      vertex 0.500474 27.1319 0.226755
      vertex 0.774192 27.4056 0.573816
    endloop
  endfacet
  facet normal -0.226045 0.84361 -0.487058
    outer loop
      vertex 0.500474 27.1319 0.226755
      vertex 0.400286 27.3054 0.573816
      vertex 0.774192 27.4056 0.573816
    endloop
  endfacet
  facet normal -0.258819 0.965926 0
    outer loop
      vertex 0.400286 27.3054 0.573816
      vertex 0.400286 27.3054 9.78938
      vertex 0.774192 27.4056 0.573816
    endloop
  endfacet
  facet normal -0.258819 0.965926 0
    outer loop
      vertex 0.774192 27.4056 0.573816
      vertex 0.400286 27.3054 9.78938
      vertex 0.774192 27.4056 9.78938
    endloop
  endfacet
  facet normal -0.258819 0.965926 0
    outer loop
      vertex 0.400286 27.3054 9.78938
      vertex 0.400286 27.3054 16.6982
      vertex 0.774192 27.4056 16.6982
    endloop
  endfacet
  facet normal -0.258819 0.965926 0
    outer loop
      vertex 0.400286 27.3054 9.78938
      vertex 0.774192 27.4056 16.6982
      vertex 0.774192 27.4056 9.78938
    endloop
  endfacet
  facet normal -0.226045 0.84361 0.487058
    outer loop
      vertex 0.774192 27.4056 16.6982
      vertex 0.400286 27.3054 16.6982
      vertex 0.500474 27.1319 17.0452
    endloop
  endfacet
  facet normal -0.226045 0.84361 0.487058
    outer loop
      vertex 0.774192 27.4056 16.6982
      vertex 0.500474 27.1319 17.0452
      vertex 0.774192 27.2052 17.0452
    endloop
  endfacet
  facet normal -0.132788 0.495572 0.858357
    outer loop
      vertex 0.774192 27.2052 17.0452
      vertex 0.500474 27.1319 17.0452
      vertex 0.774192 26.8582 17.2456
    endloop
  endfacet
  facet normal -0.132788 0.495572 0.858357
    outer loop
      vertex 0.774192 26.8582 17.2456
      vertex 0.500474 27.1319 17.0452
      vertex 0.674004 26.8313 17.2456
    endloop
  endfacet
  facet normal -0.362784 0.362784 0.858356
    outer loop
      vertex 0.674004 26.8313 17.2456
      vertex 0.500474 27.1319 17.0452
      vertex 0.600662 26.758 17.2456
    endloop
  endfacet
  facet normal 0 0 1
    outer loop
      vertex 0.573816 26.6578 17.2456
      vertex 0.573816 0.774192 17.2456
      vertex 0.600662 0.674004 17.2456
    endloop
  endfacet
  facet normal 0 0 1
    outer loop
      vertex 0.774192 0.573816 17.2456
      vertex 0.573816 26.6578 17.2456
      vertex 0.674004 0.600662 17.2456
    endloop
  endfacet
  facet normal 0 0 1
    outer loop
      vertex 0.674004 0.600662 17.2456
      vertex 0.573816 26.6578 17.2456
      vertex 0.600662 0.674004 17.2456
    endloop
  endfacet
  facet normal 0 0 1
    outer loop
      vertex 3.79781 0.573816 17.2456
      vertex 0.573816 26.6578 17.2456
      vertex 0.774192 0.573816 17.2456
    endloop
  endfacet
  facet normal 0 0 1
    outer loop
      vertex 3.898 0.600662 17.2456
      vertex 0.573816 26.6578 17.2456
      vertex 3.79781 0.573816 17.2456
    endloop
  endfacet
  facet normal 0 0 1
    outer loop
      vertex 3.97134 0.674004 17.2456
      vertex 0.573816 26.6578 17.2456
      vertex 3.898 0.600662 17.2456
    endloop
  endfacet
  facet normal 0 0 1
    outer loop
      vertex 3.99818 0.774192 17.2456
      vertex 0.573816 26.6578 17.2456
      vertex 3.97134 0.674004 17.2456
    endloop
  endfacet
  facet normal 0 0 1
    outer loop
      vertex 3.99818 26.6578 17.2456
      vertex 0.573816 26.6578 17.2456
      vertex 3.99818 0.774192 17.2456
    endloop
  endfacet
  facet normal 0 0 1
    outer loop
      vertex 3.97134 26.758 17.2456
      vertex 0.573816 26.6578 17.2456
      vertex 3.99818 26.6578 17.2456
    endloop
  endfacet
  facet normal 0 0 1
    outer loop
      vertex 3.898 26.8313 17.2456
      vertex 0.573816 26.6578 17.2456
      vertex 3.97134 26.758 17.2456
    endloop
  endfacet
  facet normal 0 0 1
    outer loop
      vertex 3.79781 26.8582 17.2456
      vertex 0.573816 26.6578 17.2456
      vertex 3.898 26.8313 17.2456
    endloop
  endfacet
  facet normal 0 0 1
    outer loop
      vertex 0.774192 26.8582 17.2456
      vertex 0.573816 26.6578 17.2456
      vertex 3.79781 26.8582 17.2456
    endloop
  endfacet
  facet normal 0 0 1
    outer loop
      vertex 0.674004 26.8313 17.2456
      vertex 0.573816 26.6578 17.2456
      vertex 0.774192 26.8582 17.2456
    endloop
  endfacet
  facet normal 0 0 1
    outer loop
      vertex 0.600662 26.758 17.2456
      vertex 0.573816 26.6578 17.2456
      vertex 0.674004 26.8313 17.2456
    endloop
  endfacet
  facet normal 0 -0.866026 0.5
    outer loop
      vertex 0.774192 0.226755 17.0452
      vertex 0.774192 0.0263799 16.6982
      vertex 3.79781 0.0263799 16.6982
    endloop
  endfacet
  facet normal 0 -0.866026 0.5
    outer loop
      vertex 3.79781 0.226755 17.0452
      vertex 0.774192 0.226755 17.0452
      vertex 3.79781 0.0263799 16.6982
    endloop
  endfacet
  facet normal 0 -0.5 0.866026
    outer loop
      vertex 0.774192 0.573816 17.2456
      vertex 0.774192 0.226755 17.0452
      vertex 3.79781 0.226755 17.0452
    endloop
  endfacet
  facet normal 0 -0.5 0.866026
    outer loop
      vertex 3.79781 0.573816 17.2456
      vertex 0.774192 0.573816 17.2456
      vertex 3.79781 0.226755 17.0452
    endloop
  endfacet
  facet normal 0 -1 0
    outer loop
      vertex 3.79781 0.0263799 9.78938
      vertex 0.774192 0.0263799 0.573816
      vertex 17.5138 0.0263799 0.573816
    endloop
  endfacet
  facet normal 0 -1 0
    outer loop
      vertex 3.79781 0.0263799 9.78938
      vertex 3.79781 0.0263799 16.6982
      vertex 0.774192 0.0263799 16.6982
    endloop
  endfacet
  facet normal 0 -1 0
    outer loop
      vertex 0.774192 0.0263799 16.6982
      vertex 0.774192 0.0263799 0.573816
      vertex 3.79781 0.0263799 9.78938
    endloop
  endfacet
  facet normal 0 -1 0
    outer loop
      vertex 17.5138 0.0263799 9.78938
      vertex 3.79781 0.0263799 9.78938
      vertex 17.5138 0.0263799 0.573816
    endloop
  endfacet
  facet normal 0 -0.866026 -0.5
    outer loop
      vertex 17.5138 0.0263799 0.573816
      vertex 0.774192 0.0263799 0.573816
      vertex 0.774192 0.226755 0.226755
    endloop
  endfacet
  facet normal 0 -0.866026 -0.5
    outer loop
      vertex 17.5138 0.226755 0.226755
      vertex 17.5138 0.0263799 0.573816
      vertex 0.774192 0.226755 0.226755
    endloop
  endfacet
  facet normal 0 -0.5 -0.866026
    outer loop
      vertex 0.774192 0.226755 0.226755
      vertex 0.774192 0.573816 0.0263799
      vertex 17.5138 0.226755 0.226755
    endloop
  endfacet
  facet normal 0 -0.5 -0.866026
    outer loop
      vertex 17.5138 0.226755 0.226755
      vertex 0.774192 0.573816 0.0263799
      vertex 17.5138 0.573816 0.0263799
    endloop
  endfacet
  facet normal 0.132788 -0.495572 -0.858357
    outer loop
      vertex 17.7875 0.300098 0.226755
      vertex 17.5138 0.226755 0.226755
      vertex 17.5138 0.573816 0.0263799
    endloop
  endfacet
  facet normal 0.132788 -0.495572 -0.858357
    outer loop
      vertex 17.7875 0.300098 0.226755
      vertex 17.5138 0.573816 0.0263799
      vertex 17.614 0.600662 0.0263799
    endloop
  endfacet
  facet normal 0.362784 -0.362784 -0.858356
    outer loop
      vertex 17.7875 0.300098 0.226755
      vertex 17.614 0.600662 0.0263799
      vertex 17.9879 0.500474 0.226755
    endloop
  endfacet
  facet normal 0.362784 -0.362784 -0.858356
    outer loop
      vertex 17.9879 0.500474 0.226755
      vertex 17.614 0.600662 0.0263799
      vertex 17.6873 0.674004 0.0263799
    endloop
  endfacet
  facet normal 0.495572 -0.132788 -0.858357
    outer loop
      vertex 17.9879 0.500474 0.226755
      vertex 17.6873 0.674004 0.0263799
      vertex 17.7142 0.774192 0.0263799
    endloop
  endfacet
  facet normal 0.495572 -0.132788 -0.858357
    outer loop
      vertex 17.9879 0.500474 0.226755
      vertex 17.7142 0.774192 0.0263799
      vertex 18.0612 0.774192 0.226755
    endloop
  endfacet
  facet normal 0.5 0 -0.866026
    outer loop
      vertex 17.7142 0.774192 0.0263799
      vertex 17.7142 26.6578 0.0263799
      vertex 18.0612 0.774192 0.226755
    endloop
  endfacet
  facet normal 0.5 0 -0.866026
    outer loop
      vertex 18.0612 0.774192 0.226755
      vertex 17.7142 26.6578 0.0263799
      vertex 18.0612 26.6578 0.226755
    endloop
  endfacet
  facet normal 0.495572 0.132788 -0.858357
    outer loop
      vertex 18.0612 26.6578 0.226755
      vertex 17.7142 26.6578 0.0263799
      vertex 17.9879 26.9315 0.226755
    endloop
  endfacet
  facet normal 0.495572 0.132788 -0.858357
    outer loop
      vertex 17.7008 26.7079 0.0263799
      vertex 17.7875 26.8158 0.0931718
      vertex 17.7142 26.6578 0.0263799
    endloop
  endfacet
  facet normal 0.495572 0.132788 -0.858357
    outer loop
      vertex 17.7142 26.6578 0.0263799
      vertex 17.7875 26.8158 0.0931718
      vertex 17.9879 26.9315 0.226755
    endloop
  endfacet
  facet normal 0.495572 0.132788 -0.858357
    outer loop
      vertex 17.7008 26.7079 0.0263799
      vertex 17.6873 26.758 0.0263799
      vertex 17.7875 26.8158 0.0931718
    endloop
  endfacet
  facet normal 0.362784 0.362784 -0.858356
    outer loop
      vertex 17.6873 26.758 0.0263799
      vertex 17.669 26.7763 0.0263799
      vertex 17.7875 26.8158 0.0931718
    endloop
  endfacet
  facet normal 0.362784 0.362784 -0.858356
    outer loop
      vertex 17.614 26.8313 0.0263799
      vertex 17.9879 26.9315 0.226755
      vertex 17.669 26.7763 0.0263799
    endloop
  endfacet
  facet normal 0.362784 0.362784 -0.858356
    outer loop
      vertex 17.669 26.7763 0.0263799
      vertex 17.9879 26.9315 0.226755
      vertex 17.7875 26.8158 0.0931718
    endloop
  endfacet
  facet normal 0.362784 0.362784 -0.858356
    outer loop
      vertex 17.9879 26.9315 0.226755
      vertex 17.614 26.8313 0.0263799
      vertex 17.7875 27.1319 0.226755
    endloop
  endfacet
  facet normal 0.132788 0.495572 -0.858357
    outer loop
      vertex 17.614 26.8313 0.0263799
      vertex 17.5138 26.8582 0.0263799
      vertex 17.7875 27.1319 0.226755
    endloop
  endfacet
  facet normal 0.132788 0.495572 -0.858357
    outer loop
      vertex 17.7875 27.1319 0.226755
      vertex 17.5138 26.8582 0.0263799
      vertex 17.5138 27.2052 0.226755
    endloop
  endfacet
  facet normal 0 0.5 -0.866026
    outer loop
      vertex 0.774192 26.8582 0.0263799
      vertex 0.774192 27.2052 0.226755
      vertex 17.5138 26.8582 0.0263799
    endloop
  endfacet
  facet normal 0 0.5 -0.866026
    outer loop
      vertex 17.5138 26.8582 0.0263799
      vertex 0.774192 27.2052 0.226755
      vertex 17.5138 27.2052 0.226755
    endloop
  endfacet
  facet normal -0.362784 0.362784 -0.858356
    outer loop
      vertex 0.618997 26.7763 0.0263799
      vertex 0.5785 26.8569 0.0775605
      vertex 0.674004 26.8313 0.0263799
    endloop
  endfacet
  facet normal 0 0.866026 -0.5
    outer loop
      vertex 0.774192 27.2052 0.226755
      vertex 0.774192 27.4056 0.573816
      vertex 17.5138 27.2052 0.226755
    endloop
  endfacet
  facet normal 0 0.866026 -0.5
    outer loop
      vertex 17.5138 27.2052 0.226755
      vertex 0.774192 27.4056 0.573816
      vertex 17.5138 27.4056 0.573816
    endloop
  endfacet
  facet normal 0 1 0
    outer loop
      vertex 0.774192 27.4056 0.573816
      vertex 0.774192 27.4056 9.78938
      vertex 17.5138 27.4056 0.573816
    endloop
  endfacet
  facet normal 0 1 0
    outer loop
      vertex 3.79781 27.4056 9.78938
      vertex 0.774192 27.4056 9.78938
      vertex 0.774192 27.4056 16.6982
    endloop
  endfacet
  facet normal 0 1 0
    outer loop
      vertex 17.5138 27.4056 0.573816
      vertex 0.774192 27.4056 9.78938
      vertex 3.79781 27.4056 9.78938
    endloop
  endfacet
  facet normal 0 1 0
    outer loop
      vertex 17.5138 27.4056 9.78938
      vertex 17.5138 27.4056 0.573816
      vertex 3.79781 27.4056 9.78938
    endloop
  endfacet
  facet normal 0 1 0
    outer loop
      vertex 3.79781 27.4056 9.78938
      vertex 0.774192 27.4056 16.6982
      vertex 3.79781 27.4056 16.6982
    endloop
  endfacet
  facet normal 0 0.866026 0.5
    outer loop
      vertex 0.774192 27.2052 17.0452
      vertex 3.79781 27.2052 17.0452
      vertex 0.774192 27.4056 16.6982
    endloop
  endfacet
  facet normal 0 0.866026 0.5
    outer loop
      vertex 0.774192 27.4056 16.6982
      vertex 3.79781 27.2052 17.0452
      vertex 3.79781 27.4056 16.6982
    endloop
  endfacet
  facet normal 0 0.5 0.866026
    outer loop
      vertex 0.774192 27.2052 17.0452
      vertex 0.774192 26.8582 17.2456
      vertex 3.79781 26.8582 17.2456
    endloop
  endfacet
  facet normal 0 0.5 0.866026
    outer loop
      vertex 3.79781 27.2052 17.0452
      vertex 0.774192 27.2052 17.0452
      vertex 3.79781 26.8582 17.2456
    endloop
  endfacet
  facet normal 0.132788 0.495572 0.858357
    outer loop
      vertex 4.07153 27.1319 17.0452
      vertex 3.79781 26.8582 17.2456
      vertex 3.898 26.8313 17.2456
    endloop
  endfacet
  facet normal 0.132788 0.495572 0.858357
    outer loop
      vertex 3.79781 27.2052 17.0452
      vertex 3.79781 26.8582 17.2456
      vertex 4.07153 27.1319 17.0452
    endloop
  endfacet
  facet normal 0.362784 0.362784 0.858356
    outer loop
      vertex 4.07153 27.1319 17.0452
      vertex 3.898 26.8313 17.2456
      vertex 3.97134 26.758 17.2456
    endloop
  endfacet
  facet normal 0.362784 0.362784 0.858356
    outer loop
      vertex 4.07153 27.1319 17.0452
      vertex 3.97134 26.758 17.2456
      vertex 4.2719 26.9315 17.0452
    endloop
  endfacet
  facet normal 0.495572 0.132788 0.858357
    outer loop
      vertex 4.2719 26.9315 17.0452
      vertex 3.97134 26.758 17.2456
      vertex 3.99818 26.6578 17.2456
    endloop
  endfacet
  facet normal 0.495572 0.132788 0.858357
    outer loop
      vertex 4.2719 26.9315 17.0452
      vertex 3.99818 26.6578 17.2456
      vertex 4.34524 26.6578 17.0452
    endloop
  endfacet
  facet normal 0.5 0 0.866026
    outer loop
      vertex 3.99818 26.6578 17.2456
      vertex 3.99818 0.774192 17.2456
      vertex 4.34524 0.774192 17.0452
    endloop
  endfacet
  facet normal 0.5 0 0.866026
    outer loop
      vertex 4.34524 26.6578 17.0452
      vertex 3.99818 26.6578 17.2456
      vertex 4.34524 0.774192 17.0452
    endloop
  endfacet
  facet normal 0.495572 -0.132788 0.858357
    outer loop
      vertex 4.34524 0.774192 17.0452
      vertex 3.99818 0.774192 17.2456
      vertex 4.2719 0.500474 17.0452
    endloop
  endfacet
  facet normal 0.495572 -0.132788 0.858357
    outer loop
      vertex 3.99818 0.774192 17.2456
      vertex 3.97134 0.674004 17.2456
      vertex 4.2719 0.500474 17.0452
    endloop
  endfacet
  facet normal 0.362784 -0.362784 0.858356
    outer loop
      vertex 4.2719 0.500474 17.0452
      vertex 3.97134 0.674004 17.2456
      vertex 4.07153 0.300098 17.0452
    endloop
  endfacet
  facet normal 0.362784 -0.362784 0.858356
    outer loop
      vertex 3.97134 0.674004 17.2456
      vertex 3.898 0.600662 17.2456
      vertex 4.07153 0.300098 17.0452
    endloop
  endfacet
  facet normal 0.132788 -0.495572 0.858357
    outer loop
      vertex 3.898 0.600662 17.2456
      vertex 3.79781 0.573816 17.2456
      vertex 4.07153 0.300098 17.0452
    endloop
  endfacet
  facet normal 0.132788 -0.495572 0.858357
    outer loop
      vertex 3.79781 0.573816 17.2456
      vertex 3.79781 0.226755 17.0452
      vertex 4.07153 0.300098 17.0452
    endloop
  endfacet
  facet normal 0.226045 -0.84361 0.487058
    outer loop
      vertex 3.79781 0.226755 17.0452
      vertex 3.79781 0.0263799 16.6982
      vertex 4.07153 0.300098 17.0452
    endloop
  endfacet
  facet normal 0.226045 -0.84361 0.487058
    outer loop
      vertex 4.07153 0.300098 17.0452
      vertex 3.79781 0.0263799 16.6982
      vertex 4.17171 0.126568 16.6982
    endloop
  endfacet
  facet normal 0.258819 -0.965926 0
    outer loop
      vertex 3.79781 0.0263799 16.6982
      vertex 3.79781 0.0263799 9.78938
      vertex 4.17171 0.126568 9.96291
    endloop
  endfacet
  facet normal 0.258819 -0.965926 0
    outer loop
      vertex 4.17171 0.126568 16.6982
      vertex 3.79781 0.0263799 16.6982
      vertex 4.17171 0.126568 9.96291
    endloop
  endfacet
  facet normal 0 -0.866026 0.5
    outer loop
      vertex 4.17171 0.126568 9.96291
      vertex 3.79781 0.0263799 9.78938
      vertex 17.5138 0.0263799 9.78938
    endloop
  endfacet
  facet normal 0 -0.866026 0.5
    outer loop
      vertex 4.2719 0.226755 10.1364
      vertex 4.17171 0.126568 9.96291
      vertex 17.5138 0.226755 10.1364
    endloop
  endfacet
  facet normal 0 -0.866026 0.5
    outer loop
      vertex 17.5138 0.226755 10.1364
      vertex 4.17171 0.126568 9.96291
      vertex 17.5138 0.0263799 9.78938
    endloop
  endfacet
  facet normal 0.258819 -0.965926 0
    outer loop
      vertex 17.5138 0.0263799 9.78938
      vertex 17.5138 0.0263799 0.573816
      vertex 17.8877 0.126568 0.573816
    endloop
  endfacet
  facet normal 0.258819 -0.965926 0
    outer loop
      vertex 17.8877 0.126568 9.78938
      vertex 17.5138 0.0263799 9.78938
      vertex 17.8877 0.126568 0.573816
    endloop
  endfacet
  facet normal 0.226045 -0.84361 0.487058
    outer loop
      vertex 17.5138 0.226755 10.1364
      vertex 17.5138 0.0263799 9.78938
      vertex 17.7875 0.300098 10.1364
    endloop
  endfacet
  facet normal 0.226045 -0.84361 0.487058
    outer loop
      vertex 17.7875 0.300098 10.1364
      vertex 17.5138 0.0263799 9.78938
      vertex 17.8877 0.126568 9.78938
    endloop
  endfacet
  facet normal 0.226045 -0.84361 -0.487058
    outer loop
      vertex 17.8877 0.126568 0.573816
      vertex 17.5138 0.0263799 0.573816
      vertex 17.7875 0.300098 0.226755
    endloop
  endfacet
  facet normal 0.226045 -0.84361 -0.487058
    outer loop
      vertex 17.7875 0.300098 0.226755
      vertex 17.5138 0.0263799 0.573816
      vertex 17.5138 0.226755 0.226755
    endloop
  endfacet
  facet normal 0.617566 -0.617566 -0.487058
    outer loop
      vertex 17.8877 0.126568 0.573816
      vertex 17.7875 0.300098 0.226755
      vertex 17.9879 0.500474 0.226755
    endloop
  endfacet
  facet normal 0.617566 -0.617566 -0.487058
    outer loop
      vertex 18.1614 0.400286 0.573816
      vertex 17.8877 0.126568 0.573816
      vertex 17.9879 0.500474 0.226755
    endloop
  endfacet
  facet normal 0.84361 -0.226045 -0.487058
    outer loop
      vertex 18.1614 0.400286 0.573816
      vertex 17.9879 0.500474 0.226755
      vertex 18.2616 0.774192 0.573816
    endloop
  endfacet
  facet normal 0.84361 -0.226045 -0.487058
    outer loop
      vertex 18.2616 0.774192 0.573816
      vertex 17.9879 0.500474 0.226755
      vertex 18.0612 0.774192 0.226755
    endloop
  endfacet
  facet normal 0.866026 0 -0.5
    outer loop
      vertex 18.2616 0.774192 0.573816
      vertex 18.0612 0.774192 0.226755
      vertex 18.0612 26.6578 0.226755
    endloop
  endfacet
  facet normal 0.866026 0 -0.5
    outer loop
      vertex 18.2616 26.6578 0.573816
      vertex 18.2616 0.774192 0.573816
      vertex 18.0612 26.6578 0.226755
    endloop
  endfacet
  facet normal 0.84361 0.226045 -0.487058
    outer loop
      vertex 18.0612 26.6578 0.226755
      vertex 17.9879 26.9315 0.226755
      vertex 18.2616 26.6578 0.573816
    endloop
  endfacet
  facet normal 0.84361 0.226045 -0.487058
    outer loop
      vertex 18.2616 26.6578 0.573816
      vertex 17.9879 26.9315 0.226755
      vertex 18.1614 27.0317 0.573816
    endloop
  endfacet
  facet normal 0.617566 0.617566 -0.487058
    outer loop
      vertex 17.9879 26.9315 0.226755
      vertex 17.8877 27.3054 0.573816
      vertex 18.1614 27.0317 0.573816
    endloop
  endfacet
  facet normal 0.617566 0.617566 -0.487058
    outer loop
      vertex 17.9879 26.9315 0.226755
      vertex 17.7875 27.1319 0.226755
      vertex 17.8877 27.3054 0.573816
    endloop
  endfacet
  facet normal 0.226045 0.84361 -0.487058
    outer loop
      vertex 17.7875 27.1319 0.226755
      vertex 17.5138 27.2052 0.226755
      vertex 17.5138 27.4056 0.573816
    endloop
  endfacet
  facet normal 0.226045 0.84361 -0.487058
    outer loop
      vertex 17.7875 27.1319 0.226755
      vertex 17.5138 27.4056 0.573816
      vertex 17.8877 27.3054 0.573816
    endloop
  endfacet
  facet normal 0.258819 0.965926 0
    outer loop
      vertex 17.5138 27.4056 0.573816
      vertex 17.5138 27.4056 9.78938
      vertex 17.8877 27.3054 0.573816
    endloop
  endfacet
  facet normal 0.258819 0.965926 0
    outer loop
      vertex 17.8877 27.3054 0.573816
      vertex 17.5138 27.4056 9.78938
      vertex 17.8877 27.3054 9.78938
    endloop
  endfacet
  facet normal 0.226045 0.84361 0.487058
    outer loop
      vertex 17.8877 27.3054 9.78938
      vertex 17.5138 27.4056 9.78938
      vertex 17.7875 27.1319 10.1364
    endloop
  endfacet
  facet normal 0.226045 0.84361 0.487058
    outer loop
      vertex 17.5138 27.4056 9.78938
      vertex 17.5138 27.2052 10.1364
      vertex 17.7875 27.1319 10.1364
    endloop
  endfacet
  facet normal 0 0.866026 0.5
    outer loop
      vertex 3.79781 27.4056 9.78938
      vertex 4.17171 27.3054 9.96291
      vertex 17.5138 27.4056 9.78938
    endloop
  endfacet
  facet normal 0 0.866026 0.5
    outer loop
      vertex 17.5138 27.4056 9.78938
      vertex 4.17171 27.3054 9.96291
      vertex 4.2719 27.2052 10.1364
    endloop
  endfacet
  facet normal 0 0.866026 0.5
    outer loop
      vertex 17.5138 27.4056 9.78938
      vertex 4.2719 27.2052 10.1364
      vertex 17.5138 27.2052 10.1364
    endloop
  endfacet
  facet normal 0.258819 0.965926 0
    outer loop
      vertex 3.79781 27.4056 9.78938
      vertex 3.79781 27.4056 16.6982
      vertex 4.17171 27.3054 9.96291
    endloop
  endfacet
  facet normal 0.258819 0.965926 0
    outer loop
      vertex 4.17171 27.3054 9.96291
      vertex 3.79781 27.4056 16.6982
      vertex 4.17171 27.3054 16.6982
    endloop
  endfacet
  facet normal 0.226045 0.84361 0.487058
    outer loop
      vertex 4.17171 27.3054 16.6982
      vertex 3.79781 27.4056 16.6982
      vertex 4.07153 27.1319 17.0452
    endloop
  endfacet
  facet normal 0.226045 0.84361 0.487058
    outer loop
      vertex 3.79781 27.4056 16.6982
      vertex 3.79781 27.2052 17.0452
      vertex 4.07153 27.1319 17.0452
    endloop
  endfacet
  facet normal 0.617566 0.617566 0.487058
    outer loop
      vertex 4.17171 27.3054 16.6982
      vertex 4.07153 27.1319 17.0452
      vertex 4.44543 27.0317 16.6982
    endloop
  endfacet
  facet normal 0.617566 0.617566 0.487058
    outer loop
      vertex 4.44543 27.0317 16.6982
      vertex 4.07153 27.1319 17.0452
      vertex 4.2719 26.9315 17.0452
    endloop
  endfacet
  facet normal 0.84361 0.226045 0.487058
    outer loop
      vertex 4.44543 27.0317 16.6982
      vertex 4.2719 26.9315 17.0452
      vertex 4.54562 26.6578 16.6982
    endloop
  endfacet
  facet normal 0.84361 0.226045 0.487058
    outer loop
      vertex 4.54562 26.6578 16.6982
      vertex 4.2719 26.9315 17.0452
      vertex 4.34524 26.6578 17.0452
    endloop
  endfacet
  facet normal 0.866026 0 0.5
    outer loop
      vertex 4.34524 26.6578 17.0452
      vertex 4.34524 0.774192 17.0452
      vertex 4.54562 0.774192 16.6982
    endloop
  endfacet
  facet normal 0.866026 0 0.5
    outer loop
      vertex 4.54562 26.6578 16.6982
      vertex 4.34524 26.6578 17.0452
      vertex 4.54562 0.774192 16.6982
    endloop
  endfacet
  facet normal 0.84361 -0.226045 0.487058
    outer loop
      vertex 4.34524 0.774192 17.0452
      vertex 4.2719 0.500474 17.0452
      vertex 4.54562 0.774192 16.6982
    endloop
  endfacet
  facet normal 0.84361 -0.226045 0.487058
    outer loop
      vertex 4.54562 0.774192 16.6982
      vertex 4.2719 0.500474 17.0452
      vertex 4.44543 0.400286 16.6982
    endloop
  endfacet
  facet normal 0.617566 -0.617566 0.487058
    outer loop
      vertex 4.2719 0.500474 17.0452
      vertex 4.07153 0.300098 17.0452
      vertex 4.44543 0.400286 16.6982
    endloop
  endfacet
  facet normal 0.617566 -0.617566 0.487058
    outer loop
      vertex 4.44543 0.400286 16.6982
      vertex 4.07153 0.300098 17.0452
      vertex 4.17171 0.126568 16.6982
    endloop
  endfacet
  facet normal 0.707107 -0.707107 0
    outer loop
      vertex 4.17171 0.126568 16.6982
      vertex 4.17171 0.126568 9.96291
      vertex 4.2719 0.226755 10.1364
    endloop
  endfacet
  facet normal 0.707107 -0.707107 0
    outer loop
      vertex 4.44543 0.400286 10.2366
      vertex 4.17171 0.126568 16.6982
      vertex 4.2719 0.226755 10.1364
    endloop
  endfacet
  facet normal 0.707107 -0.707107 0
    outer loop
      vertex 4.44543 0.400286 10.2366
      vertex 4.44543 0.400286 16.6982
      vertex 4.17171 0.126568 16.6982
    endloop
  endfacet
  facet normal 0 -0.5 0.866026
    outer loop
      vertex 4.44543 0.400286 10.2366
      vertex 4.2719 0.226755 10.1364
      vertex 17.5138 0.226755 10.1364
    endloop
  endfacet
  facet normal 0 -0.5 0.866026
    outer loop
      vertex 4.49193 0.573816 10.3368
      vertex 4.44543 0.400286 10.2366
      vertex 17.5138 0.573816 10.3368
    endloop
  endfacet
  facet normal 0 -0.5 0.866026
    outer loop
      vertex 17.5138 0.573816 10.3368
      vertex 4.44543 0.400286 10.2366
      vertex 17.5138 0.226755 10.1364
    endloop
  endfacet
  facet normal 0.132788 -0.495572 0.858357
    outer loop
      vertex 17.5138 0.573816 10.3368
      vertex 17.5138 0.226755 10.1364
      vertex 17.7875 0.300098 10.1364
    endloop
  endfacet
  facet normal 0.617566 -0.617566 0.487058
    outer loop
      vertex 17.9879 0.500474 10.1364
      vertex 17.8877 0.126568 9.78938
      vertex 18.1614 0.400286 9.78938
    endloop
  endfacet
  facet normal 0.707107 -0.707107 0
    outer loop
      vertex 17.8877 0.126568 9.78938
      vertex 17.8877 0.126568 0.573816
      vertex 18.1614 0.400286 0.573816
    endloop
  endfacet
  facet normal 0.707107 -0.707107 0
    outer loop
      vertex 18.1614 0.400286 9.78938
      vertex 17.8877 0.126568 9.78938
      vertex 18.1614 0.400286 0.573816
    endloop
  endfacet
  facet normal 0.617566 -0.617566 0.487058
    outer loop
      vertex 17.9879 0.500474 10.1364
      vertex 17.7875 0.300098 10.1364
      vertex 17.8877 0.126568 9.78938
    endloop
  endfacet
  facet normal 0.132788 -0.495572 0.858357
    outer loop
      vertex 17.614 0.600662 10.3368
      vertex 17.5138 0.573816 10.3368
      vertex 17.7875 0.300098 10.1364
    endloop
  endfacet
  facet normal 0.362784 -0.362784 0.858356
    outer loop
      vertex 17.9879 0.500474 10.1364
      vertex 17.614 0.600662 10.3368
      vertex 17.7875 0.300098 10.1364
    endloop
  endfacet
  facet normal 0.965926 -0.258819 0
    outer loop
      vertex 18.1614 0.400286 9.78938
      vertex 18.1614 0.400286 0.573816
      vertex 18.2616 0.774192 0.573816
    endloop
  endfacet
  facet normal 0.965926 -0.258819 0
    outer loop
      vertex 18.2616 0.774192 9.78938
      vertex 18.1614 0.400286 9.78938
      vertex 18.2616 0.774192 0.573816
    endloop
  endfacet
  facet normal 1 0 0
    outer loop
      vertex 18.2616 3.79781 6.33498
      vertex 18.2616 0.774192 0.573816
      vertex 18.2616 26.6578 0.573816
    endloop
  endfacet
  facet normal 1 0 0
    outer loop
      vertex 18.2616 3.79781 6.33498
      vertex 18.2616 3.79781 9.78938
      vertex 18.2616 0.774192 9.78938
    endloop
  endfacet
  facet normal 1 0 0
    outer loop
      vertex 18.2616 26.6578 9.78938
      vertex 18.2616 23.6342 9.78938
      vertex 18.2616 26.6578 0.573816
    endloop
  endfacet
  facet normal 1 0 0
    outer loop
      vertex 18.2616 23.6342 9.78938
      vertex 18.2616 23.6342 6.33498
      vertex 18.2616 26.6578 0.573816
    endloop
  endfacet
  facet normal 1 0 0
    outer loop
      vertex 18.2616 0.774192 9.78938
      vertex 18.2616 0.774192 0.573816
      vertex 18.2616 3.79781 6.33498
    endloop
  endfacet
  facet normal 1 0 0
    outer loop
      vertex 18.2616 23.6342 6.33498
      vertex 18.2616 3.79781 6.33498
      vertex 18.2616 26.6578 0.573816
    endloop
  endfacet
  facet normal 0.965926 0.258819 0
    outer loop
      vertex 18.2616 26.6578 0.573816
      vertex 18.1614 27.0317 0.573816
      vertex 18.1614 27.0317 9.78938
    endloop
  endfacet
  facet normal 0.965926 0.258819 0
    outer loop
      vertex 18.2616 26.6578 9.78938
      vertex 18.2616 26.6578 0.573816
      vertex 18.1614 27.0317 9.78938
    endloop
  endfacet
  facet normal 0.707107 0.707107 0
    outer loop
      vertex 18.1614 27.0317 0.573816
      vertex 17.8877 27.3054 0.573816
      vertex 17.8877 27.3054 9.78938
    endloop
  endfacet
  facet normal 0.707107 0.707107 0
    outer loop
      vertex 18.1614 27.0317 9.78938
      vertex 18.1614 27.0317 0.573816
      vertex 17.8877 27.3054 9.78938
    endloop
  endfacet
  facet normal 0.617566 0.617566 0.487058
    outer loop
      vertex 18.1614 27.0317 9.78938
      vertex 17.8877 27.3054 9.78938
      vertex 17.9879 26.9315 10.1364
    endloop
  endfacet
  facet normal 0.617566 0.617566 0.487058
    outer loop
      vertex 17.8877 27.3054 9.78938
      vertex 17.7875 27.1319 10.1364
      vertex 17.9879 26.9315 10.1364
    endloop
  endfacet
  facet normal 0.362784 0.362784 0.858356
    outer loop
      vertex 17.7875 27.1319 10.1364
      vertex 17.614 26.8313 10.3368
      vertex 17.9879 26.9315 10.1364
    endloop
  endfacet
  facet normal 0.132788 0.495572 0.858357
    outer loop
      vertex 17.7875 27.1319 10.1364
      vertex 17.5138 26.8582 10.3368
      vertex 17.614 26.8313 10.3368
    endloop
  endfacet
  facet normal 0.132788 0.495572 0.858357
    outer loop
      vertex 17.5138 27.2052 10.1364
      vertex 17.5138 26.8582 10.3368
      vertex 17.7875 27.1319 10.1364
    endloop
  endfacet
  facet normal 0 0.5 0.866026
    outer loop
      vertex 17.5138 27.2052 10.1364
      vertex 4.2719 27.2052 10.1364
      vertex 4.44543 27.0317 10.2366
    endloop
  endfacet
  facet normal 0 0.5 0.866026
    outer loop
      vertex 4.49193 26.8582 10.3368
      vertex 17.5138 27.2052 10.1364
      vertex 4.44543 27.0317 10.2366
    endloop
  endfacet
  facet normal 0 0.5 0.866026
    outer loop
      vertex 4.49193 26.8582 10.3368
      vertex 17.5138 26.8582 10.3368
      vertex 17.5138 27.2052 10.1364
    endloop
  endfacet
  facet normal 0.707107 0.707107 0
    outer loop
      vertex 4.17171 27.3054 9.96291
      vertex 4.17171 27.3054 16.6982
      vertex 4.2719 27.2052 10.1364
    endloop
  endfacet
  facet normal 0.707107 0.707107 0
    outer loop
      vertex 4.2719 27.2052 10.1364
      vertex 4.17171 27.3054 16.6982
      vertex 4.44543 27.0317 16.6982
    endloop
  endfacet
  facet normal 0.707107 0.707107 0
    outer loop
      vertex 4.2719 27.2052 10.1364
      vertex 4.44543 27.0317 16.6982
      vertex 4.44543 27.0317 10.2366
    endloop
  endfacet
  facet normal 0.965926 0.258819 0
    outer loop
      vertex 4.49193 26.8582 10.3368
      vertex 4.44543 27.0317 10.2366
      vertex 4.44543 27.0317 16.6982
    endloop
  endfacet
  facet normal 0.965926 0.258819 0
    outer loop
      vertex 4.54562 26.6578 10.3368
      vertex 4.49193 26.8582 10.3368
      vertex 4.54562 26.6578 16.6982
    endloop
  endfacet
  facet normal 0.965926 0.258819 0
    outer loop
      vertex 4.54562 26.6578 16.6982
      vertex 4.49193 26.8582 10.3368
      vertex 4.44543 27.0317 16.6982
    endloop
  endfacet
  facet normal 1 0 0
    outer loop
      vertex 4.54562 4.54562 9.78938
      vertex 4.54562 22.8864 6.88242
      vertex 4.54562 0.774192 16.6982
    endloop
  endfacet
  facet normal 1 0 0
    outer loop
      vertex 4.54562 0.774192 16.6982
      vertex 4.54562 0.774192 10.3368
      vertex 4.54562 3.99818 10.3368
    endloop
  endfacet
  facet normal 1 0 0
    outer loop
      vertex 4.54562 22.8864 9.78938
      vertex 4.54562 23.0868 10.1364
      vertex 4.54562 0.774192 16.6982
    endloop
  endfacet
  facet normal 1 0 0
    outer loop
      vertex 4.54562 4.34524 10.1364
      vertex 4.54562 0.774192 16.6982
      vertex 4.54562 3.99818 10.3368
    endloop
  endfacet
  facet normal 1 0 0
    outer loop
      vertex 4.54562 4.34524 10.1364
      vertex 4.54562 4.54562 9.78938
      vertex 4.54562 0.774192 16.6982
    endloop
  endfacet
  facet normal 1 0 0
    outer loop
      vertex 4.54562 4.54562 6.88242
      vertex 4.54562 22.8864 6.88242
      vertex 4.54562 4.54562 9.78938
    endloop
  endfacet
  facet normal 1 0 0
    outer loop
      vertex 4.54562 22.8864 6.88242
      vertex 4.54562 22.8864 9.78938
      vertex 4.54562 0.774192 16.6982
    endloop
  endfacet
  facet normal 1 0 0
    outer loop
      vertex 4.54562 23.0868 10.1364
      vertex 4.54562 23.4338 10.3368
      vertex 4.54562 0.774192 16.6982
    endloop
  endfacet
  facet normal 1 0 0
    outer loop
      vertex 4.54562 23.4338 10.3368
      vertex 4.54562 26.6578 10.3368
      vertex 4.54562 0.774192 16.6982
    endloop
  endfacet
  facet normal 1 0 0
    outer loop
      vertex 4.54562 26.6578 10.3368
      vertex 4.54562 26.6578 16.6982
      vertex 4.54562 0.774192 16.6982
    endloop
  endfacet
  facet normal 0.965926 -0.258819 0
    outer loop
      vertex 4.44543 0.400286 16.6982
      vertex 4.44543 0.400286 10.2366
      vertex 4.49193 0.573816 10.3368
    endloop
  endfacet
  facet normal 0.965926 -0.258819 0
    outer loop
      vertex 4.54562 0.774192 10.3368
      vertex 4.44543 0.400286 16.6982
      vertex 4.49193 0.573816 10.3368
    endloop
  endfacet
  facet normal 0.965926 -0.258819 0
    outer loop
      vertex 4.54562 0.774192 10.3368
      vertex 4.54562 0.774192 16.6982
      vertex 4.44543 0.400286 16.6982
    endloop
  endfacet
  facet normal 0 0 1
    outer loop
      vertex 4.54562 0.774192 10.3368
      vertex 4.49193 0.573816 10.3368
      vertex 17.5138 0.573816 10.3368
    endloop
  endfacet
  facet normal 0 0 1
    outer loop
      vertex 17.6873 0.674004 10.3368
      vertex 4.54562 0.774192 10.3368
      vertex 17.614 0.600662 10.3368
    endloop
  endfacet
  facet normal 0 0 1
    outer loop
      vertex 17.614 0.600662 10.3368
      vertex 4.54562 0.774192 10.3368
      vertex 17.5138 0.573816 10.3368
    endloop
  endfacet
  facet normal 0 0 1
    outer loop
      vertex 17.7142 0.774192 10.3368
      vertex 4.54562 0.774192 10.3368
      vertex 17.6873 0.674004 10.3368
    endloop
  endfacet
  facet normal 0 0 1
    outer loop
      vertex 17.7142 3.79781 10.3368
      vertex 4.54562 0.774192 10.3368
      vertex 17.7142 0.774192 10.3368
    endloop
  endfacet
  facet normal 0 0 1
    outer loop
      vertex 17.6873 3.898 10.3368
      vertex 4.54562 0.774192 10.3368
      vertex 17.7142 3.79781 10.3368
    endloop
  endfacet
  facet normal 0 0 1
    outer loop
      vertex 17.614 3.97134 10.3368
      vertex 4.54562 0.774192 10.3368
      vertex 17.6873 3.898 10.3368
    endloop
  endfacet
  facet normal 0 0 1
    outer loop
      vertex 17.5138 3.99818 10.3368
      vertex 4.54562 0.774192 10.3368
      vertex 17.614 3.97134 10.3368
    endloop
  endfacet
  facet normal 0 0 1
    outer loop
      vertex 4.54562 3.99818 10.3368
      vertex 4.54562 0.774192 10.3368
      vertex 17.5138 3.99818 10.3368
    endloop
  endfacet
  facet normal 0.362784 -0.362784 0.858356
    outer loop
      vertex 17.6873 0.674004 10.3368
      vertex 17.614 0.600662 10.3368
      vertex 17.9879 0.500474 10.1364
    endloop
  endfacet
  facet normal 0.495572 -0.132788 0.858357
    outer loop
      vertex 17.7142 0.774192 10.3368
      vertex 17.6873 0.674004 10.3368
      vertex 17.9879 0.500474 10.1364
    endloop
  endfacet
  facet normal 0.495572 -0.132788 0.858357
    outer loop
      vertex 18.0612 0.774192 10.1364
      vertex 17.7142 0.774192 10.3368
      vertex 17.9879 0.500474 10.1364
    endloop
  endfacet
  facet normal 0.84361 -0.226045 0.487058
    outer loop
      vertex 18.0612 0.774192 10.1364
      vertex 17.9879 0.500474 10.1364
      vertex 18.2616 0.774192 9.78938
    endloop
  endfacet
  facet normal 0.84361 -0.226045 0.487058
    outer loop
      vertex 18.2616 0.774192 9.78938
      vertex 17.9879 0.500474 10.1364
      vertex 18.1614 0.400286 9.78938
    endloop
  endfacet
  facet normal 0.866026 0 0.5
    outer loop
      vertex 18.0612 3.79781 10.1364
      vertex 18.0612 0.774192 10.1364
      vertex 18.2616 0.774192 9.78938
    endloop
  endfacet
  facet normal 0.866026 0 0.5
    outer loop
      vertex 18.2616 3.79781 9.78938
      vertex 18.0612 3.79781 10.1364
      vertex 18.2616 0.774192 9.78938
    endloop
  endfacet
  facet normal 0.965926 0.258819 0
    outer loop
      vertex 18.2616 3.79781 6.33498
      vertex 18.1614 4.17171 6.50851
      vertex 18.1614 4.17171 9.78938
    endloop
  endfacet
  facet normal 0.965926 0.258819 0
    outer loop
      vertex 18.2616 3.79781 9.78938
      vertex 18.2616 3.79781 6.33498
      vertex 18.1614 4.17171 9.78938
    endloop
  endfacet
  facet normal 0.84361 0.226045 0.487058
    outer loop
      vertex 18.2616 3.79781 9.78938
      vertex 17.9879 4.07153 10.1364
      vertex 18.0612 3.79781 10.1364
    endloop
  endfacet
  facet normal 0.84361 0.226045 0.487058
    outer loop
      vertex 18.1614 4.17171 9.78938
      vertex 17.9879 4.07153 10.1364
      vertex 18.2616 3.79781 9.78938
    endloop
  endfacet
  facet normal 0.866026 0 0.5
    outer loop
      vertex 18.0612 23.1601 6.68204
      vertex 18.0612 4.2719 6.68204
      vertex 18.1614 4.17171 6.50851
    endloop
  endfacet
  facet normal 0.866026 0 0.5
    outer loop
      vertex 18.2616 3.79781 6.33498
      vertex 18.0612 23.1601 6.68204
      vertex 18.1614 4.17171 6.50851
    endloop
  endfacet
  facet normal 0.866026 0 0.5
    outer loop
      vertex 18.2616 3.79781 6.33498
      vertex 18.1614 23.2603 6.50851
      vertex 18.0612 23.1601 6.68204
    endloop
  endfacet
  facet normal 0.866026 0 0.5
    outer loop
      vertex 18.2616 3.79781 6.33498
      vertex 18.2616 23.6342 6.33498
      vertex 18.1614 23.2603 6.50851
    endloop
  endfacet
  facet normal 0.965926 -0.258819 0
    outer loop
      vertex 18.1614 23.2603 9.78938
      vertex 18.1614 23.2603 6.50851
      vertex 18.2616 23.6342 6.33498
    endloop
  endfacet
  facet normal 0.965926 -0.258819 0
    outer loop
      vertex 18.2616 23.6342 9.78938
      vertex 18.1614 23.2603 9.78938
      vertex 18.2616 23.6342 6.33498
    endloop
  endfacet
  facet normal 0.84361 -0.226045 0.487058
    outer loop
      vertex 18.0612 23.6342 10.1364
      vertex 17.9879 23.3605 10.1364
      vertex 18.2616 23.6342 9.78938
    endloop
  endfacet
  facet normal 0.866026 0 0.5
    outer loop
      vertex 18.0612 26.6578 10.1364
      vertex 18.0612 23.6342 10.1364
      vertex 18.2616 23.6342 9.78938
    endloop
  endfacet
  facet normal 0.866026 0 0.5
    outer loop
      vertex 18.2616 26.6578 9.78938
      vertex 18.0612 26.6578 10.1364
      vertex 18.2616 23.6342 9.78938
    endloop
  endfacet
  facet normal 0.84361 -0.226045 0.487058
    outer loop
      vertex 18.2616 23.6342 9.78938
      vertex 17.9879 23.3605 10.1364
      vertex 18.1614 23.2603 9.78938
    endloop
  endfacet
  facet normal 0.84361 0.226045 0.487058
    outer loop
      vertex 18.2616 26.6578 9.78938
      vertex 17.9879 26.9315 10.1364
      vertex 18.0612 26.6578 10.1364
    endloop
  endfacet
  facet normal 0.84361 0.226045 0.487058
    outer loop
      vertex 18.1614 27.0317 9.78938
      vertex 17.9879 26.9315 10.1364
      vertex 18.2616 26.6578 9.78938
    endloop
  endfacet
  facet normal 0.495572 0.132788 0.858357
    outer loop
      vertex 17.9879 26.9315 10.1364
      vertex 17.7142 26.6578 10.3368
      vertex 18.0612 26.6578 10.1364
    endloop
  endfacet
  facet normal 0.495572 0.132788 0.858357
    outer loop
      vertex 17.9879 26.9315 10.1364
      vertex 17.6873 26.758 10.3368
      vertex 17.7142 26.6578 10.3368
    endloop
  endfacet
  facet normal 0.362784 0.362784 0.858356
    outer loop
      vertex 17.9879 26.9315 10.1364
      vertex 17.614 26.8313 10.3368
      vertex 17.6873 26.758 10.3368
    endloop
  endfacet
  facet normal 0 0 1
    outer loop
      vertex 17.5138 26.8582 10.3368
      vertex 4.49193 26.8582 10.3368
      vertex 4.54562 26.6578 10.3368
    endloop
  endfacet
  facet normal 0 0 1
    outer loop
      vertex 4.54562 23.4338 10.3368
      vertex 17.5138 26.8582 10.3368
      vertex 4.54562 26.6578 10.3368
    endloop
  endfacet
  facet normal 0 0 1
    outer loop
      vertex 4.54562 23.4338 10.3368
      vertex 17.5138 23.4338 10.3368
      vertex 17.5138 26.8582 10.3368
    endloop
  endfacet
  facet normal 0 0 1
    outer loop
      vertex 17.5138 23.4338 10.3368
      vertex 17.614 23.4607 10.3368
      vertex 17.5138 26.8582 10.3368
    endloop
  endfacet
  facet normal 0 0 1
    outer loop
      vertex 17.614 23.4607 10.3368
      vertex 17.6873 23.534 10.3368
      vertex 17.5138 26.8582 10.3368
    endloop
  endfacet
  facet normal 0 0 1
    outer loop
      vertex 17.6873 23.534 10.3368
      vertex 17.7142 23.6342 10.3368
      vertex 17.5138 26.8582 10.3368
    endloop
  endfacet
  facet normal 0 0 1
    outer loop
      vertex 17.7142 23.6342 10.3368
      vertex 17.7142 26.6578 10.3368
      vertex 17.5138 26.8582 10.3368
    endloop
  endfacet
  facet normal 0 0 1
    outer loop
      vertex 17.7142 26.6578 10.3368
      vertex 17.6873 26.758 10.3368
      vertex 17.5138 26.8582 10.3368
    endloop
  endfacet
  facet normal 0 0 1
    outer loop
      vertex 17.6873 26.758 10.3368
      vertex 17.614 26.8313 10.3368
      vertex 17.5138 26.8582 10.3368
    endloop
  endfacet
  facet normal 0 -0.5 0.866026
    outer loop
      vertex 4.54562 23.4338 10.3368
      vertex 4.54562 23.0868 10.1364
      vertex 17.5138 23.0868 10.1364
    endloop
  endfacet
  facet normal 0 -0.5 0.866026
    outer loop
      vertex 17.5138 23.4338 10.3368
      vertex 4.54562 23.4338 10.3368
      vertex 17.5138 23.0868 10.1364
    endloop
  endfacet
  facet normal 0 -0.866026 0.5
    outer loop
      vertex 4.54562 23.0868 10.1364
      vertex 4.54562 22.8864 9.78938
      vertex 17.5138 22.8864 9.78938
    endloop
  endfacet
  facet normal 0 -0.866026 0.5
    outer loop
      vertex 17.5138 23.0868 10.1364
      vertex 4.54562 23.0868 10.1364
      vertex 17.5138 22.8864 9.78938
    endloop
  endfacet
  facet normal 0 -1 0
    outer loop
      vertex 4.54562 22.8864 9.78938
      vertex 4.54562 22.8864 6.88242
      vertex 17.5138 22.8864 6.88242
    endloop
  endfacet
  facet normal 0 -1 0
    outer loop
      vertex 17.5138 22.8864 9.78938
      vertex 4.54562 22.8864 9.78938
      vertex 17.5138 22.8864 6.88242
    endloop
  endfacet
  facet normal 0 0 1
    outer loop
      vertex 4.54562 22.8864 6.88242
      vertex 4.54562 4.54562 6.88242
      vertex 17.5138 4.54562 6.88242
    endloop
  endfacet
  facet normal 0 0 1
    outer loop
      vertex 17.7142 4.49193 6.88242
      vertex 4.54562 22.8864 6.88242
      vertex 17.5138 4.54562 6.88242
    endloop
  endfacet
  facet normal 0 0 1
    outer loop
      vertex 17.7142 4.49193 6.88242
      vertex 17.5138 22.8864 6.88242
      vertex 4.54562 22.8864 6.88242
    endloop
  endfacet
  facet normal 0 0 1
    outer loop
      vertex 17.7142 4.49193 6.88242
      vertex 17.7142 22.9401 6.88242
      vertex 17.5138 22.8864 6.88242
    endloop
  endfacet
  facet normal 0 1 0
    outer loop
      vertex 4.54562 4.54562 6.88242
      vertex 4.54562 4.54562 9.78938
      vertex 17.5138 4.54562 6.88242
    endloop
  endfacet
  facet normal 0 1 0
    outer loop
      vertex 17.5138 4.54562 6.88242
      vertex 4.54562 4.54562 9.78938
      vertex 17.5138 4.54562 9.78938
    endloop
  endfacet
  facet normal 0 0.866026 0.5
    outer loop
      vertex 4.54562 4.34524 10.1364
      vertex 17.5138 4.34524 10.1364
      vertex 4.54562 4.54562 9.78938
    endloop
  endfacet
  facet normal 0 0.866026 0.5
    outer loop
      vertex 4.54562 4.54562 9.78938
      vertex 17.5138 4.34524 10.1364
      vertex 17.5138 4.54562 9.78938
    endloop
  endfacet
  facet normal 0 0.5 0.866026
    outer loop
      vertex 4.54562 4.34524 10.1364
      vertex 4.54562 3.99818 10.3368
      vertex 17.5138 3.99818 10.3368
    endloop
  endfacet
  facet normal 0 0.5 0.866026
    outer loop
      vertex 17.5138 4.34524 10.1364
      vertex 4.54562 4.34524 10.1364
      vertex 17.5138 3.99818 10.3368
    endloop
  endfacet
  facet normal 0.132788 0.495572 0.858357
    outer loop
      vertex 17.7875 4.2719 10.1364
      vertex 17.5138 3.99818 10.3368
      vertex 17.614 3.97134 10.3368
    endloop
  endfacet
  facet normal 0.132788 0.495572 0.858357
    outer loop
      vertex 17.5138 4.34524 10.1364
      vertex 17.5138 3.99818 10.3368
      vertex 17.7875 4.2719 10.1364
    endloop
  endfacet
  facet normal 0.362784 0.362784 0.858356
    outer loop
      vertex 17.7875 4.2719 10.1364
      vertex 17.614 3.97134 10.3368
      vertex 17.9879 4.07153 10.1364
    endloop
  endfacet
  facet normal 0.362784 0.362784 0.858356
    outer loop
      vertex 17.9879 4.07153 10.1364
      vertex 17.614 3.97134 10.3368
      vertex 17.6873 3.898 10.3368
    endloop
  endfacet
  facet normal 0.495572 0.132788 0.858357
    outer loop
      vertex 17.9879 4.07153 10.1364
      vertex 17.6873 3.898 10.3368
      vertex 17.7142 3.79781 10.3368
    endloop
  endfacet
  facet normal 0.495572 0.132788 0.858357
    outer loop
      vertex 17.9879 4.07153 10.1364
      vertex 17.7142 3.79781 10.3368
      vertex 18.0612 3.79781 10.1364
    endloop
  endfacet
  facet normal 0.5 0 0.866026
    outer loop
      vertex 17.7142 3.79781 10.3368
      vertex 17.7142 0.774192 10.3368
      vertex 18.0612 0.774192 10.1364
    endloop
  endfacet
  facet normal 0.5 0 0.866026
    outer loop
      vertex 18.0612 3.79781 10.1364
      vertex 17.7142 3.79781 10.3368
      vertex 18.0612 0.774192 10.1364
    endloop
  endfacet
  facet normal 0.617566 0.617566 0.487058
    outer loop
      vertex 18.1614 4.17171 9.78938
      vertex 17.8877 4.44543 9.78938
      vertex 17.9879 4.07153 10.1364
    endloop
  endfacet
  facet normal 0.707107 0.707107 0
    outer loop
      vertex 18.0612 4.2719 6.68204
      vertex 17.8877 4.44543 6.78223
      vertex 17.8877 4.44543 9.78938
    endloop
  endfacet
  facet normal 0.707107 0.707107 0
    outer loop
      vertex 18.1614 4.17171 6.50851
      vertex 18.0612 4.2719 6.68204
      vertex 18.1614 4.17171 9.78938
    endloop
  endfacet
  facet normal 0.707107 0.707107 0
    outer loop
      vertex 18.1614 4.17171 9.78938
      vertex 18.0612 4.2719 6.68204
      vertex 17.8877 4.44543 9.78938
    endloop
  endfacet
  facet normal 0.617566 0.617566 0.487058
    outer loop
      vertex 17.8877 4.44543 9.78938
      vertex 17.7875 4.2719 10.1364
      vertex 17.9879 4.07153 10.1364
    endloop
  endfacet
  facet normal 0.5 0 0.866026
    outer loop
      vertex 17.7142 22.9401 6.88242
      vertex 17.7142 4.49193 6.88242
      vertex 17.8877 4.44543 6.78223
    endloop
  endfacet
  facet normal 0.5 0 0.866026
    outer loop
      vertex 18.0612 4.2719 6.68204
      vertex 17.7142 22.9401 6.88242
      vertex 17.8877 4.44543 6.78223
    endloop
  endfacet
  facet normal 0.5 0 0.866026
    outer loop
      vertex 18.0612 4.2719 6.68204
      vertex 17.8877 22.9866 6.78223
      vertex 17.7142 22.9401 6.88242
    endloop
  endfacet
  facet normal 0.5 0 0.866026
    outer loop
      vertex 18.0612 4.2719 6.68204
      vertex 18.0612 23.1601 6.68204
      vertex 17.8877 22.9866 6.78223
    endloop
  endfacet
  facet normal 0.707107 -0.707107 0
    outer loop
      vertex 17.8877 22.9866 9.78938
      vertex 17.8877 22.9866 6.78223
      vertex 18.0612 23.1601 6.68204
    endloop
  endfacet
  facet normal 0.707107 -0.707107 0
    outer loop
      vertex 18.1614 23.2603 6.50851
      vertex 17.8877 22.9866 9.78938
      vertex 18.0612 23.1601 6.68204
    endloop
  endfacet
  facet normal 0.707107 -0.707107 0
    outer loop
      vertex 18.1614 23.2603 6.50851
      vertex 18.1614 23.2603 9.78938
      vertex 17.8877 22.9866 9.78938
    endloop
  endfacet
  facet normal 0.617566 -0.617566 0.487058
    outer loop
      vertex 17.9879 23.3605 10.1364
      vertex 17.8877 22.9866 9.78938
      vertex 18.1614 23.2603 9.78938
    endloop
  endfacet
  facet normal 0.495572 -0.132788 0.858357
    outer loop
      vertex 18.0612 23.6342 10.1364
      vertex 17.7142 23.6342 10.3368
      vertex 17.9879 23.3605 10.1364
    endloop
  endfacet
  facet normal 0.5 0 0.866026
    outer loop
      vertex 17.7142 26.6578 10.3368
      vertex 17.7142 23.6342 10.3368
      vertex 18.0612 23.6342 10.1364
    endloop
  endfacet
  facet normal 0.5 0 0.866026
    outer loop
      vertex 18.0612 26.6578 10.1364
      vertex 17.7142 26.6578 10.3368
      vertex 18.0612 23.6342 10.1364
    endloop
  endfacet
  facet normal 0.617566 -0.617566 0.487058
    outer loop
      vertex 17.9879 23.3605 10.1364
      vertex 17.7875 23.1601 10.1364
      vertex 17.8877 22.9866 9.78938
    endloop
  endfacet
  facet normal 0.362784 -0.362784 0.858356
    outer loop
      vertex 17.9879 23.3605 10.1364
      vertex 17.614 23.4607 10.3368
      vertex 17.7875 23.1601 10.1364
    endloop
  endfacet
  facet normal 0.362784 -0.362784 0.858356
    outer loop
      vertex 17.6873 23.534 10.3368
      vertex 17.614 23.4607 10.3368
      vertex 17.9879 23.3605 10.1364
    endloop
  endfacet
  facet normal 0.495572 -0.132788 0.858357
    outer loop
      vertex 17.7142 23.6342 10.3368
      vertex 17.6873 23.534 10.3368
      vertex 17.9879 23.3605 10.1364
    endloop
  endfacet
  facet normal 0.132788 -0.495572 0.858357
    outer loop
      vertex 17.614 23.4607 10.3368
      vertex 17.5138 23.4338 10.3368
      vertex 17.7875 23.1601 10.1364
    endloop
  endfacet
  facet normal 0.132788 -0.495572 0.858357
    outer loop
      vertex 17.5138 23.4338 10.3368
      vertex 17.5138 23.0868 10.1364
      vertex 17.7875 23.1601 10.1364
    endloop
  endfacet
  facet normal 0.226045 -0.84361 0.487058
    outer loop
      vertex 17.5138 23.0868 10.1364
      vertex 17.5138 22.8864 9.78938
      vertex 17.7875 23.1601 10.1364
    endloop
  endfacet
  facet normal 0.258819 -0.965926 0
    outer loop
      vertex 17.5138 22.8864 9.78938
      vertex 17.5138 22.8864 6.88242
      vertex 17.7142 22.9401 6.88242
    endloop
  endfacet
  facet normal 0.258819 -0.965926 0
    outer loop
      vertex 17.8877 22.9866 6.78223
      vertex 17.5138 22.8864 9.78938
      vertex 17.7142 22.9401 6.88242
    endloop
  endfacet
  facet normal 0.258819 -0.965926 0
    outer loop
      vertex 17.8877 22.9866 6.78223
      vertex 17.8877 22.9866 9.78938
      vertex 17.5138 22.8864 9.78938
    endloop
  endfacet
  facet normal 0.226045 -0.84361 0.487058
    outer loop
      vertex 17.7875 23.1601 10.1364
      vertex 17.5138 22.8864 9.78938
      vertex 17.8877 22.9866 9.78938
    endloop
  endfacet
  facet normal 0.258819 0.965926 0
    outer loop
      vertex 17.5138 4.54562 6.88242
      vertex 17.5138 4.54562 9.78938
      vertex 17.7142 4.49193 6.88242
    endloop
  endfacet
  facet normal 0.258819 0.965926 0
    outer loop
      vertex 17.7142 4.49193 6.88242
      vertex 17.5138 4.54562 9.78938
      vertex 17.8877 4.44543 9.78938
    endloop
  endfacet
  facet normal 0.258819 0.965926 0
    outer loop
      vertex 17.7142 4.49193 6.88242
      vertex 17.8877 4.44543 9.78938
      vertex 17.8877 4.44543 6.78223
    endloop
  endfacet
  facet normal 0.226045 0.84361 0.487058
    outer loop
      vertex 17.8877 4.44543 9.78938
      vertex 17.5138 4.54562 9.78938
      vertex 17.7875 4.2719 10.1364
    endloop
  endfacet
  facet normal 0.226045 0.84361 0.487058
    outer loop
      vertex 17.5138 4.54562 9.78938
      vertex 17.5138 4.34524 10.1364
      vertex 17.7875 4.2719 10.1364
    endloop
  endfacet
endsolid OpenSCAD_Model
