solid OpenSCAD_Model
  facet normal -1 0 0
    outer loop
      vertex 0.0263799 0.774192 0.573816
      vertex 0.0263799 0.774192 15.6822
      vertex 0.0263799 44.9458 0.573816
    endloop
  endfacet
  facet normal -1 0 0
    outer loop
      vertex 0.0263799 44.9458 0.573816
      vertex 0.0263799 0.774192 15.6822
      vertex 0.0263799 44.9458 15.6822
    endloop
  endfacet
  facet normal -0.965926 -0.258819 0
    outer loop
      vertex 0.0263799 0.774192 0.573816
      vertex 0.126568 0.400286 0.573816
      vertex 0.0263799 0.774192 15.6822
    endloop
  endfacet
  facet normal -0.965926 -0.258819 0
    outer loop
      vertex 0.0263799 0.774192 15.6822
      vertex 0.126568 0.400286 0.573816
      vertex 0.126568 0.400286 15.6822
    endloop
  endfacet
  facet normal -0.84361 -0.226045 -0.487058
    outer loop
      vertex 0.126568 0.400286 0.573816
      vertex 0.0263799 0.774192 0.573816
      vertex 0.300098 0.500474 0.226755
    endloop
  endfacet
  facet normal -0.84361 -0.226045 -0.487058
    outer loop
      vertex 0.300098 0.500474 0.226755
      vertex 0.0263799 0.774192 0.573816
      vertex 0.226755 0.774192 0.226755
    endloop
  endfacet
  facet normal -0.866026 0 -0.5
    outer loop
      vertex 0.0263799 0.774192 0.573816
      vertex 0.0263799 44.9458 0.573816
      vertex 0.226755 0.774192 0.226755
    endloop
  endfacet
  facet normal -0.866026 0 -0.5
    outer loop
      vertex 0.226755 0.774192 0.226755
      vertex 0.0263799 44.9458 0.573816
      vertex 0.226755 44.9458 0.226755
    endloop
  endfacet
  facet normal -0.84361 0.226045 -0.487058
    outer loop
      vertex 0.226755 44.9458 0.226755
      vertex 0.0263799 44.9458 0.573816
      vertex 0.300098 45.2195 0.226755
    endloop
  endfacet
  facet normal -0.84361 0.226045 -0.487058
    outer loop
      vertex 0.300098 45.2195 0.226755
      vertex 0.0263799 44.9458 0.573816
      vertex 0.126568 45.3197 0.573816
    endloop
  endfacet
  facet normal -0.965926 0.258819 0
    outer loop
      vertex 0.0263799 44.9458 0.573816
      vertex 0.0263799 44.9458 15.6822
      vertex 0.126568 45.3197 0.573816
    endloop
  endfacet
  facet normal -0.965926 0.258819 0
    outer loop
      vertex 0.126568 45.3197 9.17978
      vertex 0.0263799 44.9458 15.6822
      vertex 0.126568 45.3197 15.6822
    endloop
  endfacet
  facet normal -0.965926 0.258819 0
    outer loop
      vertex 0.126568 45.3197 0.573816
      vertex 0.0263799 44.9458 15.6822
      vertex 0.126568 45.3197 9.17978
    endloop
  endfacet
  facet normal -0.84361 0.226045 0.487058
    outer loop
      vertex 0.300098 45.2195 16.0292
      vertex 0.0263799 44.9458 15.6822
      vertex 0.226755 44.9458 16.0292
    endloop
  endfacet
  facet normal -0.866026 0 0.5
    outer loop
      vertex 0.0263799 0.774192 15.6822
      vertex 0.226755 0.774192 16.0292
      vertex 0.0263799 44.9458 15.6822
    endloop
  endfacet
  facet normal -0.866026 0 0.5
    outer loop
      vertex 0.0263799 44.9458 15.6822
      vertex 0.226755 0.774192 16.0292
      vertex 0.226755 44.9458 16.0292
    endloop
  endfacet
  facet normal -0.84361 0.226045 0.487058
    outer loop
      vertex 0.126568 45.3197 15.6822
      vertex 0.0263799 44.9458 15.6822
      vertex 0.300098 45.2195 16.0292
    endloop
  endfacet
  facet normal -0.84361 -0.226045 0.487058
    outer loop
      vertex 0.226755 0.774192 16.0292
      vertex 0.0263799 0.774192 15.6822
      vertex 0.300098 0.500474 16.0292
    endloop
  endfacet
  facet normal -0.84361 -0.226045 0.487058
    outer loop
      vertex 0.300098 0.500474 16.0292
      vertex 0.0263799 0.774192 15.6822
      vertex 0.126568 0.400286 15.6822
    endloop
  endfacet
  facet normal -0.617566 -0.617566 0.487058
    outer loop
      vertex 0.300098 0.500474 16.0292
      vertex 0.126568 0.400286 15.6822
      vertex 0.400286 0.126568 15.6822
    endloop
  endfacet
  facet normal -0.617566 -0.617566 0.487058
    outer loop
      vertex 0.500474 0.300098 16.0292
      vertex 0.300098 0.500474 16.0292
      vertex 0.400286 0.126568 15.6822
    endloop
  endfacet
  facet normal -0.707107 -0.707107 0
    outer loop
      vertex 0.126568 0.400286 15.6822
      vertex 0.126568 0.400286 0.573816
      vertex 0.400286 0.126568 0.573816
    endloop
  endfacet
  facet normal -0.707107 -0.707107 0
    outer loop
      vertex 0.400286 0.126568 15.6822
      vertex 0.126568 0.400286 15.6822
      vertex 0.400286 0.126568 0.573816
    endloop
  endfacet
  facet normal -0.617566 -0.617566 -0.487058
    outer loop
      vertex 0.400286 0.126568 0.573816
      vertex 0.126568 0.400286 0.573816
      vertex 0.300098 0.500474 0.226755
    endloop
  endfacet
  facet normal -0.617566 -0.617566 -0.487058
    outer loop
      vertex 0.500474 0.300098 0.226755
      vertex 0.400286 0.126568 0.573816
      vertex 0.300098 0.500474 0.226755
    endloop
  endfacet
  facet normal -0.362784 -0.362784 -0.858356
    outer loop
      vertex 0.300098 0.500474 0.226755
      vertex 0.600662 0.674004 0.0263799
      vertex 0.500474 0.300098 0.226755
    endloop
  endfacet
  facet normal -0.362784 -0.362784 -0.858356
    outer loop
      vertex 0.500474 0.300098 0.226755
      vertex 0.600662 0.674004 0.0263799
      vertex 0.674004 0.600662 0.0263799
    endloop
  endfacet
  facet normal -0.495572 -0.132788 -0.858357
    outer loop
      vertex 0.600662 0.674004 0.0263799
      vertex 0.300098 0.500474 0.226755
      vertex 0.573816 0.774192 0.0263799
    endloop
  endfacet
  facet normal -0.495572 -0.132788 -0.858357
    outer loop
      vertex 0.300098 0.500474 0.226755
      vertex 0.226755 0.774192 0.226755
      vertex 0.573816 0.774192 0.0263799
    endloop
  endfacet
  facet normal -0.5 0 -0.866026
    outer loop
      vertex 0.226755 0.774192 0.226755
      vertex 0.226755 44.9458 0.226755
      vertex 0.573816 0.774192 0.0263799
    endloop
  endfacet
  facet normal -0.5 0 -0.866026
    outer loop
      vertex 0.573816 0.774192 0.0263799
      vertex 0.226755 44.9458 0.226755
      vertex 0.573816 44.9458 0.0263799
    endloop
  endfacet
  facet normal -0.495572 0.132788 -0.858357
    outer loop
      vertex 0.573816 44.9458 0.0263799
      vertex 0.226755 44.9458 0.226755
      vertex 0.300098 45.2195 0.226755
    endloop
  endfacet
  facet normal -0.362784 0.362784 -0.858356
    outer loop
      vertex 0.490235 45.1686 0.124861
      vertex 0.300098 45.2195 0.226755
      vertex 0.500474 45.4199 0.226755
    endloop
  endfacet
  facet normal -0.617566 0.617566 -0.487058
    outer loop
      vertex 0.500474 45.4199 0.226755
      vertex 0.300098 45.2195 0.226755
      vertex 0.400286 45.5934 0.573816
    endloop
  endfacet
  facet normal -0.617566 0.617566 -0.487058
    outer loop
      vertex 0.300098 45.2195 0.226755
      vertex 0.126568 45.3197 0.573816
      vertex 0.400286 45.5934 0.573816
    endloop
  endfacet
  facet normal -0.495572 0.132788 -0.858357
    outer loop
      vertex 0.573816 44.9458 0.0263799
      vertex 0.300098 45.2195 0.226755
      vertex 0.45038 45.1328 0.126568
    endloop
  endfacet
  facet normal -0.362784 0.362784 -0.858356
    outer loop
      vertex 0.45038 45.1328 0.126568
      vertex 0.300098 45.2195 0.226755
      vertex 0.490235 45.1686 0.124861
    endloop
  endfacet
  facet normal -0.707107 0.707107 0
    outer loop
      vertex 0.126568 45.3197 0.573816
      vertex 0.126568 45.3197 9.17978
      vertex 0.400286 45.5934 0.573816
    endloop
  endfacet
  facet normal -0.707107 0.707107 0
    outer loop
      vertex 0.400286 45.5934 0.573816
      vertex 0.126568 45.3197 9.17978
      vertex 0.400286 45.5934 9.17978
    endloop
  endfacet
  facet normal -0.707107 0.707107 0
    outer loop
      vertex 0.126568 45.3197 9.17978
      vertex 0.126568 45.3197 15.6822
      vertex 0.400286 45.5934 9.17978
    endloop
  endfacet
  facet normal -0.707107 0.707107 0
    outer loop
      vertex 0.400286 45.5934 9.17978
      vertex 0.126568 45.3197 15.6822
      vertex 0.400286 45.5934 15.6822
    endloop
  endfacet
  facet normal -0.617566 0.617566 0.487058
    outer loop
      vertex 0.400286 45.5934 15.6822
      vertex 0.126568 45.3197 15.6822
      vertex 0.500474 45.4199 16.0292
    endloop
  endfacet
  facet normal -0.617566 0.617566 0.487058
    outer loop
      vertex 0.500474 45.4199 16.0292
      vertex 0.126568 45.3197 15.6822
      vertex 0.300098 45.2195 16.0292
    endloop
  endfacet
  facet normal -0.495572 0.132788 0.858357
    outer loop
      vertex 0.600662 45.046 16.2296
      vertex 0.300098 45.2195 16.0292
      vertex 0.573816 44.9458 16.2296
    endloop
  endfacet
  facet normal -0.495572 0.132788 0.858357
    outer loop
      vertex 0.300098 45.2195 16.0292
      vertex 0.226755 44.9458 16.0292
      vertex 0.573816 44.9458 16.2296
    endloop
  endfacet
  facet normal -0.362784 0.362784 0.858356
    outer loop
      vertex 0.500474 45.4199 16.0292
      vertex 0.300098 45.2195 16.0292
      vertex 0.600662 45.046 16.2296
    endloop
  endfacet
  facet normal -0.5 0 0.866026
    outer loop
      vertex 0.226755 44.9458 16.0292
      vertex 0.226755 0.774192 16.0292
      vertex 0.573816 0.774192 16.2296
    endloop
  endfacet
  facet normal -0.5 0 0.866026
    outer loop
      vertex 0.573816 44.9458 16.2296
      vertex 0.226755 44.9458 16.0292
      vertex 0.573816 0.774192 16.2296
    endloop
  endfacet
  facet normal -0.495572 -0.132788 0.858357
    outer loop
      vertex 0.573816 0.774192 16.2296
      vertex 0.226755 0.774192 16.0292
      vertex 0.300098 0.500474 16.0292
    endloop
  endfacet
  facet normal -0.495572 -0.132788 0.858357
    outer loop
      vertex 0.573816 0.774192 16.2296
      vertex 0.300098 0.500474 16.0292
      vertex 0.600662 0.674004 16.2296
    endloop
  endfacet
  facet normal -0.362784 -0.362784 0.858356
    outer loop
      vertex 0.600662 0.674004 16.2296
      vertex 0.300098 0.500474 16.0292
      vertex 0.500474 0.300098 16.0292
    endloop
  endfacet
  facet normal -0.362784 -0.362784 0.858356
    outer loop
      vertex 0.674004 0.600662 16.2296
      vertex 0.600662 0.674004 16.2296
      vertex 0.500474 0.300098 16.0292
    endloop
  endfacet
  facet normal -0.132788 -0.495572 0.858357
    outer loop
      vertex 0.674004 0.600662 16.2296
      vertex 0.500474 0.300098 16.0292
      vertex 0.774192 0.573816 16.2296
    endloop
  endfacet
  facet normal -0.132788 -0.495572 0.858357
    outer loop
      vertex 0.774192 0.573816 16.2296
      vertex 0.500474 0.300098 16.0292
      vertex 0.774192 0.226755 16.0292
    endloop
  endfacet
  facet normal -0.226045 -0.84361 0.487058
    outer loop
      vertex 0.774192 0.226755 16.0292
      vertex 0.500474 0.300098 16.0292
      vertex 0.774192 0.0263799 15.6822
    endloop
  endfacet
  facet normal -0.226045 -0.84361 0.487058
    outer loop
      vertex 0.500474 0.300098 16.0292
      vertex 0.400286 0.126568 15.6822
      vertex 0.774192 0.0263799 15.6822
    endloop
  endfacet
  facet normal -0.258819 -0.965926 0
    outer loop
      vertex 0.400286 0.126568 15.6822
      vertex 0.400286 0.126568 0.573816
      vertex 0.774192 0.0263799 0.573816
    endloop
  endfacet
  facet normal -0.258819 -0.965926 0
    outer loop
      vertex 0.774192 0.0263799 15.6822
      vertex 0.400286 0.126568 15.6822
      vertex 0.774192 0.0263799 0.573816
    endloop
  endfacet
  facet normal -0.226045 -0.84361 -0.487058
    outer loop
      vertex 0.774192 0.0263799 0.573816
      vertex 0.400286 0.126568 0.573816
      vertex 0.500474 0.300098 0.226755
    endloop
  endfacet
  facet normal -0.226045 -0.84361 -0.487058
    outer loop
      vertex 0.774192 0.0263799 0.573816
      vertex 0.500474 0.300098 0.226755
      vertex 0.774192 0.226755 0.226755
    endloop
  endfacet
  facet normal -0.132788 -0.495572 -0.858357
    outer loop
      vertex 0.774192 0.226755 0.226755
      vertex 0.500474 0.300098 0.226755
      vertex 0.774192 0.573816 0.0263799
    endloop
  endfacet
  facet normal -0.132788 -0.495572 -0.858357
    outer loop
      vertex 0.774192 0.573816 0.0263799
      vertex 0.500474 0.300098 0.226755
      vertex 0.674004 0.600662 0.0263799
    endloop
  endfacet
  facet normal 0 0 -1
    outer loop
      vertex 0.573816 0.774192 0.0263799
      vertex 0.573816 44.9458 0.0263799
      vertex 0.600662 0.674004 0.0263799
    endloop
  endfacet
  facet normal 0 0 -1
    outer loop
      vertex 0.600662 0.674004 0.0263799
      vertex 0.573816 44.9458 0.0263799
      vertex 0.600662 45.046 0.0263799
    endloop
  endfacet
  facet normal 0 0 -1
    outer loop
      vertex 0.600662 0.674004 0.0263799
      vertex 0.600662 45.046 0.0263799
      vertex 0.637333 45.0827 0.0263799
    endloop
  endfacet
  facet normal 0 0 -1
    outer loop
      vertex 0.600662 0.674004 0.0263799
      vertex 0.637333 45.0827 0.0263799
      vertex 0.674004 45.1193 0.0263799
    endloop
  endfacet
  facet normal 0 0 -1
    outer loop
      vertex 0.600662 0.674004 0.0263799
      vertex 0.674004 45.1193 0.0263799
      vertex 0.724098 45.1328 0.0263799
    endloop
  endfacet
  facet normal 0 0 -1
    outer loop
      vertex 0.600662 0.674004 0.0263799
      vertex 0.724098 45.1328 0.0263799
      vertex 0.774192 45.1462 0.0263799
    endloop
  endfacet
  facet normal 0 0 -1
    outer loop
      vertex 0.600662 0.674004 0.0263799
      vertex 0.774192 45.1462 0.0263799
      vertex 19.0378 45.1462 0.0263799
    endloop
  endfacet
  facet normal 0 0 -1
    outer loop
      vertex 0.600662 0.674004 0.0263799
      vertex 19.0378 45.1462 0.0263799
      vertex 19.0879 45.1328 0.0263799
    endloop
  endfacet
  facet normal 0 0 -1
    outer loop
      vertex 0.600662 0.674004 0.0263799
      vertex 19.0879 45.1328 0.0263799
      vertex 19.138 45.1193 0.0263799
    endloop
  endfacet
  facet normal 0 0 -1
    outer loop
      vertex 0.600662 0.674004 0.0263799
      vertex 19.138 45.1193 0.0263799
      vertex 19.1747 45.0827 0.0263799
    endloop
  endfacet
  facet normal 0 0 -1
    outer loop
      vertex 0.600662 0.674004 0.0263799
      vertex 19.1747 45.0827 0.0263799
      vertex 19.2113 45.046 0.0263799
    endloop
  endfacet
  facet normal 0 0 -1
    outer loop
      vertex 0.600662 0.674004 0.0263799
      vertex 19.2113 45.046 0.0263799
      vertex 19.2382 44.9458 0.0263799
    endloop
  endfacet
  facet normal 0 0 -1
    outer loop
      vertex 0.600662 0.674004 0.0263799
      vertex 19.2382 44.9458 0.0263799
      vertex 19.2382 0.774192 0.0263799
    endloop
  endfacet
  facet normal 0 0 -1
    outer loop
      vertex 0.600662 0.674004 0.0263799
      vertex 19.2382 0.774192 0.0263799
      vertex 19.2113 0.674004 0.0263799
    endloop
  endfacet
  facet normal 0 0 -1
    outer loop
      vertex 0.600662 0.674004 0.0263799
      vertex 19.2113 0.674004 0.0263799
      vertex 19.138 0.600662 0.0263799
    endloop
  endfacet
  facet normal 0 0 -1
    outer loop
      vertex 0.600662 0.674004 0.0263799
      vertex 19.138 0.600662 0.0263799
      vertex 19.0378 0.573816 0.0263799
    endloop
  endfacet
  facet normal 0 0 -1
    outer loop
      vertex 0.600662 0.674004 0.0263799
      vertex 19.0378 0.573816 0.0263799
      vertex 0.774192 0.573816 0.0263799
    endloop
  endfacet
  facet normal 0 0 -1
    outer loop
      vertex 0.600662 0.674004 0.0263799
      vertex 0.774192 0.573816 0.0263799
      vertex 0.674004 0.600662 0.0263799
    endloop
  endfacet
  facet normal -0.495572 0.132788 -0.858357
    outer loop
      vertex 0.573816 44.9458 0.0263799
      vertex 0.45038 45.1328 0.126568
      vertex 0.600662 45.046 0.0263799
    endloop
  endfacet
  facet normal -0.362784 0.362784 -0.858356
    outer loop
      vertex 0.45038 45.1328 0.126568
      vertex 0.490235 45.1686 0.124861
      vertex 0.600662 45.046 0.0263799
    endloop
  endfacet
  facet normal -0.362784 0.362784 -0.858356
    outer loop
      vertex 0.600662 45.046 0.0263799
      vertex 0.490235 45.1686 0.124861
      vertex 0.500474 45.4199 0.226755
    endloop
  endfacet
  facet normal -0.362784 0.362784 -0.858356
    outer loop
      vertex 0.500474 45.4199 0.226755
      vertex 0.604409 45.138 0.0636757
      vertex 0.600662 45.046 0.0263799
    endloop
  endfacet
  facet normal -0.362784 0.362784 -0.858356
    outer loop
      vertex 0.600662 45.046 0.0263799
      vertex 0.604409 45.138 0.0636757
      vertex 0.637333 45.0827 0.0263799
    endloop
  endfacet
  facet normal -0.362784 0.362784 -0.858356
    outer loop
      vertex 0.604409 45.138 0.0636757
      vertex 0.500474 45.4199 0.226755
      vertex 0.674004 45.1193 0.0263799
    endloop
  endfacet
  facet normal -0.132788 0.495572 -0.858357
    outer loop
      vertex 0.674004 45.1193 0.0263799
      vertex 0.500474 45.4199 0.226755
      vertex 0.724098 45.1328 0.0263799
    endloop
  endfacet
  facet normal -0.132788 0.495572 -0.858357
    outer loop
      vertex 0.724098 45.1328 0.0263799
      vertex 0.500474 45.4199 0.226755
      vertex 0.774192 45.1462 0.0263799
    endloop
  endfacet
  facet normal -0.132788 0.495572 -0.858357
    outer loop
      vertex 0.774192 45.1462 0.0263799
      vertex 0.500474 45.4199 0.226755
      vertex 0.774192 45.2619 0.0931718
    endloop
  endfacet
  facet normal -0.132788 0.495572 -0.858357
    outer loop
      vertex 0.774192 45.2619 0.0931718
      vertex 0.500474 45.4199 0.226755
      vertex 0.774192 45.4932 0.226755
    endloop
  endfacet
  facet normal -0.226045 0.84361 -0.487058
    outer loop
      vertex 0.774192 45.4932 0.226755
      vertex 0.500474 45.4199 0.226755
      vertex 0.774192 45.6936 0.573816
    endloop
  endfacet
  facet normal -0.226045 0.84361 -0.487058
    outer loop
      vertex 0.500474 45.4199 0.226755
      vertex 0.400286 45.5934 0.573816
      vertex 0.774192 45.6936 0.573816
    endloop
  endfacet
  facet normal -0.258819 0.965926 0
    outer loop
      vertex 0.400286 45.5934 0.573816
      vertex 0.400286 45.5934 9.17978
      vertex 0.774192 45.6936 0.573816
    endloop
  endfacet
  facet normal -0.258819 0.965926 0
    outer loop
      vertex 0.774192 45.6936 0.573816
      vertex 0.400286 45.5934 9.17978
      vertex 0.774192 45.6936 9.17978
    endloop
  endfacet
  facet normal -0.258819 0.965926 0
    outer loop
      vertex 0.400286 45.5934 9.17978
      vertex 0.400286 45.5934 15.6822
      vertex 0.774192 45.6936 15.6822
    endloop
  endfacet
  facet normal -0.258819 0.965926 0
    outer loop
      vertex 0.400286 45.5934 9.17978
      vertex 0.774192 45.6936 15.6822
      vertex 0.774192 45.6936 9.17978
    endloop
  endfacet
  facet normal -0.226045 0.84361 0.487058
    outer loop
      vertex 0.774192 45.6936 15.6822
      vertex 0.400286 45.5934 15.6822
      vertex 0.500474 45.4199 16.0292
    endloop
  endfacet
  facet normal -0.226045 0.84361 0.487058
    outer loop
      vertex 0.774192 45.6936 15.6822
      vertex 0.500474 45.4199 16.0292
      vertex 0.774192 45.4932 16.0292
    endloop
  endfacet
  facet normal -0.132788 0.495572 0.858357
    outer loop
      vertex 0.774192 45.4932 16.0292
      vertex 0.500474 45.4199 16.0292
      vertex 0.774192 45.1462 16.2296
    endloop
  endfacet
  facet normal -0.132788 0.495572 0.858357
    outer loop
      vertex 0.774192 45.1462 16.2296
      vertex 0.500474 45.4199 16.0292
      vertex 0.674004 45.1193 16.2296
    endloop
  endfacet
  facet normal -0.362784 0.362784 0.858356
    outer loop
      vertex 0.674004 45.1193 16.2296
      vertex 0.500474 45.4199 16.0292
      vertex 0.600662 45.046 16.2296
    endloop
  endfacet
  facet normal 0 0 1
    outer loop
      vertex 0.573816 44.9458 16.2296
      vertex 0.573816 0.774192 16.2296
      vertex 0.600662 0.674004 16.2296
    endloop
  endfacet
  facet normal 0 0 1
    outer loop
      vertex 0.774192 0.573816 16.2296
      vertex 0.573816 44.9458 16.2296
      vertex 0.674004 0.600662 16.2296
    endloop
  endfacet
  facet normal 0 0 1
    outer loop
      vertex 0.674004 0.600662 16.2296
      vertex 0.573816 44.9458 16.2296
      vertex 0.600662 0.674004 16.2296
    endloop
  endfacet
  facet normal 0 0 1
    outer loop
      vertex 4.17881 0.573816 16.2296
      vertex 0.573816 44.9458 16.2296
      vertex 0.774192 0.573816 16.2296
    endloop
  endfacet
  facet normal 0 0 1
    outer loop
      vertex 4.279 0.600662 16.2296
      vertex 0.573816 44.9458 16.2296
      vertex 4.17881 0.573816 16.2296
    endloop
  endfacet
  facet normal 0 0 1
    outer loop
      vertex 4.35234 0.674004 16.2296
      vertex 0.573816 44.9458 16.2296
      vertex 4.279 0.600662 16.2296
    endloop
  endfacet
  facet normal 0 0 1
    outer loop
      vertex 4.37918 0.774192 16.2296
      vertex 0.573816 44.9458 16.2296
      vertex 4.35234 0.674004 16.2296
    endloop
  endfacet
  facet normal 0 0 1
    outer loop
      vertex 4.37918 44.9458 16.2296
      vertex 0.573816 44.9458 16.2296
      vertex 4.37918 0.774192 16.2296
    endloop
  endfacet
  facet normal 0 0 1
    outer loop
      vertex 4.35234 45.046 16.2296
      vertex 0.573816 44.9458 16.2296
      vertex 4.37918 44.9458 16.2296
    endloop
  endfacet
  facet normal 0 0 1
    outer loop
      vertex 4.279 45.1193 16.2296
      vertex 0.573816 44.9458 16.2296
      vertex 4.35234 45.046 16.2296
    endloop
  endfacet
  facet normal 0 0 1
    outer loop
      vertex 4.17881 45.1462 16.2296
      vertex 0.573816 44.9458 16.2296
      vertex 4.279 45.1193 16.2296
    endloop
  endfacet
  facet normal 0 0 1
    outer loop
      vertex 0.774192 45.1462 16.2296
      vertex 0.573816 44.9458 16.2296
      vertex 4.17881 45.1462 16.2296
    endloop
  endfacet
  facet normal 0 0 1
    outer loop
      vertex 0.674004 45.1193 16.2296
      vertex 0.573816 44.9458 16.2296
      vertex 0.774192 45.1462 16.2296
    endloop
  endfacet
  facet normal 0 0 1
    outer loop
      vertex 0.600662 45.046 16.2296
      vertex 0.573816 44.9458 16.2296
      vertex 0.674004 45.1193 16.2296
    endloop
  endfacet
  facet normal 0 -0.5 0.866026
    outer loop
      vertex 0.774192 0.573816 16.2296
      vertex 0.774192 0.226755 16.0292
      vertex 4.17881 0.226755 16.0292
    endloop
  endfacet
  facet normal 0 -0.5 0.866026
    outer loop
      vertex 4.17881 0.573816 16.2296
      vertex 0.774192 0.573816 16.2296
      vertex 4.17881 0.226755 16.0292
    endloop
  endfacet
  facet normal 0 -0.866026 0.5
    outer loop
      vertex 0.774192 0.226755 16.0292
      vertex 0.774192 0.0263799 15.6822
      vertex 4.17881 0.0263799 15.6822
    endloop
  endfacet
  facet normal 0 -0.866026 0.5
    outer loop
      vertex 4.17881 0.226755 16.0292
      vertex 0.774192 0.226755 16.0292
      vertex 4.17881 0.0263799 15.6822
    endloop
  endfacet
  facet normal 0 -1 0
    outer loop
      vertex 4.17881 0.0263799 9.17978
      vertex 0.774192 0.0263799 0.573816
      vertex 19.0378 0.0263799 0.573816
    endloop
  endfacet
  facet normal 0 -1 0
    outer loop
      vertex 4.17881 0.0263799 9.17978
      vertex 4.17881 0.0263799 15.6822
      vertex 0.774192 0.0263799 15.6822
    endloop
  endfacet
  facet normal 0 -1 0
    outer loop
      vertex 0.774192 0.0263799 15.6822
      vertex 0.774192 0.0263799 0.573816
      vertex 4.17881 0.0263799 9.17978
    endloop
  endfacet
  facet normal 0 -1 0
    outer loop
      vertex 19.0378 0.0263799 9.17978
      vertex 4.17881 0.0263799 9.17978
      vertex 19.0378 0.0263799 0.573816
    endloop
  endfacet
  facet normal 0 -0.866026 -0.5
    outer loop
      vertex 19.0378 0.0263799 0.573816
      vertex 0.774192 0.0263799 0.573816
      vertex 0.774192 0.226755 0.226755
    endloop
  endfacet
  facet normal 0 -0.866026 -0.5
    outer loop
      vertex 19.0378 0.226755 0.226755
      vertex 19.0378 0.0263799 0.573816
      vertex 0.774192 0.226755 0.226755
    endloop
  endfacet
  facet normal 0 -0.5 -0.866026
    outer loop
      vertex 0.774192 0.226755 0.226755
      vertex 0.774192 0.573816 0.0263799
      vertex 19.0378 0.226755 0.226755
    endloop
  endfacet
  facet normal 0 -0.5 -0.866026
    outer loop
      vertex 19.0378 0.226755 0.226755
      vertex 0.774192 0.573816 0.0263799
      vertex 19.0378 0.573816 0.0263799
    endloop
  endfacet
  facet normal 0.132788 -0.495572 -0.858357
    outer loop
      vertex 19.3115 0.300098 0.226755
      vertex 19.0378 0.226755 0.226755
      vertex 19.0378 0.573816 0.0263799
    endloop
  endfacet
  facet normal 0.132788 -0.495572 -0.858357
    outer loop
      vertex 19.3115 0.300098 0.226755
      vertex 19.0378 0.573816 0.0263799
      vertex 19.138 0.600662 0.0263799
    endloop
  endfacet
  facet normal 0.362784 -0.362784 -0.858356
    outer loop
      vertex 19.3115 0.300098 0.226755
      vertex 19.138 0.600662 0.0263799
      vertex 19.5119 0.500474 0.226755
    endloop
  endfacet
  facet normal 0.362784 -0.362784 -0.858356
    outer loop
      vertex 19.5119 0.500474 0.226755
      vertex 19.138 0.600662 0.0263799
      vertex 19.2113 0.674004 0.0263799
    endloop
  endfacet
  facet normal 0.495572 -0.132788 -0.858357
    outer loop
      vertex 19.5119 0.500474 0.226755
      vertex 19.2113 0.674004 0.0263799
      vertex 19.2382 0.774192 0.0263799
    endloop
  endfacet
  facet normal 0.495572 -0.132788 -0.858357
    outer loop
      vertex 19.5119 0.500474 0.226755
      vertex 19.2382 0.774192 0.0263799
      vertex 19.5852 0.774192 0.226755
    endloop
  endfacet
  facet normal 0.5 0 -0.866026
    outer loop
      vertex 19.2382 0.774192 0.0263799
      vertex 19.2382 44.9458 0.0263799
      vertex 19.5852 0.774192 0.226755
    endloop
  endfacet
  facet normal 0.5 0 -0.866026
    outer loop
      vertex 19.5852 0.774192 0.226755
      vertex 19.2382 44.9458 0.0263799
      vertex 19.5852 44.9458 0.226755
    endloop
  endfacet
  facet normal 0.495572 0.132788 -0.858357
    outer loop
      vertex 19.5852 44.9458 0.226755
      vertex 19.2382 44.9458 0.0263799
      vertex 19.5119 45.2195 0.226755
    endloop
  endfacet
  facet normal 0.495572 0.132788 -0.858357
    outer loop
      vertex 19.5119 45.2195 0.226755
      vertex 19.2382 44.9458 0.0263799
      vertex 19.3616 45.1328 0.126568
    endloop
  endfacet
  facet normal 0.495572 0.132788 -0.858357
    outer loop
      vertex 19.2382 44.9458 0.0263799
      vertex 19.2113 45.046 0.0263799
      vertex 19.3616 45.1328 0.126568
    endloop
  endfacet
  facet normal 0.362784 0.362784 -0.858356
    outer loop
      vertex 19.2113 45.046 0.0263799
      vertex 19.1747 45.0827 0.0263799
      vertex 19.3616 45.1328 0.126568
    endloop
  endfacet
  facet normal 0.362784 0.362784 -0.858356
    outer loop
      vertex 19.138 45.1193 0.0263799
      vertex 19.5119 45.2195 0.226755
      vertex 19.1747 45.0827 0.0263799
    endloop
  endfacet
  facet normal 0.362784 0.362784 -0.858356
    outer loop
      vertex 19.1747 45.0827 0.0263799
      vertex 19.5119 45.2195 0.226755
      vertex 19.3616 45.1328 0.126568
    endloop
  endfacet
  facet normal 0.362784 0.362784 -0.858356
    outer loop
      vertex 19.5119 45.2195 0.226755
      vertex 19.138 45.1193 0.0263799
      vertex 19.3115 45.4199 0.226755
    endloop
  endfacet
  facet normal 0.132788 0.495572 -0.858357
    outer loop
      vertex 19.138 45.1193 0.0263799
      vertex 19.0879 45.1328 0.0263799
      vertex 19.3115 45.4199 0.226755
    endloop
  endfacet
  facet normal 0.132788 0.495572 -0.858357
    outer loop
      vertex 19.0879 45.1328 0.0263799
      vertex 19.0378 45.1462 0.0263799
      vertex 19.3115 45.4199 0.226755
    endloop
  endfacet
  facet normal 0.132788 0.495572 -0.858357
    outer loop
      vertex 19.3115 45.4199 0.226755
      vertex 19.0378 45.1462 0.0263799
      vertex 19.0378 45.2619 0.0931718
    endloop
  endfacet
  facet normal 0 0.5 -0.866026
    outer loop
      vertex 0.774192 45.1462 0.0263799
      vertex 0.774192 45.2619 0.0931718
      vertex 19.0378 45.1462 0.0263799
    endloop
  endfacet
  facet normal 0 0.5 -0.866026
    outer loop
      vertex 19.0378 45.1462 0.0263799
      vertex 0.774192 45.2619 0.0931718
      vertex 19.0378 45.2619 0.0931718
    endloop
  endfacet
  facet normal -0.362784 0.362784 -0.858356
    outer loop
      vertex 0.637333 45.0827 0.0263799
      vertex 0.604409 45.138 0.0636757
      vertex 0.674004 45.1193 0.0263799
    endloop
  endfacet
  facet normal 0 0.5 -0.866026
    outer loop
      vertex 0.774192 45.2619 0.0931718
      vertex 0.774192 45.4932 0.226755
      vertex 19.0378 45.2619 0.0931718
    endloop
  endfacet
  facet normal 0 0.5 -0.866026
    outer loop
      vertex 19.0378 45.2619 0.0931718
      vertex 0.774192 45.4932 0.226755
      vertex 19.0378 45.4932 0.226755
    endloop
  endfacet
  facet normal 0 0.866026 -0.5
    outer loop
      vertex 0.774192 45.4932 0.226755
      vertex 0.774192 45.6936 0.573816
      vertex 19.0378 45.4932 0.226755
    endloop
  endfacet
  facet normal 0 0.866026 -0.5
    outer loop
      vertex 19.0378 45.4932 0.226755
      vertex 0.774192 45.6936 0.573816
      vertex 19.0378 45.6936 0.573816
    endloop
  endfacet
  facet normal 0 1 0
    outer loop
      vertex 0.774192 45.6936 0.573816
      vertex 0.774192 45.6936 9.17978
      vertex 19.0378 45.6936 0.573816
    endloop
  endfacet
  facet normal 0 1 0
    outer loop
      vertex 4.17881 45.6936 9.17978
      vertex 0.774192 45.6936 9.17978
      vertex 0.774192 45.6936 15.6822
    endloop
  endfacet
  facet normal 0 1 0
    outer loop
      vertex 19.0378 45.6936 0.573816
      vertex 0.774192 45.6936 9.17978
      vertex 4.17881 45.6936 9.17978
    endloop
  endfacet
  facet normal 0 1 0
    outer loop
      vertex 19.0378 45.6936 9.17978
      vertex 19.0378 45.6936 0.573816
      vertex 4.17881 45.6936 9.17978
    endloop
  endfacet
  facet normal 0 1 0
    outer loop
      vertex 4.17881 45.6936 9.17978
      vertex 0.774192 45.6936 15.6822
      vertex 4.17881 45.6936 15.6822
    endloop
  endfacet
  facet normal 0 0.866026 0.5
    outer loop
      vertex 0.774192 45.4932 16.0292
      vertex 4.17881 45.4932 16.0292
      vertex 0.774192 45.6936 15.6822
    endloop
  endfacet
  facet normal 0 0.866026 0.5
    outer loop
      vertex 0.774192 45.6936 15.6822
      vertex 4.17881 45.4932 16.0292
      vertex 4.17881 45.6936 15.6822
    endloop
  endfacet
  facet normal 0 0.5 0.866026
    outer loop
      vertex 0.774192 45.4932 16.0292
      vertex 0.774192 45.1462 16.2296
      vertex 4.17881 45.1462 16.2296
    endloop
  endfacet
  facet normal 0 0.5 0.866026
    outer loop
      vertex 4.17881 45.4932 16.0292
      vertex 0.774192 45.4932 16.0292
      vertex 4.17881 45.1462 16.2296
    endloop
  endfacet
  facet normal 0.132788 0.495572 0.858357
    outer loop
      vertex 4.45253 45.4199 16.0292
      vertex 4.17881 45.1462 16.2296
      vertex 4.279 45.1193 16.2296
    endloop
  endfacet
  facet normal 0.132788 0.495572 0.858357
    outer loop
      vertex 4.17881 45.4932 16.0292
      vertex 4.17881 45.1462 16.2296
      vertex 4.45253 45.4199 16.0292
    endloop
  endfacet
  facet normal 0.362784 0.362784 0.858356
    outer loop
      vertex 4.45253 45.4199 16.0292
      vertex 4.279 45.1193 16.2296
      vertex 4.35234 45.046 16.2296
    endloop
  endfacet
  facet normal 0.362784 0.362784 0.858356
    outer loop
      vertex 4.45253 45.4199 16.0292
      vertex 4.35234 45.046 16.2296
      vertex 4.6529 45.2195 16.0292
    endloop
  endfacet
  facet normal 0.495572 0.132788 0.858357
    outer loop
      vertex 4.6529 45.2195 16.0292
      vertex 4.35234 45.046 16.2296
      vertex 4.37918 44.9458 16.2296
    endloop
  endfacet
  facet normal 0.495572 0.132788 0.858357
    outer loop
      vertex 4.6529 45.2195 16.0292
      vertex 4.37918 44.9458 16.2296
      vertex 4.72624 44.9458 16.0292
    endloop
  endfacet
  facet normal 0.5 0 0.866026
    outer loop
      vertex 4.37918 44.9458 16.2296
      vertex 4.37918 0.774192 16.2296
      vertex 4.72624 0.774192 16.0292
    endloop
  endfacet
  facet normal 0.5 0 0.866026
    outer loop
      vertex 4.72624 44.9458 16.0292
      vertex 4.37918 44.9458 16.2296
      vertex 4.72624 0.774192 16.0292
    endloop
  endfacet
  facet normal 0.495572 -0.132788 0.858357
    outer loop
      vertex 4.37918 0.774192 16.2296
      vertex 4.35234 0.674004 16.2296
      vertex 4.6529 0.500474 16.0292
    endloop
  endfacet
  facet normal 0.495572 -0.132788 0.858357
    outer loop
      vertex 4.72624 0.774192 16.0292
      vertex 4.37918 0.774192 16.2296
      vertex 4.6529 0.500474 16.0292
    endloop
  endfacet
  facet normal 0.362784 -0.362784 0.858356
    outer loop
      vertex 4.6529 0.500474 16.0292
      vertex 4.35234 0.674004 16.2296
      vertex 4.45253 0.300098 16.0292
    endloop
  endfacet
  facet normal 0.362784 -0.362784 0.858356
    outer loop
      vertex 4.35234 0.674004 16.2296
      vertex 4.279 0.600662 16.2296
      vertex 4.45253 0.300098 16.0292
    endloop
  endfacet
  facet normal 0.132788 -0.495572 0.858357
    outer loop
      vertex 4.279 0.600662 16.2296
      vertex 4.17881 0.573816 16.2296
      vertex 4.45253 0.300098 16.0292
    endloop
  endfacet
  facet normal 0.132788 -0.495572 0.858357
    outer loop
      vertex 4.17881 0.573816 16.2296
      vertex 4.17881 0.226755 16.0292
      vertex 4.45253 0.300098 16.0292
    endloop
  endfacet
  facet normal 0.226045 -0.84361 0.487058
    outer loop
      vertex 4.17881 0.226755 16.0292
      vertex 4.17881 0.0263799 15.6822
      vertex 4.45253 0.300098 16.0292
    endloop
  endfacet
  facet normal 0.258819 -0.965926 0
    outer loop
      vertex 4.17881 0.0263799 15.6822
      vertex 4.17881 0.0263799 9.17978
      vertex 4.55271 0.126568 9.35331
    endloop
  endfacet
  facet normal 0.258819 -0.965926 0
    outer loop
      vertex 4.55271 0.126568 15.6822
      vertex 4.17881 0.0263799 15.6822
      vertex 4.55271 0.126568 9.35331
    endloop
  endfacet
  facet normal 0.226045 -0.84361 0.487058
    outer loop
      vertex 4.45253 0.300098 16.0292
      vertex 4.17881 0.0263799 15.6822
      vertex 4.55271 0.126568 15.6822
    endloop
  endfacet
  facet normal 0 -0.866026 0.5
    outer loop
      vertex 4.55271 0.126568 9.35331
      vertex 4.17881 0.0263799 9.17978
      vertex 19.0378 0.0263799 9.17978
    endloop
  endfacet
  facet normal 0 -0.866026 0.5
    outer loop
      vertex 4.6529 0.226755 9.52684
      vertex 4.55271 0.126568 9.35331
      vertex 19.0378 0.226755 9.52684
    endloop
  endfacet
  facet normal 0 -0.866026 0.5
    outer loop
      vertex 19.0378 0.226755 9.52684
      vertex 4.55271 0.126568 9.35331
      vertex 19.0378 0.0263799 9.17978
    endloop
  endfacet
  facet normal 0.258819 -0.965926 0
    outer loop
      vertex 19.0378 0.0263799 9.17978
      vertex 19.0378 0.0263799 0.573816
      vertex 19.4117 0.126568 0.573816
    endloop
  endfacet
  facet normal 0.258819 -0.965926 0
    outer loop
      vertex 19.4117 0.126568 9.17978
      vertex 19.0378 0.0263799 9.17978
      vertex 19.4117 0.126568 0.573816
    endloop
  endfacet
  facet normal 0.226045 -0.84361 0.487058
    outer loop
      vertex 19.0378 0.226755 9.52684
      vertex 19.0378 0.0263799 9.17978
      vertex 19.3115 0.300098 9.52684
    endloop
  endfacet
  facet normal 0.226045 -0.84361 0.487058
    outer loop
      vertex 19.3115 0.300098 9.52684
      vertex 19.0378 0.0263799 9.17978
      vertex 19.4117 0.126568 9.17978
    endloop
  endfacet
  facet normal 0.226045 -0.84361 -0.487058
    outer loop
      vertex 19.4117 0.126568 0.573816
      vertex 19.0378 0.0263799 0.573816
      vertex 19.3115 0.300098 0.226755
    endloop
  endfacet
  facet normal 0.226045 -0.84361 -0.487058
    outer loop
      vertex 19.3115 0.300098 0.226755
      vertex 19.0378 0.0263799 0.573816
      vertex 19.0378 0.226755 0.226755
    endloop
  endfacet
  facet normal 0.617566 -0.617566 -0.487058
    outer loop
      vertex 19.4117 0.126568 0.573816
      vertex 19.3115 0.300098 0.226755
      vertex 19.5119 0.500474 0.226755
    endloop
  endfacet
  facet normal 0.617566 -0.617566 -0.487058
    outer loop
      vertex 19.6854 0.400286 0.573816
      vertex 19.4117 0.126568 0.573816
      vertex 19.5119 0.500474 0.226755
    endloop
  endfacet
  facet normal 0.84361 -0.226045 -0.487058
    outer loop
      vertex 19.6854 0.400286 0.573816
      vertex 19.5119 0.500474 0.226755
      vertex 19.7856 0.774192 0.573816
    endloop
  endfacet
  facet normal 0.84361 -0.226045 -0.487058
    outer loop
      vertex 19.7856 0.774192 0.573816
      vertex 19.5119 0.500474 0.226755
      vertex 19.5852 0.774192 0.226755
    endloop
  endfacet
  facet normal 0.866026 0 -0.5
    outer loop
      vertex 19.7856 0.774192 0.573816
      vertex 19.5852 0.774192 0.226755
      vertex 19.5852 44.9458 0.226755
    endloop
  endfacet
  facet normal 0.866026 0 -0.5
    outer loop
      vertex 19.7856 44.9458 0.573816
      vertex 19.7856 0.774192 0.573816
      vertex 19.5852 44.9458 0.226755
    endloop
  endfacet
  facet normal 0.84361 0.226045 -0.487058
    outer loop
      vertex 19.5852 44.9458 0.226755
      vertex 19.5119 45.2195 0.226755
      vertex 19.7856 44.9458 0.573816
    endloop
  endfacet
  facet normal 0.617566 0.617566 -0.487058
    outer loop
      vertex 19.5119 45.2195 0.226755
      vertex 19.3115 45.4199 0.226755
      vertex 19.4117 45.5934 0.573816
    endloop
  endfacet
  facet normal 0.84361 0.226045 -0.487058
    outer loop
      vertex 19.7856 44.9458 0.573816
      vertex 19.5119 45.2195 0.226755
      vertex 19.6854 45.3197 0.573816
    endloop
  endfacet
  facet normal 0.617566 0.617566 -0.487058
    outer loop
      vertex 19.5119 45.2195 0.226755
      vertex 19.4117 45.5934 0.573816
      vertex 19.6854 45.3197 0.573816
    endloop
  endfacet
  facet normal 0.226045 0.84361 -0.487058
    outer loop
      vertex 19.3115 45.4199 0.226755
      vertex 19.0378 45.4932 0.226755
      vertex 19.0378 45.6936 0.573816
    endloop
  endfacet
  facet normal 0.132788 0.495572 -0.858357
    outer loop
      vertex 19.3115 45.4199 0.226755
      vertex 19.0378 45.2619 0.0931718
      vertex 19.0378 45.4932 0.226755
    endloop
  endfacet
  facet normal 0.226045 0.84361 -0.487058
    outer loop
      vertex 19.3115 45.4199 0.226755
      vertex 19.0378 45.6936 0.573816
      vertex 19.4117 45.5934 0.573816
    endloop
  endfacet
  facet normal 0.258819 0.965926 0
    outer loop
      vertex 19.0378 45.6936 0.573816
      vertex 19.0378 45.6936 9.17978
      vertex 19.4117 45.5934 0.573816
    endloop
  endfacet
  facet normal 0.258819 0.965926 0
    outer loop
      vertex 19.4117 45.5934 0.573816
      vertex 19.0378 45.6936 9.17978
      vertex 19.4117 45.5934 9.17978
    endloop
  endfacet
  facet normal 0.226045 0.84361 0.487058
    outer loop
      vertex 19.0378 45.6936 9.17978
      vertex 19.0378 45.4932 9.52684
      vertex 19.3115 45.4199 9.52684
    endloop
  endfacet
  facet normal 0 0.866026 0.5
    outer loop
      vertex 4.17881 45.6936 9.17978
      vertex 4.55271 45.5934 9.35331
      vertex 19.0378 45.6936 9.17978
    endloop
  endfacet
  facet normal 0 0.866026 0.5
    outer loop
      vertex 19.0378 45.6936 9.17978
      vertex 4.55271 45.5934 9.35331
      vertex 4.6529 45.4932 9.52684
    endloop
  endfacet
  facet normal 0 0.866026 0.5
    outer loop
      vertex 19.0378 45.6936 9.17978
      vertex 4.6529 45.4932 9.52684
      vertex 19.0378 45.4932 9.52684
    endloop
  endfacet
  facet normal 0.226045 0.84361 0.487058
    outer loop
      vertex 19.4117 45.5934 9.17978
      vertex 19.0378 45.6936 9.17978
      vertex 19.3115 45.4199 9.52684
    endloop
  endfacet
  facet normal 0.258819 0.965926 0
    outer loop
      vertex 4.17881 45.6936 9.17978
      vertex 4.17881 45.6936 15.6822
      vertex 4.55271 45.5934 9.35331
    endloop
  endfacet
  facet normal 0.258819 0.965926 0
    outer loop
      vertex 4.55271 45.5934 9.35331
      vertex 4.17881 45.6936 15.6822
      vertex 4.55271 45.5934 15.6822
    endloop
  endfacet
  facet normal 0.226045 0.84361 0.487058
    outer loop
      vertex 4.55271 45.5934 15.6822
      vertex 4.17881 45.6936 15.6822
      vertex 4.45253 45.4199 16.0292
    endloop
  endfacet
  facet normal 0.226045 0.84361 0.487058
    outer loop
      vertex 4.17881 45.6936 15.6822
      vertex 4.17881 45.4932 16.0292
      vertex 4.45253 45.4199 16.0292
    endloop
  endfacet
  facet normal 0.617566 0.617566 0.487058
    outer loop
      vertex 4.55271 45.5934 15.6822
      vertex 4.45253 45.4199 16.0292
      vertex 4.82643 45.3197 15.6822
    endloop
  endfacet
  facet normal 0.617566 0.617566 0.487058
    outer loop
      vertex 4.82643 45.3197 15.6822
      vertex 4.45253 45.4199 16.0292
      vertex 4.6529 45.2195 16.0292
    endloop
  endfacet
  facet normal 0.84361 0.226045 0.487058
    outer loop
      vertex 4.92662 44.9458 15.6822
      vertex 4.6529 45.2195 16.0292
      vertex 4.72624 44.9458 16.0292
    endloop
  endfacet
  facet normal 0.84361 0.226045 0.487058
    outer loop
      vertex 4.82643 45.3197 15.6822
      vertex 4.6529 45.2195 16.0292
      vertex 4.92662 44.9458 15.6822
    endloop
  endfacet
  facet normal 0.866026 0 0.5
    outer loop
      vertex 4.72624 44.9458 16.0292
      vertex 4.72624 0.774192 16.0292
      vertex 4.92662 0.774192 15.6822
    endloop
  endfacet
  facet normal 0.866026 0 0.5
    outer loop
      vertex 4.92662 44.9458 15.6822
      vertex 4.72624 44.9458 16.0292
      vertex 4.92662 0.774192 15.6822
    endloop
  endfacet
  facet normal 0.84361 -0.226045 0.487058
    outer loop
      vertex 4.72624 0.774192 16.0292
      vertex 4.6529 0.500474 16.0292
      vertex 4.92662 0.774192 15.6822
    endloop
  endfacet
  facet normal 0.84361 -0.226045 0.487058
    outer loop
      vertex 4.92662 0.774192 15.6822
      vertex 4.6529 0.500474 16.0292
      vertex 4.82643 0.400286 15.6822
    endloop
  endfacet
  facet normal 0.617566 -0.617566 0.487058
    outer loop
      vertex 4.6529 0.500474 16.0292
      vertex 4.45253 0.300098 16.0292
      vertex 4.82643 0.400286 15.6822
    endloop
  endfacet
  facet normal 0.617566 -0.617566 0.487058
    outer loop
      vertex 4.82643 0.400286 15.6822
      vertex 4.45253 0.300098 16.0292
      vertex 4.55271 0.126568 15.6822
    endloop
  endfacet
  facet normal 0.707107 -0.707107 0
    outer loop
      vertex 4.55271 0.126568 15.6822
      vertex 4.55271 0.126568 9.35331
      vertex 4.6529 0.226755 9.52684
    endloop
  endfacet
  facet normal 0.707107 -0.707107 0
    outer loop
      vertex 4.82643 0.400286 9.62703
      vertex 4.55271 0.126568 15.6822
      vertex 4.6529 0.226755 9.52684
    endloop
  endfacet
  facet normal 0.707107 -0.707107 0
    outer loop
      vertex 4.82643 0.400286 9.62703
      vertex 4.82643 0.400286 15.6822
      vertex 4.55271 0.126568 15.6822
    endloop
  endfacet
  facet normal 0 -0.5 0.866026
    outer loop
      vertex 4.82643 0.400286 9.62703
      vertex 4.6529 0.226755 9.52684
      vertex 19.0378 0.226755 9.52684
    endloop
  endfacet
  facet normal 0 -0.5 0.866026
    outer loop
      vertex 4.87293 0.573816 9.72722
      vertex 4.82643 0.400286 9.62703
      vertex 19.0378 0.573816 9.72722
    endloop
  endfacet
  facet normal 0 -0.5 0.866026
    outer loop
      vertex 19.0378 0.573816 9.72722
      vertex 4.82643 0.400286 9.62703
      vertex 19.0378 0.226755 9.52684
    endloop
  endfacet
  facet normal 0.132788 -0.495572 0.858357
    outer loop
      vertex 19.0378 0.573816 9.72722
      vertex 19.0378 0.226755 9.52684
      vertex 19.3115 0.300098 9.52684
    endloop
  endfacet
  facet normal 0.707107 -0.707107 0
    outer loop
      vertex 19.4117 0.126568 9.17978
      vertex 19.4117 0.126568 0.573816
      vertex 19.6854 0.400286 0.573816
    endloop
  endfacet
  facet normal 0.707107 -0.707107 0
    outer loop
      vertex 19.6854 0.400286 9.17978
      vertex 19.4117 0.126568 9.17978
      vertex 19.6854 0.400286 0.573816
    endloop
  endfacet
  facet normal 0.617566 -0.617566 0.487058
    outer loop
      vertex 19.5119 0.500474 9.52684
      vertex 19.3115 0.300098 9.52684
      vertex 19.4117 0.126568 9.17978
    endloop
  endfacet
  facet normal 0.617566 -0.617566 0.487058
    outer loop
      vertex 19.5119 0.500474 9.52684
      vertex 19.4117 0.126568 9.17978
      vertex 19.6854 0.400286 9.17978
    endloop
  endfacet
  facet normal 0.362784 -0.362784 0.858356
    outer loop
      vertex 19.5119 0.500474 9.52684
      vertex 19.138 0.600662 9.72722
      vertex 19.3115 0.300098 9.52684
    endloop
  endfacet
  facet normal 0.132788 -0.495572 0.858357
    outer loop
      vertex 19.138 0.600662 9.72722
      vertex 19.0378 0.573816 9.72722
      vertex 19.3115 0.300098 9.52684
    endloop
  endfacet
  facet normal 0.965926 -0.258819 0
    outer loop
      vertex 19.6854 0.400286 9.17978
      vertex 19.6854 0.400286 0.573816
      vertex 19.7856 0.774192 0.573816
    endloop
  endfacet
  facet normal 0.965926 -0.258819 0
    outer loop
      vertex 19.7856 0.774192 9.17978
      vertex 19.6854 0.400286 9.17978
      vertex 19.7856 0.774192 0.573816
    endloop
  endfacet
  facet normal 1 0 0
    outer loop
      vertex 19.7856 4.17881 5.92858
      vertex 19.7856 0.774192 0.573816
      vertex 19.7856 44.9458 0.573816
    endloop
  endfacet
  facet normal 1 0 0
    outer loop
      vertex 19.7856 4.17881 5.92858
      vertex 19.7856 4.17881 9.17978
      vertex 19.7856 0.774192 9.17978
    endloop
  endfacet
  facet normal 1 0 0
    outer loop
      vertex 19.7856 44.9458 9.17978
      vertex 19.7856 41.5412 9.17978
      vertex 19.7856 44.9458 0.573816
    endloop
  endfacet
  facet normal 1 0 0
    outer loop
      vertex 19.7856 41.5412 9.17978
      vertex 19.7856 41.5412 5.92858
      vertex 19.7856 44.9458 0.573816
    endloop
  endfacet
  facet normal 1 0 0
    outer loop
      vertex 19.7856 0.774192 9.17978
      vertex 19.7856 0.774192 0.573816
      vertex 19.7856 4.17881 5.92858
    endloop
  endfacet
  facet normal 1 0 0
    outer loop
      vertex 19.7856 41.5412 5.92858
      vertex 19.7856 4.17881 5.92858
      vertex 19.7856 44.9458 0.573816
    endloop
  endfacet
  facet normal 0.965926 0.258819 0
    outer loop
      vertex 19.7856 44.9458 0.573816
      vertex 19.6854 45.3197 0.573816
      vertex 19.6854 45.3197 9.17978
    endloop
  endfacet
  facet normal 0.965926 0.258819 0
    outer loop
      vertex 19.7856 44.9458 9.17978
      vertex 19.7856 44.9458 0.573816
      vertex 19.6854 45.3197 9.17978
    endloop
  endfacet
  facet normal 0.707107 0.707107 0
    outer loop
      vertex 19.6854 45.3197 0.573816
      vertex 19.4117 45.5934 0.573816
      vertex 19.4117 45.5934 9.17978
    endloop
  endfacet
  facet normal 0.707107 0.707107 0
    outer loop
      vertex 19.6854 45.3197 9.17978
      vertex 19.6854 45.3197 0.573816
      vertex 19.4117 45.5934 9.17978
    endloop
  endfacet
  facet normal 0.617566 0.617566 0.487058
    outer loop
      vertex 19.6854 45.3197 9.17978
      vertex 19.4117 45.5934 9.17978
      vertex 19.5119 45.2195 9.52684
    endloop
  endfacet
  facet normal 0.617566 0.617566 0.487058
    outer loop
      vertex 19.4117 45.5934 9.17978
      vertex 19.3115 45.4199 9.52684
      vertex 19.5119 45.2195 9.52684
    endloop
  endfacet
  facet normal 0.132788 0.495572 0.858357
    outer loop
      vertex 19.0378 45.4932 9.52684
      vertex 19.0378 45.1462 9.72722
      vertex 19.3115 45.4199 9.52684
    endloop
  endfacet
  facet normal 0.362784 0.362784 0.858356
    outer loop
      vertex 19.3115 45.4199 9.52684
      vertex 19.138 45.1193 9.72722
      vertex 19.5119 45.2195 9.52684
    endloop
  endfacet
  facet normal 0.132788 0.495572 0.858357
    outer loop
      vertex 19.3115 45.4199 9.52684
      vertex 19.0378 45.1462 9.72722
      vertex 19.138 45.1193 9.72722
    endloop
  endfacet
  facet normal 0 0.5 0.866026
    outer loop
      vertex 19.0378 45.4932 9.52684
      vertex 4.6529 45.4932 9.52684
      vertex 4.82643 45.3197 9.62703
    endloop
  endfacet
  facet normal 0 0.5 0.866026
    outer loop
      vertex 4.87293 45.1462 9.72722
      vertex 19.0378 45.4932 9.52684
      vertex 4.82643 45.3197 9.62703
    endloop
  endfacet
  facet normal 0 0.5 0.866026
    outer loop
      vertex 4.87293 45.1462 9.72722
      vertex 19.0378 45.1462 9.72722
      vertex 19.0378 45.4932 9.52684
    endloop
  endfacet
  facet normal 0.707107 0.707107 0
    outer loop
      vertex 4.55271 45.5934 9.35331
      vertex 4.55271 45.5934 15.6822
      vertex 4.6529 45.4932 9.52684
    endloop
  endfacet
  facet normal 0.707107 0.707107 0
    outer loop
      vertex 4.6529 45.4932 9.52684
      vertex 4.55271 45.5934 15.6822
      vertex 4.82643 45.3197 15.6822
    endloop
  endfacet
  facet normal 0.707107 0.707107 0
    outer loop
      vertex 4.6529 45.4932 9.52684
      vertex 4.82643 45.3197 15.6822
      vertex 4.82643 45.3197 9.62703
    endloop
  endfacet
  facet normal 0.965926 0.258819 0
    outer loop
      vertex 4.87293 45.1462 9.72722
      vertex 4.82643 45.3197 9.62703
      vertex 4.82643 45.3197 15.6822
    endloop
  endfacet
  facet normal 0.965926 0.258819 0
    outer loop
      vertex 4.92662 44.9458 9.72722
      vertex 4.87293 45.1462 9.72722
      vertex 4.92662 44.9458 15.6822
    endloop
  endfacet
  facet normal 0.965926 0.258819 0
    outer loop
      vertex 4.92662 44.9458 15.6822
      vertex 4.87293 45.1462 9.72722
      vertex 4.82643 45.3197 15.6822
    endloop
  endfacet
  facet normal 1 0 0
    outer loop
      vertex 4.92662 4.72624 9.52684
      vertex 4.92662 40.7934 6.47602
      vertex 4.92662 0.774192 15.6822
    endloop
  endfacet
  facet normal 1 0 0
    outer loop
      vertex 4.92662 0.774192 15.6822
      vertex 4.92662 0.774192 9.72722
      vertex 4.92662 4.37918 9.72722
    endloop
  endfacet
  facet normal 1 0 0
    outer loop
      vertex 4.92662 4.92662 9.17978
      vertex 4.92662 40.7934 6.47602
      vertex 4.92662 4.72624 9.52684
    endloop
  endfacet
  facet normal 1 0 0
    outer loop
      vertex 4.92662 4.72624 9.52684
      vertex 4.92662 0.774192 15.6822
      vertex 4.92662 4.37918 9.72722
    endloop
  endfacet
  facet normal 1 0 0
    outer loop
      vertex 4.92662 40.7934 9.17978
      vertex 4.92662 40.9938 9.52684
      vertex 4.92662 0.774192 15.6822
    endloop
  endfacet
  facet normal 1 0 0
    outer loop
      vertex 4.92662 4.92662 6.47602
      vertex 4.92662 40.7934 6.47602
      vertex 4.92662 4.92662 9.17978
    endloop
  endfacet
  facet normal 1 0 0
    outer loop
      vertex 4.92662 40.7934 6.47602
      vertex 4.92662 40.7934 9.17978
      vertex 4.92662 0.774192 15.6822
    endloop
  endfacet
  facet normal 1 0 0
    outer loop
      vertex 4.92662 40.9938 9.52684
      vertex 4.92662 41.3408 9.72722
      vertex 4.92662 0.774192 15.6822
    endloop
  endfacet
  facet normal 1 0 0
    outer loop
      vertex 4.92662 41.3408 9.72722
      vertex 4.92662 44.9458 9.72722
      vertex 4.92662 0.774192 15.6822
    endloop
  endfacet
  facet normal 1 0 0
    outer loop
      vertex 4.92662 44.9458 9.72722
      vertex 4.92662 44.9458 15.6822
      vertex 4.92662 0.774192 15.6822
    endloop
  endfacet
  facet normal 0.965926 -0.258819 0
    outer loop
      vertex 4.82643 0.400286 15.6822
      vertex 4.82643 0.400286 9.62703
      vertex 4.87293 0.573816 9.72722
    endloop
  endfacet
  facet normal 0.965926 -0.258819 0
    outer loop
      vertex 4.92662 0.774192 9.72722
      vertex 4.82643 0.400286 15.6822
      vertex 4.87293 0.573816 9.72722
    endloop
  endfacet
  facet normal 0.965926 -0.258819 0
    outer loop
      vertex 4.92662 0.774192 9.72722
      vertex 4.92662 0.774192 15.6822
      vertex 4.82643 0.400286 15.6822
    endloop
  endfacet
  facet normal 0 0 1
    outer loop
      vertex 4.92662 0.774192 9.72722
      vertex 4.87293 0.573816 9.72722
      vertex 19.0378 0.573816 9.72722
    endloop
  endfacet
  facet normal 0 0 1
    outer loop
      vertex 19.2113 0.674004 9.72722
      vertex 4.92662 0.774192 9.72722
      vertex 19.138 0.600662 9.72722
    endloop
  endfacet
  facet normal 0 0 1
    outer loop
      vertex 19.138 0.600662 9.72722
      vertex 4.92662 0.774192 9.72722
      vertex 19.0378 0.573816 9.72722
    endloop
  endfacet
  facet normal 0 0 1
    outer loop
      vertex 19.2382 0.774192 9.72722
      vertex 4.92662 0.774192 9.72722
      vertex 19.2113 0.674004 9.72722
    endloop
  endfacet
  facet normal 0 0 1
    outer loop
      vertex 19.2382 4.17881 9.72722
      vertex 4.92662 0.774192 9.72722
      vertex 19.2382 0.774192 9.72722
    endloop
  endfacet
  facet normal 0 0 1
    outer loop
      vertex 19.2113 4.279 9.72722
      vertex 4.92662 0.774192 9.72722
      vertex 19.2382 4.17881 9.72722
    endloop
  endfacet
  facet normal 0 0 1
    outer loop
      vertex 19.138 4.35234 9.72722
      vertex 4.92662 0.774192 9.72722
      vertex 19.2113 4.279 9.72722
    endloop
  endfacet
  facet normal 0 0 1
    outer loop
      vertex 19.0378 4.37918 9.72722
      vertex 4.92662 0.774192 9.72722
      vertex 19.138 4.35234 9.72722
    endloop
  endfacet
  facet normal 0 0 1
    outer loop
      vertex 4.92662 4.37918 9.72722
      vertex 4.92662 0.774192 9.72722
      vertex 19.0378 4.37918 9.72722
    endloop
  endfacet
  facet normal 0.84361 -0.226045 0.487058
    outer loop
      vertex 19.7856 0.774192 9.17978
      vertex 19.5119 0.500474 9.52684
      vertex 19.6854 0.400286 9.17978
    endloop
  endfacet
  facet normal 0.84361 -0.226045 0.487058
    outer loop
      vertex 19.5852 0.774192 9.52684
      vertex 19.5119 0.500474 9.52684
      vertex 19.7856 0.774192 9.17978
    endloop
  endfacet
  facet normal 0.362784 -0.362784 0.858356
    outer loop
      vertex 19.2113 0.674004 9.72722
      vertex 19.138 0.600662 9.72722
      vertex 19.5119 0.500474 9.52684
    endloop
  endfacet
  facet normal 0.495572 -0.132788 0.858357
    outer loop
      vertex 19.2382 0.774192 9.72722
      vertex 19.2113 0.674004 9.72722
      vertex 19.5119 0.500474 9.52684
    endloop
  endfacet
  facet normal 0.495572 -0.132788 0.858357
    outer loop
      vertex 19.5852 0.774192 9.52684
      vertex 19.2382 0.774192 9.72722
      vertex 19.5119 0.500474 9.52684
    endloop
  endfacet
  facet normal 0.866026 0 0.5
    outer loop
      vertex 19.5852 4.17881 9.52684
      vertex 19.5852 0.774192 9.52684
      vertex 19.7856 0.774192 9.17978
    endloop
  endfacet
  facet normal 0.866026 0 0.5
    outer loop
      vertex 19.7856 4.17881 9.17978
      vertex 19.5852 4.17881 9.52684
      vertex 19.7856 0.774192 9.17978
    endloop
  endfacet
  facet normal 0.84361 0.226045 0.487058
    outer loop
      vertex 19.7856 4.17881 9.17978
      vertex 19.5119 4.45253 9.52684
      vertex 19.5852 4.17881 9.52684
    endloop
  endfacet
  facet normal 0.84361 0.226045 0.487058
    outer loop
      vertex 19.6854 4.55271 9.17978
      vertex 19.5119 4.45253 9.52684
      vertex 19.7856 4.17881 9.17978
    endloop
  endfacet
  facet normal 0.965926 0.258819 0
    outer loop
      vertex 19.7856 4.17881 5.92858
      vertex 19.6854 4.55271 6.10211
      vertex 19.6854 4.55271 9.17978
    endloop
  endfacet
  facet normal 0.965926 0.258819 0
    outer loop
      vertex 19.7856 4.17881 9.17978
      vertex 19.7856 4.17881 5.92858
      vertex 19.6854 4.55271 9.17978
    endloop
  endfacet
  facet normal 0.866026 0 0.5
    outer loop
      vertex 19.5852 41.0671 6.27564
      vertex 19.5852 4.6529 6.27564
      vertex 19.6854 4.55271 6.10211
    endloop
  endfacet
  facet normal 0.866026 0 0.5
    outer loop
      vertex 19.7856 4.17881 5.92858
      vertex 19.5852 41.0671 6.27564
      vertex 19.6854 4.55271 6.10211
    endloop
  endfacet
  facet normal 0.866026 0 0.5
    outer loop
      vertex 19.7856 4.17881 5.92858
      vertex 19.6854 41.1673 6.10211
      vertex 19.5852 41.0671 6.27564
    endloop
  endfacet
  facet normal 0.866026 0 0.5
    outer loop
      vertex 19.7856 4.17881 5.92858
      vertex 19.7856 41.5412 5.92858
      vertex 19.6854 41.1673 6.10211
    endloop
  endfacet
  facet normal 0.965926 -0.258819 0
    outer loop
      vertex 19.6854 41.1673 9.17978
      vertex 19.6854 41.1673 6.10211
      vertex 19.7856 41.5412 5.92858
    endloop
  endfacet
  facet normal 0.965926 -0.258819 0
    outer loop
      vertex 19.7856 41.5412 9.17978
      vertex 19.6854 41.1673 9.17978
      vertex 19.7856 41.5412 5.92858
    endloop
  endfacet
  facet normal 0.866026 0 0.5
    outer loop
      vertex 19.5852 44.9458 9.52684
      vertex 19.5852 41.5412 9.52684
      vertex 19.7856 41.5412 9.17978
    endloop
  endfacet
  facet normal 0.866026 0 0.5
    outer loop
      vertex 19.7856 44.9458 9.17978
      vertex 19.5852 44.9458 9.52684
      vertex 19.7856 41.5412 9.17978
    endloop
  endfacet
  facet normal 0.84361 -0.226045 0.487058
    outer loop
      vertex 19.7856 41.5412 9.17978
      vertex 19.5119 41.2675 9.52684
      vertex 19.6854 41.1673 9.17978
    endloop
  endfacet
  facet normal 0.84361 -0.226045 0.487058
    outer loop
      vertex 19.5852 41.5412 9.52684
      vertex 19.5119 41.2675 9.52684
      vertex 19.7856 41.5412 9.17978
    endloop
  endfacet
  facet normal 0.84361 0.226045 0.487058
    outer loop
      vertex 19.7856 44.9458 9.17978
      vertex 19.5119 45.2195 9.52684
      vertex 19.5852 44.9458 9.52684
    endloop
  endfacet
  facet normal 0.84361 0.226045 0.487058
    outer loop
      vertex 19.6854 45.3197 9.17978
      vertex 19.5119 45.2195 9.52684
      vertex 19.7856 44.9458 9.17978
    endloop
  endfacet
  facet normal 0.362784 0.362784 0.858356
    outer loop
      vertex 19.5119 45.2195 9.52684
      vertex 19.138 45.1193 9.72722
      vertex 19.2113 45.046 9.72722
    endloop
  endfacet
  facet normal 0.495572 0.132788 0.858357
    outer loop
      vertex 19.5119 45.2195 9.52684
      vertex 19.2382 44.9458 9.72722
      vertex 19.5852 44.9458 9.52684
    endloop
  endfacet
  facet normal 0.495572 0.132788 0.858357
    outer loop
      vertex 19.5119 45.2195 9.52684
      vertex 19.2113 45.046 9.72722
      vertex 19.2382 44.9458 9.72722
    endloop
  endfacet
  facet normal 0 0 1
    outer loop
      vertex 19.0378 45.1462 9.72722
      vertex 4.87293 45.1462 9.72722
      vertex 4.92662 44.9458 9.72722
    endloop
  endfacet
  facet normal 0 0 1
    outer loop
      vertex 4.92662 41.3408 9.72722
      vertex 19.0378 45.1462 9.72722
      vertex 4.92662 44.9458 9.72722
    endloop
  endfacet
  facet normal 0 0 1
    outer loop
      vertex 4.92662 41.3408 9.72722
      vertex 19.0378 41.3408 9.72722
      vertex 19.0378 45.1462 9.72722
    endloop
  endfacet
  facet normal 0 0 1
    outer loop
      vertex 19.0378 41.3408 9.72722
      vertex 19.138 41.3677 9.72722
      vertex 19.0378 45.1462 9.72722
    endloop
  endfacet
  facet normal 0 0 1
    outer loop
      vertex 19.138 41.3677 9.72722
      vertex 19.2113 41.441 9.72722
      vertex 19.0378 45.1462 9.72722
    endloop
  endfacet
  facet normal 0 0 1
    outer loop
      vertex 19.2113 41.441 9.72722
      vertex 19.2382 41.5412 9.72722
      vertex 19.0378 45.1462 9.72722
    endloop
  endfacet
  facet normal 0 0 1
    outer loop
      vertex 19.2382 41.5412 9.72722
      vertex 19.2382 44.9458 9.72722
      vertex 19.0378 45.1462 9.72722
    endloop
  endfacet
  facet normal 0 0 1
    outer loop
      vertex 19.2382 44.9458 9.72722
      vertex 19.2113 45.046 9.72722
      vertex 19.0378 45.1462 9.72722
    endloop
  endfacet
  facet normal 0 0 1
    outer loop
      vertex 19.2113 45.046 9.72722
      vertex 19.138 45.1193 9.72722
      vertex 19.0378 45.1462 9.72722
    endloop
  endfacet
  facet normal 0 -0.5 0.866026
    outer loop
      vertex 4.92662 41.3408 9.72722
      vertex 4.92662 40.9938 9.52684
      vertex 19.0378 40.9938 9.52684
    endloop
  endfacet
  facet normal 0 -0.5 0.866026
    outer loop
      vertex 19.0378 41.3408 9.72722
      vertex 4.92662 41.3408 9.72722
      vertex 19.0378 40.9938 9.52684
    endloop
  endfacet
  facet normal 0 -0.866026 0.5
    outer loop
      vertex 4.92662 40.9938 9.52684
      vertex 4.92662 40.7934 9.17978
      vertex 19.0378 40.7934 9.17978
    endloop
  endfacet
  facet normal 0 -0.866026 0.5
    outer loop
      vertex 19.0378 40.9938 9.52684
      vertex 4.92662 40.9938 9.52684
      vertex 19.0378 40.7934 9.17978
    endloop
  endfacet
  facet normal 0 -1 0
    outer loop
      vertex 4.92662 40.7934 9.17978
      vertex 4.92662 40.7934 6.47602
      vertex 19.0378 40.7934 6.47602
    endloop
  endfacet
  facet normal 0 -1 0
    outer loop
      vertex 19.0378 40.7934 9.17978
      vertex 4.92662 40.7934 9.17978
      vertex 19.0378 40.7934 6.47602
    endloop
  endfacet
  facet normal 0 0 1
    outer loop
      vertex 4.92662 40.7934 6.47602
      vertex 4.92662 4.92662 6.47602
      vertex 19.0378 4.92662 6.47602
    endloop
  endfacet
  facet normal 0 0 1
    outer loop
      vertex 19.2382 4.87293 6.47602
      vertex 4.92662 40.7934 6.47602
      vertex 19.0378 4.92662 6.47602
    endloop
  endfacet
  facet normal 0 0 1
    outer loop
      vertex 19.2382 4.87293 6.47602
      vertex 19.0378 40.7934 6.47602
      vertex 4.92662 40.7934 6.47602
    endloop
  endfacet
  facet normal 0 0 1
    outer loop
      vertex 19.2382 4.87293 6.47602
      vertex 19.2382 40.8471 6.47602
      vertex 19.0378 40.7934 6.47602
    endloop
  endfacet
  facet normal 0 1 0
    outer loop
      vertex 4.92662 4.92662 6.47602
      vertex 4.92662 4.92662 9.17978
      vertex 19.0378 4.92662 6.47602
    endloop
  endfacet
  facet normal 0 1 0
    outer loop
      vertex 19.0378 4.92662 6.47602
      vertex 4.92662 4.92662 9.17978
      vertex 19.0378 4.92662 9.17978
    endloop
  endfacet
  facet normal 0 0.866026 0.5
    outer loop
      vertex 4.92662 4.72624 9.52684
      vertex 19.0378 4.72624 9.52684
      vertex 4.92662 4.92662 9.17978
    endloop
  endfacet
  facet normal 0 0.866026 0.5
    outer loop
      vertex 4.92662 4.92662 9.17978
      vertex 19.0378 4.72624 9.52684
      vertex 19.0378 4.92662 9.17978
    endloop
  endfacet
  facet normal 0 0.5 0.866026
    outer loop
      vertex 4.92662 4.72624 9.52684
      vertex 4.92662 4.37918 9.72722
      vertex 19.0378 4.37918 9.72722
    endloop
  endfacet
  facet normal 0 0.5 0.866026
    outer loop
      vertex 19.0378 4.72624 9.52684
      vertex 4.92662 4.72624 9.52684
      vertex 19.0378 4.37918 9.72722
    endloop
  endfacet
  facet normal 0.132788 0.495572 0.858357
    outer loop
      vertex 19.0378 4.72624 9.52684
      vertex 19.0378 4.37918 9.72722
      vertex 19.3115 4.6529 9.52684
    endloop
  endfacet
  facet normal 0.132788 0.495572 0.858357
    outer loop
      vertex 19.3115 4.6529 9.52684
      vertex 19.0378 4.37918 9.72722
      vertex 19.138 4.35234 9.72722
    endloop
  endfacet
  facet normal 0.362784 0.362784 0.858356
    outer loop
      vertex 19.3115 4.6529 9.52684
      vertex 19.138 4.35234 9.72722
      vertex 19.5119 4.45253 9.52684
    endloop
  endfacet
  facet normal 0.362784 0.362784 0.858356
    outer loop
      vertex 19.5119 4.45253 9.52684
      vertex 19.138 4.35234 9.72722
      vertex 19.2113 4.279 9.72722
    endloop
  endfacet
  facet normal 0.495572 0.132788 0.858357
    outer loop
      vertex 19.5119 4.45253 9.52684
      vertex 19.2113 4.279 9.72722
      vertex 19.2382 4.17881 9.72722
    endloop
  endfacet
  facet normal 0.495572 0.132788 0.858357
    outer loop
      vertex 19.5119 4.45253 9.52684
      vertex 19.2382 4.17881 9.72722
      vertex 19.5852 4.17881 9.52684
    endloop
  endfacet
  facet normal 0.5 0 0.866026
    outer loop
      vertex 19.2382 4.17881 9.72722
      vertex 19.2382 0.774192 9.72722
      vertex 19.5852 0.774192 9.52684
    endloop
  endfacet
  facet normal 0.5 0 0.866026
    outer loop
      vertex 19.5852 4.17881 9.52684
      vertex 19.2382 4.17881 9.72722
      vertex 19.5852 0.774192 9.52684
    endloop
  endfacet
  facet normal 0.617566 0.617566 0.487058
    outer loop
      vertex 19.4117 4.82643 9.17978
      vertex 19.3115 4.6529 9.52684
      vertex 19.5119 4.45253 9.52684
    endloop
  endfacet
  facet normal 0.617566 0.617566 0.487058
    outer loop
      vertex 19.6854 4.55271 9.17978
      vertex 19.4117 4.82643 9.17978
      vertex 19.5119 4.45253 9.52684
    endloop
  endfacet
  facet normal 0.707107 0.707107 0
    outer loop
      vertex 19.5852 4.6529 6.27564
      vertex 19.4117 4.82643 6.37583
      vertex 19.4117 4.82643 9.17978
    endloop
  endfacet
  facet normal 0.707107 0.707107 0
    outer loop
      vertex 19.6854 4.55271 6.10211
      vertex 19.5852 4.6529 6.27564
      vertex 19.6854 4.55271 9.17978
    endloop
  endfacet
  facet normal 0.707107 0.707107 0
    outer loop
      vertex 19.6854 4.55271 9.17978
      vertex 19.5852 4.6529 6.27564
      vertex 19.4117 4.82643 9.17978
    endloop
  endfacet
  facet normal 0.5 0 0.866026
    outer loop
      vertex 19.2382 40.8471 6.47602
      vertex 19.2382 4.87293 6.47602
      vertex 19.4117 4.82643 6.37583
    endloop
  endfacet
  facet normal 0.5 0 0.866026
    outer loop
      vertex 19.5852 4.6529 6.27564
      vertex 19.2382 40.8471 6.47602
      vertex 19.4117 4.82643 6.37583
    endloop
  endfacet
  facet normal 0.5 0 0.866026
    outer loop
      vertex 19.5852 4.6529 6.27564
      vertex 19.4117 40.8936 6.37583
      vertex 19.2382 40.8471 6.47602
    endloop
  endfacet
  facet normal 0.5 0 0.866026
    outer loop
      vertex 19.5852 4.6529 6.27564
      vertex 19.5852 41.0671 6.27564
      vertex 19.4117 40.8936 6.37583
    endloop
  endfacet
  facet normal 0.707107 -0.707107 0
    outer loop
      vertex 19.4117 40.8936 9.17978
      vertex 19.4117 40.8936 6.37583
      vertex 19.5852 41.0671 6.27564
    endloop
  endfacet
  facet normal 0.707107 -0.707107 0
    outer loop
      vertex 19.6854 41.1673 6.10211
      vertex 19.4117 40.8936 9.17978
      vertex 19.5852 41.0671 6.27564
    endloop
  endfacet
  facet normal 0.707107 -0.707107 0
    outer loop
      vertex 19.6854 41.1673 6.10211
      vertex 19.6854 41.1673 9.17978
      vertex 19.4117 40.8936 9.17978
    endloop
  endfacet
  facet normal 0.617566 -0.617566 0.487058
    outer loop
      vertex 19.5119 41.2675 9.52684
      vertex 19.4117 40.8936 9.17978
      vertex 19.6854 41.1673 9.17978
    endloop
  endfacet
  facet normal 0.5 0 0.866026
    outer loop
      vertex 19.2382 44.9458 9.72722
      vertex 19.2382 41.5412 9.72722
      vertex 19.5852 41.5412 9.52684
    endloop
  endfacet
  facet normal 0.5 0 0.866026
    outer loop
      vertex 19.5852 44.9458 9.52684
      vertex 19.2382 44.9458 9.72722
      vertex 19.5852 41.5412 9.52684
    endloop
  endfacet
  facet normal 0.495572 -0.132788 0.858357
    outer loop
      vertex 19.5852 41.5412 9.52684
      vertex 19.2382 41.5412 9.72722
      vertex 19.5119 41.2675 9.52684
    endloop
  endfacet
  facet normal 0.617566 -0.617566 0.487058
    outer loop
      vertex 19.5119 41.2675 9.52684
      vertex 19.3115 41.0671 9.52684
      vertex 19.4117 40.8936 9.17978
    endloop
  endfacet
  facet normal 0.362784 -0.362784 0.858356
    outer loop
      vertex 19.5119 41.2675 9.52684
      vertex 19.138 41.3677 9.72722
      vertex 19.3115 41.0671 9.52684
    endloop
  endfacet
  facet normal 0.362784 -0.362784 0.858356
    outer loop
      vertex 19.2113 41.441 9.72722
      vertex 19.138 41.3677 9.72722
      vertex 19.5119 41.2675 9.52684
    endloop
  endfacet
  facet normal 0.495572 -0.132788 0.858357
    outer loop
      vertex 19.2382 41.5412 9.72722
      vertex 19.2113 41.441 9.72722
      vertex 19.5119 41.2675 9.52684
    endloop
  endfacet
  facet normal 0.132788 -0.495572 0.858357
    outer loop
      vertex 19.138 41.3677 9.72722
      vertex 19.0378 41.3408 9.72722
      vertex 19.3115 41.0671 9.52684
    endloop
  endfacet
  facet normal 0.132788 -0.495572 0.858357
    outer loop
      vertex 19.0378 41.3408 9.72722
      vertex 19.0378 40.9938 9.52684
      vertex 19.3115 41.0671 9.52684
    endloop
  endfacet
  facet normal 0.226045 -0.84361 0.487058
    outer loop
      vertex 19.0378 40.9938 9.52684
      vertex 19.0378 40.7934 9.17978
      vertex 19.3115 41.0671 9.52684
    endloop
  endfacet
  facet normal 0.258819 -0.965926 0
    outer loop
      vertex 19.0378 40.7934 9.17978
      vertex 19.0378 40.7934 6.47602
      vertex 19.2382 40.8471 6.47602
    endloop
  endfacet
  facet normal 0.258819 -0.965926 0
    outer loop
      vertex 19.4117 40.8936 6.37583
      vertex 19.0378 40.7934 9.17978
      vertex 19.2382 40.8471 6.47602
    endloop
  endfacet
  facet normal 0.258819 -0.965926 0
    outer loop
      vertex 19.4117 40.8936 6.37583
      vertex 19.4117 40.8936 9.17978
      vertex 19.0378 40.7934 9.17978
    endloop
  endfacet
  facet normal 0.226045 -0.84361 0.487058
    outer loop
      vertex 19.3115 41.0671 9.52684
      vertex 19.0378 40.7934 9.17978
      vertex 19.4117 40.8936 9.17978
    endloop
  endfacet
  facet normal 0.258819 0.965926 0
    outer loop
      vertex 19.0378 4.92662 6.47602
      vertex 19.0378 4.92662 9.17978
      vertex 19.2382 4.87293 6.47602
    endloop
  endfacet
  facet normal 0.258819 0.965926 0
    outer loop
      vertex 19.2382 4.87293 6.47602
      vertex 19.0378 4.92662 9.17978
      vertex 19.4117 4.82643 9.17978
    endloop
  endfacet
  facet normal 0.258819 0.965926 0
    outer loop
      vertex 19.2382 4.87293 6.47602
      vertex 19.4117 4.82643 9.17978
      vertex 19.4117 4.82643 6.37583
    endloop
  endfacet
  facet normal 0.226045 0.84361 0.487058
    outer loop
      vertex 19.0378 4.92662 9.17978
      vertex 19.0378 4.72624 9.52684
      vertex 19.3115 4.6529 9.52684
    endloop
  endfacet
  facet normal 0.226045 0.84361 0.487058
    outer loop
      vertex 19.4117 4.82643 9.17978
      vertex 19.0378 4.92662 9.17978
      vertex 19.3115 4.6529 9.52684
    endloop
  endfacet
endsolid OpenSCAD_Model
